<?xml version="1.0" encoding="utf-8"?>
<!-- Generator: Adobe Illustrator 24.3.0, SVG Export Plug-In . SVG Version: 6.00 Build 0)  -->
<svg version="1.1" id="bears" xmlns="http://www.w3.org/2000/svg" xmlns:xlink="http://www.w3.org/1999/xlink" x="0px" y="0px"
	 viewBox="0 0 1017 686.1" style="enable-background:new 0 0 1017 686.1;" xml:space="preserve">
<style type="text/css">
	.st0{fill:#0B162A;}
	.st1{fill:#FFFFFF;}
	.st2{fill:#C83803;}
</style>
<g>
	<path class="st0" d="M857.2,359.5c-10.7,0-21.3,0-32,0c-3.1,0-9.4-1.3-12.2,0c-2.5,1.2-4.4,6.9-5.8,9.5
		c-3.9,7.2-7.9,14.4-11.8,21.7c-7.3,13.3-14.9,25.8-25.2,37c-13.2,14.4-28.6,26.7-45,37.2c-33.1,21.2-71.1,34.7-109.6,42.2
		c-80.5,15.8-165.8,3.4-238.2-35.1c-32.5-17.3-59.8-41.4-80.6-71.9c-22.7-33.2-20.9-76.4-1.6-110.6c19.2-34,50.9-59.5,84.8-77.9
		c32.4-17.5,66.5-28.8,103-34c40.5-5.7,82.6-5.8,123,0.4c40.1,6.1,82.5,18.9,117.7,39.2c9.7,5.6,18.2,13.5,26.8,20.7
		c2.2,1.9,4.6,4.8,7.3,5.4c3.5,0.9,8.4,0,12.1,0c10.7,0,21.4,0,32.2,0c64.7,0.1,129.3,0.3,194,1.3c7,0.1,13.9,0.2,20.9,0.3
		c-11.1-13.9-22.2-27.8-33.2-41.8c-9-11.5-18-23-27.3-34.3c-8.7-10.7-19-20.1-28.9-29.6c-16.8-16.2-36.1-29.7-54.9-43.4
		c-20.3-14.6-41.7-27.9-64.2-39c-39.6-19.6-82-33-125.2-41.9C581-6.2,473.6-6.5,373.3,24.5c-48.4,15-95.8,35.6-137.7,64.3
		c-19.6,13.4-38,28.4-54,45.9c-15.8,17.4-31.6,35.4-43.9,55.5C112.3,231.6,99,282.9,59,313.5c-16.2,12.4-32.8,24.2-49.2,36.3
		c-3.3,2.4-6.5,4.8-9.8,7.2c16.3,11,32.6,22,48.9,33c11.6,7.8,22.8,16.7,32.1,27.2c17.1,19.3,27.9,43.7,42.1,65.1
		c24.9,37.7,55.5,71,91.4,98.6c20.3,15.6,42.4,29,64.8,41.3c20.9,11.5,41.8,22.1,64.2,30.3c44.1,16.1,90.3,23,136.6,29.2
		c49.5,6.6,99.1,5.5,148.5-1.3c101.7-14,202.9-49.3,280.7-118.4c17.4-15.5,32.8-32.9,47.6-50.8c15.7-18.9,29.5-40.4,38.5-63.3
		c9.4-23.8,11.9-48.8,15.4-73.9c0.7-4.7,1.3-9.5,2-14.2c-18.2,0-36.4,0-54.6,0C924.6,359.6,890.9,359.6,857.2,359.5z M985.7,383.1
		l-3.9,27c-1.4,9.4-4.3,17.6-6.6,24.1c-2.3,6.3-6.5,16.4-11.1,24.2c-3.7,6.3-6.4,10.8-10.6,17.4c-7.2,11.3-15.5,20.8-23.5,30.1
		c-1.9,2.2-3.8,4.5-5.7,6.7c-20,23.6-44.7,45.1-73.6,64.1c-53,34.8-114.5,59.7-177.8,72c-48.1,9.3-88.1,13.7-125.7,13.7
		c-19.5,0-38.8-1.2-57.5-3.6c-14.6-1.8-29.2-4-43.4-6.1l-7-1c-53.2-7.8-98.3-22.4-138-44.6c-3.1-1.8-6.3-3.6-9.5-5.3
		c-12.4-6.7-25.1-13.7-37.3-22.1c-2.3-1.7-4.7-3.2-7.2-4.9c-5-3.3-10.2-6.7-15.3-10.6c-8.4-6.3-12.7-10-16.9-13.6
		c-1.4-1.1-2.7-2.3-4.3-3.6c-14.9-12.5-26.3-25-37.2-37.2c-9.3-10.3-19.3-23.7-30.7-40.8c-5.8-8.7-11-17.5-16-26
		c-10.8-18.5-21.1-35.9-35.7-49.5c-8.9-8.2-17.6-15.6-22.1-18.6l-27.9-18.8l27.1-19.9c13.9-10.3,23.2-18.3,32.3-31.1
		c1.4-2,2.9-4,4.4-6.1c4.1-5.6,7.9-10.8,10.6-15.8c1.5-2.9,3.2-5.9,4.8-8.9c8.4-15.4,17.1-31.3,23.8-46c9.1-20,20.3-37.8,33.5-53
		c2.7-3.1,5.3-6.3,7.9-9.3c9.4-11.1,19.1-22.5,31.8-33.5c31.4-27.1,68.6-49.3,113.9-67.8c52-21.3,104.3-34.3,155.4-38.8
		c17.9-1.5,35.5-2.3,52.4-2.3c8.5,0,16.9,0.2,25.1,0.6c97.2,4.7,179.3,24.6,244,59c18.9,10.1,37.5,22,56.8,36.5
		c3.3,2.5,6.7,5,10,7.4c11,8.1,22.4,16.5,33.1,26.4c5,4.7,24.4,23.7,26.4,26c8.8,9.8,32.8,41.2,32.8,41.2l-49.6-0.7l-143.4-0.2h-8.7
		l-6.6-5.6c-6.8-5.7-18.8-15.1-24.5-18c-9.8-5.1-20.3-10.1-30.1-14.5c-11.5-5.1-23.7-9-36.5-13c-2.1-0.7-4.3-1.4-6.5-2.1
		c-28.6-9.1-60-14.5-93.2-16.1c-8.5-0.4-17-0.6-25.2-0.6c-62.7,0-116.6,11.3-160.3,33.6c-14.9,7.6-30.5,15.9-43.6,25.6
		c-16.4,12.1-33.5,25.8-48.3,44.7c-14.7,18.7-24.7,37.7-29.8,56.4c-4.8,17.7-5.9,36.5-3.1,54.4c2.8,18,9.4,34.5,19.5,49
		c21.5,30.8,44.9,53.2,73.7,70.6c36.4,22,80.2,38.2,126.6,47.1c21.8,4.2,44.6,6.3,67.8,6.3c58.2,0,117.4-13.5,166.6-38.1
		c43.3-21.6,80-53.8,98-86.1c0.6-1.2,6.3-11.5,9.7-17.8l6.7-12.4h14.1l117.7,0.1L985.7,383.1z"/>
	<path class="st1" d="M958.3,383.3l-117.7-0.1h-14.1l-6.7,12.4c-3.4,6.3-9.1,16.6-9.7,17.8c-18,32.3-54.7,64.5-98,86.1
		c-49.2,24.6-108.4,38.1-166.6,38.1c-23.2,0-46-2.1-67.8-6.3c-46.4-8.9-90.2-25.1-126.6-47.1c-28.8-17.4-52.2-39.8-73.7-70.6
		c-10.1-14.5-16.7-31-19.5-49c-2.8-17.9-1.7-36.7,3.1-54.4c5.1-18.7,15.1-37.7,29.8-56.4c14.8-18.9,31.9-32.6,48.3-44.7
		c13.1-9.7,28.7-18,43.6-25.6c43.7-22.3,97.6-33.6,160.3-33.6c8.2,0,16.7,0.2,25.2,0.6c33.2,1.6,64.6,7,93.2,16.1
		c2.2,0.7,4.4,1.4,6.5,2.1c12.8,4,25,7.9,36.5,13c9.8,4.4,20.3,9.4,30.1,14.5c5.7,2.9,17.7,12.3,24.5,18l6.6,5.6h8.7l143.4,0.2
		l49.6,0.7c0,0-24-31.4-32.8-41.2c-2-2.3-21.4-21.3-26.4-26c-10.7-9.9-22.1-18.3-33.1-26.4c-3.3-2.4-6.7-4.9-10-7.4
		c-19.3-14.5-37.9-26.4-56.8-36.5c-64.7-34.4-146.8-54.3-244-59c-8.2-0.4-16.6-0.6-25.1-0.6c-16.9,0-34.5,0.8-52.4,2.3
		c-51.1,4.5-103.4,17.5-155.4,38.8c-45.3,18.5-82.5,40.7-113.9,67.8c-12.7,11-22.4,22.4-31.8,33.5c-2.6,3-5.2,6.2-7.9,9.3
		c-13.2,15.2-24.4,33-33.5,53c-6.7,14.7-15.4,30.6-23.8,46c-1.6,3-3.3,6-4.8,8.9c-2.7,5-6.5,10.2-10.6,15.8c-1.5,2.1-3,4.1-4.4,6.1
		c-9.1,12.8-18.4,20.8-32.3,31.1l-27.1,19.9l27.9,18.8c4.5,3,13.2,10.4,22.1,18.6c14.6,13.6,24.9,31,35.7,49.5
		c5,8.5,10.2,17.3,16,26c11.4,17.1,21.4,30.5,30.7,40.8c10.9,12.2,22.3,24.7,37.2,37.2c1.6,1.3,2.9,2.5,4.3,3.6
		c4.2,3.6,8.5,7.3,16.9,13.6c5.1,3.9,10.3,7.3,15.3,10.6c2.5,1.7,4.9,3.2,7.2,4.9c12.2,8.4,24.9,15.4,37.3,22.1
		c3.2,1.7,6.4,3.5,9.5,5.3c39.7,22.2,84.8,36.8,138,44.6l7,1c14.2,2.1,28.8,4.3,43.4,6.1c18.7,2.4,38,3.6,57.5,3.6
		c37.6,0,77.6-4.4,125.7-13.7c63.3-12.3,124.8-37.2,177.8-72c28.9-19,53.6-40.5,73.6-64.1c1.9-2.2,3.8-4.5,5.7-6.7
		c8-9.3,16.3-18.8,23.5-30.1c4.2-6.6,6.9-11.1,10.6-17.4c4.6-7.8,8.8-17.9,11.1-24.2c2.3-6.5,5.2-14.7,6.6-24.1l3.9-27L958.3,383.3z
		 M952.9,426.5c-2.2,6.2-5.9,14.6-9.2,20.2c-3.7,6.3-6.2,10.5-10.1,16.6c-7.9,12.4-17.8,23-27.3,34.2
		c-19.6,23.2-43.1,42.9-68.5,59.6c-51.1,33.6-109.3,56.9-169.3,68.5c-59.1,11.5-116,17.5-175.8,9.9c-16.7-2.1-33.3-4.6-49.9-7.1
		c-45.5-6.8-89.3-19.2-129.9-41.9c-15.1-8.4-30.7-16.4-44.9-26.2c-7.2-5-14.8-9.6-21.7-14.9c-10.5-7.9-13.9-11.2-20.3-16.5
		c-13.3-11.2-23.6-22.4-34.8-34.9c-10.2-11.2-20.2-25.4-28.6-38c-18.1-27.4-30.9-57.1-55.3-79.8c-1.9-1.7-16.1-14.9-25-20.9
		c15.2-11.2,26.5-20.9,37.6-36.5c5.6-7.9,11.9-15.9,16.5-24.3c9.7-17.8,21-37.8,29.4-56.4c7.8-17.1,17.6-33.2,29.8-47.2
		c12.6-14.5,22.8-27.9,37.3-40.4c32.1-27.7,68.1-47.7,107.4-63.8c47.5-19.4,97.3-32.6,148.5-37.1c24.5-2.2,49.6-2.9,74.2-1.7
		c79.5,3.8,163.1,18.5,234.3,56.3c18.8,10.1,36.7,21.8,53.7,34.6c13.9,10.5,28.4,20.3,41.2,32.2c4.9,4.5,25.8,25.4,25.8,25.4
		l-143.4-0.2c0,0-18.3-15.5-29-21c-10.1-5.2-20.9-10.4-31.2-15c-14.8-6.7-30-11.2-45.5-16.1c-32.2-10.3-65.6-15.6-99.3-17.2
		c-66.7-3.1-137.4,5-197.5,35.6c-16,8.1-32.5,17-46.9,27.6c-20.1,14.8-37.4,29.3-52.9,49.1c-15.1,19.3-27.5,41-34,64.8
		c-5.7,20.6-7,43-3.7,64.2c3.3,21.4,11,41.2,23.4,59c22,31.6,47.7,57.4,80.9,77.4c41,24.7,87.5,41.1,134.4,50.1
		c82.1,15.7,174.4,3.5,249.4-33.9c41.7-20.8,85.1-54.5,108.1-95.8c0.9-1.8,9.8-18.1,9.8-18.1l117.7,0.1
		C957.4,413.8,955.2,420,952.9,426.5z"/>
	<path class="st2" d="M840.6,406.9c0,0-8.9,16.3-9.8,18.1c-23,41.3-66.4,75-108.1,95.8c-75,37.4-167.3,49.6-249.4,33.9
		c-46.9-9-93.4-25.4-134.4-50.1c-33.2-20-58.9-45.8-80.9-77.4c-12.4-17.8-20.1-37.6-23.4-59c-3.3-21.2-2-43.6,3.7-64.2
		c6.5-23.8,18.9-45.5,34-64.8c15.5-19.8,32.8-34.3,52.9-49.1c14.4-10.6,30.9-19.5,46.9-27.6c60.1-30.6,130.8-38.7,197.5-35.6
		c33.7,1.6,67.1,6.9,99.3,17.2c15.5,4.9,30.7,9.4,45.5,16.1c10.3,4.6,21.1,9.8,31.2,15c10.7,5.5,29,21,29,21l143.4,0.2
		c0,0-20.9-20.9-25.8-25.4c-12.8-11.9-27.3-21.7-41.2-32.2c-17-12.8-34.9-24.5-53.7-34.6C726.1,66.4,642.5,51.7,563,47.9
		c-24.6-1.2-49.7-0.5-74.2,1.7c-51.2,4.5-101,17.7-148.5,37.1c-39.3,16.1-75.3,36.1-107.4,63.8c-14.5,12.5-24.7,25.9-37.3,40.4
		c-12.2,14-22,30.1-29.8,47.2c-8.4,18.6-19.7,38.6-29.4,56.4c-4.6,8.4-10.9,16.4-16.5,24.3c-11.1,15.6-22.4,25.3-37.6,36.5
		c8.9,6,23.1,19.2,25,20.9c24.4,22.7,37.2,52.4,55.3,79.8c8.4,12.6,18.4,26.8,28.6,38c11.2,12.5,21.5,23.7,34.8,34.9
		c6.4,5.3,9.8,8.6,20.3,16.5c6.9,5.3,14.5,9.9,21.7,14.9c14.2,9.8,29.8,17.8,44.9,26.2c40.6,22.7,84.4,35.1,129.9,41.9
		c16.6,2.5,33.2,5,49.9,7.1c59.8,7.6,116.7,1.6,175.8-9.9c60-11.6,118.2-34.9,169.3-68.5c25.4-16.7,48.9-36.4,68.5-59.6
		c9.5-11.2,19.4-21.8,27.3-34.2c3.9-6.1,6.4-10.3,10.1-16.6c3.3-5.6,7-14,9.2-20.2c2.3-6.5,4.5-12.7,5.4-19.5L840.6,406.9z"/>
</g>
</svg>
