<?xml version="1.0" encoding="utf-8"?>
<!-- Generator: Adobe Illustrator 25.0.0, SVG Export Plug-In . SVG Version: 6.00 Build 0)  -->
<svg version="1.1" id="Layer_1" xmlns="http://www.w3.org/2000/svg" xmlns:xlink="http://www.w3.org/1999/xlink" x="0px" y="0px"
	 viewBox="0 0 477.5 448.9" style="enable-background:new 0 0 477.5 448.9;" xml:space="preserve">
<style type="text/css">
	.st0{fill:#FFFFFF;}
	.st1{fill:#B1063A;}
	.st2{fill:#FFC20E;}
</style>
<g>
	<path class="st0" d="M378.7,258.6c2.4,0.3,4.8,0.5,7.2,0.5c-21.4,48.2-86,17.4-82.6-51.3c11.6,14.4,26.7,28.9,43.2,38.9l-18.9-1.1
		C337.1,276.6,363.2,283.5,378.7,258.6z M476.7,364c-35.5-7.5-106-0.2-146.3,84.9c0,0-68.8-82.1-164.3-96.5
		c3.8-45.7-56.7-57.8-68.3-136.4c0,0-47-38.5-70.5-99.1l12.5,4c0,0-18.3-20.2-32.3-55.1l13.2,4.4C20.7,70.2,7.3,52,0,0
		c162.2,111.5,247.6,72.6,346.3,128.4c67,37.9,82.9,81.9,88.5,125.9C434.8,254.3,484.4,299.2,476.7,364z M427.7,260.2
		c-4.7-34.9-17.3-85.3-84.9-122.5C240.3,81.1,183.6,127.3,21.9,28.3c3.4,18.5,14,44.1,27.6,60l-16.7-5.5
		c12.2,25.6,31.6,48.8,41.8,56.4l-18.7-5.9c19.9,48.7,58.6,77.5,58.6,77.5c8.8,74.6,63.5,87.3,67.9,133.1
		c71.3,11,146.6,87.3,146.6,87.3c39.4-67.8,94.4-80.9,141-76.7C471.1,299.3,427.7,260.2,427.7,260.2z"/>
	<path d="M427.7,260.2c-4.7-34.9-17.3-85.3-84.9-122.5C240.3,81.1,183.6,127.3,21.9,28.3c3.4,18.5,14,44.1,27.6,60l-16.7-5.5
		c12.2,25.6,31.6,48.8,41.8,56.4l-18.7-5.9c19.9,48.7,58.6,77.5,58.6,77.5c8.8,74.6,63.5,87.3,67.9,133.1
		c71.3,11,146.6,87.3,146.6,87.3c39.4-67.8,94.4-80.9,141-76.7C471.1,299.3,427.7,260.2,427.7,260.2z M281.3,371.3
		c-24.1-20.7-55-36.6-78.9-45.8c-2.8-29.6-55.8-62.6-60.2-100.9l34.2,2.5c0,0-55.7-27.5-80.2-68.3l59.2,19.1
		c0,0-66.2-35.1-82.4-63.2l63.5,20.6c0,0-71.8-40.2-83.3-74.5c116,71.9,206.8,45.4,281.1,86.2c70.7,38.7,73.9,76.6,79.1,100.5
		c-69.2,12.9-65.9-76.5-186.5-83.8C314.6,272.2,327.3,348.7,281.3,371.3z M303.4,207.8c11.6,14.4,26.7,28.9,43.2,38.9l-18.9-1.1
		c9.3,31.1,35.5,38,51,13.1c2.4,0.3,4.8,0.5,7.2,0.5C364.6,307.3,300,276.5,303.4,207.8z M369,363.7c7.1-24.2-5.8-46.2-5.8-46.1
		c37.8-3.7,79.5,13.8,96.4,28.1C433.2,340.3,397.1,348,369,363.7z M365.8,301.2c18.4-5.1,39.3-16.4,47.9-33.9
		c18.3,11.5,43.7,44.6,47.6,73C444.4,323.5,408.9,306.4,365.8,301.2z"/>
	<path class="st1" d="M334.3,147C260,106.2,169.2,132.7,53.2,60.8c11.5,34.3,83.3,74.5,83.3,74.5L73,114.7
		c16.2,28.1,82.4,63.2,82.4,63.2l-59.2-19.1c24.5,40.8,80.2,68.3,80.2,68.3l-34.2-2.5c4.4,38.3,57.4,71.3,60.2,100.9
		c23.9,9.2,54.8,25.1,78.9,45.8c46-22.6,33.3-99.1-54.4-207.6c120.6,7.3,117.3,96.7,186.5,83.8C408.2,223.6,405,185.7,334.3,147"/>
	<path class="st2" d="M461.3,340.3c-16.9-16.8-52.4-33.9-95.5-39.1c18.4-5.1,39.3-16.4,47.9-33.9C432,278.8,457.4,311.9,461.3,340.3
		 M369,363.7c28.1-15.7,64.2-23.4,90.6-18c-16.9-14.3-58.6-31.8-96.4-28.1C363.2,317.5,376.1,339.5,369,363.7"/>
</g>
</svg>
