<?xml version="1.0" encoding="utf-8"?>
<!-- Generator: Adobe Illustrator 25.0.0, SVG Export Plug-In . SVG Version: 6.00 Build 0)  -->
<svg version="1.1" id="Layer_1" xmlns="http://www.w3.org/2000/svg" xmlns:xlink="http://www.w3.org/1999/xlink" x="0px" y="0px"
	 viewBox="0 0 974.8 619.2" style="enable-background:new 0 0 974.8 619.2;" xml:space="preserve">
<style type="text/css">
	.st0{fill:#FFFFFF;}
	.st1{fill:#030303;}
	.st2{fill:#E21D38;}
</style>
<g>
	<path class="st0" d="M40.9,431.6c0.8-18.3-0.3-36.4-6.7-53.8c-4.3-11.8-4.7-24.2-5.8-36.5c-2.2-24.2,1.5-47.1,12-68.9
		c4.5-9.2,10.6-17.6,15-26.9c6.8-14.4,7-28.8,2.8-43.7c-2.3-8.2-1.8-16.2,1.5-24c5.2-12.1,15.6-17.9,28.4-15c8.7,2,16.7,1,24.5-2.5
		c7-3.1,13.8-2.7,20.6-0.2c4.5,1.6,9,3.4,13.5,5.2c17.8,7.3,33.4,2.1,47.8-8.8c5.2-3.9,6.2-10.3,8-16.1c4.3-13.9,3.2-27.5-1.2-41.3
		c-4.6-14.4-9.4-28.7-12.4-43.5c-1.1-5.1-1-10.3-0.7-15.4c0.3-7.3,6.2-11.4,14.7-11c12.7,0.6,25.4,2,37.9,4
		c18.5,2.9,37.1,3.5,55.8,2.1c17.8-1.4,34.6,2.1,49.5,12.6c15.4,10.8,32.2,11.7,49.9,7.8c9.3-2,18.6-3.9,28.2-2.6
		c1.4,0.2,2.9,0.3,4.2,0.9c13.2,5.7,27.4,9.2,39.6,17.2c19.6,12.8,41,19.7,64.7,18.8c18.7-0.7,35.8,4.2,51.1,15.6
		c14.4,10.8,31.5,14.7,49.1,15.1c14.7,0.3,27.4,4.4,38.6,13.9c6.8,5.7,14.3,10.5,20.9,16.3c12.1,10.8,26.6,13.7,41.9,14.7
		c3.9,0.2,7.7,0.3,11.6,0.4c18.6,0.6,31.8,10.7,43.2,24.1c6.2,7.2,10.5,15.8,17.5,22.4c5.2,4.9,10.9,8.5,17.9,10
		c11.1,2.3,21.3,7.1,31.7,11.1c4.8,1.8,9.5,4.5,12.7,8.6c14.8,19,34.8,31.8,53.9,45.7c5.1,3.7,10.1,7.5,14.9,11.5
		c3.9,3.3,7.4,7.2,9.1,12.3c2.3,6.5,1.1,11.2-4.5,15.3c-9.9,7.3-21,12.6-33,15.5c-19.2,4.7-35.5,13.7-48.5,28.9
		c-6.1,7.2-13.2,13.7-19.9,20.4c-7.8,7.6-16.6,13.2-27.2,16.7c-19,6.1-36.2,15.7-50.8,29.6c-13.1,12.5-29.5,18-46.8,21.3
		c-22.3,4.2-42.4,12.7-59.9,27.2c-12.3,10.2-26.5,16.2-42.4,18.3c-13.3,1.8-25.9,6-37.7,12.7c-15.3,8.7-32,12-49.5,12.2
		c-17.5,0.2-33.6,5.7-47.9,15.7c-16.1,11.4-34.2,16-53.6,16.6c-15.2,0.5-30.1,2.3-44.9,5.7c-6.6,1.5-13,4-18.9,7.2
		c-13.6,7.4-28.1,9.5-43.3,9.6c-12.1,0.1-24.1-0.8-36.2-1.6c-17.3-1.2-34.3,1.7-51.3,4.8c-14.7,2.6-29.5,3.1-44.3,2.4
		c-7.5-0.4-10.2-6.6-12.6-12.4c-1.6-3.9-1.2-8.2-0.8-12.4c2.3-20.5,8.1-40.4,11.6-60.6c1.8-10.4,3.2-20.7,0.5-31.1
		c-2.8-10.7-9.5-17.5-20.5-20.1c-12.8-3-25.1-0.9-37,3.1c-9.3,3.1-17.9,3.2-27.2-0.3c-8.6-3.3-17.6-3.1-26.5-0.1
		c-7.3,2.5-14.6,5.2-22.2,6.4c-6.4,1-9.4-0.9-11-7.2C38.9,447.3,40.8,439.4,40.9,431.6z M418.4,268.4c-2.6,1.9-4.9,3.6-7.3,5.3
		c-17.1,12.6-30.4,28.3-37.7,48.4c-13.5,37.6-9.2,72.4,17.6,103.3c13.9,16,31.6,26.1,51,33.9c41,16.4,83.7,20.3,127.5,17.9
		c31.9-1.8,62.2-8.8,91.4-21.7c26.4-11.7,48.9-28.3,66.4-51.4c9.8-12.9,16.2-27.3,17.1-43.8c0.1-1.9,0.5-3.7-2.8-3.6
		c-14.2,0.2-28.4,0.1-42.5,0.1c-1.4,0-2.6-0.2-3.3,1.8c-5.2,14.5-16.2,24.1-29.2,30.9c-49.1,25.7-100.9,30.9-154.6,18.9
		c-23.2-5.2-42-17.5-55.1-37.8c-11.2-17.4-9.1-36.4,5.1-50.1c2.8-2.7,4.6-3.1,7.1,0.3c1.4,1.9,1.3,2.6-0.1,4.3c-2.5,3.1-7.1,5-7,9.8
		c0.1,9.3,0.7,18.7,0.6,28c0,3.8,1.2,4.4,4.6,4.4c33-0.1,66.1-0.8,99.1,0.3c13.7,0.4,24.3-2.5,32.6-13.5c1.1-1.5,2-2.6,2-4.6
		c-0.1-10.6-0.1-21.3,0-31.9c0-2.5-0.6-3.8-3.2-3.3c-4.9,1-8.1-1.4-10.9-5.1c-2-2.5-4.4-4.7-6.5-7.1c-10.1-11-20.2-21.9-30.7-33.2
		c10.3-2.2,20.1-3.7,30.1-4.2c27.2-1.6,52.8,3.4,75.7,18.9c15.2,10.3,26.9,23.9,36.6,39.3c1.6,2.5,3.2,3.5,6.1,3.4
		c8.2-0.2,16.4-0.2,24.7,0c2.6,0,4.5-0.7,6.3-2.7c4.2-4.4,10.3-8,12.5-13.2c2.2-5.2,0.6-12,0.6-18.2c0-1.8,0-3.5,0-5.3
		c0-21.1,0-42.2-0.1-63.3c0-1.6,1.3-4.2-2.2-4.1c-17,0.1-34.6-3-48.7,10.6c-0.2,0.2-0.6,0.3-0.8,0.5c-1.7,1.5-3.3,1.3-5.3,0.4
		c-6.9-2.9-13.9-5.9-21-8.4c-32.7-11.6-66.3-17-101-13.1c-17.8,2-35.1,6-52.2,11.4c-1.8,0.6-3.7,2.4-5.7,0.1
		c-2.3-2.6-4.8-5.1-7.5-7.8c13.5-8.1,26.8-15.5,39.6-23.9c8-5.3,16.2-8.3,25.7-6.8c12.1,1.9,22-1.6,29.3-11.6
		c0.2-0.3,0.4-0.5,0.7-0.7c2-1.5,2.5-3.5,2.4-5.9c-0.1-7.9-0.2-15.8,0.2-23.7c0.2-3.5-0.8-4-3.9-4c-39.3,0.1-78.7,0.1-118,0
		c-1.8,0-3.3,0.3-4.7,1.7c-11.6,10.9-11.6,10.9-11.6,26.8c0,0.5-0.1,1,0,1.4c0.7,3.6-1.1,5.4-4.1,7.1
		c-36.3,20.7-72.6,41.5-108.8,62.2c-1.1,0.6-1.9,1.7-3.6,1.4c0-15.5,0.1-30.9-0.1-46.3c0-3,0.9-5.1,2.9-7.2
		c5.3-5.6,13.2-9.8,15.5-16.8c2.3-7.2,0.5-15.6,0.6-23.5c0-1.1-0.1-2.3,0-3.4c0.4-3.1-0.9-3.7-3.8-3.7c-38.7,0.1-77.4,0.1-116,0
		c-2.1,0-3.5,0.6-4.9,2.3c-4.3,5.3-8.7,10.3-13.2,15.4c-1,1.1-1.8,2.1-1.7,3.8c0.1,6.8,0.1,13.5,0,20.3c0,2.1,0.7,2.8,2.8,2.8
		c4.7-0.1,9.4,0.1,14-0.1c2.8-0.1,3.5,0.9,3.4,3.5c-0.2,7.6-0.1,15.1-0.1,22.7c0,34,0,68,0.1,102c0,3.1-0.3,5-4,4.3
		c-1.9-0.4-2.9,0.8-4,2.1c-3.8,4.6-7.6,9.2-11.5,13.6c-1.7,2-2.4,4-2.3,6.6c0.1,8.9,0.3,17.7-0.1,26.6c-0.1,4,1,5.1,5,5
		c36.9-0.2,73.8-0.1,110.7-0.1c14.6,0,14.5,0,24.6-10.3c1.2-1.2,2-2.3,2-4.2c-0.1-12.1-0.1-24.2,0-36.3c0-2.7-1-3.3-3.4-3.2
		c-4.2,0.2-8.4,0.1-12.6,0c-1,0-2.3,0.5-3-0.8c-1.5-2.7,0.5-9.6,3.4-11.3c20.3-11.7,40.7-23.4,61-35.1
		C412.9,262.4,412.9,262.4,418.4,268.4z"/>
	<path class="st1" d="M968.7,293.8c-0.7-0.7-1.4-1.4-2-2.1c-19.2-23.6-45.4-38.8-69.7-56c-12.2-8.6-23.1-17.8-31.2-30.3
		c-4.2-6.5-9.7-11.5-16.7-15c-7-3.5-14.4-5.4-22-6.9c-14.4-2.9-26-10.1-34.4-22.2c-5.5-8-12.3-14.3-20.4-19.5
		c-13.3-8.6-28-13.4-43.2-17.2c-14.2-3.5-27.3-9-38.9-18.4c-10.2-8.2-21.6-14.6-34.7-17c-9.7-1.8-19.6-1.4-29.4-1.3
		c-20.9,0.2-39.8-6.2-56.3-18.4c-14.5-10.7-30-15.6-47.8-14.1c-17.8,1.5-34.6-1.6-50.2-10.5c-6.1-3.5-12.1-7.4-18.1-11.1
		c-6-3.7-12.2-7-19.1-8.9c-14.7-4.1-29.6-3.8-44.6-2.2c-11.7,1.2-23,2.5-33.9-4.7c-20.7-13.7-43.9-17.4-68-12.5
		c-20.6,4.2-40.8,4.1-61.2-0.5C213.7,2,200.3-0.3,186.7,0c-11.6,0.3-19.8,6.1-24.8,16.2c-6.3,12.7-4.7,26.2-1.3,39.2
		c3.3,13.1,7.9,25.8,11.8,38.7c2.9,9.8,7.3,19.2,7.5,29.8c0.4,17.2-10.9,27-26.7,22.9c-6.6-1.7-10.7-7-15.1-11.7
		c-9.6-10.2-17.4-12.1-30.3-6.7c-6.5,2.7-12.8,5.9-19.2,9.1c-10.3,5.1-20.1,6.2-29.4-2.5c-3.5-3.3-8.2-4.9-13-3.5
		c-8,2.4-14.3,6.8-16.7,15.7c-3.7,13.5-3,26.4,1.4,39.8c5.5,16.6,4.7,33.6-4.5,48.4c-10.1,16.5-16.6,34.1-21,52.5
		c-8.1,34.6-7.1,69.2,2.3,103.6c3.3,12.1,6.2,24.3,8.2,36.7c2.4,14.6,0.1,28.8-3.3,43c-1.8,7.6-0.3,14.6,6.5,19.3
		c9.4,6.6,19.6,8.8,30.5,3.6c3.2-1.5,6.5-2.9,9.5-4.7c13.6-8.4,28-10,43.1-5c7.8,2.6,15.1,1.9,22.4-1.6c6.3-3,12.8-5.1,20-4.8
		c11.4,0.5,17.3,6.4,17.5,17.9c0.2,9.5-2.6,18.4-5.4,27.3c-6.3,19.9-12.7,39.8-17.2,60.2c-3.7,16.8,3.4,28.2,19.8,33.4
		c10.1,3.2,20.4,2.7,30.5,0.3c30.4-7.2,60.9-10.1,91.8-4.1c28.8,5.6,55.9,0.9,81.8-12.4c7.9-4.1,16.5-6.3,25.2-8.1
		c12.5-2.5,25-1.8,34.9-0.8c17.4,0,26.4-2.6,40.2-10.5c20.9-12,42.6-21.6,67.1-23.7c22.3-1.9,43.6-7.2,63.3-18.5
		c8.7-5,18.6-7.2,28.7-7.4c17.2-0.2,31-7.6,42.4-20c7.5-8.1,16.8-12.8,27.2-15.7c4-1.1,8.1-1.9,12.2-3c20.4-5.3,39.8-13.2,55.8-27.3
		c9-7.9,18.6-14.2,29.8-18.1c7.6-2.7,15.2-5.3,22.9-7.6c15.6-4.7,30-11.4,40.9-24.2c4.6-5.4,8.4-11.4,12-17.5
		c7.3-12.5,18-20.8,31.8-25c5.2-1.6,10.4-3.4,15.6-4.9c29.5-8.6,45.9-31.2,59.5-56.4C976.7,304.7,974.8,299.6,968.7,293.8z
		 M942.5,326.8c-9.9,7.3-21,12.6-33,15.5c-19.2,4.7-35.5,13.7-48.5,28.9c-6.1,7.2-13.2,13.7-19.9,20.4c-7.8,7.6-16.6,13.2-27.2,16.7
		c-19,6.1-36.2,15.7-50.8,29.6c-13.1,12.5-29.5,18-46.8,21.3c-22.3,4.2-42.4,12.7-59.9,27.2c-12.3,10.2-26.5,16.2-42.4,18.3
		c-13.3,1.8-25.9,6-37.7,12.7c-15.3,8.7-32,12-49.5,12.2c-17.5,0.2-33.6,5.7-47.9,15.7c-16.1,11.4-34.2,16-53.6,16.6
		c-15.2,0.5-30.1,2.3-44.9,5.7c-6.6,1.5-13,4-18.9,7.2c-13.6,7.4-28.1,9.5-43.3,9.6c-12.1,0.1-24.1-0.8-36.2-1.6
		c-17.3-1.2-34.3,1.7-51.3,4.8c-14.7,2.6-29.5,3.1-44.3,2.4c-7.5-0.4-10.2-6.6-12.6-12.4c-1.6-3.9-1.2-8.2-0.8-12.4
		c2.3-20.5,8.1-40.4,11.6-60.6c1.8-10.4,3.2-20.7,0.5-31.1c-2.8-10.7-9.5-17.5-20.5-20.1c-12.8-3-25.1-0.9-37,3.1
		c-9.3,3.1-17.9,3.2-27.2-0.3c-8.6-3.3-17.6-3.1-26.5-0.1c-7.3,2.5-14.6,5.2-22.2,6.4c-6.4,1-9.4-0.9-11-7.2
		c-2-7.8-0.1-15.7-0.1-23.5c0.8-18.3-0.3-36.4-6.7-53.8c-4.3-11.8-4.7-24.2-5.8-36.5c-2.2-24.2,1.5-47.1,12-68.9
		c4.5-9.2,10.6-17.6,15-26.9c6.8-14.4,7-28.8,2.8-43.7c-2.3-8.2-1.8-16.2,1.5-24c5.2-12.1,15.6-17.9,28.4-15c8.7,2,16.7,1,24.5-2.5
		c7-3.1,13.8-2.7,20.6-0.2c4.5,1.6,9,3.4,13.5,5.2c17.8,7.3,33.4,2.1,47.8-8.8c5.2-3.9,6.2-10.3,8-16.1c4.3-13.9,3.2-27.5-1.2-41.3
		c-4.6-14.4-9.4-28.7-12.4-43.5c-1.1-5.1-1-10.3-0.7-15.4c0.3-7.3,6.2-11.4,14.7-11c12.7,0.6,25.4,2,37.9,4
		c18.5,2.9,37.1,3.5,55.8,2.1c17.8-1.4,34.6,2.1,49.5,12.6c15.4,10.8,32.2,11.7,49.9,7.8c9.3-2,18.6-3.9,28.2-2.6
		c1.4,0.2,2.9,0.3,4.2,0.9c13.2,5.7,27.4,9.2,39.6,17.2c19.6,12.8,41,19.7,64.7,18.8c18.7-0.7,35.8,4.2,51.1,15.6
		c14.4,10.8,31.5,14.7,49.1,15.1c14.7,0.3,27.4,4.4,38.6,13.9c6.8,5.7,14.3,10.5,20.9,16.3c12.1,10.8,26.6,13.7,41.9,14.7
		c3.9,0.2,7.7,0.3,11.6,0.4c18.6,0.6,31.8,10.7,43.2,24.1c6.2,7.2,10.5,15.8,17.5,22.4c5.2,4.9,10.9,8.5,17.9,10
		c11.1,2.3,21.3,7.1,31.7,11.1c4.8,1.8,9.5,4.5,12.7,8.6c14.8,19,34.8,31.8,53.9,45.7c5.1,3.7,10.1,7.5,14.9,11.5
		c3.9,3.3,7.4,7.2,9.1,12.3C949.3,318.1,948.2,322.7,942.5,326.8z M741.7,356.7c-14.2,0.2-28.4,0.1-42.5,0.1c-1.4,0-2.6-0.2-3.3,1.8
		c-5.2,14.5-16.2,24.1-29.2,30.9c-49.1,25.7-100.9,30.9-154.6,18.9c-23.2-5.2-42-17.5-55.1-37.8c-11.2-17.4-9.1-36.4,5.1-50.1
		c2.8-2.7,4.6-3.1,7.1,0.3c1.4,1.9,1.3,2.6-0.1,4.3c-2.5,3.1-7.1,5-7,9.8c0.1,9.3,0.7,18.7,0.6,28c0,3.8,1.2,4.4,4.6,4.4
		c33-0.1,66.1-0.8,99.1,0.3c13.7,0.4,24.3-2.5,32.6-13.5c1.1-1.5,2-2.6,2-4.6c-0.1-10.6-0.1-21.3,0-31.9c0-2.5-0.6-3.8-3.2-3.3
		c-4.9,1-8.1-1.4-10.9-5.1c-2-2.5-4.4-4.7-6.5-7.1c-10.1-11-20.2-21.9-30.7-33.2c10.3-2.2,20.1-3.7,30.1-4.2
		c27.2-1.6,52.8,3.4,75.7,18.9c15.2,10.3,26.9,23.9,36.6,39.3c1.6,2.5,3.2,3.5,6.1,3.4c8.2-0.2,16.4-0.2,24.7,0
		c2.6,0,4.5-0.7,6.3-2.7c4.2-4.4,10.3-8,12.5-13.2c2.2-5.2,0.6-12,0.6-18.2c0-1.8,0-3.5,0-5.3c0-21.1,0-42.2-0.1-63.3
		c0-1.6,1.3-4.2-2.2-4.1c-17,0.1-34.6-3-48.7,10.6c-0.2,0.2-0.6,0.3-0.8,0.5c-1.7,1.5-3.3,1.3-5.3,0.4c-6.9-2.9-13.9-5.9-21-8.4
		c-32.7-11.6-66.3-17-101-13.1c-17.8,2-35.1,6-52.2,11.4c-1.8,0.6-3.7,2.4-5.7,0.1c-2.3-2.6-4.8-5.1-7.5-7.8
		c13.5-8.1,26.8-15.5,39.6-23.9c8-5.3,16.2-8.3,25.7-6.8c12.1,1.9,22-1.6,29.3-11.6c0.2-0.3,0.4-0.5,0.7-0.7c2-1.5,2.5-3.5,2.4-5.9
		c-0.1-7.9-0.2-15.8,0.2-23.7c0.2-3.5-0.8-4-3.9-4c-39.3,0.1-78.7,0.1-118,0c-1.8,0-3.3,0.3-4.7,1.7c-11.6,10.9-11.6,10.9-11.6,26.8
		c0,0.5-0.1,1,0,1.4c0.7,3.6-1.1,5.4-4.1,7.1c-36.3,20.7-72.6,41.5-108.8,62.2c-1.1,0.6-1.9,1.7-3.6,1.4c0-15.5,0.1-30.9-0.1-46.3
		c0-3,0.9-5.1,2.9-7.2c5.3-5.6,13.2-9.8,15.5-16.8c2.3-7.2,0.5-15.6,0.6-23.5c0-1.1-0.1-2.3,0-3.4c0.4-3.1-0.9-3.7-3.8-3.7
		c-38.7,0.1-77.4,0.1-116,0c-2.1,0-3.5,0.6-4.9,2.3c-4.3,5.3-8.7,10.3-13.2,15.4c-1,1.1-1.8,2.1-1.7,3.8c0.1,6.8,0.1,13.5,0,20.3
		c0,2.1,0.7,2.8,2.8,2.8c4.7-0.1,9.4,0.1,14-0.1c2.8-0.1,3.5,0.9,3.4,3.5c-0.2,7.6-0.1,15.1-0.1,22.7c0,34,0,68,0.1,102
		c0,3.1-0.3,5-4,4.3c-1.9-0.4-2.9,0.8-4,2.1c-3.8,4.6-7.6,9.2-11.5,13.6c-1.7,2-2.4,4-2.3,6.6c0.1,8.9,0.3,17.7-0.1,26.6
		c-0.1,4,1,5.1,5,5c36.9-0.2,73.8-0.1,110.7-0.1c14.6,0,14.5,0,24.6-10.3c1.2-1.2,2-2.3,2-4.2c-0.1-12.1-0.1-24.2,0-36.3
		c0-2.7-1-3.3-3.4-3.2c-4.2,0.2-8.4,0.1-12.6,0c-1,0-2.3,0.5-3-0.8c-1.5-2.7,0.5-9.6,3.4-11.3c20.3-11.7,40.7-23.4,61-35.1
		c6.6-3.8,6.6-3.8,12.1,2.2c-2.6,1.9-4.9,3.6-7.3,5.3c-17.1,12.6-30.4,28.3-37.7,48.4c-13.5,37.6-9.2,72.4,17.6,103.3
		c13.9,16,31.6,26.1,51,33.9c41,16.4,83.7,20.3,127.5,17.9c31.9-1.8,62.2-8.8,91.4-21.7c26.4-11.7,48.9-28.3,66.4-51.4
		c9.8-12.9,16.2-27.3,17.1-43.8C744.5,358.4,744.9,356.7,741.7,356.7z M517.3,227.3c52-16.5,103.4-13.6,154.3,5
		c2.4,0.9,5,1.5,7.2,2.8c7.6,4.8,14.5,4.2,21.1-2c5.6-5.3,12.5-6.7,20.1-5.9c5.1,0.5,11.8-2.1,14.8,1c3,3.1,0.8,9.8,0.8,14.9
		c0.1,7.7,0,15.5,0,23.2c0,0.3,0,0.6,0,1c0,0-0.1,0-0.1,0c0,12.1-0.1,24.2,0.1,36.2c0,3.3-0.9,4.5-4.3,4.4
		c-7.4-0.1-14.8,0.2-22.2,0.4c-2,0.1-3.7-0.2-5-2.1c-17.9-25-43.3-38.3-72.5-45.2c-27.7-6.6-55.5-6.3-83.3-0.2
		c-4.5,1-7.3,0.2-10.3-3.3c-7.2-8.5-14.9-16.5-22.3-24.7C512,228.9,512,229,517.3,227.3z M417.7,249.6c-26.9,15.6-53.8,31-80.8,46.5
		c-1.9,1.1-2.8,2.2-2.7,4.5c0.2,6.8,0.2,13.5,0,20.3c-0.1,3.2,1.2,3.8,4,3.7c3.7-0.2,7.4,0.1,11.1-0.1c2.4-0.1,3.5,0.6,3.4,3.2
		c-0.2,5.6-0.1,11.3,0,16.9c0.1,2.4-0.6,3.4-3.2,3.4c-35.3-0.1-70.6-0.1-105.9,0c-2.2,0-3.2-0.6-3.1-3c0.1-5.8,0.1-11.6,0-17.4
		c0-2.3,0.7-3.2,3-3.1c3.7,0.1,7.4-0.2,11.1,0.1c3.9,0.3,5.2-0.9,5.2-5c-0.2-27.7-0.1-55.4-0.1-83.2c0-22.4-0.1-44.8,0.1-67.2
		c0-3.6-0.6-5.1-4.7-5c-4.7,0.2-11.1,2.2-13.8-0.9c-2.3-2.7-0.4-8.9-0.9-13.5c-0.5-4.6,0.9-5.9,5.7-5.9c33.8,0.2,67.7,0.2,101.5,0
		c4.5,0,5.6,1.3,5.1,5.4c-0.5,4.9,2.1,11.3-1.1,14.4c-2.9,2.8-9.2,0.9-14,0.7c-3.5-0.1-4.2,1.2-4.2,4.4c0.1,25.9,0.1,51.9,0,77.8
		c0,2.9,0,4.9,3.8,2.7c48.7-28,97.5-55.9,146.2-83.8c0.3-0.1,0.5-0.4,1.2-1c-4.3-0.7-9.1,1.4-11.4-1c-2.4-2.6-0.7-7.4-0.7-11.2
		c-0.1-8.4,0-8.4,8.3-8.4c34,0,68,0.1,102-0.1c3.9,0,5.6,0.7,5.1,4.9c-0.4,3.7-0.4,7.4,0,11.1c0.4,3.8-1.2,4.7-4.7,4.4
		c-3.2-0.3-6.5,0.4-9.7,0c-8.2-1-14.8,2-21.6,6.2c-21,12.8-42.3,25.3-63.6,37.7c-3.6,2.1-3.5,3.3-0.8,6.2
		c32.4,34.9,64.7,70,97.1,105c2,2.2,3.6,4.9,7,5.5c1.7,0.3,1.1,2.1,1.1,3.3c0.1,5.2-0.2,10.3,0.1,15.5c0.2,3.8-1.2,4.5-4.7,4.5
		c-22.2-0.1-44.5-0.1-66.7-0.1c-13.4,0-26.8-0.2-40.1,0.1c-4.2,0.1-5.2-1.2-4.9-5.2c0.3-5,0.2-10,0-15c-0.1-2.8,1-3.7,3.6-3.6
		c3.7,0.2,7.3,0,12.3,0c-5-5.5-9.3-10.1-13.6-14.8c-18.5-19.8-37-39.5-55.4-59.3C421.6,248.4,420.1,248.1,417.7,249.6z M735,368.8
		c-3,12.4-9.3,22.7-17.2,32.5c-25.2,31.4-58.9,48.1-97.2,57c-6.9,1.6-13.9,2.8-20.9,3.8c-14.1,1.9-28.2,2.4-42.4,2.5
		c-39.2,0.1-77.2-6.1-113.7-20.9c-22.1-9-39.9-23.3-53.4-43c-8.3-12-11.3-25.7-11.2-39.8c0.1-20,5.1-38.8,16.2-55.8
		c7.4-11.4,17.4-20.2,28.2-28.1c1.8-1.3,3.1-1.7,4.9,0.2c9.8,10.7,19.6,21.3,29.5,31.9c1.7,1.8,1.5,2.8-0.4,4.7
		c-19.4,19.5-21,42.1-5,64.5c16.7,23.3,40.3,35.4,67.6,41.4c36.4,8,72.3,4.7,108-4.6c19.6-5.1,38.4-11.9,54.6-24.7
		c8-6.4,14.8-13.9,20.2-22.6c1.6-2.5,3.3-3.4,6.2-3.4c7.4,0.2,14.8,0.2,22.2,0C734.7,364.2,736,364.6,735,368.8z"/>
	<path class="st2" d="M352.6,327.7c-0.2,5.6-0.1,11.3,0,16.9c0.1,2.4-0.6,3.4-3.2,3.4c-35.3-0.1-70.6-0.1-105.9,0
		c-2.2,0-3.2-0.6-3.1-3c0.1-5.8,0.1-11.6,0-17.4c0-2.3,0.7-3.2,3-3.1c3.7,0.1,7.4-0.2,11.1,0.1c3.9,0.3,5.2-0.9,5.2-5
		c-0.2-27.7-0.1-55.4-0.1-83.2c0-22.4-0.1-44.8,0.1-67.2c0-3.6-0.6-5.1-4.7-5c-4.7,0.2-11.1,2.2-13.8-0.9c-2.3-2.7-0.4-8.9-0.9-13.5
		c-0.5-4.6,0.9-5.9,5.7-5.9c33.8,0.2,67.7,0.2,101.5,0c4.5,0,5.6,1.3,5.1,5.4c-0.5,4.9,2.1,11.3-1.1,14.4c-2.9,2.8-9.2,0.9-14,0.7
		c-3.5-0.1-4.2,1.2-4.2,4.4c0.1,25.9,0.1,51.9,0,77.8c0,2.9,0,4.9,3.8,2.7c48.7-28,97.5-55.9,146.2-83.8c0.3-0.1,0.5-0.4,1.2-1
		c-4.3-0.7-9.1,1.4-11.4-1c-2.4-2.6-0.7-7.4-0.7-11.2c-0.1-8.4,0-8.4,8.3-8.4c34,0,68,0.1,102-0.1c3.9,0,5.6,0.7,5.1,4.9
		c-0.4,3.7-0.4,7.4,0,11.1c0.4,3.8-1.2,4.7-4.7,4.4c-3.2-0.3-6.5,0.4-9.7,0c-8.2-1-14.8,2-21.6,6.2c-21,12.8-42.3,25.3-63.6,37.7
		c-3.6,2.1-3.5,3.3-0.8,6.2c32.4,34.9,64.7,70,97.1,105c2,2.2,3.6,4.9,7,5.5c1.7,0.3,1.1,2.1,1.1,3.3c0.1,5.2-0.2,10.3,0.1,15.5
		c0.2,3.8-1.2,4.5-4.7,4.5c-22.2-0.1-44.5-0.1-66.7-0.1c-13.4,0-26.8-0.2-40.1,0.1c-4.2,0.1-5.2-1.2-4.9-5.2c0.3-5,0.2-10,0-15
		c-0.1-2.8,1-3.7,3.6-3.6c3.7,0.2,7.3,0,12.3,0c-5-5.5-9.3-10.1-13.6-14.8c-18.5-19.8-37-39.5-55.4-59.3c-1.9-2-3.3-2.3-5.7-0.9
		c-26.9,15.6-53.8,31-80.8,46.5c-1.9,1.1-2.8,2.2-2.7,4.5c0.2,6.8,0.2,13.5,0,20.3c-0.1,3.2,1.2,3.8,4,3.7c3.7-0.2,7.4,0.1,11.1-0.1
		C351.6,324.4,352.7,325,352.6,327.7z M731.2,364.3c-7.4,0.2-14.8,0.2-22.2,0c-2.9-0.1-4.6,0.8-6.2,3.4
		c-5.4,8.7-12.1,16.3-20.2,22.6c-16.1,12.8-35,19.6-54.6,24.7c-35.6,9.3-71.6,12.7-108,4.6c-27.2-6-50.9-18.1-67.6-41.4
		c-16.1-22.4-14.4-45,5-64.5c1.8-1.8,2-2.9,0.4-4.7c-9.9-10.6-19.7-21.2-29.5-31.9c-1.7-1.9-3-1.6-4.9-0.2
		c-10.9,7.9-20.8,16.8-28.2,28.1c-11,17-16.1,35.8-16.2,55.8c-0.1,14.1,2.9,27.8,11.2,39.8c13.6,19.6,31.3,34,53.4,43
		c36.4,14.8,74.5,20.9,113.7,20.9c14.2,0,28.3-0.5,42.4-2.5c7-1,14-2.2,20.9-3.8c38.3-8.9,72-25.6,97.2-57
		c7.9-9.8,14.2-20.2,17.2-32.5C736,364.6,734.7,364.2,731.2,364.3z M734.7,228.2c-3-3.2-9.8-0.5-14.8-1c-7.6-0.8-14.4,0.6-20.1,5.9
		c-6.6,6.2-13.5,6.8-21.1,2c-2.1-1.3-4.8-1.9-7.2-2.8c-50.9-18.5-102.3-21.5-154.3-5c-5.2,1.7-5.2,1.6-1.7,5.5
		c7.5,8.2,15.2,16.3,22.3,24.7c3,3.6,5.8,4.3,10.3,3.3c27.7-6.1,55.6-6.4,83.3,0.2c29.2,7,54.5,20.2,72.5,45.2c1.3,1.9,3,2.1,5,2.1
		c7.4-0.2,14.8-0.5,22.2-0.4c3.4,0,4.4-1.1,4.3-4.4c-0.2-12.1-0.1-24.2-0.1-36.2c0,0,0.1,0,0.1,0c0-0.3,0-0.6,0-1
		c0-7.7,0.1-15.5,0-23.2C735.5,238,737.7,231.3,734.7,228.2z"/>
</g>
</svg>
