<?xml version="1.0" encoding="utf-8"?>
<!-- Generator: Adobe Illustrator 25.0.0, SVG Export Plug-In . SVG Version: 6.00 Build 0)  -->
<svg version="1.1" id="Layer_1" xmlns="http://www.w3.org/2000/svg" xmlns:xlink="http://www.w3.org/1999/xlink" x="0px" y="0px"
	 viewBox="0 0 879.1 694.3" style="enable-background:new 0 0 879.1 694.3;" xml:space="preserve">
<style type="text/css">
	.st0{fill:#FFFFFF;}
	.st1{fill:#F26A24;}
	.st2{fill:#005778;}
	.st3{fill:#008E97;}
</style>
<g>
	<path class="st0" d="M712.2,188.5c-0.7,1.2-1.4,2.8-0.7,4.4c0.1,0.1,0.1,0.3,0.2,0.6h0.1c-14.1,4.7-37.6,14-45.2,25.3
		c0.4-0.7,5.1-10.4,9-16l0.1-0.1c1.1-1.4,2.1-2.4,2.9-3.1C685.4,193.9,689.7,186.9,712.2,188.5z M879.1,175
		c-1.2,7.6-6.8,13.4-9.1,15.3c-2.5,2.1-27.1,20.2-27.1,20.2c-0.9,0.5-1.6,0.9-2.3,1.4c-10.6,6.7-44,28.8-70.2,53.1
		c0,0-7.9,7-13.4,14.9c-5.7,7.9-13,20.1-9,29.4c6,13.7,102,21.4,102,21.4s-25.8,5.6-53.8,14.2c-23.4,7.2-41,15.5-41,18.8
		c0,3.7,14.8,14.3,28.5,22.7c12.6,7.8,24.4,14.8,24.4,14.8s-70.3,6.7-72.8,13.7c-1.1,3.4,24.8,23.2,54.3,41
		c34.1,20.6,57.1,33.1,57.1,33.1s-25.5-5.4-64.7-13c-33.9-6.5-66.8-9.9-69.8-6.7c-3.4,3.5,3.7,18.1,12.1,31.3
		c8.1,12.6,17.4,23.7,17.4,23.7s-63.1-17-70.3-8.6c-7.2,8.3,51.9,117.8,51.9,117.8s-90-77.7-97.6-73.5c-7.4,4.4,2.1,54.9,2.1,54.9
		s-27.1-36.2-36.4-33.9c-4.5,1.3-7,20.8-8.4,41c-1.6,22.3-1.8,44.1-1.8,44.1s-8.6-20.9-18.8-42.2c-9.3-19.5-19.7-38.5-24.6-38
		c-12.1-1.4-32,57.3-32,57.3s-12-48.2-22.9-51.2c-10.9-3-62.7,102.3-62.7,102.3s0.7-33.2,0.7-64.5c0-26.3-0.4-51.5-4.4-53.6
		c-8.8-4.6-46.8,29-46.8,29s10-47.7,0.7-59.3c-5.1-5.9-26,4.6-44.8,17.8c-18.7,13-38.7,30.8-38.7,30.8s11.1-20.6,19.7-38
		c7.2-14.6,13.4-27.1,12.5-30.6c-8.4,0.6-23.9,0.4-23.9,0.4c-43.8-0.2-82-9.3-106.4-16.9c-22.1-6.9-37.1-13.9-42-16.2
		c-4.9,0-17.8-0.1-32.7-1.9c-19.9-2.3-36.4-6.5-48.9-12.3C27,461.3,11,433.5,5.9,422.4C1.3,412.6-2,404,1.5,398c0,0,1.8-3.3,6-4.7
		c6.5-1.9,10.7,0.7,10.7,0.7c2.4,1.4,4.2,3.3,5.6,4.9c0.7,0.9,9.7,10.7,26.2,13.9c1,0.1,2.1,0.3,3.3,0.5
		c14.9,2.8,38.8,7.2,59.4,18.1l2.1,1.2c4-3,10.7-6.2,20.7-6.2c1.1,0,6.2,0.4,6.2,0.4c8.4,0.6,17,1.1,24.4,1.1
		c7.7,0,11.4-0.7,13.2-1.2c1.1-0.4,1.8-0.5,2.5-0.9l9.1-4.6c2.7-1.1,6.4-1.6,10.4,1.9c2.1,2.1,3.1,5.3,3.3,8.8v0.2v0.2
		c0,3.2-0.3,6.4-1.2,9.7c-1.6,6-4.6,12.3-8.6,18.1c-0.7,1.1-1.4,2.1-2.3,3.2c2.3,0.2,4.6,0.2,6.9,0.2c16.2,0,29.5-3,44.3-7.7
		c11.8-3.9,25.5-27.9,23.2-34.1c-2.3-6.2-49.1-10.4-49.1-10.4s40.2-34.6,38.3-45.5c-1.8-10.7-99-31.1-99-31.1s107.2-27.2,107.4-35.5
		s-54.7-33.4-54.7-33.4s63.3,6.8,65.8-1.6c3.1-10.5-98.3-69.6-98.3-69.6s31.1,5.6,61.5,9.8c28.6,3.9,56.9,6.3,57.8,3
		c2-7.1-26.5-34.5-26.5-34.5s49.9,14.8,56.6,4.4c2.6-4.2-3.7-26-14.1-48.7c-15.1-33-34.1-64.5-34.1-64.5s16.2,11.8,35.7,25.7
		c33.8,24.1,66.1,44.1,69.3,40.6c5.4-5.9-10.4-51.3-10.4-51.3s33.8,34.1,44.3,32c10.5-1.9,12.3-93.2,12.3-93.2s37.9,91.1,52.7,85.1
		c14.7-6,23-54.7,23-54.7s13.2,56.5,22.2,57C538,105.8,580.5,0,580.5,0s-0.9,34.6-0.7,65.3c0.2,22.5,0.6,43.2,4.6,44.3
		c10.2,2.6,61.9-54.9,61.9-54.9s-30.1,70.6-23.4,79.6s60.3-19,60.3-19s-3.5,6.8-6,14.2c-4.9,14.2-3,20.4-3,20.4l4.7-0.7
		c11.6-1.6,23.4-2.5,35.2-2.5c22.7,0,45.9,3.1,70.5,9.3c7.9-2.8,34.3-11.8,49.2-13.2c2-0.2,4.1-0.4,6.2-0.4
		c19.3,0,33.6,8.6,37.6,22.5c0,0,0.5,2,0.7,5.3C878.5,173.5,878,175.5,879.1,175z M265,447.5c12.1-5.6,23.9-12.9,36.2-22
		c-10.2-24.9-15.8-52.4-15.8-81.2c0-119.6,96.9-216.5,216.6-216.5c43.8,0,84.6,13,118.7,35.3c15-5.6,29.7-9.7,43.8-12.5
		c-0.9-5.6-0.2-11.7,3.3-19.3c-12.4,10.3-44.3,19.3-53.4,10.7c-9.2-8.8,6.3-45.2,14.2-60.1c-13,15.6-36,43.3-49.9,37.8
		c-13.9-5.4-4.4-71.2-5.8-84c-9,26-33.8,83.3-46.6,81.4c-10.6-1-18.8-28.5-20.6-39.2c-2.3,10-7.6,33.4-23.4,35.7
		c-15.8,2.3-37.2-35.5-46.2-63.3c-1.5,49.5-9.7,71.5-16.4,71.7c-13.2,0.4-23.5-12.7-33.9-22.5c5.1,8.3,12.5,33.6,2.8,41.5
		c-9.7,7.7-74.4-38.3-88.6-52.4c16,23.6,44.4,79.1,36,93c-8.4,14.1-37.8,8-42.9,5.5c3.5,2.8,23.7,26.2,6.3,30.1
		c-23.4,5.1-87.6-9.8-90.9-10.7c15.5,5.7,82.6,45.4,78.4,60.7c-3.5,13.3-31,8.8-41.7,8.6c9.7,4.3,32.5,13.5,29.7,26.5
		c-2.7,13-67,27.4-86.9,31.6c22.5,5.1,79.3,13.9,80.2,31.3c0.9,17.4-34.8,41.3-34.8,41.3s31.6,1.4,38.5,5.1
		C281.9,417.1,274.1,437.3,265,447.5z M116.6,440.9c7.6,4.2,31.8,18.3,52.6,22.3c1.1,0.2,3.8,1.1,6.4,1.3c2.5,0.2,5.5,0,6.2,0
		c0,0,4-4.4,6.3-7.9c3.9-5.6,6.3-11.3,7.6-15.8c0.7-2.6,1.1-5.3,1.1-7.9c-0.3-4.8-3.4-4.3-3.9-4.3c-3.2,0.4-4.6,3.5-12,5.8
		c-8.6,2.5-26.9,1.2-43.4,0.2C125.5,433.9,119.2,438.5,116.6,440.9z M737.5,310.5c-0.1-5.8,0.9-10.5,2.5-14.4
		c-7.3,6.8-14.8,14-22.9,21.6c1.3,9,1.8,18.3,1.8,27.6c0,119.5-96.8,216.4-216.4,216.4c-47.5,0-91.1-15.2-126.8-41
		c-16.4,3.2-32.5,4.9-48.9,5.8c-2.6,14.8-13.5,29.9-20,44c39.4-36.4,61.2-35.1,68.9-30.9c7.5,4.2,5.6,39,3.3,49.2
		c6.1-8.3,35-26.1,43.4-22.2c8.6,3.9,4.7,82.1,4.7,98.1c9.5-20.8,40.8-84.6,54.3-84.6c13.3,0,22.3,24.1,24.4,35
		c2.8-10.9,18.1-39.5,31.8-41.1c13.7-1.4,28.4,40.6,37.4,61.5c0.7-17.7-0.5-59.4,10.4-63.8s23.5,10,30.9,19
		c-2.1-12.3-3.9-36.8,3.7-41.7c7.6-5.1,61.2,38.5,80.9,58c-4.9-12.2-47.4-77-39.7-94.8c7-16.1,50.6-3.7,58.9-1.2
		c-11.3-9-23.7-39-19-48.7c4.9-9.7,76.9,4.6,107.1,13c-24.3-9.5-90.5-50-85.8-62.1c4.7-12.1,47.3-16.5,60.3-16.5
		c-3.9-2-31-16.9-40.3-27.8c-9.3-10.9,39.6-31.1,67.7-35C785,331.9,737.7,327.9,737.5,310.5z M870.6,168.1
		c-3.3-14.1-19.8-19.6-36.1-17.5c-16.5,1.5-49.6,13.5-49.6,13.5c-60.4-15.7-132.1-17.4-220,36c-16.4,10-31.5,20.4-45.2,30.9
		c-13.8,10.5-26.5,21.2-38.4,31.9c-8,2.7-14.1,4.1-20.2,5.1c-13.4,2.6-23,1.9-50.8,5.6c-43.6,5.8-63.7,19.5-69.5,24.8
		c-1.8,1.6-2.9,2.9-4.8,5.4c-1.2,1.8-2,3.6-2.2,4c-0.8,2.5-0.8,4.6,0.8,5.8c3.7,3,9.5,1.4,20.2,0.7c10.9-0.9,27.3-0.6,38.2,6.3
		c7.1,4.3,10.2,14.7,11.3,20.7c-8.1,8.6-16.4,17.4-24.3,25.3c-49.6,49-82.8,78.2-120.1,92.8c-80.9,31.7-126.4-5.4-144.7-16.5
		c-22.1-14.2-51.5-19-67.3-21.8c-15.8-3-24.5-10.6-27.8-13.4c-3.3-2.7-5.9-7.6-9.7-6.5c0,0-1.9,0.7-2.5,1.1c-2,1.3-1.4,5.5,4.2,17.9
		c7.6,16.7,25.1,38.9,55.6,52.9c27.8,12.8,70.2,13.5,78.8,13.5c0.7,0,1.2,0,1.4,0c0,0,71.9,37.3,163.2,32.9
		c0.4,0,54.2,1.1,120.6-24.7c0,0.3,0.1,0.6,0.2,0.8c0,0.2,0.9,3,3.2,3.5c3.9,0.9,18.1-6.3,36.4-21.6c0.2,0,35.2-16.5,51.9-25.7
		c19.7-10.7,52.2-30.9,59.3-35.7c12.1-7.9,32.9-23.3,34.8-24.7c-3.4,40-11.3,60.1-11.3,63.8c0,2,0.8,4,2.3,5.1
		c3.2,1.9,7.7-1.1,8.3-1.2c7.9-4.4,30.4-23.4,45.4-53.8c21.4-43.4,30.4-76.8,30.6-77.4c1.8-1.6,70.9-66.8,71.7-67.7
		c25.8-23.7,59.4-46.6,71.6-54c12.7-7.7,20.2-13.7,24.8-17.6c4.4-4,5.8-6,5.8-6c0.4-1,2.3-4.3,1.9-6.6c-0.9-5.3-12.1-3.9-40.1,5.6
		c-0.2,0.2-0.2,0.2-0.4,0.2c-2.5,0.9-4.9,1.8-7.6,2.6c-82,28.9-161.6,119.3-264.5,197.3l0.7-1.2c30.6-46.1,41.1-79.6,71.9-108.5
		c15.5-15,62.1-44,63.6-44.9c0.1,0,0.1,0,0.1,0c35.6-20.2,71.1-36,76.7-38.3C789.7,180.3,862.9,156.1,870.6,168.1z M190.6,493.9
		c0,0,0.1,0,0.2,0l-0.1,0H190.6z M212.4,495.1c0,0-19.1-0.8-21.6-1.2l1.1,0.4c9,3,61,19.6,142.4,0.4c41.3-9.7,87-29.2,115.7-44.3
		c0.1-0.3,0.2-0.5,0.2-0.5c7.6-18.8,11.7-36.7,13.2-43.6c-31.3,21.1-80.2,50.8-130.2,69.1C272.2,498.3,216.6,495.2,212.4,495.1z"/>
	<path class="st1" d="M285.6,344.6c0,28.8,5.6,56.2,15.8,81.2c-12.3,9.2-24.1,16.4-36.2,22c8.8-10.5,16.5-30.7,6.5-36.2
		c-6.9-3.7-38.5-5.1-38.5-5.1s35.7-23.9,34.8-41.3c-0.9-17.4-57.7-26.2-80.2-31.3c19.9-4.2,84.3-18.6,86.9-31.6
		c2.8-13-20-22.1-29.7-26.5c10.8,0.2,38.2,4.8,41.7-8.6c4.2-15.3-62.9-55.1-78.4-60.7c3.3,0.9,67.5,15.8,90.9,10.7
		c17.4-3.7-2.8-27.3-6.3-30.1c5.1,2.4,34.5,8.6,42.9-5.5c8.5-13.9-20-69.4-36-93c14.2,14.1,78.9,60.1,88.6,52.4
		c9.7-7.9,2.3-33.2-2.8-41.5c10.3,9.8,20.7,22.9,33.9,22.5c6.7-0.1,15-22.1,16.4-71.7c8.9,27.8,30.4,65.6,46.2,63.3
		s21.1-25.7,23.4-35.7c1.8,10.7,10.1,38.1,20.6,39.2c12.8,1.9,37.6-55.4,46.6-81.4c1.4,12.8-8.1,78.5,5.8,84s36.9-22.2,49.9-37.8
		c-7.9,15-23.3,51.4-14.2,60c9.1,8.6,40.9-0.3,53.4-10.7c-3.2,8-3.9,14.2-3,20c-14.1,2.8-28.9,6.9-43.8,12.5
		c-34.1-22.3-74.9-35.3-118.7-35.3C382.6,128.4,285.7,225.3,285.6,344.6z M808.2,475.5c-24.3-9.5-90.5-49.8-85.8-61.9
		c4.7-12.1,47.3-16.5,60.3-16.5c-3.9-2-31-16.9-40.3-27.8c-9.3-10.9,39.6-31.1,67.7-35c-25.2-1.9-72.3-5.8-72.8-24.1
		c0-5.8,0.9-10.5,2.5-14.4c-7.3,6.8-14.8,14-22.9,21.6c1.3,9,1.8,18.3,1.8,27.6c0,119.6-96.8,216.5-216.1,216.5
		c-47.5,0-91.1-15.2-126.8-41c-16.4,3.2-32.5,4.9-48.9,5.8c-2.6,14.8-13.5,29.9-20,44c39.4-36.4,61.2-35.1,68.9-30.9
		c7.5,4.2,5.6,39,3.3,49.2c6.1-8.3,35-26.1,43.4-22.2c8.6,3.9,4.7,82.1,4.7,98.1c9.5-20.8,41-84.6,54.3-84.6s22.3,24.1,24.4,35
		c2.8-10.9,18.1-39.5,31.8-41.1c13.7-1.4,28.4,40.6,37.4,61.5c0.7-17.7-0.5-59.6,10.4-63.8c10.9-4.4,23.5,10,30.9,19
		c-2.1-12.3-3.9-36.8,3.7-41.7c7.6-5.1,61.4,38.5,80.9,58c-4.9-12.2-47.4-77-39.7-94.8c7-16.1,50.6-3.7,58.9-1.2
		c-11.3-9-23.7-39-19-48.7C706.1,452.5,778,466.7,808.2,475.5z"/>
	<path class="st2" d="M169.2,463.2c-0.7-1.2,32.8-23.7,23.7-34.6c0.5,0,3.6-0.5,3.9,4.3c0,2.6-0.4,5.3-1.1,7.9
		c-1.3,4.5-3.7,10.2-7.6,15.8c-2.3,3.5-6.3,7.9-6.3,7.9c-0.7,0-3.7,0.2-6.2,0C173,464.3,170.3,463.4,169.2,463.2z M344.7,297.4
		c1.5-1.2,3.1-2.3,4.9-3.3c0.2-0.1,0.5-0.3,0.7-0.4c7.4-4.2,17.7-7.6,32.6-8.6c0.2,0,1-0.1,1.3-0.1c6.5-0.9,13-1.4,18.7-1.6
		c2.9-0.1,5.6-0.1,8.2-0.1c3.5,0,6.7,0.1,9.8,0.2c1.5,0.1,3,0.1,4.5,0.2c0.7,0,1.5,0.1,2.2,0.1c1.5,0,2.9,0.1,4.3,0.1
		c2.8,0,5.6,0,8.5-0.1c1.4-0.1,2.9-0.2,4.3-0.3c5.8-0.6,11.9-1.8,19.1-4.2c5.6-5.6,12.4-11.5,17.5-16.3c-8,2.7-14.1,4.1-20.2,5.1
		c-13.4,2.6-23,1.9-50.8,5.6c-43.6,5.8-63.7,19.5-69.5,24.8c-1.8,1.6-2.9,2.9-4.8,5.4c-1.2,1.8-2,3.6-2.2,4
		C336.5,304.7,339.8,300.9,344.7,297.4z M678.6,199.6c6.8-5.7,11.1-12.7,33.6-11.1c-0.7,1.2-1.4,2.8-0.7,4.4
		c0.1,0.1,0.1,0.3,0.2,0.6h0.1c0.2,0,0.2,0.2,0.2,0.2s8.1-2.6,13.7-4.4c12.5-3.2,20-5.3,28.5-8.6c11.5-4.6,15.2-6.7,14.6-7.6
		c-0.1-0.2-0.2-0.2-0.5-0.2c-1.1,0.1-4,1.7-9.3,3c-6.5,1.6-22.9,2.1-29.9,2.1c-1.7,0-3.7-0.1-5.8-0.1c-6.4,0-14.8,0.6-26.2,5.7
		c-0.5,0.2-1.1,0.5-1.6,0.7c-9.9,4.9-16.6,13.6-19.8,18.4C676.8,201.3,677.8,200.3,678.6,199.6z M333.2,475.4
		c50-18.3,99-48,130.3-69.1c0.1-0.3,0.1-0.6,0.2-0.9c0.6-2.4,1.5-6.2,2.4-10.2l4.1-17.7c0,0-84.4,76-172,101.3
		c-29.7,8.6-60.9,15.4-85.8,16.2C216.6,495.2,272.2,498.3,333.2,475.4z M868.6,176.1c-0.9-5.3-12.1-3.9-40.1,5.6
		c-0.2,0.2-0.2,0.2-0.4,0.2c-2.5,0.9-4.9,1.8-7.6,2.6c-82,28.9-161.6,119.3-264.5,197.3l0.7-1.2c30.6-46.1,41.1-79.6,71.9-108.5
		c15.8-15.3,63.7-45,63.7-45s-9.8,3.4-19.9,8.4c-16.5,8.2-42.1,21.9-57.7,36.5c-36.9,34.4-45.1,78.7-97.7,143.4
		c-23.4,28.8-43.4,48.9-59.4,62.2c-10.2,8.6-19.2,14.6-25.7,18.1c0,0.2,0.9,3,3.2,3.5c3.9,0.9,18.1-6.3,36.4-21.6
		c0.2,0,35.2-16.5,51.9-25.7c19.7-10.7,52.2-30.9,59.3-35.7c12.7-8.3,35-24.8,35-24.8c10.4-7.9,19.7-15.3,28-22.2
		c10.4-8.6,21.3-18.1,32-27.8c-6.2,19.2-15.8,45.4-27.4,67.5c-13.9,26.4-32.2,44.5-41.8,51.5c3.2,1.9,7.7-1.1,8.3-1.2
		c7.9-4.4,30.4-23.4,45.4-53.8c21.4-43.4,30.4-76.8,30.6-77.4c1.8-1.6,70.9-66.8,71.7-67.7c25.8-23.7,59.4-46.6,71.6-54
		c12.7-7.7,20.2-13.7,24.8-17.6c4.4-4,5.8-6,5.8-6C867.1,181.7,869,178.4,868.6,176.1z M10.3,401.5
		C10.3,401.5,10.3,401.5,10.3,401.5C10.4,401.5,10.4,401.5,10.3,401.5L10.3,401.5z M444.2,463.6c2.8-5.9,4.9-10.9,5.6-12.8
		c0.1-0.2,0.2-0.3,0.2-0.4c-28.7,15.1-74.4,34.6-115.7,44.3c-81.4,19.2-133.4,2.6-142.4-0.4l-1.2-0.4c-0.7-0.1-1.3-0.2-2-0.3
		c-20.5-3.6-44.3-13.4-65.4-35.9c-2.8-2.1-5.6-4.4-8.4-6.9c0.9,0.9,11,16.1,23.3,26.8c-2.3,0.3-5.2,0.6-11,0.3
		c-4.6-0.2-11.1-0.8-20.3-2.1c-8.2-1.2-15.8-2.9-22.8-5.1c-0.3-0.1-0.5-0.2-0.8-0.3c-0.5-0.2-1.1-0.3-1.6-0.5
		c-47-15.8-66.1-51.8-70.4-64.5c-0.6-1.8-1-3.2-1-3.9c-0.4,0.1-1.9,0.7-2.4,1.1c-2,1.3-1.4,5.5,4.2,17.9
		c7.6,16.7,25.1,38.9,55.6,52.9c27.8,12.8,70.2,13.5,78.8,13.5c0.7,0,1.2,0,1.4,0c0,0,71.9,37.3,163.2,32.9
		c0.4,0,54.2,1.1,120.6-24.7c0-0.2,0-0.4,0-0.5V494h0C431.7,488.4,438.9,474.5,444.2,463.6z"/>
	<path class="st3" d="M645.7,369.1c10.4-8.6,21.3-18.1,32-27.7c-6.2,19.5-15.8,45.4-27.4,67.5c-13.8,26.3-32.1,44.5-41.8,51.5
		c-1.5-1.1-2.3-3.1-2.3-5.1c0-3.7,7.9-23.8,11.3-63.9c0.1-0.1,0.1-0.1,0.1-0.1C628,383.4,637.3,376,645.7,369.1z M192.9,428.6
		c-3.2,0.4-4.6,3.5-12,5.8c-8.6,2.5-26.9,1.2-43.4,0.2c-12-0.7-18.3,3.9-20.9,6.3c7.6,4.2,31.8,18.3,52.6,22.3
		C168.4,462.1,202,439.5,192.9,428.6z M870.6,168.2c-7.7-12.1-80.9,12.1-101.6,20.6c-5.6,2.3-41.1,18.1-76.7,38.3
		c-21.1,7.2-62,30.3-77.6,44.9c-36.9,34.4-45.1,78.7-97.7,143.4c-23.4,28.8-43.2,48.8-59.2,62.1c-10.2,8.6-19.4,14.7-25.9,18.2
		c-0.2-0.4-0.2-1.2-0.2-1.4V494c0-5.6,7.2-19.5,12.5-30.4c2.8-5.9,4.9-10.9,5.6-12.8c0.3-0.6,0.4-0.9,0.4-0.9
		c8.1-20,12.3-39,13.5-44.8c1.8-7.2,6.5-27.6,6.5-27.6s-84.4,76-172,101.3c-29.7,8.6-61.9,15.6-85.8,16.2c0,0-20.4-0.9-21.8-1.2
		c-20.9-3.3-45.5-13-67.3-36.2c-2.8-2.1-5.6-4.4-8.4-6.9c0.9,0.9,11,16.1,23.3,26.8c-4.1,0.5-10.2,1.2-31.4-1.9
		c-65.4-9.4-90.4-55.6-95.5-70.4c-0.6-1.8-1-3.2-1-3.9c3.9-1.2,6.5,3.7,9.8,6.5s12,10.4,27.8,13.4c15.8,2.8,45.2,7.6,67.3,21.8
		c18.3,11.1,63.8,48.2,144.7,16.5c37.3-14.6,70.5-43.8,120.1-92.8c7.9-7.9,16.2-16.7,24.3-25.3c-1.1-6-4.2-16.4-11.3-20.7
		c-10.9-6.9-27.3-7.2-38.2-6.3c-10.7,0.7-16.5,2.3-20.2-0.7c-1.6-1.2-1.6-3.3-0.8-5.8c7.2-8.5,18.4-20.7,49.1-22.8
		c0.2,0,1-0.1,1.3-0.1c6.4-0.8,13-1.4,18.7-1.6c2.9-0.1,5.6-0.1,8.2-0.1c3.5,0,6.7,0.1,9.8,0.2c1.5,0.1,3,0.1,4.5,0.2
		c0.7,0,1.5,0.1,2.2,0.1c1.5,0,2.9,0.1,4.3,0.1c2.8,0,5.6,0,8.5-0.1c1.4-0.1,2.9-0.2,4.3-0.3c5.8-0.6,11.9-1.8,19.1-4.2
		c5.6-5.6,12.4-11.5,17.5-16.3c11.9-10.7,24.6-21.4,38.4-31.9c13.7-10.5,28.8-20.9,45.2-30.9c87.9-53.4,159.6-51.7,220-36
		c0,0,33.1-12,49.6-13.5C850.8,148.6,867.3,154.1,870.6,168.2z M768.8,173.1c-0.4-0.9-3.2,1.2-9.8,2.8c-6.5,1.6-22.9,2.1-29.9,2.1
		s-16.9-1.1-32,5.6c-10.9,4.7-18.1,14.2-21.5,19.2c-3.9,5.6-8.6,15.3-9,16c7.6-11.3,31.1-20.6,45.2-25.3c0.2,0,0.2,0.2,0.2,0.2
		s8.1-2.6,13.7-4.4c12.5-3.2,20-5.3,28.5-8.6C765.7,176.1,769.4,174,768.8,173.1z"/>
</g>
</svg>
