<?xml version="1.0" encoding="utf-8"?>
<!-- Generator: Adobe Illustrator 25.0.1, SVG Export Plug-In . SVG Version: 6.00 Build 0)  -->
<svg version="1.1" id="Layer_1" xmlns="http://www.w3.org/2000/svg" xmlns:xlink="http://www.w3.org/1999/xlink" x="0px" y="0px"
	 viewBox="0 0 937 873" style="enable-background:new 0 0 937 873;" xml:space="preserve">
<style type="text/css">
	.st0{fill:#FFFFFF;}
	.st1{fill:#A4ACAF;}
	.st2{fill:#161413;}
	.st3{fill:#B01742;}
</style>
<g id="Group" transform="translate(-15.869222,-165.76504)">
	<path class="st0" d="M942.8,425.5c-3.2-13-9.3-25.5-18.1-37.1c-15.9-21-40.6-39.1-73.4-54.1c-88.7-40.4-191.3-77-403.8-124.3
		c-113.7-25.4-146.9-33.7-147.2-33.8l-10.9-2.7l-7.6,8.2L54,424.9l-31.3,33.4l45.8-1.5l162.8-5.2c-5.3,11.5-11.2,26-17,43.5
		c-9,27.1-15.6,55.7-19.8,85.1c-5.2,36.6-6.6,74.6-4.1,112.7c5,75.6,22.9,140.9,53,194.4c29.3,52,64.7,82.4,89.3,98.7
		c39.5,26.3,92.1,37.7,94.3,38.2l48.3,10.3l-28.9-39.8c-0.9-1.3-21.4-32.1-15.3-69c5.8-35,18.3-56.1,30.4-76.5
		c2.5-4.1,5-8.4,7.4-12.7c12.1-21.5,78.6-151.8,98.2-190.4c10.9,0.1,25.2,0.5,32.6,1.3c1.2,0.1,2.2,0.3,3.2,0.5
		c-0.6,0.8-1.1,1.6-1.7,2.2L576.3,679l38.2,2.4c0.5,0,2.9,0.2,7.2,0.2c15.5,0,56.9-2.1,107.1-21.4c27-10.4,50.9-25.5,69.1-43.8
		c14.2-14.2,20.3-25.6,20.9-26.8l5.7-11.1l-7.8-9.7c-1.1-1.4-27.9-34.2-59.8-59.8c-2.7-2.1-5.3-4.2-7.8-6.2h76
		c7.9,0,17.6,1.3,22,2.9c0.3,2.5,0,6.8-0.5,9.3l-6.3,27.2l27.6-4.2c1.7-0.3,16.7-2.7,33.1-12.1c23.1-13.2,37.9-33.4,42.7-58.5
		C946.5,453.2,946.2,439.1,942.8,425.5z M925,464c-9.2,47.7-60,55.4-60,55.4s4.6-20-4.6-27.7S825,484,825,484H689.6
		c0,0,24.6,15.4,55.4,40c30.7,24.6,56.9,56.9,56.9,56.9s-20,38.5-80,61.6s-106.2,20-106.2,20s9.2-10.8,9.2-18.5s-9.2-13.9-23.1-15.4
		s-46.2-1.5-46.2-1.5s-89.2,175.5-103.1,200.1c-13.8,24.6-32.3,49.2-40,95.4c-7.7,46.2,18.5,83.1,18.5,83.1s-50.8-10.8-87.7-35.4
		c-54.4-36.2-123.1-116.9-133.9-278.5c-10.7-161.6,53.9-260.1,53.9-260.1l-195.4,6.2l227.8-243.2c0,0,32.2,8.1,147.7,33.9
		c213.9,47.7,315.5,84.6,400.1,123.1C901.8,378.2,934.3,416.4,925,464z M768.8,336.3c-58.9-20.9-148.5-44.6-309.3-80.8
		C355.1,232.1,311,228.6,311,228.6L143.3,409.4l173.1-0.8c0,0-71.6,87.8-77.7,261.6c-9.2,261.6,167.7,317,167.7,317
		s-16.9-30.8-12.3-66.2c4.6-35.4,20-63.1,36.9-93.9c16.9-30.8,109.3-213.9,109.3-213.9s53.1,0,64.6,0s27.7,6.2,33.9,14.6
		c6.2,8.5,3.1,15.4,3.1,15.4s44.7,3.2,74.6-10c43.9-19.2,66.9-48.5,66.9-48.5s-30.8-36.9-76.2-65.4c-45.4-28.5-83.9-47.7-83.9-47.7
		H838c0,0,26.2,0,33.9,6.9c7.7,6.9,7.7,21.5,7.7,21.5s29.2-9.2,33.1-39.2c3.9-29.8-13.1-51.4-22.3-60.6
		C881.2,391,840.4,361.7,768.8,336.3z M707.2,534.5c36.6,24.6,61.6,51.2,61.6,51.2s-7.7,11.5-26.2,23.5c-18.5,11.9-37.7,15-37.7,15
		s14.6-13.1,15.8-19.6s-1.5-8.1-5.4-8.1c-3.8,0-42.3,0-42.3,0s-6.9,5-6.5,15.4s5.4,16.9,5.4,16.9s-13.5-1.9-23.1-13.1
		c-9.6-11.2-9.6-19.2-9.6-19.2h-87.7l55-108.1l-3.9-12C602.6,476.4,670.7,509.9,707.2,534.5z M888.9,480.9c0,0-0.7-10.8-9.2-17.7
		s-26.2-9.2-26.2-9.2H561.9l30,16.2c0,0-157,310.1-169.3,334.7c-12.3,24.6-38.4,67.7-41.5,93.9c-4.8,40.4,6.9,64.6,6.9,64.6
		s-31.6-22.3-53.1-50c-21.6-27.7-30.8-54.6-30.8-54.6h-16.9l171.5-252.4v-6.9L284.8,804.2c0,0-6.2-24.7-10-46.2
		c-3.8-21.5-4.6-57.7-4.6-57.7l-20-5.4l212.4-169.3l0.8-4.6L271,638.8c0,0,3.1-26.2,7.7-53.9c4.6-27.7,11.5-40.8,11.5-40.8
		L271,531.8l224.7-76.3l5.4-5.4l-192.4,40l36.9-65.4l-16.9-16.9h228.4l3.1-3.8l-341.6-26.9L314.8,274l-13.1-19.2
		c0,0,145.4,23.8,234.7,42.3c89.3,18.5,193.2,43.8,242.4,60c49.2,16.1,79.2,34.6,93.1,44.6c13.9,10,30.8,30.8,30.8,48.4
		C902.7,473.2,888.9,480.9,888.9,480.9z M792.7,381c0,0,24.6,11.5,38.5,20s22.3,20,22.3,20l-24.6-0.8c0,0-2.3-5-10.8-15
		S792.7,381,792.7,381z M888.1,434.9c6.9,12.2,3.1,26.9,3.1,26.9s-3.3-7.4-10.8-11.9c-8.9-5.4-16.9-5.8-16.9-5.8h-77.7l3.1-4.6
		l80-10l-3.1-15.4C865.8,414.1,881.2,422.6,888.1,434.9z"/>
	<path class="st1" d="M843.5,351.7c-84.6-38.5-186.2-75.4-400.1-123.1c-115.5-25.8-147.7-33.9-147.7-33.9L67.9,437.9l195.4-6.2
		c0,0-64.6,98.5-53.9,260.1c10.8,161.6,79.5,242.3,133.9,278.5c36.9,24.6,87.7,35.4,87.7,35.4s-26.2-36.9-18.5-83.1
		c7.7-46.2,26.2-70.8,40-95.4c13.9-24.6,103.1-200.1,103.1-200.1s32.3,0,46.2,1.5s23.1,7.7,23.1,15.4s-9.2,18.5-9.2,18.5
		s46.2,3.1,106.2-20s80-61.6,80-61.6S775.7,548.6,745,524c-30.8-24.6-55.4-40-55.4-40H825c0,0,26.2,0,35.4,7.7s4.6,27.7,4.6,27.7
		s50.8-7.7,60-55.4C934.3,416.4,901.8,378.2,843.5,351.7z M912.7,460.8c-3.9,30-33.1,39.2-33.1,39.2s0-14.6-7.7-21.5
		c-7.7-6.9-33.9-6.9-33.9-6.9H623.3c0,0,38.5,19.2,83.9,47.7c45.4,28.5,76.2,65.4,76.2,65.4s-23,29.3-66.9,48.5
		c-29.9,13.2-74.6,10-74.6,10s3.1-6.9-3.1-15.4c-6.2-8.4-22.4-14.6-33.9-14.6s-64.6,0-64.6,0S447.9,796.3,431,827.1
		c-16.9,30.8-32.3,58.5-36.9,93.9c-4.6,35.4,12.3,66.2,12.3,66.2s-176.9-55.4-167.7-317c6.1-173.8,77.7-261.6,77.7-261.6l-173.1,0.8
		L311,228.6c0,0,44.1,3.5,148.5,26.9c160.8,36.2,250.4,59.9,309.3,80.8c71.6,25.4,112.4,54.7,121.6,63.9
		C899.6,409.4,916.6,431,912.7,460.8z"/>
	<path class="st2" d="M707.2,534.5c-36.5-24.6-104.6-58.1-104.6-58.1l3.9,12l-55,108.1h87.7c0,0,0,8,9.6,19.2
		c9.6,11.2,23.1,13.1,23.1,13.1s-5-6.5-5.4-16.9s6.5-15.4,6.5-15.4s38.5,0,42.3,0c3.9,0,6.6,1.6,5.4,8.1s-15.8,19.6-15.8,19.6
		s19.2-3.1,37.7-15c18.5-12,26.2-23.5,26.2-23.5S743.8,559.1,707.2,534.5z M689.2,581.8H582.6l10.8-19.6l98.1,15L689.2,581.8z
		 M871.9,401.7c-13.9-10-43.9-28.5-93.1-44.6c-49.2-16.2-153.1-41.5-242.4-60c-89.3-18.5-234.7-42.3-234.7-42.3l13.1,19.2
		l-96.2,103.1L560.2,404l-3.1,3.8H328.7l16.9,16.9l-36.9,65.4l192.4-40l-5.4,5.4L271,531.8l19.2,12.3c0,0-6.9,13.1-11.5,40.8
		c-4.6,27.7-7.7,53.9-7.7,53.9L463.4,521l-0.8,4.6L250.2,694.9l20,5.4c0,0,0.8,36.2,4.6,57.7c3.8,21.5,10,46.2,10,46.2l173.9-204.7
		v6.9L287.2,858.8h16.9c0,0,9.2,26.9,30.8,54.6c21.5,27.7,53.1,50,53.1,50s-11.7-24.2-6.9-64.6c3.1-26.2,29.2-69.3,41.5-93.9
		c12.3-24.6,169.3-334.7,169.3-334.7l-30-16.2h291.6c0,0,17.7,2.3,26.2,9.2s9.2,17.7,9.2,17.7s13.8-7.7,13.8-30.8
		C902.7,432.5,885.8,411.7,871.9,401.7z M484.1,434l-137.3,26.2l15.8-27.7l123-2.3L484.1,434z M441.4,507.6l-140,78.1l8.9-35.4
		l133.4-48.1L441.4,507.6z M299.8,738.4c0,0-1.9-8.5-3.1-15.4c-1.1-7-1.5-21.2-1.5-21.2l129.7-109.7l0.4,6.2L299.8,738.4z
		 M354.9,881.9c0,0-6.2-7.6-10-13.8c-3.8-6.2-9.6-17.7-9.6-17.7s25-37.3,50.4-76.2c25.4-38.9,62.7-93.9,62.7-93.9l2.7,3.5
		L354.9,881.9z M761.1,401l-454.7-61.6l26.9-31.5c0,0,87.7,13.8,207,36.9c119,23,221.6,50.8,221.6,50.8L761.1,401z M831.2,401
		c13.9,8.5,22.3,20,22.3,20l-24.6-0.8c0,0-2.3-5-10.8-15S792.7,381,792.7,381S817.3,392.5,831.2,401z M891.2,461.8
		c0,0-3.3-7.4-10.8-11.9c-8.9-5.4-16.9-5.8-16.9-5.8l-77.6-1.1l0.1-2.1l82.9-11.4l-3.1-15.4c0,0,15.4,8.5,22.3,20.8
		C895,447.1,891.2,461.8,891.2,461.8z"/>
	<path class="st3" d="M441.4,507.6l-140,78.1l8.9-35.4l133.4-48.1L441.4,507.6z M424.9,592.1L295.2,701.8c0,0,0.4,14.2,1.5,21.2
		c1.2,6.9,3.1,15.4,3.1,15.4l125.5-140.1L424.9,592.1z M385.7,774.2c-25.4,38.9-50.4,76.2-50.4,76.2s5.8,11.5,9.6,17.7
		s10,13.8,10,13.8l96.2-198.1l-2.7-3.5C448.4,680.3,411.1,735.3,385.7,774.2z M540.3,344.8c-119.3-23.1-207-36.9-207-36.9
		l-26.9,31.5L761.1,401l0.8-5.4C761.9,395.6,659.3,367.8,540.3,344.8z M582.6,581.8h106.6l2.3-4.6l-98.1-15L582.6,581.8z
		 M346.8,460.2L484.1,434l1.5-3.8l-123,2.3L346.8,460.2z"/>
</g>
</svg>
