<?xml version="1.0" encoding="utf-8"?>
<!-- Generator: Adobe Illustrator 25.0.1, SVG Export Plug-In . SVG Version: 6.00 Build 0)  -->
<svg version="1.1" id="Layer_1" xmlns="http://www.w3.org/2000/svg" xmlns:xlink="http://www.w3.org/1999/xlink" x="0px" y="0px"
	 viewBox="0 0 1036.4 813.9" style="enable-background:new 0 0 1036.4 813.9;" xml:space="preserve">
<style type="text/css">
	.st0{fill:#B21E35;}
	.st1{fill:#00337E;}
</style>
<g>
	<path class="st0" d="M73.6,585.8l177.7-0.1L251,204.6l-0.2-2c0-0.2-1.6-15.4,7-25c7.9-8.9,23.3-10.7,34.8-10.7
		c12.4,0,21.3,2.8,27.1,8.7c8.3,8.4,10,22.7,9.9,27.5l0,0.7l0.2,287c-0.1,6.6,0.2,44.2,25.7,70.7c15.3,15.8,36.5,24.2,61.2,24.2
		c0,0,152.4-0.1,152.4-0.1L569,435.2l-32.5,4.2c-3.7,0.5-15.8,0.6-22.1-4.9c-5.1-4.5-6.7-13.7-6.7-20.6c0-0.8,0,0,0-269.9
		c0.1-2.4,2.3-60.2-38.2-102.3C442.8,14,405.3,0,357.9,0c-48.8,0-84.1,13.6-109.3,30.3c0-8.4,0-19.6,0-19.6H0l0.1,156l34.6-7.3
		c6.9-1.5,23.8-2.2,31.5,4.7c5.6,5.1,7.4,15.2,7.4,24.2V585.8z M31.4,144.1l-15.6,3.5L15.7,26.4h217.2c0,0,0,25.7,0,36.8
		c21.9-22.5,60.7-47.4,125-47.5c42.9,0,76.7,12.4,100.2,36.9c35.9,37.3,34.2,88.6,34.2,90.3c0,0,0.2,271,0.2,271
		c0,14.9,3.9,25.9,11.7,32.5c13.2,11.4,34.2,8.5,34.4,8.5l14.7-2.1l0.1,117c0,0-136.7,0.1-136.7,0.1c-20.7,0-37.4-6.5-49.9-19.4
		c-22.4-23.2-21.4-58.4-21.3-59.4c0,0-0.2-287.4-0.2-287.8c0-0.2,0.4-23.5-14.2-38.6c-8.8-9-21.7-13.6-38.4-13.6
		c-21.5,0-37.2,5.5-46.6,16.2c-13.3,15.1-10.7,36.9-10.7,37.1l0.1,0.9l0.3,364.7l-146.4,0.1v-382c0-16.4-4.4-28.4-12.7-35.8
		C60.3,137.8,31.7,144,31.4,144.1z M1036.3,659.9c0-2.6,0-649.2,0-649.2h-28.8v0H852.8l0.3,365.6c-0.1,8.8-2.4,53.3-39.2,53.3
		c-13.6,0-19.8-4.7-23.3-8.2c-11.5-11.7-13.7-34.3-13.6-42l-0.3-368.6H525.7l0.1,149l28.5,0c26,0,34.6,6.7,37.1,9.5
		c2.4,2.8,2.8,6.4,2.8,8.6l-0.1,8.1l-0.3,244.3c0,47.7,15.8,88.6,45.6,118.3c31,30.9,75.6,48,125.6,47.9c36.8,0,66.4-8.9,88.6-19.5
		c0,3.5,0.1,7.2,0.1,10.6c0,25.1-0.8,46.5-4.6,51.1c-1,0.8-6.6,3.8-32.6,3.8H73.6v171.5h799c58.5,0,102.7-17,131.5-49.8
		c28.7-32.8,32.3-72.4,32.3-93C1036.3,666,1036.5,662.2,1036.3,659.9z M992.2,753.8c-25.6,29.3-65.9,44.1-119.7,44.2l-783.3,0.6
		V658.4l727.1-0.5c25.3,0,38-2.4,43.8-8.2c7.8-7.9,9.1-28.2,9.1-60.9c0-8.2-0.1-17.1-0.2-26.9c0,0,0-6.7-0.1-11.5
		c-20.6,13.8-55.3,30.4-104.1,30.4c-45.8,0-86.5-15.3-114.5-43.3c-26.8-26.7-40.9-63.8-40.9-107.2V182.3c0-6,0.7-15.1-5.9-22.9
		c-8.3-10.1-25.4-15.4-49.3-15.4l-12.8,0l-0.1-117.6H761c0,0,0.3,352.3,0.3,352.6c0,0.3-0.6,34.2,18,53.2c8.6,8.8,19.9,13,34.6,13
		c54,0,54.9-66.2,54.9-69l-0.3-349.9h151.8c0,0,0.5,632.7,0.5,634.1c0.2,1.7,0.5,5.6,0.5,11.2
		C1021.3,689.8,1017.6,724.8,992.2,753.8z"/>
	<path class="st1" d="M609.5,182.3c0-6,0.7-15.1-5.9-22.9c-8.3-10.1-25.4-15.4-49.3-15.4l-12.8,0l-0.1-117.6H761
		c0,0,0.3,352.3,0.3,352.6c0,0.3-0.6,34.2,18,53.2c8.6,8.8,19.9,13,34.6,13c54,0,54.9-66.2,54.9-69l-0.3-349.9h151.8
		c0,0,0.5,632.7,0.5,634.1c0.2,1.7,0.5,5.6,0.5,11.2c0,18.1-3.7,53.2-29.1,82.2c-25.6,29.3-65.9,44.1-119.7,44.2l-783.3,0.6V658.4
		l727.1-0.5c25.3,0,38-2.4,43.8-8.2c7.8-7.9,9.1-28.2,9.1-60.9c0-8.2-0.1-17.1-0.2-26.9c0,0,0-6.7-0.1-11.5
		c-20.6,13.8-55.3,30.4-104.1,30.4c-45.8,0-86.5-15.3-114.5-43.3c-26.8-26.7-40.9-63.8-40.9-107.2V182.3z M89.3,570.1l146.4-0.1
		l-0.3-364.7l-0.1-0.9c0-0.2-2.6-22,10.7-37.1c9.4-10.7,25.1-16.2,46.6-16.2c16.7,0,29.6,4.6,38.4,13.6c14.7,15,14.2,38.3,14.2,38.6
		c0,0.4,0.2,287.8,0.2,287.8c0,1-1,36.2,21.3,59.4c12.5,12.9,29.2,19.4,49.9,19.4c0,0,136.7-0.1,136.7-0.1l-0.1-117l-14.7,2.1
		c-0.2,0-21.3,2.9-34.4-8.5c-7.7-6.7-11.7-17.6-11.7-32.5c0,0-0.2-271-0.2-271c0.1-1.6,1.7-53-34.2-90.3
		c-23.6-24.5-57.3-36.9-100.2-36.9c-64.3,0.1-103.1,25-125,47.5c0-11.1,0-36.8,0-36.8H15.7l0.1,121.2l15.6-3.5
		c0.3-0.1,28.9-6.2,45.2,8.3c8.2,7.3,12.7,19.3,12.7,35.8V570.1z"/>
</g>
</svg>
