<?xml version="1.0" encoding="utf-8"?>
<!-- Generator: Adobe Illustrator 25.0.0, SVG Export Plug-In . SVG Version: 6.00 Build 0)  -->
<svg version="1.1" id="Layer_1" xmlns="http://www.w3.org/2000/svg" xmlns:xlink="http://www.w3.org/1999/xlink" x="0px" y="0px"
	 viewBox="0 0 969.2 745.8" style="enable-background:new 0 0 969.2 745.8;" xml:space="preserve">
<style type="text/css">
	.st0{fill:#FFFFFF;}
	.st1{fill:#9F7A2C;}
	.st2{fill:#D6A22A;}
	.st3{fill:#010101;}
	.st4{fill:#016577;}
</style>
<g>
	<path class="st0" d="M228.7,367.7l2.8-3.8C230.5,365.3,229.5,366.5,228.7,367.7z M554.2,242.7c17.8,1,34.8,6.7,52,10.8
		c-12.4-8.2-25.6-15.2-39.3-21.1c-18.6-8.1-35.8-19-52.3-30.6c-5.3-4.5-12.5-2.9-18.8-2.5c3.3,5.3,7.1,10.4,11.1,15.3
		c-2.1,0.1-6.4,0.2-8.5,0.2C512.8,230.2,533,240.7,554.2,242.7z M576.1,188c28.7,6.4,54.2,22.7,82.6,29.8
		c-10.2-4.6-20.7-10.3-27.1-19.9c-0.4,1.2-1.2,3.6-1.6,4.8c-9.8-4.6-20-9.2-27.9-16.9c-4.8-4.8-6.8-11.2-8.7-17.6
		c-2.7,3.9-4.9,8.4-7.3,12.4c1.8,2.7,3.6,4.9,5.3,7.7c-4.9-1.1-7.5-1.8-12.2-3.1c-1.7-5.4-4.9-9.4-8.2-13.9c1.6,0,4.5-0.3,6.1-0.3
		c-2.7-1.7-5.3-3.3-8-5c7.3-7.1,18-10.3,23-19.7c1.4,0.7,4.2,2.3,5.6,3c-1.7-2.1-2.8-3.8-5-6.3c-10.5-1.3-22.6-0.5-30.1,8
		c1.7,0.4,4.3,1.1,6,1.5c-3.7,0-6.7-0.3-10.3,0.2c-2.3,3.3-4.4,7.3-3.2,11.4c3.5,5,9,9,9.4,15.7c-2.6,0.4-5.3,0.7-7.9,1.1
		c-6.8-3.2-13.5-6.7-19-11.9c2,0.2,7.4,0.9,9.4,1c-2.5-1.9-6.4-4.2-8.9-6c0.1-3.4,0.2-6.7,0.1-10.1c-5.3,0.1-10.6,0.4-15.9,0.8
		c3.3,2.9,6.7,5.8,10,8.7c-11.6,4.6-24,7.8-34.6,14.7c-10.2,6-17.8,15.2-25.7,23.8c0.7-0.1,2.2-0.3,2.9-0.4
		C503.9,180.6,542.6,180.2,576.1,188z M165.5,123.3c1.7,0,5.2-0.1,6.9-0.1c-2.3-2.1-4.8-4-7.2-6c0.9-0.5,2.7-1.4,3.6-1.9
		c5-2.7,10.1-5.2,15.4-7.3c-4.4-0.9-8.7-2.2-12.7-4.2c-32.2,0.7-64.7,1.7-97,2.5c-0.1,0.3-0.1,0.7-0.1,1
		c22.9,5.9,45.3,14.1,66.6,24.5C149.1,129.1,158.2,128.6,165.5,123.3z M597.8,211.9c-1.9-3.5-6.4-3.6-9.7-4.7
		c-6.2-1.3-12.2-4.3-18.6-3.9c8.3,2.5,14.7,8.4,21.7,13.2C594.5,217.8,598.5,215.6,597.8,211.9z M224.9,215.7
		c-10.1-0.7-20-1.8-29.9-3.7c28.8-3.6,57.5-11.4,82.5-26.5c-15.8,4.8-32.1,8-48.7,8.9c-37.4,2.2-76.9,0.6-110.9-16.9
		c18.9,2.1,38.1,6,57.2,2.7c-13.7-8.2-25.2-19.3-39-27.3c-27.1-16.9-58.2-30.5-90.8-28c5.9,3.6,11.8,7.1,16.5,12.2
		c-0.3,11.8,6.2,22.2,13,31.3c7.6,10.5,17.6,18.7,27.1,27.3c-4.3,0.1-8.5,0-12.8,0.2c11,7.3,24,10.5,36,15.7
		c-5.2,1.4-10.5,2.4-15.7,3.7c35.5,15.2,77.3,17.1,113.4,3C223.3,217.7,224.4,216.4,224.9,215.7z M823.9,402.9
		c-7.1-6.5-17.1-4.1-24.3,0.8c-8.4-8.7-20,1.3-29.5,2.8c0.6,7.4,4.7,13.9,8,20.5c7.5-4.4,13.7-10.4,20.5-15.7
		c1.2,5.8,1.8,11.8,2.1,17.8c6.2-2.6,11.9-6.2,17.5-10c-3.5,16.9-11,32.6-19.3,47.7c18.7-9.3,33.5-25,46.6-41
		c5.3-6.2,10.2-16.1,4.4-23.5C842.7,394.8,831.5,397.9,823.9,402.9z M909.1,327.9c-3,2.9-10.1-2.7-5.6-5.6c5-4.9,11.2-9.1,13.7-15.9
		c-0.7-4.4-5-7.1-7.6-10.4c-5.8,12.1-14.1,23-24.6,31.4c-8.7,7.2-19.5,11.1-29.2,16.7c-14.9,8.4-29.6,18.4-39.6,32.6
		c17.9,2,36.4,8.1,48.5,22.1c17.4-4,35-11.3,47.2-24.8c-5.6-0.5-11.5-0.1-16.8-2.4c-2.7-0.8-2.8-4.1-1.6-6.1c8-4.8,18.9,3,26.4-3.3
		c4.1-6.4,4.9-14.1,6.3-21.4c-8.3,6.7-20.9,15.9-31.2,8.5c4.3-6.3,12.1-7.6,18.4-11c4.6-2.3,8.6-5.7,12.5-9
		c-0.7-4.8-1.4-9.7-3.6-14.1C917.3,318.3,915.5,325.8,909.1,327.9z M956.9,363.2c-0.1,0.1-0.1,0.3-0.2,0.5
		c-8.5,26.3-28.6,50.1-55.1,65.3c-5.9,3.7-11.9,6.1-17.2,8.2c-1.5,0.6-3,1.2-4.4,1.8c-24.2,33.3-59.4,57.8-99.7,69.2
		c-1.7,0.5-3.5,0.7-5.2,0.7c-5.8,0-11.5-2.8-15.2-7.6c-4.8-6.2-5.2-14.8-1.1-21.5l1.9-3.1c2.9-4.8,5.7-9.4,8.3-14
		c-0.8-0.3-1.6-0.6-2.4-1c-7.3,5.3-15.9,9.9-25.8,14c4.8,2.4,8.5,6.7,10,12c7.1,25,4.8,50.5,0.5,75.1c1,0.7,2.1,1.5,3.1,2.4
		c9.2,7.9,13.3,18.4,11.5,29.7c-0.1,0.4-0.1,0.7-0.2,1c-7.3,33.9-26.4,66.2-53.8,91.1c-34.1,30.5-74,47.8-112.4,48.6
		c-1.6,0.1-3.1,0.1-4.6,0.1c-29.9,0-60.6-7.7-88.7-22.2c-27-13.9-51.2-33.8-69.9-57.6c-11.4-14-21-29-30.2-43.5
		c-9.3-14.5-18-28.2-28.3-40.7c0-0.1-0.1-0.2-0.2-0.3c-14.5-18.2-33.8-33.6-56-44.6c-11.5-5.7-23.5-11.1-35.1-16.3
		c-22.6-10.2-46-20.7-68-34.4c-46.5-28.2-83.9-71.4-105.3-121.6c-13-30.5-18-64.3-14.8-98.6c-8.8-5.7-16.7-12.4-24-18.9
		c0-0.1-0.1-0.1-0.2-0.2c-24.9-23-42.7-45.9-54.4-70.1c-0.1,0-0.1-0.1-0.1-0.1c-10.6-22.4-13.2-43-7.8-61.2c0.1-0.2,0.1-0.4,0.2-0.6
		c2.2-6.6,7.4-22.1,23.7-26.8c8.2-2.6,16.1-2.6,22.5-2.6c3.1,0,6.1,0,8.5-0.3C67,75,67.1,75,67.3,75c15.9-1.6,32-2.7,47.5-3.8
		c35.4-2.5,68.8-4.9,101.9-11.8c36.4-7.6,73-17.5,104.4-26.1c39.9-12.1,75.6-18,109.1-18c9.5,0,18.9,0.4,28,1.4
		c4.2,0.3,7.9,1.1,11.2,1.8c2.8,0.5,5.5,1.1,7.2,1.1c0.3,0,0.6-0.1,0.8-0.1c0.4-0.1,0.7-0.1,1.1-0.2c19.2-3.6,39.2-5.4,59.4-5.4
		c42.4,0,85.8,7.7,128.9,22.9c44,15.3,85.1,39.2,121.3,60.3l1.5,0.8c27.8,14.6,56.5,29.6,79.2,54.4c15.4,16.4,15.4,39.2,7,58.6
		c19.7,15.7,34.6,32.3,45.2,50.5c0.1,0.2,0.2,0.3,0.3,0.5c0.6,1,2.9,3.1,4.7,4.7c2.3,2,4.8,4.3,7.3,7.1
		C956.4,299.2,965.3,333.5,956.9,363.2z M919,286.4c-4.6-5.3-11-9.1-14.4-15.4c-13.1-22.5-32.7-40.3-53.9-55.1
		c11-13.7,17.7-36.4,4.2-50.7c-21.1-22.8-49-37.1-76.1-51.3c-38.1-22.2-76.5-44.4-118.3-59C603.6,34.8,541.6,27,482.1,38.1
		c-8.6,2.1-17-1.8-25.5-2.4c-43.9-4.7-88.1,3.1-130,15.9c-35.1,9.6-70.3,19-105.9,26.5C170.9,88.5,119.7,89,69.2,93.9
		C60,95,50.3,93.3,41.4,96.1c-6.6,2-9.3,9-11.2,14.8c-4.8,15.9-0.1,32.9,6.8,47.5c12,24.7,30.1,45.9,50.2,64.4
		c9.8,8.7,20,17.1,31.9,22.8c-5.4,34.1-1.7,69.6,11.8,101.4c19.8,46.5,54.5,86.6,97.7,112.8c32.1,20,67.8,33,101.5,49.8
		c24.1,11.9,45.8,28.8,62.5,49.9c21.8,26.5,36.9,57.8,58.6,84.4c35,44.5,90.5,74.1,147.7,72.6c37.5-0.8,72.6-19.1,100.1-43.7
		c23.5-21.3,41.2-49.7,47.8-80.9c1.7-10.4-9.4-15.4-17.1-18.9c5.2-26.2,9.9-53.9,2.5-80.1c-11.9,16.6-23.7,33.3-37.5,48.3
		c-13.4-13-23.6-30.8-22.5-50c13.3-6,27-12.2,37.7-22.5c5.4-5.6,13.4-6.7,20.3-9.5c13.9-5.3,27.6-12.7,37.3-24.3
		c2.4,3.2,4.7,6.4,7.2,9.5c4.9-3.4,9.9-6.8,14.9-10c0.2,4.6,0.3,9.1,0.4,13.7c1.7-0.1,5-0.4,6.6-0.6c-4.7,15.2-13.4,28.7-21.6,42.2
		c37.1-10.5,70.5-34.1,92.2-66c7.9-4.1,16.8-6.3,24.4-11.2c21.3-12.1,39.2-31.3,46.8-54.8C945.7,332.5,936.1,305.2,919,286.4z
		 M659,482.4c32.4-9.5,60.4-33.5,74.8-64c-16.8,3.5-33.8,6.6-51.1,6.6C684.5,446.7,672.5,466.4,659,482.4z M660.7,575.6
		c-2.5-4.5-5.2-8.9-8.3-13c-5,3.6-9.8,7.5-14.2,11.7c8.9-17.5,8.2-38.5,2.1-56.8c-6,14.6-13.2,28.8-22.3,41.7
		c-8.7,12.3-20.6,21.6-32,31c-4.1,3.2,0,9.4,4.4,9.7c15,2.7,30.1-4.1,41.3-13.7c3-3.1,7.5-3.3,11.6-3.8c11.3-1.1,22.8-1.7,34.2-0.8
		c6.5-0.1,10.5,6.6,17,6.7c6.1,1.1,10.1-4.7,13.1-9.1c11-17.8,16.5-38.9,16-59.7c-12.1,17.6-22.7,36.9-38.7,51.4
		c-1.9-3.5-4-6.9-6-10.3C672.2,564.9,666,569.8,660.7,575.6z M681.7,596.4c12.8-0.1,25.7,2.1,37.2,7.7
		c-24.6,48.1-77,78.4-130.2,81.4c3.5-3.8,3.3-8,3.3-8l-52.4-2.7l5.3-9.3c-25.3-9-34.8-14-56.1-34c-21.6-20.3-38.7-44.9-52.8-70.8
		c-19.6-35.2-53.4-60.5-90.3-75.5c-52.1-23.7-105.5-49.9-145.3-92.2c7-5.4,14.9-10.4,21.5-16.2l-2,5.5c1.6-1.2,4.7-3.6,6.3-4.8
		c-3.5,6.2-7.4,14.5-2,20.8c7.2,7.1,17.9,8.8,26.7,13.4c2.6-1.6,5.3-3.2,7.9-4.8c-3.5,4.4-6.8,9-9.2,14.2c2.3-1.8,4.5-3.6,6.8-5.5
		c5.9,3,12.5,6.4,19.2,3.8c6.6-0.9,7.7-8.7,10.4-13.4c-1.9,0.7-5.8,2.2-7.8,3c5.1-9.9,19.4-11.8,21.1-23.6c2.7-6.7-1.5-13-6.4-17.3
		c3.7-1.9,7.4-3.8,11-5.9c-7.3,0.9-14.4,4.4-21.9,3.1c-11.2-1.8-23.4,0-33.7-5.7c-4.1-2.7-7.6,2.4-10.9,4.3c0.1-1.4,0.4-4.1,0.5-5.5
		c-2,1.9-4.5,3.5-6.4,5.5c-6.7-2-13.6-3.9-20.4-5.6c20.4-13.2,41.4-21.9,66.5-29.2c0.1,0.1,0.2,0.2,0.4,0.3c1.8,1.5,3.6,3,5.5,4.5
		c3.7-1,7.4-2,11.1-2.9c-4.4,2.9-8.8,5.5-13.3,8.2c3.7-0.3,7.3-0.6,11.2-0.9c0.9,3.1,2.9,5.3,6.3,5.2c8,0.7,16.6-0.8,23.6-4.9
		c2.8-4.9,1-11,0.9-16.4c-1.2-0.4-3.6-1.1-4.8-1.5c2.5-1.7,5-3.5,7.5-5.2c-0.7-2.6-1.4-5.1-2.2-7.6l1.1-0.5
		c7.9-0.1,15.7-1.1,23.5-2.1c-9.6-8.5-21.1-14.3-33.1-18.4c31.2-4.4,62.9-4.1,94.4-5.3c-1.7-1-5-3-6.7-4c6-0.2,12.1-0.5,18.1-0.9
		c-8.1-3-16.5-5.1-24.9-7.4c3.5,0.2,6.9,0.3,10.3,0.5c99.5,14.9,198.4,40,289.1,84.4c4.4,2.8,9,0.2,12.4-2.9
		c13.7-0.5,27.1-4.1,39.5-9.9c-7.5-9.2-15.6-17.9-24.9-25.2c0.5-1.7,1.1-3.5,1.7-5.2c-11.2-9.2-24.5-15.3-36.2-23.7l0.7,0.3
		c22.4,8,44.5,16.8,66.1,26.6c16.4,7.7,33.3,15.6,46.1,28.7c8.2,8.9,10.8,21.5,10,33.3c-27.6-1.2-53.5,9.9-78.4,20.3
		c-21.1,9.8-45.3,14.3-68.2,9.1c-28.8-5.5-51.7-28-64.1-53.8c21.1,7.4,41.6,16.3,62,25.5c4.7,2.6,11.9-2.8,10.4-8.5
		c-3.4-7.3-12.6-8.3-19.1-11.7c-92.5-36.2-191.4-52.6-290-61.1c41.9,6.5,83.5,13.4,124.8,23.6c-16.8,2.8-31.9,12.7-40.8,27.2
		c-19.6,31-20.2,70.3-10.9,104.8c11.6,42.4,30.4,83,55.8,118.9c11.9,16.1,25,32,42.2,42.7c18.4,11.6,41.8,10.3,61.9,4.5
		C624.4,608.9,651.9,596.3,681.7,596.4z M324.6,372.5c6,3.7,11.9,11.8,19.5,5.6c-2.2,2.1-6.8,6.2-9.1,8.2c4-1.4,7.9-1.4,11.5,0.7
		c10.8,5.4,22.6,0.5,33-3.4c-2.3,2.1-4.7,4.1-7,6.2c7,2.7,15.9,2.9,21.4-3c3.8-5.1-0.3-11.3-1.7-16.6c2.8-1.9,5.6-3.7,8.5-5.6
		c-3.5,0.4-7,1-10.5,1.3c-4.7-6.5-9.6-14.8-18.7-15c-9.1,1.5-17.5,5.7-26.3,8.5c-0.6,0.6-1.8,1.8-2.4,2.4c0.2-1.1,0.5-3.3,0.6-4.4
		c-5.7,0.4-11.4,0.3-17,1.4C320.2,359.9,319.8,369.5,324.6,372.5z M403.4,442.3c-3.2-8-9.8-17.7-19.6-15.9c-1.8-2.3-2.9-5.7-6-6.6
		c-6.2-2.7-12.5,1.5-18.6,2.5c1.4-1.4,4.3-4,5.8-5.4c-12,2.7-24.2,0.1-36.2-0.5c-5-0.2-9.9-0.8-14.7-2.3c-6.1,1.8-12.6,3.3-17.7,7.1
		c-5.5,5.1-3.6,13.8,1.1,18.8c3.2,0,5-3.6,7.5-5.3c-0.7,2.7-1.3,5.4-2,8.1c9.6,3.8,19.6,6.5,29.8,7.8c8.8,1.6,18.2,1,26.2,5.5
		c3.7-2.3,7.4-4.5,11.2-6.6c-2.2,3.7-4.4,7.3-6.7,11c6.7,5.9,15.5,11.2,24.8,8.5c6.1-1.6,6.2-8.7,8.4-13.4l-3.1,0.9
		c-0.2-3.1-0.5-6.3-0.8-9.4c2.7,0.8,5.5,1.6,8.2,2.4C402.5,447.3,406.1,445.2,403.4,442.3z M736,443.3c14.6-7.1,22.9-24.1,33-36.3
		c-10.5,4.5-24.2,8.1-35.1,11.3C735.8,426.5,736.3,434.9,736,443.3z"/>
	<path class="st1" d="M502.1,208.5c1.6,2.1,3.1,4.1,4.8,6.1C505.2,212.6,503.6,210.6,502.1,208.5z M506.9,214.6
		c-2.1,0-6.4,0.1-8.5,0.2C500.5,214.8,504.8,214.7,506.9,214.6z M541.7,240.6c-16.5-4.2-31.7-13.3-43.2-25.6
		C510.1,227.3,525.3,236.5,541.7,240.6z M766.5,257.4c0.1,3.1,1,7.3-0.3,10.2c-3.2,3.3-7.4,4.3-11.2,6.6c2.8,5.4,5.8,10.7,9,15.9
		c-24.8-3.2-49.9-4.3-75-2.4c-0.1,0-0.2-0.1-0.2-0.1l-0.7-0.3c0.1,0.1,0.2,0.2,0.4,0.3l-0.4-0.2l-0.1,0
		c-10.1-10.8-20.7-23.7-36.8-24.4c-3.5-6.2-6.6-13.2-12.9-17.1c-5.8-3.5-12-5.9-18.2-8.4c12.7-5.9,26-10.9,40.1-11.6
		c22.1-1,43.9,3,65.6,6.1c7.4-12.3,7.5-27.1,3.4-40.6c-5.4-7.9-11.4-15.5-18.5-21.8c-0.3-0.6-0.5-1.2-0.8-1.9
		c7.6,6.5,13.9,14.4,19.5,22.7c3.2,3.2,6.6,6.3,8.6,10.4c5.9,11.9,12.3,24.8,12.9,38.3L766.5,257.4z M766.5,258.2
		c-4.5-3.6-9.4-6.7-14.9-8.4c-15.8-5-32.6-6.8-49.1-5.8c-17.6,3.7-34.7,9.4-50.6,17.7c20.6-2.4,41-8.7,61.9-5.7
		c15.2,1.3,29.5,7.7,44.7,8.4C762.6,264.9,764.5,261,766.5,258.2z M840.7,176.5c-9.8,7.2-22.2,6.7-33.8,6.9c0,0-0.1,0-0.1-0.1
		c0,0,0.1,0,0.1,0.1c0,0,0,0,0,0c10.3,6.6,21,12.8,30.6,20.4C842.7,195.7,844.5,185.6,840.7,176.5z M558.3,294.1
		c-44.8-10.5-90.1-18.3-135.8-23.6c-5.4-0.6-10.7-0.6-16.1-0.7c0,0,0,0,0,0c-3.4-0.2-6.8-0.3-10.3-0.5c0,0,0,0,0,0
		c-0.1,0-0.2,0-0.2,0c8.4,2.3,16.8,4.4,24.9,7.4c-6,0.4-12.1,0.7-18.1,0.9c1.7,1,5,3,6.7,4c-31.5,1.2-63.2,0.9-94.4,5.3
		c12,4.1,23.5,9.9,33.1,18.4c-7.8,1-15.6,2-23.5,2.1c-0.1,0-0.4,0.2-0.9,0.4c-0.2-0.5-0.3-1-0.5-1.5c-5.2-5.2-12.9-5.9-19.2-9.3
		c-7.6-4.6-7.4-16.6-16.6-19.1c-5.9-1.8-14.4-5.3-18.3,1.7c2,0.3,6.1,1,8.1,1.3c-5,1.7-10,3.1-15,4.5c1.6,0.6,3.2,1.1,4.8,1.7
		c-0.4,5.4-2.4,11.6,1.6,16.2c3.4,0.3,6.9,0.1,10.4,0.1c-2,8.2-9.3,18.6-1.5,25.7c-7.2,2-14.5,4.4-21.8,7.1
		c-16,5.9-30.6,12.9-44.8,22.1c6.8,1.7,13.7,3.6,20.4,5.6l-2.8,3.8c-2.2,2.8-4.2,5.3-6.7,9c-0.1,0.1-0.1,0.1-0.2,0.2
		c-6.6,5.8-14.5,10.7-21.5,16.1c-4.7-5.5-11.1-12-14.3-16.6c0.1-0.1,0.1-0.2,0.2-0.3c4.7-9.6,8.4-13.7,9.1-21.9
		c-1.9,0-5.7,0.1-7.6,0.1c2.8-3.7,5.9-7,9.2-10.2c-1.1-0.4-3.6-1.1-4.6-1.5c-4.6-6.8-9.1-13.9-15.1-19.5c-1.6,0-5,0-6.6-0.1
		c7-5.5,9.7-14.5,11.6-22.9c-1.3-7.9-10-8.3-16.3-7.9c0.9,6.5-8.4,4.3-11.5,6.5c-3.1-13.5-3.5-37.3,1.8-55.3
		c16.3-2.2,32.8-5.1,47.8-12.4c6.5-3.3,13.8-6.2,18.1-12.5c0.2-0.1,0.4-0.2,0.6-0.2c0.5-0.6,1.6-1.9,2.1-2.6
		c-3.4-0.2-6.7-0.5-10-0.9c-1.5-0.2-3-0.3-4.5-0.5c-0.7-0.1-1.3-0.2-2-0.2c-1.6-0.2-3.1-0.4-4.7-0.6c-2.9-0.4-5.8-0.9-8.8-1.5
		c28.8-3.6,57.5-11.4,82.5-26.5c-0.3,0.1-0.5,0.2-0.8,0.2c0.1-0.1,0.3-0.2,0.4-0.2c15.9-8,32.1-16.1,44.8-28.9
		c-19.6,10.8-41.3,17.7-63.7,19.8c-30.7,2.3-60.9-9.5-85.9-26.6c30.6,5.6,47.4,10.9,71.5,9.5c14.2-0.5,27.8-5.3,41.8-7.3
		c-0.5,1.6-1.4,4.8-1.8,6.4c19.6-3.5,38.7-9,58.1-13.5c14.2-3.3,28.9-6.2,43.5-4.2c8.8-6.2,19.4-2.3,28.9-0.3
		c3.4-0.2,6.9-0.5,10.4-0.7c-1.5-2.8-2.7-5-4.2-7.7c40.7,0.8,81.3,3.9,120.9,13.9l0.1,0c0,0.1-0.1,0.1-0.1,0.2
		c-0.8,0.9-2.4,2.7-3.2,3.6c0.1,1.1,0.2,3,0.2,4.1l-0.2,0.1c-5.3,0.1-10.6,0.4-15.9,0.8c3.3,2.9,6.7,5.8,10,8.7
		c-11.6,4.6-24,7.8-34.6,14.7c-10.2,6-17.8,15.2-25.7,23.8c0.7-0.1,2.2-0.3,2.9-0.4l4.7,0.6c5.4-0.9,10.7-2.1,16.1-2.8
		c2.8-0.2,5.7-0.6,8.6-0.6c-2.9,0-5.8,0.4-8.5,0.6c-5.4,0.7-10.7,1.9-16.1,2.8c-6.3,2.4-14,4.9-15.7,12.5
		c-2.9,6.5,3.6,11.4,8.2,14.7c13.6,9.2,28.3,16.7,41.5,26.7c-38.8-6.9-77.5-14.9-117-16.6c43.7,5.5,86.9,14.9,129.6,25.9l4.2,3.2
		C540.2,276.5,549.7,284.8,558.3,294.1z M438,163.7c2.4,5.6,4.7,11.5,9.4,15.6c3,3.7,9.7,6.2,12.9,1.3c6.8,2.3,10.9-3.7,15.6-7.4
		c3.3-0.4,6.7-0.1,10.1,0.1c-1.9-0.7-3.7-1.4-5.6-2.1c2.6-4.1,6.9-8.1,5.6-13.5c-0.8-4.3,1.2-8.6,0.4-12.8
		c-5.8-1.3-11.8-0.7-17.5-2.6c-4.7,2.1-9.5,4.2-14.2,6.2c0.5,1.9,1,3.8,1.7,5.8c-1.6-0.3-4.7-0.8-6.3-1.1
		C446.1,156.8,441.6,159.7,438,163.7z M407.8,209.4c-1.8,0.1-5.4,0.2-7.2,0.3c1.2,1.4,3.5,4,4.7,5.3c-1.2,0-3.7-0.2-4.9-0.3
		c5.7,5.5,10.4,11.7,14.6,18.2c7.3,3.8,12.8-3.4,18.2-7.1c2.7-0.9,5.5-1.8,8.1-3c-5.2-7.7-13.7-12.2-21.1-17.4
		C415.3,202.6,410.3,204.8,407.8,209.4z M235.9,290.4c-3.7,0.8-7.3,1.7-11,2.4c2.6-1.6,5.2-3.1,7.8-4.7c-3.6-6.5-2.2-17.1-10.3-20
		c2.3-1.1,4.5-2.1,6.7-3.2c-6.9-7.7-21.8-11.2-28.1-1.1c-5.1,3.9-3.3,12.6-9.9,15c3.5,0.1,6.9,0.1,10.4,0.1c-1,0.9-2.8,2.8-3.8,3.7
		c3.3,8.6,2.6,17.8,2.2,26.8c3.4-0.2,6.8-0.4,10.2-0.5c-3.6,2.4-7.1,4.6-10.7,6.8c1.1,3.8,1.8,8,4.5,11.1c4,4.9,12.4,5.5,16.7,1.1
		c5.4-5.2,10.7-10.5,16.4-15.4C244,307,243.4,295.2,235.9,290.4z M276.3,238.4c-1.6-5.6-7.9-6.9-12.5-9.2c0.3-0.8,0.8-2.6,1.1-3.5
		c-8.3-3.5-16.5,1-24.9,1.2c-0.5,1.4-1.4,4.4-1.9,5.8c2.4,0.9,4.9,1.7,7.3,2.6c-3.3-0.3-6.5-0.5-9.8-0.8c-1.7,5.5-1.2,11.2,3.5,15.1
		c3.5,5.1,10.1,3.4,15.1,2C263.8,253.8,274.7,248.6,276.3,238.4z M322.4,196.2c4.7-1.7,9.5-3.2,14.6-3.1c-3.5-1.3-6.8-3-10-4.7
		c1.1-3.6,4.8-7.9,2-11.6c-3.7-4.5-9.9-4.1-15.2-4.2c0.4,0.9,1.3,2.8,1.7,3.8c-11.2-1.9-19.8,6.5-28.5,12.1c1.7,1.7,3.3,3.5,5,5.2
		c-3.2-1-6.5-2.1-9.8-3.1c0,4.1-0.3,8.1-0.7,12.2c1.7,1.4,3.5,2.9,5.3,4.3c-3.9,0.1-7.7,0.3-11.5,0.5c8.4,2.9,16.8,6.8,25.9,7.1
		c6.5-1.4,12.9-3.6,19.4-5.1C325.6,206.8,322.7,200.6,322.4,196.2z M379.7,268.8c-3.9-5.8-9.1-10.7-11.9-17.2
		c2.7-1.9,5.4-3.8,8.1-5.7c-4-0.4-9,1.4-12.2-1.9c-5.7-5.2-7.9-13.2-13.8-18.1c-4.3-3.5-10.1-1.9-15.1-1.9c1.7,1.3,3.3,2.7,5,4
		c-4.1,0.9-8.1,1.8-12.2,2.7c-1.8,5.4-3.2,11-4.2,16.7c2.5,1,4.9,1.9,7.4,2.9c-1.6,0.7-4.9,2.2-6.5,2.9c4.8,5.3,10,10.3,15.1,15.4
		c-0.7,1.9-1.4,3.8-2.1,5.7c6,1.3,12.2,3.3,18.3,1.6C363.7,273.6,373,274.7,379.7,268.8z M399.2,177.9c6.7-2.6,7.6-10.7,11.3-16
		c-2.4-1.1-4.9-2.1-7.4-3.2c1.5-0.1,4.6-0.5,6.2-0.6c-0.8-5.5-1.4-11-1.7-16.5c1.6-0.2,4.9-0.5,6.5-0.6c-9.5-2.1-20.1-6-28.9,0.3
		c-3.2,1.4-6.6,2.5-9.9,3.6c3.6,1.7,7.1,3.5,10.7,5.4c-3.3-0.3-6.5-0.5-9.7-0.8c-3,2.9-6.1,5.8-9.1,8.7c4.3,2.2,8.6,4.4,12.9,6.6
		c-4.6-0.1-9.1-0.3-13.7-0.4c1.4,2.7,2.9,5.5,4.3,8.2c0,3.4-2.4,7.8,1.1,10.2c5.3,3.7,12.3,2.4,18.4,2.9c-0.3-0.8-0.8-2.5-1-3.3
		C392.6,181,395.9,179.6,399.2,177.9z M631.6,197.9c6.4,9.6,16.9,15.3,27.1,19.9c14.6,3.6,31.3,6.7,45-1.4
		c5.1-3.3,10.3-7.4,11.7-13.6c0.3-0.9,0.5-1.9,0.6-2.8c-0.1,0.6-0.3,1.2-0.4,1.8c-1.4,6.2-6.6,10.3-11.7,13.6
		c-10.4-0.5-21.2-0.5-30.6-5.4c-15.5-7.7-27.8-20.3-42.4-29.5c-9.5-6.9-20.2-11.8-30.7-17.1l-2.1-0.6c-1.6,1.8-3.2,3.6-4.8,5.4
		c1.9,6.3,4,12.8,8.7,17.6c7.9,7.7,18.1,12.3,27.9,16.9C630.4,201.5,631.2,199.1,631.6,197.9z"/>
	<path class="st2" d="M747.4,341.5c-12.4,5.8-25.8,9.4-39.5,9.9c0,0,0,0,0-0.1c0,0,0,0,0,0c-1.9-3.8-3.1-8.5-7.5-10.1
		c-45.1-21.5-93.5-35.1-141.9-47.1c0,0-0.1,0-0.1,0c-8.7-9.2-18.1-17.6-27.9-25.6l-4.2-3.2c3,0.8,6,1.6,8.9,2.4
		c53.8,14.8,106.7,33.3,156.5,58.6c4.3,2.4,10.6,4.6,13.8-0.6c2.4-6.2-4-10.5-8.8-12.6c-58.1-26.7-120.2-43.8-182.6-57
		c-0.1,0-0.3,0-0.4-0.1c-13.2-10-27.9-17.5-41.5-26.7c-4.6-3.3-11.1-8.2-8.2-14.7c1.7-7.6,9.4-10.1,15.7-12.5
		c5.4-0.9,10.7-2.1,16.1-2.8c3.4,5.3,7.1,10.5,11.1,15.3c-2.1,0-6.4,0.1-8.5,0.2c14.4,15.4,34.6,26,55.7,27.8
		c17.7,1,34.6,6.6,51.8,10.7c0.1,0.1,0.2,0.1,0.2,0.2c15.8,9.5,29.3,22,42.9,34.3c0-0.1,0-0.1-0.1-0.1c0,0,0,0,0.1,0
		c-6.4-18.8-18.8-34.5-31.9-49c0.7-0.3,2.3-0.8,2.9-1.1c0,0,0.1,0,0.1-0.1c6.2,2.5,12.4,4.9,18.2,8.4c6.3,3.9,9.4,10.9,12.9,17.1
		c16.1,0.7,26.7,13.6,36.8,24.4c11.7,8.4,25,14.5,36.2,23.7c-0.6,1.7-1.2,3.5-1.7,5.2C731.8,323.6,739.9,332.3,747.4,341.5z
		 M874.7,300.8c-9.3,2-17.8,6.1-25.6,11.4c-27.5-10.4-56.2-17.3-85.1-22.1c-3.2-5.2-6.2-10.5-9-15.9c3.8-2.3,8-3.3,11.2-6.6
		c1.3-2.9,0.4-7.1,0.3-10.2l-15.6-18.3c-0.6-13.5-7-26.4-12.9-38.3c-2-4.1-5.4-7.2-8.6-10.4c-5.6-8.3-11.9-16.2-19.5-22.7
		c0.3,0.6,0.5,1.2,0.8,1.9c-0.3-0.3-0.6-0.6-1-0.9c4.1,9.8,8.3,20.5,6.3,31.3c-0.1,0.6-0.3,1.2-0.4,1.8c-1.4,6.2-6.6,10.3-11.7,13.6
		c-10.4-0.5-21.2-0.5-30.6-5.4c-15.5-7.7-27.8-20.3-42.4-29.5c-9.5-6.9-20.2-11.8-30.7-17.1l-2.1-0.6c0.7-0.8,1.4-1.6,2.2-2.4
		c1,0.3,2.8,1,3.7,1.3c6-2.6,11.6-9.1,8.7-15.8c-5.3-5.2-13.4-2.3-20-2.9c-10.5-1.3-22.6-0.5-30.1,8c-6.3-2.6-11.6-7.4-18.2-9.3
		c-0.8,1.1-2.2,3-2.9,4.2l-0.1,0c-39.6-10-80.2-13.1-120.9-13.9c1.5,2.7,2.7,4.9,4.2,7.7c-3.5,0.2-7,0.5-10.4,0.7
		c-9.5-2-20.1-5.9-28.9,0.3c-14.6-2-29.3,0.9-43.5,4.2c-19.4,4.5-38.5,10-58.1,13.5c0.4-1.6,1.3-4.8,1.8-6.4
		c-14,2-27.6,6.8-41.8,7.3c-24.1,1.4-41-3.8-71.5-9.5c-3.3-1.4-6.3-3.3-8.6-5.6c0.2-1.1,0.6-3.4,0.8-4.5c3.8-5.6,10.1-8.9,13.8-14.5
		c3.7-1.1,8.7-5,4.1-8.6c-4.5-0.5-9-0.7-13.4-1.7c5-2.8,10.1-5.2,15.4-7.3c-4.4-0.9-8.7-2.2-12.7-4.2c10.6-2.5,21.6-2.8,32.3-5
		c12.5-2.6,24.9-5.7,37.5-8.3c0.1,0,0.8-0.2,1.9-0.5c2.6,0,4.6,2.4,6.6,4.2c3.9,1.6,5.5,4.4,0.4,6c8.1,2.1,16.6,0,24.7-1.1
		c5.7-2.4-2.1-6.6-3.8-8.8c2,0.4,6,1,8,1.4c0.7-3.2-1.5-9,2.3-10.3c0.4-0.1,0.6-0.1,0.7-0.1c26.9-6.5,54.1-11.8,80.9-18.7
		c4.2,7.1,12.1,13.5,20.8,12.1c5.4-1.4,10.1,2,14.9,4c-2.8-4.8-5.8-9.4-8.3-14.3l0.1,0c3.2,2.3,6.5,4.6,9.7,6.9
		c6-3.4,12.8-4.4,19.6-4.9c-0.5-2.1-0.9-4.3-1.4-6.4c2.8,1.2,5.6,2.3,8.4,3.4c-1-3.2-2.1-6.6-3.1-9.8l0.1,0
		c23.6-1.6,47.3,0,70.7,2.6c-0.7,1.7-1.4,3.4-2.1,5.2c1.3,2.2,2.7,4.4,4,6.7c-3-1.7-6-3.5-9-5.3c-1.8,2.6-4.6,5.9-2.4,9.1
		c4.1,4.2,10.4,5.8,16.1,4.5c5.8-1.1,12.1-0.7,17.4-3.7c-1.2-3.4-4.5-5.3-6.9-7.7c4.4,1.6,8.8,3.3,13.3,4.9c1.4-2.5,2.8-5.1,4.5-7.4
		c18.8,2.8,37.1,8.3,55.3,13.6c-3.2,1.7-6.5,3.4-9.7,5.1c0.6,1.6,1.2,3.1,1.8,4.6l-4.7-0.1c2.3,5.6,8,9.1,13.9,6.8
		c7.3,0.4,14.6,1.9,21.9,2.2c1-0.9,2.9-2.7,3.9-3.7c3.2,0.6,6.3,1.3,9.5,1.9c2.2,1.8,4.3,3.6,6.5,5.3c0.4-1.1,1.3-3.2,1.8-4.2
		c0.8,0.9,2.4,2.6,3.2,3.5c4-5.3,7-11.8,13.1-15c-0.3-7.6-11.2-12.2-16.5-6.8c-0.7-0.5-2.1-1.6-2.8-2.1c-5.9,3.4-12.8,5.2-15.6,12.2
		c-10.8-6.4-22.5-11.1-33.4-17.2c3.6-0.7,7.3-1.4,11-2c0.1-1.9,0.5-5.6,0.6-7.4c-4.3-7.3-13.4-7.4-20.9-7.7c0.1,2.1,0.4,6.3,0.5,8.4
		c-2-2-4.1-3.9-6.1-5.9c-4.2,1.6-8.4,6.1-13.2,4.1c-8.3-3-17-4.4-25.4-7.2c53.3-9.2,108,4.4,155.9,27.7c0.3,0.2,0.7,0.4,1,0.6
		c0,0,0,0,0,0c6.3,3,35,17.2,41.1,20.6c26.3,14,52.5,28.3,78.3,43.3c0.4,1.3,1.3,3.9,1.7,5.2c-1.5-0.3-4.5-0.9-6-1.2
		c-2,1.9-2.1,4.7-2.8,7.2c8.6,1.6,16.5,5.6,25.1,7.3c6.4,6.8,17.6,6.4,21.9,15.4c-9.8,7.2-22.2,6.7-33.8,6.9
		c-15.5-6.7-30.1-15.7-46.1-21.3c28.8,19.3,56.9,40.3,79.6,66.7c3.8,4.8,8,9.6,10.3,15.4c2.1,6.6-0.8,13.2-2.5,19.6
		c-1.9,3.1,0.9,6.3,3.7,7.5c7.4-1.1,11.9-7.5,17.4-11.8c8.5,6.9,16.4,16.4,17.7,27.6C887.5,293.9,881.2,299.4,874.7,300.8z
		 M254.7,122.2c1.9-1.2,3.8-2.4,5.7-3.7c-8.5,1.1-16.9-0.9-25.4-0.5c-6.3,2.3-10.2,8.4-14.6,13.1c-2.5,0.5-4.9,1.1-7.4,1.7
		c2.7,1.1,5.5,2.1,8.2,3.2c-1.6,2.4-3.1,4.9-4.7,7.4c3.4,1.2,6.9,2.4,10.3,3.7c-3,0.8-6,1.4-9,2.2c2.9,4,8.7,3.6,12.9,2.1
		c5.8-2,12.2-2,17.3-5.6c2.7-1.5,6.4-2.1,7.9-5.2C256.6,134.4,255.9,128.2,254.7,122.2z M372.8,98.4c-5.1-8.3-15.4-1.8-22.6-0.9
		c3-1.9,5.8-3.8,8.6-5.9c-5.1-0.2-10.3-1.2-15.4-0.3c-6.5,2.2-12.4,6.1-19.2,7.4c-8.1,1.3-15.4,9.2-13.9,17.7
		c2.6-0.8,5.3-1.6,7.9-2.4c-2.9,5-8.1,7.7-12.7,10.8c4.3-0.6,8.5-1.2,12.7-1.9c1.4,2,2.7,3.9,4.1,5.9c10.4,1.8,21.5,3.4,31.4-0.8
		c-0.4-1.6-0.9-3.3-1.3-4.9c5-1.3,7.6-5.8,10.7-9.5C367.4,109.4,374.8,105.7,372.8,98.4z M466,88.4c-4.4-4.3-11.1-1.4-16.4-1.7
		c-2.1-1.8-3.6-4-5.4-6c-0.1,4.5-0.1,9-0.1,13.6c-2.3-2.5-3.7-6-6.9-7.5c-5.7,0-9,4.8-11.9,8.8c0.9,2.3,1.8,4.7,2.7,7.1
		c-2.2-1.6-4.4-3.2-6.6-4.8c-0.8,6.1,1.9,12.5,8.4,13.6c6.2,3.3,12.2-1,17.9-3.2c4.5-0.8,7.8,3.3,11.3,5.3c0-1.5,0.1-4.6,0.1-6.1
		C466.9,105.5,471.3,94.8,466,88.4z M561.2,95.5c-7.3-0.6-14.7-0.7-22-0.7c-5.9,1.7-10.3,6.6-16.4,7.9c2,2,3.9,4.1,5.8,6.2
		c-4.2-1.5-8.4-3.4-12.7-4.7c-4.6-1-10.4,1.6-11.3,6.6c-0.5,4.6,3.3,7.4,6.6,9.7c-1,0.8-2.9,2.3-3.9,3.1c6,2.6,12.3,4.2,18.8,3.8
		c0.3-1.4,1-4.1,1.4-5.5c4.3,3.1,8.9,5.9,13.8,8.1c-1.7-2.2-3.5-4.4-5.3-6.5c3.1-2,6.6-3.8,8.8-6.9c2.4-2.7,4-7.2,8.4-6.4
		C554.8,104.6,565.2,102.1,561.2,95.5z M625.1,120.3c1.5-0.4,4.4-1.4,5.8-1.8c-0.9-2.8-2.1-5.7-5.2-6.6c-10.6-5.3-22.4,1.7-33.3-2
		c1,1.7,2.1,3.3,3.1,4.9c-4.4,1.9-10.4,4.1-7.2,10.1c-1.6-0.2-4.9-0.5-6.5-0.7c2.8,2.5,5.6,4.9,8.4,7.4c-2.9-0.4-5.9-0.8-8.8-1.1
		c3.2,9.2,15,6.3,22.3,4.1c-0.6-1.1-1.7-3.2-2.3-4.3c3.9,0.2,8,1.6,11.9,0.5c4.6-2.4,9-5.1,13.7-7.2
		C626.5,122.8,625.6,121.1,625.1,120.3z M675.2,153.4c-3.8-3.9-7.5-8-11.9-11.2c-5.8-3.9-11.9,1.9-17.9,2.1c1.3,1.5,4,4.4,5.3,5.8
		c-2-0.6-6.1-1.7-8.1-2.2c-0.7,2.6-1.4,5.3-2.1,8c1.8,1.8,3.6,3.6,5.4,5.5c-1.4,0.2-4.1,0.5-5.5,0.7c7.1,5.3,19.3,7,25-1.3
		c3.4-2.9,3.7-7.2,1.9-11.2C669.9,150.9,672.5,152.2,675.2,153.4z M691.8,116.7c0.3-5.1-5.6-7.4-8.3-10.8l4.3-0.8
		c-4.8-4.1-11-3.4-16.8-2.6c0.6,1.9,1.2,3.7,1.8,5.6c-4.6-2.4-9.2-5.9-14.6-5.2c-4,0.2-7.2,3-10.3,5.3c0.2,2.5,0.3,5,0.2,7.5
		c6.1,3.6,12.7,6.3,19.8,6.9c-0.2-1.3-0.5-4-0.7-5.3c3.8,2.4,7.6,4.6,11.6,6.7c0.9-0.8,2.8-2.5,3.7-3.3
		C685.8,120.1,690.7,120.9,691.8,116.7z M725.9,147.8c-4.7-5.2-9.1-11.1-16-13.5c-4.8,3.8-10.2,0.2-14.8-1.9c0.6,0.7,1.8,2,2.4,2.6
		c-5.8,4.3-3.7,10.4-1,16c3.8-0.6,7.8-0.6,11.6,0.6c-0.7,8.5,10.7,3.6,15.8,3.8C724.5,152.8,725.2,150.3,725.9,147.8z M753.5,134.2
		c-1.1-2.3-2.1-4.6-3.2-6.9c0.5-1.8,1.1-3.7,1.6-5.5c-2.6-1.8-5.4-3.3-8.4-4.3c-5.8-5.2-13.5-4.9-20.4-7.3c-0.1,0.6-0.2,1.9-0.2,2.5
		c-1.6-0.4-4.9-1.3-6.5-1.7c-0.4,3.4-4.3,8,0.1,10.4c4.4,4.5,11,4.2,16.7,5.6c2.6,5.5,8.1,8,13.7,9.7c-0.2-1.5-0.6-4.5-0.8-6
		C748.5,131.9,751,133.1,753.5,134.2z M757.3,150.2c-0.4,0.9-1.3,2.7-1.8,3.6c5.9,3.1,12,5.6,18.3,7.6c-0.6-1.4-1.7-4.3-2.3-5.7
		c2.9,1.5,5.8,3.1,8.8,4.4c2.3-11.3-10-15.5-18.3-18.7c-2.6,1.1-6,1.2-7.9,3.4C754.9,146.8,755.9,148.6,757.3,150.2z"/>
	<path class="st3" d="M697.5,135c-0.6-0.6-1.8-1.9-2.4-2.6c4.6,2.1,10,5.7,14.8,1.9c6.9,2.4,11.3,8.3,16,13.5c-0.7,2.5-1.4,5-2,7.6
		c-5.1-0.2-16.5,4.7-15.8-3.8c-3.8-1.2-7.8-1.2-11.6-0.6C693.8,145.4,691.7,139.3,697.5,135z M716.5,121.4c4.4,4.5,11,4.2,16.7,5.6
		c2.6,5.5,8.1,8,13.7,9.7c-0.2-1.5-0.6-4.5-0.8-6c2.4,1.2,4.9,2.4,7.4,3.5c-1.1-2.3-2.1-4.6-3.2-6.9c0.5-1.8,1.1-3.7,1.6-5.5
		c-2.6-1.8-5.4-3.3-8.4-4.3c-5.8-5.2-13.5-4.9-20.4-7.3c-0.1,0.6-0.2,1.9-0.2,2.5c-1.6-0.4-4.9-1.3-6.5-1.7
		C716,114.4,712.1,119,716.5,121.4z M603.7,134.6c-0.6-1.1-1.7-3.2-2.3-4.3c3.9,0.2,8,1.6,11.9,0.5c4.6-2.4,9-5.1,13.7-7.2
		c-0.5-0.8-1.4-2.5-1.9-3.3c1.5-0.4,4.4-1.4,5.8-1.8c-0.9-2.8-2.1-5.7-5.2-6.6c-10.6-5.3-22.4,1.7-33.3-2c1,1.7,2.1,3.3,3.1,4.9
		c-4.4,1.9-10.4,4.1-7.2,10.1c-1.6-0.2-4.9-0.5-6.5-0.7c2.8,2.5,5.6,4.9,8.4,7.4c-2.9-0.4-5.9-0.8-8.8-1.1
		C584.6,139.7,596.4,136.8,603.7,134.6z M665.4,160.8c3.4-2.9,3.7-7.2,1.9-11.2c2.6,1.3,5.2,2.6,7.9,3.8c-3.8-3.9-7.5-8-11.9-11.2
		c-5.8-3.9-11.9,1.9-17.9,2.1c1.3,1.5,4,4.4,5.3,5.8c-2-0.6-6.1-1.7-8.1-2.2c-0.7,2.6-1.4,5.3-2.1,8c1.8,1.8,3.6,3.6,5.4,5.5
		c-1.4,0.2-4.1,0.5-5.5,0.7C647.5,167.4,659.7,169.1,665.4,160.8z M755.5,153.8c5.9,3.1,12,5.6,18.3,7.6c-0.6-1.4-1.7-4.3-2.3-5.7
		c2.9,1.5,5.8,3.1,8.8,4.4c2.3-11.3-10-15.5-18.3-18.7c-2.6,1.1-6,1.2-7.9,3.4c0.8,2,1.8,3.8,3.2,5.4
		C756.9,151.1,756,152.9,755.5,153.8z M342.8,361.8c0.2-1.1,0.5-3.3,0.6-4.4c-5.7,0.4-11.4,0.3-17,1.4c-6.2,1.1-6.6,10.7-1.8,13.7
		c6,3.7,11.9,11.8,19.5,5.6c-2.2,2.1-6.8,6.2-9.1,8.2c4-1.4,7.9-1.4,11.5,0.7c10.8,5.4,22.6,0.5,33-3.4c-2.3,2.1-4.7,4.1-7,6.2
		c7,2.7,15.9,2.9,21.4-3c3.8-5.1-0.3-11.3-1.7-16.6c2.8-1.9,5.6-3.7,8.5-5.6c-3.5,0.4-7,1-10.5,1.3c-4.7-6.5-9.6-14.8-18.7-15
		c-9.1,1.5-17.5,5.7-26.3,8.5C344.6,360,343.4,361.2,342.8,361.8z M702.5,244c-17.6,3.7-34.7,9.4-50.6,17.7
		c20.6-2.4,41-8.7,61.9-5.7c15.2,1.3,29.5,7.7,44.7,8.4c4.1,0.5,6-3.4,8-6.2c-4.5-3.6-9.4-6.7-14.9-8.4
		C735.8,244.8,719,243,702.5,244z M570.9,171.3c3.2,4.5,6.5,8.5,8.2,13.9c4,1.2,8.1,2.2,12.2,3.1c-1.7-2.7-3.5-5-5.3-7.7
		c2.4-4.1,4.4-8.3,7.1-12.2c2.3-2.7,4.7-5.4,7.1-8c1,0.3,2.8,1,3.7,1.3c6-2.6,11.6-9.1,8.7-15.8c-5.3-5.2-13.4-2.3-20-2.9
		c1.7,2,3.4,4.2,5,6.3c-1.4-0.7-4.2-2.3-5.6-3c-5,9.4-15.7,12.6-23,19.7c2.7,1.7,5.5,3.2,8,5C575.5,171,572.5,171.3,570.9,171.3z
		 M235,118c-6.3,2.3-10.2,8.4-14.6,13.1c-2.5,0.5-4.9,1.1-7.4,1.7c2.7,1.1,5.5,2.1,8.2,3.2c-1.6,2.4-3.1,4.9-4.7,7.4
		c3.4,1.2,6.9,2.4,10.3,3.7c-3,0.8-6,1.4-9,2.2c2.9,4,8.7,3.6,12.9,2.1c5.8-2,12.2-2,17.3-5.6c2.7-1.5,6.4-2.1,7.9-5.2
		c0.7-6.2,0-12.4-1.2-18.4c1.9-1.2,3.8-2.4,5.7-3.7C251.9,119.6,243.5,117.6,235,118z M292.5,338.3c0.9,3.1,2.9,5.3,6.3,5.2
		c8,0.7,16.6-0.8,23.6-4.9c2.8-4.9,1-11,0.9-16.4c-1.2-0.4-3.6-1.1-4.8-1.5c2.5-1.7,5-3.5,7.5-5.2c-0.9-3.1-1.7-6.2-2.7-9.2
		c-5.2-5.2-12.9-5.9-19.2-9.3c-7.6-4.6-7.4-16.6-16.6-19.1c-5.9-1.8-14.4-5.3-18.3,1.7c2,0.3,6.1,1,8.1,1.3c-5,1.7-10,3.1-15,4.5
		c1.6,0.6,3.2,1.1,4.8,1.7c-0.4,5.4-2.4,11.6,1.6,16.2c3.4,0.3,6.9,0.1,10.4,0.1c-2,8.3-9.5,18.9-1.1,26c1.8,1.5,3.6,3,5.5,4.5
		c3.7-1,7.4-2,11.1-2.9c-4.4,2.9-8.8,5.5-13.3,8.2C285,338.9,288.6,338.6,292.5,338.3z M396.7,239.4c46.8,5.9,93,16.2,138.5,28.3
		c53.8,14.8,106.7,33.3,156.5,58.6c4.3,2.4,10.6,4.6,13.8-0.6c2.4-6.2-4-10.5-8.8-12.6c-58.1-26.7-120.2-43.8-182.6-57
		C475.2,249.2,436.3,241.1,396.7,239.4z M375.9,245.9c-4-0.4-9,1.4-12.2-1.9c-5.7-5.2-7.9-13.2-13.8-18.1
		c-4.3-3.5-10.1-1.9-15.1-1.9c1.7,1.3,3.3,2.7,5,4c-4.1,0.9-8.1,1.8-12.2,2.7c-1.8,5.4-3.2,11-4.2,16.7c2.5,1,4.9,1.9,7.4,2.9
		c-1.6,0.7-4.9,2.2-6.5,2.9c4.8,5.3,10,10.3,15.1,15.4c-0.7,1.9-1.4,3.8-2.1,5.7c6,1.3,12.2,3.3,18.3,1.6c8.1-2.3,17.4-1.2,24.1-7.1
		c-3.9-5.8-9.1-10.7-11.9-17.2C370.5,249.7,373.2,247.8,375.9,245.9z M700.4,341.2c-45.1-21.5-93.5-35.1-141.9-47.1
		c-44.8-10.5-90.2-18.3-135.9-23.6c-5.4-0.6-10.8-0.6-16.2-0.7c99.5,14.9,198.4,40,289.1,84.4c1.4,0.9,2.8,1.2,4.2,1.2
		c3,0,5.9-1.9,8.2-4c0,0,0,0,0-0.1c0,0,0,0,0,0C706,347.5,704.8,342.8,700.4,341.2z M648.1,115.7c6.1,3.6,12.7,6.3,19.8,6.9
		c-0.2-1.3-0.5-4-0.7-5.3c3.8,2.4,7.6,4.6,11.6,6.7c0.9-0.8,2.8-2.5,3.7-3.3c3.3-0.6,8.2,0.2,9.3-4c0.3-5.1-5.6-7.4-8.3-10.8
		l4.3-0.8c-4.8-4.1-11-3.4-16.8-2.6c0.6,1.9,1.2,3.7,1.8,5.6c-4.6-2.4-9.2-5.9-14.6-5.2c-4,0.2-7.2,3-10.3,5.3
		C648.1,110.7,648.2,113.2,648.1,115.7z M237,312.5c7-5.5,6.4-17.3-1.1-22.1c-3.7,0.8-7.3,1.7-11,2.4c2.6-1.6,5.2-3.1,7.8-4.7
		c-3.6-6.5-2.2-17.1-10.3-20c2.3-1.1,4.5-2.1,6.7-3.2c-6.9-7.7-21.8-11.2-28.1-1.1c-5.1,3.9-3.3,12.6-9.9,15
		c3.5,0.1,6.9,0.1,10.4,0.1c-1,0.9-2.8,2.8-3.8,3.7c3.3,8.6,2.6,17.8,2.2,26.8c3.4-0.2,6.8-0.4,10.2-0.5c-3.6,2.4-7.1,4.6-10.7,6.8
		c1.1,3.8,1.8,8,4.5,11.1c4,4.9,12.4,5.5,16.7,1.1C226,322.7,231.3,317.4,237,312.5z M541.4,146.1c-0.8,0.9-2.4,2.7-3.2,3.6
		c0.1,1.1,0.2,3.3,0.2,4.4c0.1,3.4,0,6.7-0.1,10.1c2.5,1.9,5,3.7,7.6,5.6c-2-0.2-6.3-0.7-8.3-0.8c5.5,5.2,12.2,8.7,19,11.9
		c2.6-0.4,5.3-0.7,7.9-1.1c-0.4-6.7-5.9-10.7-9.4-15.7c-1.2-4.1,0.9-8.1,3.2-11.4c3.6-0.5,6.7-0.2,10.3-0.2c-1.7-0.4-4.3-1.1-6-1.5
		c-6.3-2.6-11.6-7.4-18.2-9.3C543.6,142.8,542.1,144.9,541.4,146.1z M320.6,209.6c5-2.8,2.1-9,1.8-13.4c4.7-1.7,9.5-3.2,14.6-3.1
		c-3.5-1.3-6.8-3-10-4.7c1.1-3.6,4.8-7.9,2-11.6c-3.7-4.5-9.9-4.1-15.2-4.2c0.4,0.9,1.3,2.8,1.7,3.8c-11.2-1.9-19.8,6.5-28.5,12.1
		c1.7,1.7,3.3,3.5,5,5.2c-3.2-1-6.5-2.1-9.8-3.1c0,4.1-0.3,8.1-0.7,12.2c1.7,1.4,3.5,2.9,5.3,4.3c-3.9,0.1-7.7,0.3-11.5,0.5
		c8.4,2.9,16.8,6.8,25.9,7.1C307.7,213.3,314.1,211.1,320.6,209.6z M938.4,357.7c-7.6,23.5-25.5,42.7-46.8,54.8
		c-7.6,4.9-16.5,7.1-24.4,11.2c-21.7,31.9-55.1,55.5-92.2,66c8.2-13.5,16.9-27,21.6-42.2c-1.6,0.2-4.9,0.5-6.6,0.6
		c-0.1-4.6-0.2-9.1-0.4-13.7c-5,3.2-10,6.6-14.9,10c-2.5-3.1-4.8-6.3-7.2-9.5c-9.7,11.6-23.4,19-37.3,24.3
		c-6.9,2.8-14.9,3.9-20.3,9.5c-10.7,10.3-24.4,16.5-37.7,22.5c-1.1,19.2,9.1,37,22.5,50c13.8-15,25.6-31.7,37.5-48.3
		c7.4,26.2,2.7,53.9-2.5,80.1c7.7,3.5,18.8,8.5,17.1,18.9c-6.6,31.2-24.3,59.6-47.8,80.9c-27.5,24.6-62.6,42.9-100.1,43.7
		c-57.2,1.5-112.7-28.1-147.7-72.6c-21.7-26.6-36.8-57.9-58.6-84.4c-16.7-21.1-38.4-38-62.5-49.9c-33.7-16.8-69.4-29.8-101.5-49.8
		c-43.2-26.2-77.9-66.3-97.7-112.8c-13.5-31.8-17.2-67.3-11.8-101.4c-11.9-5.7-22.1-14.1-31.9-22.8C67.1,204.3,49,183.1,37,158.4
		c-6.9-14.6-11.6-31.6-6.8-47.5c1.9-5.8,4.6-12.8,11.2-14.8c8.9-2.8,18.6-1.1,27.8-2.2c50.5-4.9,101.7-5.4,151.5-15.8
		c35.6-7.5,70.8-16.9,105.9-26.5c41.9-12.8,86.1-20.6,130-15.9c8.5,0.6,16.9,4.5,25.5,2.4c59.5-11.1,121.5-3.3,178.4,16.8
		c41.8,14.6,80.2,36.8,118.3,59c27.1,14.2,55,28.5,76.1,51.3c13.5,14.3,6.8,37-4.2,50.7c21.2,14.8,40.8,32.6,53.9,55.1
		c3.4,6.3,9.8,10.1,14.4,15.4C936.1,305.2,945.7,332.5,938.4,357.7z M718.9,604.1c-11.5-5.6-24.4-7.8-37.2-7.7
		c-29.8-0.1-57.3,12.5-85.1,21.3c-20.1,5.8-43.5,7.1-61.9-4.5c-17.2-10.7-30.3-26.6-42.2-42.7c-25.4-35.9-44.2-76.5-55.8-118.9
		c-9.3-34.5-8.7-73.8,10.9-104.8c8.9-14.5,24-24.4,40.8-27.2c-41.3-10.2-82.9-17.1-124.8-23.6c98.6,8.5,197.5,24.9,290,61.1
		c6.5,3.4,15.7,4.4,19.1,11.7c1.5,5.7-5.7,11.1-10.4,8.5c-20.4-9.2-40.9-18.1-62-25.5c12.4,25.8,35.3,48.3,64.1,53.8
		c22.9,5.2,47.1,0.7,68.2-9.1c24.9-10.4,50.8-21.5,78.4-20.3c0.8-11.8-1.8-24.4-10-33.3c-12.8-13.1-29.7-21-46.1-28.7
		c-21.5-9.8-43.5-18.5-65.9-26.5c25-1.9,50.1-0.8,75,2.4c28.9,4.8,57.6,11.7,85.1,22.1c7.8-5.3,16.3-9.4,25.6-11.4
		c6.5-1.4,12.8-6.9,12.3-13.7c-1.3-11.2-9.2-20.7-17.7-27.6c-5.5,4.3-10,10.7-17.4,11.8c-2.8-1.2-5.6-4.4-3.7-7.5
		c1.7-6.4,4.6-13,2.5-19.6c-2.3-5.8-6.5-10.6-10.3-15.4c-22.7-26.4-50.8-47.4-79.6-66.7c16,5.6,30.6,14.6,46.1,21.3c0,0,0,0,0,0
		c10.3,6.6,21,12.8,30.6,20.4c5.3-8.1,7-18.2,3.2-27.3c-4.3-9-15.5-8.6-21.9-15.4c-8.6-1.7-16.5-5.7-25.1-7.3
		c0.7-2.5,0.8-5.3,2.8-7.2c1.5,0.3,4.5,0.9,6,1.2c-0.4-1.3-1.3-3.9-1.7-5.2c-25.8-15-52-29.3-78.3-43.3
		c-6.1-3.4-34.8-17.6-41.1-20.6c0,0,0,0,0,0c-0.4-0.2-0.7-0.4-1-0.6c-48-23.3-102.7-36.9-155.9-27.7c8.4,2.8,17.1,4.2,25.4,7.2
		c4.8,2,9-2.5,13.2-4.1c2,2,4.1,3.9,6.1,5.9c-0.1-2.1-0.4-6.3-0.5-8.4c7.5,0.3,16.6,0.4,20.9,7.7c-0.1,1.8-0.5,5.5-0.6,7.4
		c-3.7,0.6-7.4,1.3-11,2c10.9,6.1,22.6,10.8,33.4,17.2c2.8-7,9.7-8.8,15.6-12.2c0.7,0.5,2.1,1.6,2.8,2.1c5.3-5.4,16.2-0.8,16.5,6.8
		c-6.1,3.2-9.1,9.7-13.1,15c-0.8-0.9-2.4-2.6-3.2-3.5c-0.5,1-1.4,3.1-1.8,4.2c-2.2-1.7-4.3-3.5-6.5-5.3c-3.2-0.6-6.3-1.3-9.5-1.9
		c-1,1-2.9,2.8-3.9,3.7c-7.3-0.3-14.6-1.8-21.9-2.2c-5.9,2.3-11.6-1.2-13.9-6.8l4.7,0.1c-0.6-1.5-1.2-3-1.8-4.6
		c3.2-1.7,6.5-3.4,9.7-5.1c-18.2-5.3-36.5-10.8-55.3-13.6c-1.7,2.3-3.1,4.9-4.5,7.4c-4.5-1.6-8.9-3.3-13.3-4.9
		c2.4,2.4,5.7,4.3,6.9,7.7c-5.3,3-11.6,2.6-17.4,3.7c-5.7,1.3-12-0.3-16.1-4.5c-2.2-3.2,0.6-6.5,2.4-9.1c3,1.8,6,3.6,9,5.3
		c-1.3-2.3-2.7-4.5-4-6.7c0.7-1.8,1.4-3.5,2.1-5.2c-23.5-2.6-47.2-4.2-70.7-2.6l-0.1,0c1,3.3,2.1,6.6,3.1,9.8
		c-2.8-1.1-5.6-2.2-8.4-3.4c0.5,2.1,0.9,4.3,1.4,6.4c-6.8,0.5-13.6,1.5-19.6,4.9c-3.2-2.3-6.5-4.6-9.7-6.9l-0.1,0
		c2.6,4.9,5.6,9.5,8.3,14.3c-4.8-2-9.5-5.4-14.9-4c-8.7,1.4-16.6-4.9-20.8-12.1c-26.8,6.9-54,12.2-80.9,18.7c0,0-0.3,0.1-0.7,0.1
		c-3.9,1.2-1.7,7.1-2.3,10.3c-2-0.4-6-1-8-1.4c1.7,2.2,9.5,6.4,3.8,8.8c-8.1,1.1-16.6,3.2-24.7,1.1c5.1-1.6,3.5-4.4-0.4-6
		c-1.9-1.8-3.9-4.1-6.6-4.2c-1.2,0.3-1.9,0.4-1.9,0.5c-12.6,2.6-25,5.7-37.5,8.3c-10.7,2.2-21.7,2.5-32.3,5c4,2,8.3,3.3,12.7,4.2
		c-0.2,0.1-0.5,0.2-0.7,0.3c-4.2-0.9-8.4-2.2-12.2-4.1c-32.2,0.7-64.7,1.7-97,2.5c-0.1,0.3-0.1,0.7-0.1,1
		c22.9,5.9,45.3,14.1,66.6,24.5c8.1-2.7,17.2-3.2,24.5-8.5c1.7,0,5.2-0.1,6.9-0.1c-2.3-2.1-4.8-4-7.2-6c0.9-0.5,2.7-1.4,3.6-1.9
		c0.2-0.1,0.4-0.2,0.6-0.3c4.3,0.9,8.6,1.1,13,1.6c4.6,3.6-0.4,7.5-4.1,8.6c-3.7,5.6-10,8.9-13.8,14.5c-0.2,1.1-0.6,3.4-0.8,4.5
		c2.3,2.3,5.3,4.2,8.6,5.6c25,17.1,55.2,28.9,85.9,26.6c22.4-2.1,44.1-9,63.7-19.8c-12.7,12.8-28.9,20.9-44.8,28.9
		c-0.1,0.1-0.3,0.2-0.4,0.2c-15.6,4.7-31.6,7.8-47.9,8.7c-37.4,2.2-76.9,0.6-110.9-16.9c18.9,2.1,38.1,6,57.2,2.7
		c-13.7-8.2-25.2-19.3-39-27.3c-27.1-16.9-58.2-30.5-90.8-28c5.9,3.6,11.8,7.1,16.5,12.2c-0.3,11.8,6.2,22.2,13,31.3
		c7.6,10.5,17.6,18.7,27.1,27.3c-4.3,0.1-8.5,0-12.8,0.2c11,7.3,24,10.5,36,15.7c-5.2,1.4-10.5,2.4-15.7,3.7
		c35.3,15.1,76.8,17.1,112.8,3.2c-4.2,6.3-11.6,9.1-18.1,12.5c-15,7.3-31.5,10.2-47.8,12.4c-5.3,18-4.9,41.8-1.8,55.3
		c3.2-2.2,12.4-0.1,11.5-6.5c6.3-0.4,15,0,16.3,7.9c-1.9,8.4-4.6,17.4-11.6,22.9c1.6,0.1,5,0.1,6.6,0.1c6,5.6,10.5,12.7,15.1,19.5
		c1,0.4,3.5,1.1,4.6,1.5c-3.3,3.2-6.4,6.5-9.2,10.2c1.9,0,5.7-0.1,7.6-0.1c-0.7,8.2-4.4,12.3-9.1,21.9c-0.1,0.1-0.1,0.2-0.2,0.3
		c3.2,4.6,9.5,11.1,14.3,16.6c39.8,42.3,93.2,68.5,145.3,92.2c36.9,15,70.7,40.3,90.3,75.5c14.1,25.9,31.2,50.5,52.8,70.8
		c21.3,20,30.8,25,56.1,34l-5.3,9.3l52.4,2.7c0,0,0.2,4.2-3.3,8C641.9,682.5,694.3,652.2,718.9,604.1z M790.1,304.3
		c-9.8-2.3-20.8-4.1-29.9,1.4c14.7,2.1,32.3,1.3,43.4,13.2c5.6,5.1,4.1,13.5,8.2,19.4c3.6,6.2,7.2,12.4,10.7,18.7
		c9.9-8.5,18.3-19.2,22.7-31.6C827.7,316.3,809.2,309.1,790.1,304.3z M654.5,553c3,3.6,7.4,5.8,11.3,8.5c2.9-9.9-4.3-19.4-12.6-24
		C653.2,542.6,652.5,548,654.5,553z M585.7,530.5c-5.9-2.4-8.5-8.6-11.3-13.9c-9-21.4-8.8-45-11.2-67.7c-4-25.9-13.7-52.7-34.7-69.6
		c-18.3-13-42.6-18.8-64.4-12.4c3,1.5,5.9,3,8.8,4.4c17,7.7,29,24.1,33.6,41.9c8,30.5,4.4,62.2,8.2,93.2c3.4,31,23.2,59.2,50.2,74.5
		c3.6,1.7,8,4.7,11.7,1.4c21.8-13.3,41.7-32.8,49.1-57.8c-7-5.9-14.8-11.4-18.2-20.2c-13.2-29.9-1.8-64.3-14-94.5
		c-8.6-20.1-29-32.6-49.8-36.8c5.7,5.4,11.5,11,15.1,18.1c11.5,21.7,15.4,46.5,17.5,70.8C577.3,485,575.9,508.9,585.7,530.5z
		 M660.7,575.6c-2.5-4.5-5.2-8.9-8.3-13c-5,3.6-9.8,7.5-14.2,11.7c8.9-17.5,8.2-38.5,2.1-56.8c-6,14.6-13.2,28.8-22.3,41.7
		c-8.7,12.3-20.6,21.6-32,31c-4.1,3.2,0,9.4,4.4,9.7c15,2.7,30.1-4.1,41.3-13.7c3-3.1,7.5-3.3,11.6-3.8c11.3-1.1,22.8-1.7,34.2-0.8
		c6.5-0.1,10.5,6.6,17,6.7c6.1,1.1,10.1-4.7,13.1-9.1c11-17.8,16.5-38.9,16-59.7c-12.1,17.6-22.7,36.9-38.7,51.4
		c-1.9-3.5-4-6.9-6-10.3C672.2,564.9,666,569.8,660.7,575.6z M733.8,418.4c-16.8,3.5-33.8,6.6-51.1,6.6
		c1.8,21.7-10.2,41.4-23.7,57.4C691.4,472.9,719.4,448.9,733.8,418.4z M769,407c-10.5,4.5-24.2,8.1-35.1,11.3
		c1.9,8.2,2.4,16.6,2.1,25C750.6,436.2,758.9,419.2,769,407z M849.9,402.3c-7.2-7.5-18.4-4.4-26,0.6c-7.1-6.5-17.1-4.1-24.3,0.8
		c-8.4-8.7-20,1.3-29.5,2.8c0.6,7.4,4.7,13.9,8,20.5c7.5-4.4,13.7-10.4,20.5-15.7c1.2,5.8,1.8,11.8,2.1,17.8
		c6.2-2.6,11.9-6.2,17.5-10c-3.5,16.9-11,32.6-19.3,47.7c18.7-9.3,33.5-25,46.6-41C850.8,419.6,855.7,409.7,849.9,402.3z
		 M926.2,340.8c-8.3,6.7-20.9,15.9-31.2,8.5c4.3-6.3,12.1-7.6,18.4-11c4.6-2.3,8.6-5.7,12.5-9c-0.7-4.8-1.4-9.7-3.6-14.1
		c-5,3.1-6.8,10.6-13.2,12.7c-3,2.9-10.1-2.7-5.6-5.6c5-4.9,11.2-9.1,13.7-15.9c-0.7-4.4-5-7.1-7.6-10.4
		c-5.8,12.1-14.1,23-24.6,31.4c-8.7,7.2-19.5,11.1-29.2,16.7c-14.9,8.4-29.6,18.4-39.6,32.6c17.9,2,36.4,8.1,48.5,22.1
		c17.4-4,35-11.3,47.2-24.8c-5.6-0.5-11.5-0.1-16.8-2.4c-2.7-0.8-2.8-4.1-1.6-6.1c8-4.8,18.9,3,26.4-3.3
		C924,355.8,924.8,348.1,926.2,340.8z M353.7,128c-0.4-1.6-0.9-3.3-1.3-4.9c5-1.3,7.6-5.8,10.7-9.5c4.3-4.2,11.7-7.9,9.7-15.2
		c-5.1-8.3-15.4-1.8-22.6-0.9c3-1.9,5.8-3.8,8.6-5.9c-5.1-0.2-10.3-1.2-15.4-0.3c-6.5,2.2-12.4,6.1-19.2,7.4
		c-8.1,1.3-15.4,9.2-13.9,17.7c2.6-0.8,5.3-1.6,7.9-2.4c-2.9,5-8.1,7.7-12.7,10.8c4.3-0.6,8.5-1.2,12.7-1.9c1.4,2,2.7,3.9,4.1,5.9
		C332.7,130.6,343.8,132.2,353.7,128z M383.8,426.4c-1.8-2.3-2.9-5.7-6-6.6c-6.2-2.7-12.5,1.5-18.6,2.5c1.4-1.4,4.3-4,5.8-5.4
		c-12,2.7-24.2,0.1-36.2-0.5c-5-0.2-9.9-0.8-14.7-2.3c-6.1,1.8-12.6,3.3-17.7,7.1c-5.5,5.1-3.6,13.8,1.1,18.8c3.2,0,5-3.6,7.5-5.3
		c-0.7,2.7-1.3,5.4-2,8.1c9.6,3.8,19.6,6.5,29.8,7.8c8.8,1.6,18.2,1,26.2,5.5c3.7-2.3,7.4-4.5,11.2-6.6c-2.2,3.7-4.4,7.3-6.7,11
		c6.7,5.9,15.5,11.2,24.8,8.5c6.1-1.6,6.2-8.7,8.4-13.4l-3.1,0.9c-0.2-3.1-0.5-6.3-0.8-9.4c2.7,0.8,5.5,1.6,8.2,2.4
		c1.5-2.2,5.1-4.3,2.4-7.2C400.2,434.3,393.6,424.6,383.8,426.4z M299.3,385.4c2.7-6.7-1.5-13-6.4-17.3c3.7-1.9,7.4-3.8,11-5.9
		c-7.3,0.9-14.4,4.4-21.9,3.1c-11.2-1.8-23.4,0-33.7-5.7c-4.1-2.7-7.6,2.4-10.9,4.3c0.1-1.4,0.4-4.1,0.5-5.5c-2,1.9-4.5,3.5-6.4,5.5
		c-3.4,4.8-6,7.7-9.6,12.9l-2,5.5c1.6-1.2,4.7-3.6,6.3-4.8c-3.5,6.2-7.4,14.5-2,20.8c7.2,7.1,17.9,8.8,26.7,13.4
		c2.6-1.6,5.3-3.2,7.9-4.8c-3.5,4.4-6.8,9-9.2,14.2c2.3-1.8,4.5-3.6,6.8-5.5c5.9,3,12.5,6.4,19.2,3.8c6.6-0.9,7.7-8.7,10.4-13.4
		c-1.9,0.7-5.8,2.2-7.8,3C283.3,399.1,297.6,397.2,299.3,385.4z M239.1,249.6c3.5,5.1,10.1,3.4,15.1,2c9.6,2.2,20.5-3,22.1-13.2
		c-1.6-5.6-7.9-6.9-12.5-9.2c0.3-0.8,0.8-2.6,1.1-3.5c-8.3-3.5-16.5,1-24.9,1.2c-0.5,1.4-1.4,4.4-1.9,5.8c2.4,0.9,4.9,1.7,7.3,2.6
		c-3.3-0.3-6.5-0.5-9.8-0.8C233.9,240,234.4,245.7,239.1,249.6z M474.9,201.5c29-20.9,67.9-21.8,101.4-13.5
		c28.7,6.4,54,22.7,82.4,29.8c14.6,3.6,31.3,6.7,45-1.4c5.1-3.3,10.3-7.4,11.7-13.6c3.4-11.7-1.3-23.4-5.7-34.1
		c7.6,6.5,13.9,14.4,19.5,22.7c4.1,13.5,4,28.3-3.4,40.6c-21.7-3.1-43.5-7.1-65.6-6.1c-14.1,0.7-27.5,5.8-40.2,11.7
		c-0.7,0.3-2.3,0.8-3,1.1c13.2,14.5,25.6,30.3,32,49.1c-13.6-12.3-27.1-24.8-42.9-34.3c-12.4-8.2-25.6-15.2-39.3-21.1
		c-18.6-8.1-35.8-19-52.3-30.6c-5.3-4.5-12.5-2.9-18.8-2.5c-5.4,0.7-10.7,1.9-16.1,2.8L474.9,201.5z M539,201.3
		c1.9,2.3,3.9,4.4,6.4,6.1c13.5,9.6,27.3,19.5,43.3,24.4c15.5,3.3,31.2-3.4,44.4-11.2c-7.5-3.1-15.4-5.3-23.3-7.2
		c-0.4,6.1-2.6,11.8-8.8,13.8c-5.4-1.3-8.8-5.2-9.7-10.7c3.3,1.4,7.3-0.9,6.6-4.6c-1.9-3.5-6.4-3.6-9.7-4.7
		c-6.2-1.3-12.2-4.3-18.6-3.9C559.5,200.7,549.1,201,539,201.3z M376.3,149.5c-3,2.9-6.1,5.8-9.1,8.7c4.3,2.2,8.6,4.4,12.9,6.6
		c-4.6-0.1-9.1-0.3-13.7-0.4c1.4,2.7,2.9,5.5,4.3,8.2c0,3.4-2.4,7.8,1.1,10.2c5.3,3.7,12.3,2.4,18.4,2.9c-0.3-0.8-0.8-2.5-1-3.3
		c3.4-1.4,6.7-2.8,10-4.5c6.7-2.6,7.6-10.7,11.3-16c-2.4-1.1-4.9-2.1-7.4-3.2c1.5-0.1,4.6-0.5,6.2-0.6c-0.8-5.5-1.4-11-1.7-16.5
		c1.6-0.2,4.9-0.5,6.5-0.6c-9.5-2.1-20.1-6-28.9,0.3c-3.2,1.4-6.6,2.5-9.9,3.6c3.6,1.7,7.1,3.5,10.7,5.4
		C382.7,150,379.5,149.8,376.3,149.5z M511.2,120.5c-1,0.8-2.9,2.3-3.9,3.1c6,2.6,12.3,4.2,18.8,3.8c0.3-1.4,1-4.1,1.4-5.5
		c4.3,3.1,8.9,5.9,13.8,8.1c-1.7-2.2-3.5-4.4-5.3-6.5c3.1-2,6.6-3.8,8.8-6.9c2.4-2.7,4-7.2,8.4-6.4c1.6-5.6,12-8.1,8-14.7
		c-7.3-0.6-14.7-0.7-22-0.7c-5.9,1.7-10.3,6.6-16.4,7.9c2,2,3.9,4.1,5.8,6.2c-4.2-1.5-8.4-3.4-12.7-4.7c-4.6-1-10.4,1.6-11.3,6.6
		C504.1,115.4,507.9,118.2,511.2,120.5z M456.4,154.3c-1.6-0.3-4.7-0.8-6.3-1.1c-4,3.6-8.5,6.5-12.1,10.5c2.4,5.6,4.7,11.5,9.4,15.6
		c3,3.7,9.7,6.2,12.9,1.3c6.8,2.3,10.9-3.7,15.6-7.4c3.3-0.4,6.7-0.1,10.1,0.1c-1.9-0.7-3.7-1.4-5.6-2.1c2.6-4.1,6.9-8.1,5.6-13.5
		c-0.8-4.3,1.2-8.6,0.4-12.8c-5.8-1.3-11.8-0.7-17.5-2.6c-4.7,2.1-9.5,4.2-14.2,6.2C455.2,150.4,455.7,152.3,456.4,154.3z
		 M429.8,111.5c6.2,3.3,12.2-1,17.9-3.2c4.5-0.8,7.8,3.3,11.3,5.3c0-1.5,0.1-4.6,0.1-6.1c7.8-2,12.2-12.7,6.9-19.1
		c-4.4-4.3-11.1-1.4-16.4-1.7c-2.1-1.8-3.6-4-5.4-6c-0.1,4.5-0.1,9-0.1,13.6c-2.3-2.5-3.7-6-6.9-7.5c-5.7,0-9,4.8-11.9,8.8
		c0.9,2.3,1.8,4.7,2.7,7.1c-2.2-1.6-4.4-3.2-6.6-4.8C420.6,104,423.3,110.4,429.8,111.5z M407.8,209.4c-1.8,0.1-5.4,0.2-7.2,0.3
		c1.2,1.4,3.5,4,4.7,5.3c-1.2,0-3.7-0.2-4.9-0.3c5.7,5.5,10.4,11.7,14.6,18.2c7.3,3.8,12.8-3.4,18.2-7.1c2.7-0.9,5.5-1.8,8.1-3
		c-5.2-7.7-13.7-12.2-21.1-17.4C415.3,202.6,410.3,204.8,407.8,209.4z"/>
	<path class="st4" d="M625.7,524.5c-7.4,25-27.3,44.5-49.1,57.8c-3.7,3.3-8.1,0.3-11.7-1.4c-27-15.3-46.8-43.5-50.2-74.5
		c-3.8-31-0.2-62.7-8.2-93.2c-4.6-17.8-16.6-34.2-33.6-41.9c-2.9-1.4-5.8-2.9-8.8-4.4c21.8-6.4,46.1-0.6,64.4,12.4
		c21,16.9,30.7,43.7,34.7,69.6c2.4,22.7,2.2,46.3,11.2,67.7c2.8,5.3,5.4,11.5,11.3,13.9c-9.8-21.6-8.4-45.5-9.4-68.6
		c-2.1-24.3-6-49.1-17.5-70.8c-3.6-7.1-9.4-12.7-15.1-18.1c20.8,4.2,41.2,16.7,49.8,36.8c12.2,30.2,0.8,64.6,14,94.5
		C610.9,513.1,618.7,518.6,625.7,524.5z M601,227.2c-5.4-1.3-8.8-5.2-9.7-10.7c-7-4.8-13.4-10.8-21.7-13.2
		c-10-2.6-20.5-2.2-30.7-2.1c1.8,2.3,3.9,4.4,6.5,6.2c13.5,9.6,27.3,19.5,43.3,24.4c15.5,3.3,31.2-3.4,44.4-11.2
		c-7.5-3.1-15.4-5.3-23.3-7.2C609.4,219.5,607.2,225.2,601,227.2z M653.2,537.5c0,5.1-0.7,10.5,1.3,15.5c3,3.6,7.4,5.8,11.3,8.5
		C668.7,551.6,661.5,542.1,653.2,537.5z M790.1,304.3c-9.8-2.3-20.8-4.1-29.9,1.4c14.7,2.1,32.3,1.3,43.4,13.2
		c5.6,5.1,4.1,13.5,8.2,19.4c3.6,6.2,7.2,12.4,10.7,18.7c9.9-8.5,18.3-19.2,22.7-31.6C827.7,316.3,809.2,309.1,790.1,304.3z"/>
</g>
</svg>
