<?xml version="1.0" encoding="utf-8"?>
<!-- Generator: Adobe Illustrator 25.0.0, SVG Export Plug-In . SVG Version: 6.00 Build 0)  -->
<svg version="1.1" id="Layer_1" xmlns="http://www.w3.org/2000/svg" xmlns:xlink="http://www.w3.org/1999/xlink" x="0px" y="0px"
	 viewBox="0 0 726.4 425.2" style="enable-background:new 0 0 726.4 425.2;" xml:space="preserve">
<style type="text/css">
	.st0{fill:#115740;}
	.st1{fill:#FFFFFF;}
</style>
<g id="Group">
	<path class="st0" d="M363.2,20C180.5,20,20,120.2,20,212.6s160.5,192.6,343.2,192.6c190.8,0,343.2-99.6,343.2-192.6
		S554,20,363.2,20z M379.3,308.4c-0.1,1.6-0.4,3.1-0.7,4.6l-4.7-0.1c0.4-1.5,0.7-3,0.9-4.6h-9v4.4h-5v-4.4h-9
		c0.1,1.6,0.4,3.1,0.9,4.6L348,313c-0.4-1.5-0.6-3.1-0.7-4.6h-8.9c0.2,2.3,0.6,4.5,1.3,6.6l-5-0.1c-0.7-2.8-1.1-5.8-1.1-8.9
		c0-2.6,0.3-5.2,0.8-7.7c0.1-0.5,0.2-1,0.4-1.5h5c-0.2,0.5-0.3,1.1-0.4,1.6c-0.4,1.6-0.7,3.2-0.8,4.9h8.9c0.1-1.6,0.4-3.1,0.7-4.5
		l4.8,0.1c-0.5,1.4-0.7,2.9-0.9,4.4h9v-4.2h5v4.2h9c-0.2-1.5-0.5-3-0.9-4.4l4.8-0.1c0.4,1.4,0.6,2.9,0.7,4.5h8.9
		c-0.1-1.7-0.4-3.3-0.8-4.9c-0.1-0.5-0.3-1.1-0.5-1.6h5c0.1,0.5,0.3,1,0.4,1.5c0.5,2.5,0.8,5,0.8,7.7c0,3.1-0.4,6.1-1.2,8.9l-5,0.1
		c0.7-2.1,1.1-4.3,1.3-6.6H379.3z M389.4,289H337c-8.9,0-16.3,6.2-17.6,14.3h-28.7c2.7-19.4,35.4-39.5,72.5-39.5
		c38.7,0,70,20,72.5,39.5H407C405.7,295.2,398.3,289,389.4,289z M346.5,143.1c0,0.7,0,9.4,0.1,22.6h-6.1v-13.1
		c0-15.7,0.3-24.5,14.9-25.1h20.8c11.1,0.8,17,13.6,24.8,27.1l6.5,11h-5.7c-4.5-7.6-7.4-12.7-7.4-12.7c-5.8-9.9-11.5-20.5-20.2-20.4
		h-18.8C347.5,133.6,346.3,138.7,346.5,143.1z M369.9,171.4l-10.7,20h-47.4l-4.4,9.2h43.8L340.3,221h-46.6l-5,9.6h52.4l-10.7,20
		h-95.7l42.4-79.2H369.9z M346.6,232.5c0,9.4,0,18.7,0,27.4c-2.1,0.3-4.1,0.7-6.1,1.1v-17.2L346.6,232.5z M420.9,250.6h-50
		l31.6-59.2h-28l10.8-20h101.3l-11,20.5h-23.1L420.9,250.6z M292.1,112.4L292.1,112.4h174.8v20.2h-23.2h-0.1h-0.1
		c-2.6,0.2-3.9,0.6-4.7,2.1c-0.4,0.8-0.9,3.1,2.9,8.9l13.8,22h-6l-12.1-19.3c-12.9-20.5,6.3-18.8,6.3-18.8h18.2v-10.1H297.2v10h17
		c16.4,0,18.2,10.5,18.2,26.3v12h-5v-12c0-8.8-0.6-15.4-3.7-18.5c-1.8-1.9-5-2.8-9.5-2.8h-22.1V112.4z M279.7,165.8h-6.4l-4-5.2
		c0.9-1.7,1.8-3.4,2.6-4.9L279.7,165.8z M151.6,112.4h87.3l22.8,29.7h-6.4l-18.9-24.7h-79.7v11.1h23.6c15.1,0,13.4,11.8,13.6,23.4
		v36.2l-5.1,9.5v-49.1c0-5.4,0-11-2.2-13.2c-1.1-1.1-3.3-1.7-6.3-1.7h-28.7V112.4z M210.2,157.3l-2.9,5.5l-0.2-0.3v0.8l-5.1,9.5
		v-25.5L210.2,157.3z M131.6,199.3h43.8l-9.3,15.4c-5.5,9.3-8.5,15.7,2.4,16.8c6.9,0.7,9-2,12.8-7.6l40.4-76h48l-42.8,80
		c-16,29.3-29.6,31.8-68,32C116.6,260.1,102.2,239.8,131.6,199.3z M245,308.4L245,308.4h-93.7v-18.7c0,0,27.9,0,27.8,0
		c7.6-0.1,9.6-5.4,9.6-24.7v-1c1.8-0.3,3.4-0.6,5.1-0.9v2.1c0,15.7-0.7,29.6-14.6,29.7h-22.8v8.6h83.5v-8.8h-21.4
		c-14.3,0.1-16.5-2.1-16.5-29.5v-4.5c1.7-0.7,3.4-1.4,5.1-2.3v6.7c0,9.9,0.2,20.7,2.7,23.1c1.2,1.1,4.3,1.3,8.8,1.3H245V308.4z
		 M291.4,256.4l15.3,18.7c-1.5,1-2.9,2-4.2,3.1l-18-21.8H291.4z M363.2,348c-37.1,0-69.9-20.1-72.5-39.6h28.7
		c1.3,8.1,8.7,14.4,17.6,14.4h52.4c8.9,0,16.3-6.3,17.6-14.4h28.8C433.2,328,401.9,348,363.2,348z M435.3,289.6h2.4
		c2.4,0,7.9,0,7.9-12.6v-37c-1.1-1.8-3.5-5.9-6.6-11.2l2.8-5.2l8.9,15V277c0,11.7-4.5,17.4-12.4,17.6
		C437.4,292.9,436.4,291.2,435.3,289.6z M440.8,308.5c0.1-0.9,0.2-1.7,0.2-2.6c0-0.8-0.1-1.7-0.2-2.5h81.7v-9h-15.4
		c-12.3-0.6-15.5-7-15.2-19.5V259c1.6,0.3,3.3,0.5,5.1,0.7c0,8.2,0,15.2,0,15.3c-0.3,11.7,2.4,13.9,10.3,14.3h20.3v19.2H440.8z
		 M582.3,198.4h-37.2c0.5-4.1-0.9-8-4-9c-3.9-1.1-9.1-0.2-9.6,4c-0.5,4.6,2.2,6.5,10,8c12.3,2.4,25.2,6.9,28.8,12
		c5.3,7.1,2,17-3.6,25.6c-8.3,12.6-26.3,15.6-58.4,15.6c-29.7-0.1-41.3-11.2-33.6-30h37.2c0.8,4,0.4,6.2,2.8,8.1
		c3.5,2.7,8.9,1.3,11.2-1.6c2-2.5,1.5-6.8-2-8.1c-5.8-2.1-25-5-32-9.6c-5.6-3.7-6.2-10.6-2.4-19.6c7.7-19.4,22.2-26.5,60.4-25.2
		C580.7,169.8,592.4,182.2,582.3,198.4z M588.9,132.7h-0.1c0,0-18.3,0-18.4,0c-10.6-0.1-11.5,1.1-19.2,13.1l-10.1,16.9
		c-2.2,0-4.2,0-6.3,0.1L543,149c11.4-17.1,12-21.7,27.5-21.5h13.3v-10.1H501v10.1h27c0,0,20-1.7,5.8,20.5l-9.4,15.6
		c-2.3,0.3-4.4,0.6-6.5,1c6.7-11.1,11.6-19.3,11.6-19.3c4.4-6.9,4.6-10.4,4.1-11.4c-0.6-1-3.5-1.5-5.2-1.4h-0.2H528h-32v-20.1h92.9
		V132.7z"/>
	<path class="st1" d="M616.5,64.2c-33.6-19.8-72-35.5-114.1-46.5C457.7,5.9,410.9,0,363.2,0c-45.8,0-91.5,6-135.8,17.8
		c-41.2,11-80.8,27.1-114.3,46.6C41.2,106.1,0,160.1,0,212.6s41.2,106.5,113,148.2c33.6,19.5,73.1,35.6,114.3,46.6
		c44.3,11.8,90,17.8,135.8,17.8c47.7,0,94.5-5.9,139.2-17.7c42.1-11,80.5-26.7,114.1-46.5c69.8-41.2,109.9-95.3,109.9-148.4
		C726.4,159.5,686.3,105.4,616.5,64.2z M363.2,405.2C180.5,405.2,20,305,20,212.6S180.5,20,363.2,20c190.8,0,343.2,99.6,343.2,192.6
		S554,405.2,363.2,405.2z M314.2,132.5h-22.1v-20.1h174.8v20.3h-23.2h-0.1h-0.1c-2.6,0.1-3.9,0.6-4.7,2.1c-0.4,0.8-0.9,3.1,2.9,8.9
		l13.8,22h-6l-12.1-19.3c-13-20.5,6.3-18.8,6.3-18.8h18.2v-10.1H297.2v10h17c16.3,0,18.2,10.6,18.2,26.3v12h-5v-12
		c0-8.9-0.6-15.4-3.7-18.5C321.8,133.4,318.7,132.5,314.2,132.5z M158.9,259.9c-42.3,0.3-56.7-20.1-27.3-60.6h43.8l-9.3,15.4
		c-5.5,9.3-8.5,15.7,2.4,16.8c6.9,0.7,9-2,12.8-7.6l40.4-76h48l-42.8,80C210.9,257.2,197.3,259.7,158.9,259.9z M202,172.7v-25.5
		l8.2,10.1l-2.9,5.5l-0.2-0.3v0.7L202,172.7z M180.3,133.6h-28.7v-21.1h87.3l22.8,29.7h-6.4l-18.9-24.7h-79.7v11h23.6
		c15.1,0,13.4,11.8,13.6,23.4v36.2l-5.1,9.5v-49.1c0-5.4,0-11-2.2-13.2C185.5,134.2,183.3,133.6,180.3,133.6z M269.4,160.6
		c0.9-1.7,1.8-3.4,2.7-4.9l7.7,10.1h-6.4L269.4,160.6z M340.5,243.9l6.1-11.4c0,9.4,0,18.7,0,27.4c-2.1,0.3-4.1,0.7-6.1,1.1V243.9z
		 M311.8,191.4l-4.4,9.2h43.8L340.3,221h-46.6l-5,9.6h52.4l-10.7,20h-95.7l42.4-79.2h92.8l-10.7,20H311.8z M374.2,132.7h-18.8
		c-7.9,1-9.1,6.1-8.9,10.5c0.1,0.6,0.1,9.4,0.1,22.6h-6.1v-13.1c0-15.8,0.3-24.5,14.9-25.1h20.8c11.1,0.8,17,13.6,24.8,27.2l6.5,11
		h-5.7c-4.4-7.7-7.4-12.7-7.4-12.7C388.6,143.2,382.9,132.7,374.2,132.7z M421,250.5h-50l31.5-59.2h-28l10.8-20h101.3l-11,20.5
		h-23.1L421,250.5z M339.2,298.5c-0.4,1.6-0.7,3.2-0.8,4.9h8.9c0.1-1.6,0.4-3.1,0.7-4.5l4.8,0.1c-0.5,1.4-0.7,2.9-0.9,4.4h9v-4.2h5
		v4.2h9c-0.2-1.5-0.5-3-0.9-4.4l4.8-0.1c0.4,1.4,0.6,2.9,0.7,4.5h8.9c-0.1-1.7-0.4-3.3-0.8-4.9c-0.1-0.5-0.3-1.1-0.5-1.6h5
		c-0.2,0.5-0.1,1,0,1.5c0.5,2.5,0.8,5,0.8,7.7c0,3.1-0.4,6.1-1.2,8.9l-5,0.1c0.7-2.1,1.1-4.3,1.3-6.6h-8.9c-0.1,1.6-0.4,3.1-0.7,4.6
		l-4.7-0.1c0.4-1.5,0.7-3,0.9-4.6h-9v4.4h-5v-4.4h-9c0.1,1.6,0.4,3.1,0.9,4.6l-4.7,0.1c-0.4-1.5-0.6-3.1-0.7-4.6h-8.9
		c0.2,2.3,0.6,4.5,1.3,6.6l-5-0.1c-0.7-2.8-1.1-5.8-1.1-8.9c0-2.6,0.3-5.2,0.8-7.7c0.1-0.5,0.2-1,0.4-1.5h5
		C339.4,297.4,339.3,298,339.2,298.5z M218.5,289.5h26.4v18.9h-93.6v-18.7c0,0,27.9,0,27.8,0c7.6-0.1,9.6-5.4,9.6-24.7v-1
		c1.8-0.3,3.4-0.6,5.1-0.9v2.1c0,15.7-0.7,29.6-14.6,29.7h-22.8v8.6h83.5v-8.8h-21.4c-14.3,0.1-16.5-2.1-16.5-29.5v-4.5
		c1.7-0.7,3.4-1.4,5.1-2.3v6.7c0,9.9,0.2,20.7,2.7,23.1C210.9,289.4,214.1,289.6,218.5,289.5z M507.3,289.4h20.3v19.1h-86.8
		c0.1-0.9,0.2-1.8,0.2-2.6s-0.1-1.7-0.2-2.5h81.7v-9h-15.4c-12.3-0.6-15.5-6.9-15.2-19.5V259c1.7,0.3,3.3,0.5,5.1,0.7
		c0,8.2,0,15.2,0,15.3C496.7,286.7,499.4,289,507.3,289.4z M495.9,112.4h92.8v20.4c0,0-18.3,0-18.4,0c-10.6-0.2-11.4,1.1-19.2,13.1
		L541,162.8c-2.2,0-4.3,0-6.3,0.1l8.2-13.8c11.4-17.2,12.1-21.7,27.5-21.5h13.3v-10.2h-82.8v10.2h27c0,0,19.9-1.7,5.8,20.5
		l-9.4,15.6c-2.3,0.3-4.4,0.6-6.5,1c6.6-11,11.6-19.3,11.6-19.3c4.5-6.9,4.7-10.4,4.1-11.4c-0.6-1.1-3.5-1.5-5.2-1.4h-0.2h-0.2h-32
		V112.4z M438.1,294.6c-0.8-1.7-1.8-3.3-2.9-5h2.4c2.3,0,7.9,0,7.9-12.6v-37c-1.1-1.8-3.4-5.8-6.6-11.2l2.8-5.2l8.9,15V277
		C450.6,288.7,446.2,294.4,438.1,294.6z M582.2,198.5H545c0.5-4.1-0.9-8-4-9c-3.9-1.1-9.1-0.2-9.6,4c-0.5,4.6,2.2,6.5,10,8
		c12.3,2.4,25.2,6.9,28.8,12c5.3,7.1,2,17-3.6,25.6c-8.3,12.6-26.3,15.6-58.4,15.6c-29.7-0.1-41.2-11.2-33.6-30h37.2
		c0.8,4,0.4,6.2,2.8,8.1c3.5,2.7,8.9,1.3,11.2-1.6c2-2.5,1.5-6.8-2-8.1c-5.8-2.1-25-5-32-9.6c-5.6-3.7-6.2-10.6-2.4-19.6
		c7.7-19.4,22.2-26.5,60.4-25.2C580.6,169.9,592.3,182.2,582.2,198.5z M435.7,303.4H407c-1.3-8.1-8.6-14.3-17.5-14.3H337
		c-8.9-0.1-16.3,6.1-17.6,14.3h-28.7c2.7-19.4,35.4-39.5,72.5-39.5C401.9,263.9,433.2,283.9,435.7,303.4z M302.6,278.2l-18-21.8h6.9
		l15.3,18.7C305.3,276.1,303.9,277.1,302.6,278.2z M407,308.4h28.7c-2.5,19.6-33.8,39.6-72.5,39.6c-37.1,0-69.9-20.1-72.5-39.6h28.7
		c1.3,8.1,8.7,14.4,17.6,14.4h52.4C398.4,322.8,405.7,316.5,407,308.4z"/>
</g>
</svg>
