<?xml version="1.0" encoding="utf-8"?>
<!-- Generator: Adobe Illustrator 25.0.1, SVG Export Plug-In . SVG Version: 6.00 Build 0)  -->
<svg version="1.1" id="Layer_1" xmlns="http://www.w3.org/2000/svg" xmlns:xlink="http://www.w3.org/1999/xlink" x="0px" y="0px"
	 viewBox="0 0 1016.9 775.8" style="enable-background:new 0 0 1016.9 775.8;" xml:space="preserve">
<style type="text/css">
	.st0{fill:#B0B7BC;}
	.st1{fill:#FFFFFF;}
	.st2{fill:#0076B6;}
</style>
<g>
	<path class="st0" d="M962.7,420.3c-10.1-2.3-20.6-0.8-20.6-0.8s-2.5-4.8-9.5-9.9c-7-5.1-18.8-7.2-33.9-12
		c-15.2-4.8-29.1-16.9-29.1-16.9c2.7-3.6,13.1-18.5,13.1-18.5c3.6,1.7,15.6,5.5,24.2,5.5c8.6,0,19.8-2.1,19.8-2.1s19.8,7.6,35,0.8
		c15.2-6.8,20.9-21.1,20.9-21.1s8.4-5.1,13.7-14.7c5.3-9.7,3.2-17.7,3.2-17.7c6.3-11.6,5.7-23.8-0.4-34.3s-21.7-19.6-32.7-22.8
		c-11-2.9-21.3-1.7-21.3-1.7c-4.8-5.1-13.7-9.5-26.3-9.7s-24.9,10.3-24.9,10.3c9.9-10.3,16-31.4,16-31.4
		c13.1-19,28.4-25.7,28.4-25.7s-24.4-25.5-44.2-37.7c-19.8-12.2-39.2-19.8-39.2-19.8s-5.9-17.3-16-24.4
		c-10.1-7.2-23.4-12.2-23.4-12.2c-2.1-7-10.7-18.1-23-24c-12.4-6.1-29.7-9.1-53.5-18.3c-24.4-8.8-71.8-41.3-71.8-41.3
		c-3.8,9.5-4.2,27.6-4.2,27.6c-35.9,3.7-54.1,17.2-54.1,17.2c10.5,3.4,20.2,11.8,20.2,11.8c-15.6-1.3-37.5,2.1-57.3,11.4
		c-19.6,9.3-35.2,28.4-41.7,36.2c-6.5,7.8-12.9,10.3-25.5,14.1c-12.9,3.6-29.7,5.3-29.7,5.3c0.8,10.3,11,26.5,11,26.5
		c-13.3,20.9-12.4,42.8-12.4,42.8s-11.8,10.5-23.4,27.2c-11.6,16.6-11.4,34.8-11.4,34.8c-5.3-0.8-11.2-3.4-11.2-3.4
		c-0.6,24.4,11.4,46.6,11.4,46.6s-9.1,9.5-15,19c-5.9,9.5-15.2,25.9-15.2,25.9c-4,4-28.7,24.2-28.7,24.2s-15.8,5.1-19.2,6.1
		c-3.4,1.1-15,4.4-24.4,10.5c-9.3,6.1-33.7,30.5-33.7,30.5c-41.3-9.1-47.8-33.9-53.1-54.6c-5.3-20.6-12.9-37.3-28.9-56
		c-16-18.8-39.4-28.9-39.4-28.9c-4.4-15.4-13.7-26.5-25.7-33.3c-11.8-6.7-29.1-11.6-64.9,0.8c-35.6,12.7-62.4,42-62.4,42
		c12.6,0.6,48,6.3,57.9,18.5c9.9,12.4,19.4,24.9,35,31.2c15.6,6.3,29.1,2.3,29.1,2.3c20.6,12.9,24.4,35.4,29.5,57.9
		c5.3,22.5,10.7,39,31.2,61.7c20.4,22.8,59.4,33.5,59.4,33.5s-0.4,14.5-1.5,23.2c-1.1,8.6-1.3,32-4.6,43.4
		c-3.2,11.4-9.7,19-15.2,23.6s-16.9,13.9-19,28.9c-2.1,15,7.8,28.2,7.8,28.2c0.2,1.9-1.3,45.5-1.5,50.6s-5.9,25.5,14.1,44.7
		c20,19,46.1,7.4,46.1,7.4s11.6,2.5,22.3-2.9c10.5-5.5,15.6-16.2,15.6-16.2c3.6-2.5,16.6-11.4,15.2-35.2
		c-1.4-23.8-24.6-32.7-24.6-32.7l-0.4-8.4c15.8-11.4,37.9-22.1,49.7-27.8c11.6-5.7,19.6-12.2,19.6-12.2c7.2,18.8,22.3,24,35,25.1
		c12.6,1.1,55.4-2.9,55.4-2.9s16.4,11.2,29.5,11.2s22.5-4.8,22.5-4.8s17.3,3.4,31-2.9c13.7-6.1,17.1-17.9,17.1-17.9s6.7-3.2,12.9-15
		c6.1-11.6,2.9-26.1-5.9-39.4c-8.8-13.3-25.7-19.2-25.7-19.2c11.6-3.8,25.3-13.7,32.4-27c7.2-13.3,11.2-37.7,11.2-37.7
		c15-0.8,32.2-8.4,41.5-12.6c9.3-4.4,38.8-20.6,38.8-20.6c9.9,7.8,15,23.2,15,23.2c34.1-1.7,45.5-7.2,45.5-7.2
		c19.2,11.2,62.1,19.8,81.5,20.6c19.2,0.8,29.7,5.9,29.7,5.9s11,16.4,27,21.3c16,5.1,27.8,3.6,27.8,3.6s10.7,8.2,25.7,5.9
		s20.6-10.1,20.6-10.1s10.5-0.4,17.9-7.8c7.4-7.4,11-19.4,11-19.4s7.4-4.6,10.7-17.7c3.2-13.1-1.5-26.5-9.3-37.3
		C984.8,430.6,972.8,422.6,962.7,420.3z M988.5,477.5c-2.1,5.5-9.7,10.1-9.7,10.1s-0.7,11-7.2,16.9c-6.5,5.9-15.6,4.8-15.6,4.8
		s-3.5,6.8-12.6,9.5s-19-2.1-23.6-5.7c0,0-19,1.7-31.2-4.4c-12.2-6.1-17.9-17.9-17.9-17.9s-20.8-8.4-42.3-8.6
		c-21.7-0.2-63.4-11.8-77.1-21.9c0,0-20.9,9.5-37.5,9.7c0,0-5.1-15.5-23.4-26.5c0,0-38.8,21.5-52.7,27.8
		c-13.9,6.4-38.3,8.7-41.9,9.1c0,0,1.5,5.9-0.2,15.4c-1.9,9.4-7.5,28.2-12.6,34.3c-5.1,6.2-18.8,14-26.8,16.9
		c-8,3-18.1,5.5-26.5,9.7c-8.5,4.3-18.8,12.9-23.2,16.9c0,0,12.9,3.4,16.9,3.2c4-0.2,10.9-4,16-6.1c5.1-2.1,19.6-4.8,31.2,3.8
		c11.6,8.6,17.5,19.8,17.3,28.2c-0.4,8.5-5.9,14.6-13.9,18.8c0,0-2.3,11.8-12.4,15.6c-10.2,3.6-26.8,0.4-26.8,0.4s-8,5.3-17.5,5.7
		c-9.4,0.7-22.3-7.5-24.4-8.8c-2.1-1-4-2.1-7.6-2.1c-3.4,0-41.1,3.2-52.9,3.2c-11.7,0-19.8-5.6-24.6-14.7
		c-4.9-9.1,2.1-23.8,6.3-29.7c4.4-5.9,11.4-13.9,12.2-15.6c0.8-1.7,1-4.4-1.3-6.1c-2.3-1.7-10.1-5.5-10.1-5.5s-11.6,23.2-16,31
		c-4.5,7.8-10.1,16.7-21.1,23.4s-34.2,17-46.6,24.4c-12.2,7.6-19.6,14.3-19.6,14.3s0.2,22.2,0.8,24.9c0,0,11.2,2.1,15.4,5.9
		c4.4,3.8,8.8,10.2,8.6,18.8c-0.2,8.7-1.3,18.8-12,22.8c0,0-3,11.1-11.4,14.5c-8.5,3.3-17.1,0.4-17.1,0.4s-11.6,5.9-23.6,3.4
		s-22.1-15-22.6-27.6c-0.2-12.6,2.1-58.4,2.1-61.3c0-2.9,0-6.1-2.1-10.1c-2.1-4-7.4-14.1-6.1-20.4c1.3-6.4,7.8-13.9,13.9-19
		c6.1-5,13.3-10.3,17.1-20.4c3.6-10.3,6.8-24.5,7.2-35.2c0.4-10.7,1.7-45.9,4-55.4c0,0-45.5-10.1-65.9-33.5
		c-20.4-23.4-24-42.1-29.9-67.2c-5.9-25.1-13.3-44.3-37.3-56.7c0,0-12.7,6.2-29.3-0.8c-16.4-7.1-25.5-25.7-34.1-32.4
		c-8.8-6.5-32.7-10.3-37.5-10.3c0,0,28.4-19.8,48-25.7c19.5-5.9,40.8-7.7,54.1,2.9c13.3,10.6,15.4,28.9,15.4,28.9s27.4,11.4,43.4,31
		c16,19.6,20.6,37.9,23.8,50.1c3.1,12.2,12.8,36.9,28.2,47.6c15.4,10.7,33.7,15.4,43.2,16c0,0,26.7-27.8,35.8-33.9
		c9.1-6.1,19.4-8.4,23.8-9.7c4.4-1.2,19.6-6.3,19.6-6.3s26.9-23.2,32.2-27.2c0,0,15.6-27,20-33.5c4.4-6.3,16.2-21.5,16.2-21.5
		s-10.7-12.2-10.7-28.2c0,0,6.3,1.2,10.3,0.8c0,0-5.2-9.1-2.7-21.5c2.6-12.7,16.3-33.1,34.6-48.9c0,0-0.6-13.3,3.2-25.9
		c3.8-12.7,11.6-22.8,11.6-22.8s-8.4-10.3-9.7-18.3c0,0,15.8-1.5,26.8-5.1s19.8-11.4,19.8-11.4s21.1-29,46.6-38.1
		c25.7-9,51.7-6.3,51.7-6.3s13-8.4,18.3-10.3c0,0-10.1-11.4-18.5-15c0,0,19.8-5.9,37.9-4.6c0,0,0.4-12.6,2.3-20
		c0,0,31.8,23,46.1,29.3c14.5,6.3,42.1,15.6,51.4,18.5c9.2,2.9,25.2,9,28.4,25.9c0,0,15.4,6.5,21.5,9.7c6.1,3.3,12.2,11.1,13.5,14.5
		c1.3,3.4,2.5,7.4,4.2,9.9c1.5,2.6,4.3,4.5,7,5.3c2.5,0.9,28,12.3,39.6,21.1c11.8,8.8,27.6,24,27.6,24s-15.8,12.6-19.8,18.5
		c0,0-4.8,16-12.4,27.2c-7.8,11.4-19.2,15.8-19.2,15.8v3.8c0,0,8.9-0.2,16.9,1.9c7.8,2.1,12.9,4.8,12.9,4.8s5.9-3.8,8.6-6.3
		c3-2.5,11.8-7.2,19.6-5.9s13.5,7,15,9.3c0,0,6.8,0.4,12.9,0c6.4-0.4,17.7,1.9,27,9.1c9,7.4,17.5,18.2,6.3,32.7
		c0,0,2.4,9.1-0.8,15.8c-3.4,6.5-11.8,10.1-11.8,10.1s-5.3,15.6-17.5,19.6c-12.2,4-27.6-3.6-27.6-3.6s-14.6,3.5-24.9,2.7
		c-10.3-0.7-21.9-9.5-21.9-9.5s-2.5,1.4-4.8,4.8c-2.3,3.4-20.4,28.7-24.4,33.1c0,0,17.5,17,35,24.2s26.2,8.2,30.8,9.5
		s14.5,6.9,18.3,17.9c0,0,11.1-2.7,18.5-2.1c7.3,0.6,14.5,2.1,27.3,14.6C993.3,460.2,990.4,472,988.5,477.5z"/>
	<path class="st1" d="M1003.2,433.5l-0.1-0.1c-9.7-12.8-24.1-22.7-37.6-25.7c-4.7-1.1-9.8-1.6-15.4-1.6c-0.7,0-1.4,0-2.1,0
		c-2-2.1-4.6-4.6-7.9-7c-6.9-5-15.6-7.5-25.8-10.4c-3.8-1.1-7.6-2.2-11.8-3.5c-5.4-1.7-10.7-4.6-15-7.4c0-0.1,0.1-0.1,0.1-0.2
		c5.9,1.6,13,3,19.2,3c6.7,0,14.4-1.1,18.8-1.7c4.5,1.3,12.4,3.3,21.3,3.3c7.4,0,14.1-1.3,20-4c14.7-6.6,22.5-18.2,25.8-24.3
		c3.9-3,10.2-8.7,14.8-17.1l0,0l0,0c4.7-8.6,5.4-16.6,5.1-21.6c6.2-14.1,5.3-29.6-2.5-43.1c-8.2-14.1-26.6-24.8-40.3-28.8l-0.2,0
		l-0.2,0c-7.4-2-14.5-2.4-19.2-2.4c-0.3,0-0.6,0-0.9,0c-7.5-5.6-17.6-8.9-28.7-9.4c0.3-0.9,0.6-1.7,0.8-2.4
		c10-13.7,21-19.2,21.9-19.6l17.5-7.3l-13.3-13.6c-1-1.1-25.8-26.9-46.8-39.8c-14.5-8.9-28.6-15.4-36-18.6
		c-3.1-7-9.2-18.6-18.5-25.1c-7.3-5.2-15.8-9.3-21.1-11.6c-4.7-9-14.1-19.4-27.1-25.7c-7.4-3.6-15.7-6.1-25.4-9
		c-8.5-2.6-18.1-5.4-29.1-9.7l-0.1-0.1l-0.1,0c-18.7-6.7-56.1-31-68.9-39.8L661.1,0l-6,15.1c-2.4,6.1-3.7,14.3-4.4,21
		c-31.9,5.4-48.8,17.6-49.6,18.2l-20.3,15l1.6,0.5c-5.6,1.8-11,3.9-16.2,6.3l0,0l0,0c-21.7,10.3-38.5,30.4-45.6,39l-0.5,0.6
		c-3.9,4.7-6.9,6.3-19.1,9.9c-11.6,3.2-27.2,4.8-27.4,4.9l-12.6,1.3l1,12.7c0.7,8.6,5.4,18.8,9,25.5c-7.6,14.8-9.7,29.2-10.2,37.1
		c-4.8,4.8-13.1,13.7-21.2,25.5c-6,8.6-9.4,17.5-11.3,24.9l-13.2-5.8l-0.5,19.4c-0.4,18.1,5.1,34.9,9,44.6
		c-3.3,3.9-7.4,9.1-10.7,14.4c-4.9,7.9-11.9,20.1-14.5,24.6c-3.8,3.4-14.6,12.5-24.7,20.7c-5.3,1.7-14.3,4.6-16.5,5.2l-0.2,0
		l-0.2,0.1c-0.3,0.1-0.7,0.2-1.1,0.3c-4.9,1.5-16.4,5.1-26.4,11.6l0,0l0,0c-7.6,5-22.4,19.1-30.5,26.9c-27.6-8.3-32-25.4-36.6-43.4
		c-6.3-24.7-15.5-42.4-31.6-61.2c-13-15.3-30-25.3-38.7-29.7c-5.7-15.3-16-27.4-29.9-35.3c-10.2-5.8-20.8-8.5-33.1-8.5
		c-12.3,0-26.2,2.7-42.4,8.4l-0.1,0l-0.1,0c-38.2,13.6-66.4,44.2-67.6,45.5L0,315.9l27.7,1.3c5.9,0.3,16.9,1.8,27.3,4.5
		c16.6,4.3,20.6,8.6,21.1,9.2l1.2,1.5c9.8,12.3,20.9,26.3,39.1,33.6c7.4,3,15.2,4.5,23.3,4.5c2.9,0,5.5-0.2,7.6-0.5
		c11.5,9.6,15,25,18.9,42.6c0.3,1.5,0.7,2.9,1,4.4l0,0.1l0,0.1c5.3,22.6,11.2,42,34.2,67.4c16.1,18,41.7,29.1,55.7,34.1
		c-0.2,4.1-0.5,8.8-1,12.3c-0.4,3.2-0.7,7.6-1,12.8c-0.6,9.4-1.4,22.3-3.2,28.7l0,0.1l0,0.1c-2.4,8.6-7.3,14-11,17.1l-0.3,0.2
		c-6.1,5.1-20.5,17.1-23.3,36.8c-2.1,14.7,3.9,27.5,7.7,33.8c-0.2,10.2-1.2,39.7-1.5,46.2c0,0.3-0.1,1-0.2,1.5
		c-1.1,8.7-4,31.8,18.3,53.2l0,0l0,0c10,9.5,22.7,14.5,36.7,14.5c8.5,0,15.6-1.8,19.8-3.2c1.5,0.1,3.2,0.3,5.2,0.3
		c7.8,0,15.2-1.7,21.5-4.9l0.1,0l0.1,0c10.4-5.4,16.7-14.2,19.6-18.9c16.4-12.9,19-31.3,18.2-44.7c-1.1-18.2-11.3-29.9-20.1-36.6
		c13.3-8.2,28.5-15.5,37.5-19.8l0,0l0,0c3.5-1.7,6.7-3.5,9.5-5.2c8.7,11.3,21.7,17.9,38.2,19.4c1.8,0.2,4.1,0.2,6.9,0.2
		c13.5,0,36.7-1.9,46.4-2.8c6.7,4,20.1,10.9,32.7,10.9c10.7,0,19.4-2.6,24.2-4.4c2.4,0.3,5.6,0.5,9.3,0.5c9.6,0,18.1-1.7,25.3-5
		c13-5.8,19.4-15.3,22.3-21.2c3.8-3,9.1-8.4,13.9-17.5c7.9-15.1,5.6-34.3-6.6-52.6c-3.1-4.6-6.8-8.5-10.6-11.8
		c7.4-6,13.7-13.3,17.9-21.1c5.2-9.6,8.7-23.1,10.7-32.2c12.5-2.4,24.9-7.5,35.9-12.4l0.1,0l0.1,0c6.3-3,20.9-10.8,30.5-16
		c2.8,4.3,4.8,9,5.4,11l3.1,9.4l9.9-0.5c22.9-1.1,36.5-4,43.8-6.1c22.6,10.8,62.2,18.7,82,19.5c10.8,0.5,18.3,2.4,22,3.7
		c4.9,6.1,16,18.2,31.3,22.9c11.4,3.6,21.1,4.4,27.2,4.4c0.4,0,0.8,0,1.1,0c4.8,2.6,13.2,6.1,23.7,6.1c2.4,0,4.9-0.2,7.3-0.6
		c12.5-1.9,20.4-6.9,24.8-10.7c5.5-1.1,14-3.9,20.9-10.9c6.8-6.8,10.9-15.8,12.9-20.9c3.9-3.7,9.3-10.7,12.2-22.2l0,0l0,0
		c3.8-15.5-0.3-32.6-11.4-48L1003.2,433.5z M1002.1,478.5c-3.3,13.1-10.7,17.7-10.7,17.7s-3.6,12-11,19.4
		c-7.4,7.4-17.9,7.8-17.9,7.8s-5.6,7.8-20.6,10.1c-1.8,0.3-3.6,0.4-5.3,0.4c-12.1,0-20.4-6.3-20.4-6.3s-1.6,0.2-4.5,0.2
		c-4.8,0-13.3-0.6-23.3-3.8c-16-4.9-27-21.3-27-21.3s-10.5-5.1-29.7-5.9c-19.4-0.8-62.3-9.4-81.5-20.6c0,0-11.4,5.5-45.5,7.2
		c0,0-5.1-15.4-15-23.2c0,0-29.5,16.2-38.8,20.6c-9.3,4.2-26.5,11.8-41.5,12.6c0,0-4,24.4-11.2,37.7c-7.1,13.3-20.8,23.2-32.4,27
		c0,0,16.9,5.9,25.7,19.2s12,27.8,5.9,39.4c-6.2,11.8-12.9,15-12.9,15s-3.4,11.8-17.1,17.9c-6.6,3-14,3.8-19.9,3.8
		c-6.4,0-11.1-0.9-11.1-0.9s-9.4,4.8-22.5,4.8c-13.1,0-29.5-11.2-29.5-11.2s-33.1,3.1-49.6,3.1c-2.3,0-4.2-0.1-5.8-0.2
		c-12.7-1.1-27.8-6.3-35-25.1c0,0-8,6.5-19.6,12.2c-11.8,5.7-33.9,16.4-49.7,27.8l0.4,8.4c0,0,23.2,8.9,24.6,32.7
		c1.4,23.8-11.6,32.7-15.2,35.2c0,0-5.1,10.7-15.6,16.2c-5.6,2.8-11.4,3.5-15.6,3.5c-4,0-6.7-0.6-6.7-0.6s-7.9,3.5-18.3,3.5
		c-8.5,0-18.8-2.4-27.8-10.9c-20-19.2-14.3-39.6-14.1-44.7c0.2-5.1,1.7-48.7,1.5-50.6c0,0-9.9-13.2-7.8-28.2
		c2.1-15,13.5-24.3,19-28.9c5.5-4.6,12-12.2,15.2-23.6c3.3-11.4,3.5-34.8,4.6-43.4c1.1-8.7,1.5-23.2,1.5-23.2s-39-10.7-59.4-33.5
		c-20.5-22.7-25.9-39.2-31.2-61.7c-5.1-22.5-8.9-45-29.5-57.9c0,0-4.2,1.3-10.7,1.3c-5.1,0-11.5-0.8-18.4-3.6
		c-15.6-6.3-25.1-18.8-35-31.2c-9.9-12.2-45.3-17.9-57.9-18.5c0,0,26.8-29.3,62.4-42c16.1-5.6,28.4-7.6,38.2-7.6
		c12,0,20.2,3.1,26.7,6.8c12,6.8,21.3,17.9,25.7,33.3c0,0,23.4,10.1,39.4,28.9c16,18.7,23.6,35.4,28.9,56
		c5.3,20.7,11.8,45.5,53.1,54.6c0,0,24.4-24.4,33.7-30.5c9.4-6.1,21-9.4,24.4-10.5c3.4-1,19.2-6.1,19.2-6.1s24.7-20.2,28.7-24.2
		c0,0,9.3-16.4,15.2-25.9c5.9-9.5,15-19,15-19s-12-22.2-11.4-46.6c0,0,5.9,2.6,11.2,3.4c0,0-0.2-18.2,11.4-34.8
		c11.6-16.7,23.4-27.2,23.4-27.2s-0.9-21.9,12.4-42.8c0,0-10.2-16.2-11-26.5c0,0,16.8-1.7,29.7-5.3c12.6-3.8,19-6.3,25.5-14.1
		s22.1-26.9,41.7-36.2c17.1-8,35.8-11.7,50.6-11.7c2.3,0,4.6,0.1,6.7,0.3c0,0-9.7-8.4-20.2-11.8c0,0,18.2-13.5,54.1-17.2
		c0,0,0.4-18.1,4.2-27.6c0,0,47.4,32.5,71.8,41.3c23.8,9.2,41.1,12.2,53.5,18.3c12.3,5.9,20.9,17,23,24c0,0,13.3,5,23.4,12.2
		c10.1,7.1,16,24.4,16,24.4s19.4,7.6,39.2,19.8c19.8,12.2,44.2,37.7,44.2,37.7s-15.3,6.7-28.4,25.7c0,0-6.1,21.1-16,31.4
		c0,0,12.1-10.3,24.5-10.3c0.1,0,0.2,0,0.4,0c12.6,0.2,21.5,4.6,26.3,9.7c0,0,2.1-0.2,5.4-0.2c4,0,9.8,0.4,15.9,1.9
		c11,3.2,26.6,12.3,32.7,22.8c6.1,10.5,6.7,22.7,0.4,34.3c0,0,2.1,8-3.2,17.7c-5.3,9.6-13.7,14.7-13.7,14.7s-5.7,14.3-20.9,21.1
		c-4.7,2.1-9.8,2.8-14.7,2.8c-10.9,0-20.3-3.6-20.3-3.6s-11.2,2.1-19.8,2.1c-8.6,0-20.6-3.8-24.2-5.5c0,0-10.4,14.9-13.1,18.5
		c0,0,13.9,12.1,29.1,16.9c15.1,4.8,26.9,6.9,33.9,12c7,5.1,9.5,9.9,9.5,9.9s3.4-0.5,8.1-0.5c3.6,0,8.1,0.3,12.5,1.3
		c10.1,2.3,22.1,10.3,30.1,20.9C1000.6,452,1005.3,465.4,1002.1,478.5z M953,432.1c-7.4-0.6-18.5,2.1-18.5,2.1
		c-3.8-11-13.7-16.6-18.3-17.9s-13.3-2.3-30.8-9.5s-35-24.2-35-24.2c4-4.4,22.1-29.7,24.4-33.1c2.3-3.4,4.8-4.8,4.8-4.8
		s11.6,8.8,21.9,9.5c10.3,0.8,24.9-2.7,24.9-2.7s15.4,7.6,27.6,3.6c12.2-4,17.5-19.6,17.5-19.6s8.4-3.6,11.8-10.1
		c3.2-6.7,0.8-15.8,0.8-15.8c11.2-14.5,2.7-25.3-6.3-32.7c-9.3-7.2-20.6-9.5-27-9.1c-6.1,0.4-12.9,0-12.9,0c-1.5-2.3-7.2-8-15-9.3
		s-16.6,3.4-19.6,5.9c-2.7,2.5-8.6,6.3-8.6,6.3s-5.1-2.7-12.9-4.8c-8-2.1-16.9-1.9-16.9-1.9v-3.8c0,0,11.4-4.4,19.2-15.8
		c7.6-11.2,12.4-27.2,12.4-27.2c4-5.9,19.8-18.5,19.8-18.5s-15.8-15.2-27.6-24c-11.6-8.8-37.1-20.2-39.6-21.1
		c-2.7-0.8-5.5-2.7-7-5.3c-1.7-2.5-2.9-6.5-4.2-9.9c-1.3-3.4-7.4-11.2-13.5-14.5c-6.1-3.2-21.5-9.7-21.5-9.7
		c-3.2-16.9-19.2-23-28.4-25.9c-9.3-2.9-36.9-12.2-51.4-18.5C708.8,63.5,677,40.5,677,40.5c-1.9,7.4-2.3,20-2.3,20
		c-18.1-1.3-37.9,4.6-37.9,4.6c8.4,3.6,18.5,15,18.5,15C650,82,637,90.4,637,90.4s-26-2.7-51.7,6.3c-25.5,9.1-46.6,38.1-46.6,38.1
		s-8.8,7.8-19.8,11.4s-26.8,5.1-26.8,5.1c1.3,8,9.7,18.3,9.7,18.3s-7.8,10.1-11.6,22.8c-3.8,12.6-3.2,25.9-3.2,25.9
		c-18.3,15.8-32,36.2-34.6,48.9c-2.5,12.4,2.7,21.5,2.7,21.5c-4,0.4-10.3-0.8-10.3-0.8c0,16,10.7,28.2,10.7,28.2
		s-11.8,15.2-16.2,21.5c-4.4,6.5-20,33.5-20,33.5c-5.3,4-32.2,27.2-32.2,27.2s-15.2,5.1-19.6,6.3c-4.4,1.3-14.7,3.6-23.8,9.7
		c-9.1,6.1-35.8,33.9-35.8,33.9c-9.5-0.6-27.8-5.3-43.2-16c-15.4-10.7-25.1-35.4-28.2-47.6c-3.2-12.2-7.8-30.5-23.8-50.1
		c-16-19.6-43.4-31-43.4-31s-2.1-18.3-15.4-28.9c-13.3-10.6-34.6-8.8-54.1-2.9c-19.6,5.9-48,25.7-48,25.7c4.8,0,28.7,3.8,37.5,10.3
		c8.6,6.7,17.7,25.3,34.1,32.4c16.6,7,29.3,0.8,29.3,0.8c24,12.4,31.4,31.6,37.3,56.7c5.9,25.1,9.5,43.8,29.9,67.2
		c20.4,23.4,65.9,33.5,65.9,33.5c-2.3,9.5-3.6,44.7-4,55.4c-0.4,10.7-3.6,24.9-7.2,35.2c-3.8,10.1-11,15.4-17.1,20.4
		c-6.1,5.1-12.6,12.6-13.9,19c-1.3,6.3,4,16.4,6.1,20.4c2.1,4,2.1,7.2,2.1,10.1c0,2.9-2.3,48.7-2.1,61.3
		c0.5,12.6,10.6,25.1,22.6,27.6s23.6-3.4,23.6-3.4s8.6,2.9,17.1-0.4c8.4-3.4,11.4-14.5,11.4-14.5c10.7-4,11.8-14.1,12-22.8
		c0.2-8.6-4.2-15-8.6-18.8c-4.2-3.8-15.4-5.9-15.4-5.9c-0.6-2.7-0.8-24.9-0.8-24.9s7.4-6.7,19.6-14.3c12.4-7.4,35.6-17.7,46.6-24.4
		s16.6-15.6,21.1-23.4c4.4-7.8,16-31,16-31s7.8,3.8,10.1,5.5c2.3,1.7,2.1,4.4,1.3,6.1c-0.8,1.7-7.8,9.7-12.2,15.6
		c-4.2,5.9-11.2,20.6-6.3,29.7c4.8,9.1,12.9,14.7,24.6,14.7c11.8,0,49.5-3.2,52.9-3.2c3.6,0,5.5,1.1,7.6,2.1
		c2.1,1.3,15,9.5,24.4,8.8c9.5-0.4,17.5-5.7,17.5-5.7s16.6,3.2,26.8-0.4c10.1-3.8,12.4-15.6,12.4-15.6c8-4.2,13.5-10.3,13.9-18.8
		c0.2-8.4-5.7-19.6-17.3-28.2c-11.6-8.6-26.1-5.9-31.2-3.8c-5.1,2.1-12,5.9-16,6.1c-4,0.2-16.9-3.2-16.9-3.2
		c4.4-4,14.7-12.6,23.2-16.9c8.4-4.2,18.5-6.7,26.5-9.7c8-2.9,21.7-10.7,26.8-16.9c5.1-6.1,10.7-24.9,12.6-34.3
		c1.7-9.5,0.2-15.4,0.2-15.4c3.6-0.4,28-2.7,41.9-9.1c13.9-6.3,52.7-27.8,52.7-27.8c18.3,11,23.4,26.5,23.4,26.5
		c16.6-0.2,37.5-9.7,37.5-9.7c13.7,10.1,55.4,21.7,77.1,21.9c21.5,0.2,42.3,8.6,42.3,8.6s5.7,11.8,17.9,17.9
		c12.2,6.1,31.2,4.4,31.2,4.4c4.6,3.6,14.5,8.4,23.6,5.7s12.6-9.5,12.6-9.5s9.1,1.1,15.6-4.8c6.5-5.9,7.2-16.9,7.2-16.9
		s7.6-4.6,9.7-10.1c1.9-5.5,4.8-17.3-8.2-30.8C967.5,434.2,960.3,432.7,953,432.1z M721.9,456.6c0,0-10.7-20.4-32-26.8
		c0,0-45.3-17.5-110.8-3.8c0,0,62.4-4.4,93.5,13.5c-14.3,7.8-33.7,18.3-44,22.3c-17.5,6.7-40.4,6.3-49.1,7.8c0,0,4.2,15.6,3.8,20.4
		c-0.6,4.8-5.5,29.3-13.7,36s-29.7,13.7-40.9,17.5c-11.2,4-36,19.4-43.8,40.9c0,0,29.1,6.3,36.9,7.4c7.8,0.8,15.2-3.4,20.4-5.9
		c5.3-2.5,12-4,19.4,0.4s10.7,10.7,12.2,15.6c1.5,4.8-3.8,9.3-12.6,10.7c0,0,0.8,10.1-4.4,12.6c-5.3,2.3-18.3,1.1-25.7-1.5
		c0,0-5.1,6.7-15.2,6.7c-10.3,0-17.1-10.7-27.8-11.2c-10.7-0.4-44.2,4-56.5,2.9c-12.2-1.1-13.3-8.4-10.7-15.2
		c2.5-6.7,17.5-21.9,20-28.7c2.1-5.9,4-16.2-20.2-25.9c0.8-1.3,18.5-22.8,45.9-39.4c27-16.2,53.5-31.4,84.9-41.3
		c-12.6,1.3-32,5.9-57.3,16.6c-37.9,16.2-59.8,36.9-59.8,36.9s2.7-11,35.6-40l-0.4,0.2c-44.9,20.4-63.4,66.6-63.8,67.2
		c-5.7,11.6-21.3,43-27.2,49.3c-7.4,7.8-27.6,15-42.8,23.8c-15,8.6-34.3,19.8-36.9,27.2c-2.3,7.4,0.4,40.5,1.5,42.3
		c0,0,17.1,1.5,20.4,5.9c3.6,4.4,2.9,13.1,1.1,15.6c-1.9,2.5-9.3,2.5-9.3,2.5s0.4,9.7-4.4,12.6c-4.8,2.9-15.6-1.5-15.6-1.5
		s-2.7,4.2-10.1,5.3c-7.2,0.8-12.6-2.1-16-7.4c-3.4-5.5-1.9-12.6-1.9-18.5s2.5-46.8,1.5-56.5c-1.1-9.7-9.3-16.4-7.8-22.8
		c1.5-6.3,19.4-16.4,25.3-27.2c5.9-10.5,11.2-24.6,12.6-49.5c1.3-24.9,1.3-47.6,5.3-60.3c0.6-1.7,1.1-3.2,1.5-4.6
		c-15.8-2.9-49.7-12.2-65.5-26.1c-17.7-15.6-25.7-31.2-29.5-51.2s-11.8-42.6-20-57.1c-8.4-15-34.3-28.4-34.3-28.4
		s-11.6,9.3-26.8,0.8c-17.1-9.5-19-15.4-24.9-23.2c-5.3-7-15.8-9.1-18.5-9.5c35.6-13.9,53.3,5.3,53.3,5.3s-0.8-9.7-14.5-13.3
		c-4.2-1.3-9.3-2.3-15-2.9c2.7-1.1,5.1-1.9,7-2.3c6.1-1.7,20.2-3.2,31,4.2c10.1,6.7,13.7,27.2,13.7,27.2
		c5.1,3.2,34.1,17.7,43.6,29.7s16.2,24.4,20.4,40.7c4.2,16.4,9.9,40.2,34.1,60.3c18.8,15.4,46.1,19,57.9,19.8
		c0.4-0.6,1.1-1.3,1.5-1.9c8.2-10.7,32.9-34.1,40.2-37.5c7.2-3.4,36.4-10.7,39.8-14.1c3.4-3.4,32-26.3,34.6-29.7
		c2.5-3.4,15.6-26.8,23.4-38.3c7.8-11.6,27.2-33.1,27.2-33.1s-16.4-0.4-20.9-7.8c0,0,17.9-8,19.6-18.1c1.1-5.9-3.2-10.3-15.4-5.3
		c0,0,1.7-11.6,11.8-26.1c10.3-14.5,29.7-30.8,37.5-36.4c9.9-7,13.3-16,10.7-20.9c-2.5-4.8-13.1-5.3-20.4,2.9
		c0,0,6.7-20.2,19.4-29.1c0,0-9.3-1.9-12.6-9.3c0,0,14.1,0.4,23.8-4.8c9.7-5.5,35-21.5,44.7-21.9c0,0-7.8-4-20,0.4
		c0,0,18.5-22.3,47.2-26.8c28.4-4.2,53.9,3.4,65.5-1.9c0,0-5.3-6.7-17.9-6.7c0,0,15.6-9.3,25.3-9.3c0,0-8.4-9.7-20-14.1
		c0,0,25.3,0.8,34.6,5.3c0,0-6.3-7.4-5.3-15.6c0,0,19.4,17.5,48,27.2c28.7,9.7,46.1,13.1,51,20.9c4.8,7.8,1.9,12.2,1.9,12.2
		s20.9,8.8,28.2,12.6c7.4,4,10.1,12.6,11.2,15.6c0.8,2.9,5.9,11.2,9.7,12.6c3.8,1.5,25.3,10.5,36.9,17.9
		c11.6,7.4,22.8,17.5,22.8,17.5s-11.2,6.3-13.7,11.6s-7.4,31.2-28.2,37.9c0,0,6.3-10.7,1.5-21.5c0,0-24.9-1.5-42.3,9.3
		c0,0-3.2,20.9,8,26.8c11.2,5.9,24-11.8,25.5-15.6c0,0-0.4,9.9,0,16.4c0,0.6,2.9-0.2,2.9,0.4c0.6,7-0.6,17.1-0.6,17.1
		s8.2-6.3,21.9-3.8c13.7,2.3,17.1,6.7,21.5,6.7s13.1-5.9,16-8.8c2.9-2.9,7.8-4.8,12.2-3.4c4.2,1.5,6.7,8.2,6.7,8.2
		s16.6,1.5,21.9,0.4c5.3-0.8,16,4.8,19,7.4c2.7,2.5,6.3,6.3,5.3,9.3c-1.1,2.9-7.8,7.4-7.8,7.4s3.8,7.8,3.4,12.6
		c-0.6,4.8-10.7,6.7-10.7,6.7s-3.4,13.1-9.7,16.4c-6.3,3.6-24.2-3.8-24.2-3.8s-10.5,3.8-22.8,3.4c-12.2-0.4-19-9.7-19-9.7
		s-9.1-1.5-16.4,4.8s-22.5,33.9-37.5,47.6c0,0-41.5,41.9-78.4,63C753,446.4,735.6,454.7,721.9,456.6z M965.4,478.3
		c0,0,1.5,13.7-3.4,17.1c-4.8,3.4-14.1-1.5-14.1-1.5s-0.4,9.7-7.8,12.2c-7.2,2.5-16-6.3-16-6.3s-17.1,2.7-28.7-2.5
		c-11.6-5.3-14.1-16-14.1-16s-19-8.8-37.5-10.7c-15.8-1.7-50.1-3.6-79-17.3c12-7,29.7-18.1,43.6-29.5c13.3-11,25.3-22.8,33.1-30.8
		c8.8,7.8,21.7,18.8,32.4,23.6c17.9,8.2,31,11.6,36.9,12.6c5.7,1.1,10.1,7.4,11.6,10.7c1.5,3.4,7.4,8.6,14.1,8.2
		c7-0.4,15.6-4.4,23.4,0c7.6,4.4,15,13.7,16.4,20C977.8,474.2,970.9,478.3,965.4,478.3z M584.9,227.8c0,0,28.7-27.8,71.8-19.8
		c43.2,7.8,62.4,40.2,62.4,40.2s-32.4-26.1-67-29.9C617.4,214.7,584.9,227.8,584.9,227.8z M796.6,280.8
		c14.6,0.9,34.6,11.6,34.6,11.6c-27.6,22.3-78.6,40.9-96.5,44.7c-0.2,0.2,12.2-16.9-5.1-35.4c-13.9-15-60.9-24.2-105.3-7.4
		c44.7-24.2,86-17.1,107.2-6.3c20.2,10.3,18.5,27.2,18.1,29.3v0.2c0,0,15-2.9,25.3-9.3C775.7,294.3,783.7,280.2,796.6,280.8z
		 M802.1,171.3c-4-2.7-19-5.9-19-5.9s15.6-3.6,19.8-3.6c4.4,0,13.3,5.9,19.6,6.3c0,0-5.5,7.4-6.3,9.5c-0.8,1.9,2.3,5.9,2.3,5.9
		S805.9,174,802.1,171.3z M614.4,265.5c-15.4,7.6-33.5,24-62.4,30.8c-30.3,7.2-54.4-3.8-54.4-3.8c41.9-1.5,61.7-13.3,103.2-35.4
		c41.5-21.9,85.3-3.6,85.3-3.6C655.5,248.8,632.1,256.8,614.4,265.5z"/>
	<path class="st2" d="M971.2,288.1c-3-2.6-13.7-8.2-19-7.4c-5.3,1.1-21.9-0.4-21.9-0.4s-2.5-6.7-6.7-8.2c-4.4-1.4-9.3,0.5-12.2,3.4
		c-2.9,2.9-11.6,8.8-16,8.8s-7.8-4.4-21.5-6.7c-13.7-2.5-21.9,3.8-21.9,3.8s1.2-10.1,0.6-17.1c0-0.6-2.9,0.2-2.9-0.4
		c-0.4-6.5,0-16.4,0-16.4c-1.5,3.8-14.3,21.5-25.5,15.6c-11.2-5.9-8-26.8-8-26.8c17.4-10.8,42.3-9.3,42.3-9.3
		c4.8,10.8-1.5,21.5-1.5,21.5c20.8-6.7,25.7-32.6,28.2-37.9s13.7-11.6,13.7-11.6s-11.2-10.1-22.8-17.5
		c-11.6-7.4-33.1-16.4-36.9-17.9c-3.8-1.4-8.9-9.7-9.7-12.6c-1.1-3-3.8-11.6-11.2-15.6c-7.3-3.8-28.2-12.6-28.2-12.6
		s2.9-4.4-1.9-12.2c-4.9-7.8-22.3-11.2-51-20.9c-28.6-9.7-48-27.2-48-27.2c-1,8.2,5.3,15.6,5.3,15.6c-9.3-4.5-34.6-5.3-34.6-5.3
		c11.6,4.4,20,14.1,20,14.1c-9.7,0-25.3,9.3-25.3,9.3c12.6,0,17.9,6.7,17.9,6.7c-11.6,5.3-37.1-2.3-65.5,1.9
		c-28.7,4.5-47.2,26.8-47.2,26.8c12.2-4.4,20-0.4,20-0.4c-9.7,0.4-35,16.4-44.7,21.9c-9.7,5.2-23.8,4.8-23.8,4.8
		c3.3,7.4,12.6,9.3,12.6,9.3c-12.7,8.9-19.4,29.1-19.4,29.1c7.3-8.2,17.9-7.7,20.4-2.9c2.6,4.9-0.8,13.9-10.7,20.9
		c-7.8,5.6-27.2,21.9-37.5,36.4c-10.1,14.5-11.8,26.1-11.8,26.1c12.2-5,16.5-0.6,15.4,5.3c-1.7,10.1-19.6,18.1-19.6,18.1
		c4.5,7.4,20.9,7.8,20.9,7.8s-19.4,21.5-27.2,33.1c-7.8,11.5-20.9,34.9-23.4,38.3c-2.6,3.4-31.2,26.3-34.6,29.7
		c-3.4,3.4-32.6,10.7-39.8,14.1c-7.3,3.4-32,26.8-40.2,37.5c-0.4,0.6-1.1,1.3-1.5,1.9c-11.8-0.8-39.1-4.4-57.9-19.8
		c-24.2-20.1-29.9-43.9-34.1-60.3c-4.2-16.3-10.9-28.7-20.4-40.7s-38.5-26.5-43.6-29.7c0,0-3.6-20.5-13.7-27.2
		c-10.8-7.4-24.9-5.9-31-4.2c-1.9,0.4-4.3,1.2-7,2.3c5.7,0.6,10.8,1.6,15,2.9c13.7,3.6,14.5,13.3,14.5,13.3S119,280,83.4,293.9
		c2.7,0.4,13.2,2.5,18.5,9.5c5.9,7.8,7.8,13.7,24.9,23.2c15.2,8.5,26.8-0.8,26.8-0.8s25.9,13.4,34.3,28.4
		c8.2,14.5,16.2,37.1,20,57.1s11.8,35.6,29.5,51.2c15.8,13.9,49.7,23.2,65.5,26.1c-0.4,1.4-0.9,2.9-1.5,4.6c-4,12.7-4,35.4-5.3,60.3
		c-1.4,24.9-6.7,39-12.6,49.5c-5.9,10.8-23.8,20.9-25.3,27.2c-1.5,6.4,6.7,13.1,7.8,22.8c1,9.7-1.5,50.6-1.5,56.5s-1.5,13,1.9,18.5
		c3.4,5.3,8.8,8.2,16,7.4c7.4-1.1,10.1-5.3,10.1-5.3s10.8,4.4,15.6,1.5c4.8-2.9,4.4-12.6,4.4-12.6s7.4,0,9.3-2.5
		c1.8-2.5,2.5-11.2-1.1-15.6c-3.3-4.4-20.4-5.9-20.4-5.9c-1.1-1.8-3.8-34.9-1.5-42.3c2.6-7.4,21.9-18.6,36.9-27.2
		c15.2-8.8,35.4-16,42.8-23.8c5.9-6.3,21.5-37.7,27.2-49.3c0.4-0.6,18.9-46.8,63.8-67.2l0.4-0.2c-32.9,29-35.6,40-35.6,40
		s21.9-20.7,59.8-36.9c25.3-10.7,44.7-15.3,57.3-16.6c-31.4,9.9-57.9,25.1-84.9,41.3c-27.4,16.6-45.1,38.1-45.9,39.4
		c24.2,9.7,22.3,20,20.2,25.9c-2.5,6.8-17.5,22-20,28.7c-2.6,6.8-1.5,14.1,10.7,15.2c12.3,1.1,45.8-3.3,56.5-2.9
		c10.7,0.5,17.5,11.2,27.8,11.2c10.1,0,15.2-6.7,15.2-6.7c7.4,2.6,20.4,3.8,25.7,1.5c5.2-2.5,4.4-12.6,4.4-12.6
		c8.8-1.4,14.1-5.9,12.6-10.7c-1.5-4.9-4.8-11.2-12.2-15.6s-14.1-2.9-19.4-0.4c-5.2,2.5-12.6,6.7-20.4,5.9
		c-7.8-1.1-36.9-7.4-36.9-7.4c7.8-21.5,32.6-36.9,43.8-40.9c11.2-3.8,32.7-10.8,40.9-17.5s13.1-31.2,13.7-36
		c0.4-4.8-3.8-20.4-3.8-20.4c8.7-1.5,31.6-1.1,49.1-7.8c10.3-4,29.7-14.5,44-22.3c-31.1-17.9-93.5-13.5-93.5-13.5
		c65.5-13.7,110.8,3.8,110.8,3.8c21.3,6.4,32,26.8,32,26.8c13.7-1.9,31.2-10.1,31.2-10.1c36.9-21,78.4-63,78.8-63.6
		c15-13.7,30.2-41.3,37.5-47.6s16.4-4.8,16.4-4.8s6.8,9.3,19,9.7c12.3,0.4,22.8-3.4,22.8-3.4s17.9,7.4,24.2,3.8
		c6.3-3.3,9.7-16.4,9.7-16.4s10.1-1.9,10.7-6.7c0.4-4.8-3.4-12.6-3.4-12.6s6.7-4.5,7.8-7.4C977.5,294.4,973.9,290.6,971.2,288.1z
		 M803,161.8c4.4,0,13.3,5.9,19.6,6.3c0,0-5.5,7.4-6.3,9.5c-0.9,1.9,2.3,5.9,2.3,5.9s-12.6-9.5-16.4-12.2c-4-2.7-19-5.9-19-5.9
		S798.8,161.8,803,161.8z M656.7,208c43.2,7.8,62.4,40.2,62.4,40.2s-32.4-26.1-67-29.9c-34.8-3.6-67.2,9.5-67.2,9.5
		S613.6,199.9,656.7,208z M552.1,296.3c-30.4,7.2-54.4-3.8-54.4-3.8c41.9-1.5,61.7-13.3,103.2-35.4c41.5-21.9,85.3-3.6,85.3-3.6
		c-30.7-4.6-54.1,3.4-71.8,12C599,273.1,580.9,289.5,552.1,296.3z M734.7,337.1c-0.3,0.2,12.2-16.9-5.1-35.4
		c-13.9-15-60.8-24.3-105.3-7.4c44.6-24.2,85.9-17,107.2-6.3c20.2,10.3,18.5,27.2,18.1,29.3v0.2c0,0,15-3,25.3-9.3
		c0.8-13.9,8.8-28,21.7-27.4c14.6,0.9,34.6,11.6,34.6,11.6C803.6,314.8,752.6,333.3,734.7,337.1z M976.3,468.1
		c1.5,6.1-5.4,10.2-10.9,10.2c0,0,1.5,13.7-3.4,17.1c-4.8,3.4-14.1-1.5-14.1-1.5s-0.4,9.7-7.8,12.2c-7.2,2.5-16-6.3-16-6.3
		s-17.1,2.7-28.7-2.5c-11.6-5.3-14.1-16-14.1-16s-19-8.8-37.5-10.7c-15.8-1.7-50.1-3.6-79-17.3c12-7,29.7-18.1,43.6-29.5
		c13.3-11,25.3-22.8,33.1-30.8c8.8,7.8,21.7,18.8,32.4,23.6c17.9,8.2,31,11.6,36.9,12.6c5.7,1.1,10.1,7.4,11.6,10.7
		c1.5,3.4,7.4,8.6,14.1,8.2c7-0.4,15.6-4.4,23.4,0C967.5,452.5,974.9,461.8,976.3,468.1z"/>
</g>
</svg>
