<?xml version="1.0" encoding="utf-8"?>
<!-- Generator: Adobe Illustrator 24.3.0, SVG Export Plug-In . SVG Version: 6.00 Build 0)  -->
<svg version="1.1" id="_x34_9ers" xmlns="http://www.w3.org/2000/svg" xmlns:xlink="http://www.w3.org/1999/xlink" x="0px" y="0px"
	 viewBox="0 0 470.4 279.9" style="enable-background:new 0 0 470.4 279.9;" xml:space="preserve">
<style type="text/css">
	.st0{fill:#FFFFFF;}
	.st1{fill:#010101;}
	.st2{fill-rule:evenodd;clip-rule:evenodd;fill:#B2975D;}
	.st3{fill-rule:evenodd;clip-rule:evenodd;fill:#A81E22;}
</style>
<g>
	<path class="st0" d="M458.6,101.4c-5.8-11.7-8.2-13.9-15.6-23.5c-0.9-1.2-1.8-1.9-2.7-3.1c-5.8-7.5-22.5-20.5-30.5-25.8
		c-16-10.7-34.1-19.8-52.4-26.3c-5.7-2-11.2-3.8-16.9-5.6c-15.7-5.1-38.9-9.7-55.7-11.8c-19.7-2.4-31.9-2.9-47.7-3h-15.9
		c-1.7,0.1-2.3,0.4-4.3,0.4C191.5,3,152.7,10,130,17c-11.6,3.6-21.9,7.3-32.9,12.1c-5.3,2.3-10,4.6-15.2,7.2
		c-15.7,7.8-33.2,19.7-46,32.5l-8.1,8.5c-9.9,11.7-18,24.6-22.2,39.8c-1.5,5.3-3.1,12.7-3.1,19.4v0.5c0,10.8,0.1,15.1,3.1,25.9
		c4,14.4,10.8,25.3,19.6,36.6c3.4,4.4,10.6,12.2,15,15.7c0.7,0.5,1,0.9,1.6,1.5c1,1,1.8,1.6,2.9,2.5c9.8,8.6,25.8,18.8,37.4,24.6
		c8.1,4,14.8,7.1,23.2,10.5c14.7,5.9,27.4,9.6,42.8,13.5c12.3,3.1,24.7,4.9,38.1,6.9c8.7,1.2,22.2,2.4,31.2,2.5
		c1.9,0,2.5,0.3,4.3,0.4h15.1c15.8-0.1,28.1-0.6,47.3-3c30.8-3.8,45.7-8.2,72.7-17.2c2.6-0.9,5.4-2,8.1-3.1
		c7.8-3.1,23.6-10.2,30.8-14.6c7.3-4.5,13.3-7.9,20.5-13.2c6.5-4.8,12.7-9.9,18.3-15.5c18-17.9,33.3-41.7,33.3-68.3
		C467.8,125.8,465.3,114.8,458.6,101.4z M382.5,239.7c-42.7,21.4-94.1,31.9-148.7,31.9c-65.7,0-145.8-18.8-192.4-64.3
		c-1.9-1.9-3.3-3.6-5.3-5.5c-3-2.8-7.5-8.9-10-12.5c-2.8-3.9-6-9-8.2-13.9C-10.5,113.3,39.6,64,88.7,40C174.8-2.2,296.1-2.2,382,40
		c33.5,16.4,78.4,50.5,78.8,99.4C461.2,189.3,415.8,223,382.5,239.7z M215.3,164.4c-22.2-0.9-31.2-4.3-50.7-9.9
		c-5.8,17.3-7.7,15.5-22.6,15.4l0.1-45.3c2.9,0,5.9,0,8.8,0c4.7,0,3.6-0.3,6.2,2.2c8.9,8.8,19.3,15,32,19.2
		c15.8,5.3,42.8,8.9,59.6,3.4c8.4-2.8,16.3-7.6,18-16.5c2.1-10.9-8.5-15-17.8-16.1c-21.6-2.6-44.3,0.4-66-2.2
		c-18.4-2.1-41.9-7.5-43.2-25.4c-0.7-10.8,6.5-18.5,11.4-22.6c23.9-20.1,75.1-20.5,106.1-13c3.6,0.9,3.1,0.6,5.5-1.3
		c2-1.7,2.6-2.6,6-2.6c7.7,0.1,18.8-0.3,25.6,0.1v29.3c-4.9,0.4-10.5,0.1-15.5,0.1c-6.2,0.1-4.2-0.6-11-4.2
		c-6.9-3.7-13.3-6.7-21.4-9.2c-13.3-4.1-39.2-8.2-52.7-2.5c-7.8,3.3-12.6,11.5-2.8,16.3c13.8,6.7,53.7-1,81.6,9.9
		c31.7,12.5,38,50.4-4.6,66.7C251.7,162.4,234.5,165.2,215.3,164.4z M223.8,146l9.4,0.9c15.3,1.4,33.9-11.3,25.5-19.1
		c-4.2-3.9-13.4-3.3-19.6-3.3h-39.2v10.6l0.1,1.4C211.4,136.5,221.7,134.2,223.8,146z M306.9,124.2c-0.4,9.1-2.2,9.5-3.3,13.4
		c7.6,0,37.8-0.6,42.9,0.6c11.2,2.5,16.1,14,16,27.6h11.1v-41.5L306.9,124.2z M310.7,160.9c-6.8,9.8-19.8,12.2-32.1,12.1
		c-4.6,0-9.2-0.5-13.6-1c-21.4-2.8-6.9-1.5-25.6,0.5c-5,0.5-9.5,0.7-14.6,0.7c-0.8,4.2-0.2,16.5-0.2,21.6c0,8,1.2,13.1-3.6,18
		c-7.3,7.4-22.6,10.1-33.3,10.6v9.2h98.9v-9c-8.5-1.8-17.6-1.9-25-9c-3.5-3.3-4.5-6.2-4.5-12.7c0-5.7,0-11.5,0-17.2
		c8.1,0,33.4-1.1,39.2,1c13.6,4.8,17.1,20.9,18.7,21.4h9.9v-56C308.5,151,318.3,149.9,310.7,160.9z"/>
	<path class="st1" d="M382,40C296.1-2.2,174.8-2.2,88.7,40c-49.1,24-99.2,73.3-70.8,135.4c2.2,4.9,5.4,10,8.2,13.9
		c2.5,3.6,7,9.7,10,12.5c2,1.9,3.4,3.6,5.3,5.5c46.6,45.5,126.7,64.3,192.4,64.3c54.6,0,106-10.5,148.7-31.9
		c33.3-16.7,78.7-50.4,78.3-100.3C460.4,90.5,415.5,56.4,382,40z M371.8,229.2c-35.2,20.3-77.1,31.8-125.3,33.5
		c-47.9,1.7-95.3-7.7-132.9-26.1c-31.3-15.3-68.4-43.6-73.9-85.1c-6.5-48.3,33.2-82.3,60.2-97.9c35.1-20.3,77.8-31.8,125.8-33.4
		c35.9-1.2,70.8,3.6,104.3,14.7c18.4,6.1,38,15.5,53.2,26.3c12.9,9.1,16.2,12.5,26.3,23.3c1.5,1.6,3.1,3.7,4.5,5.6
		c3,4.1,5.2,7.2,7.8,11.9c4.8,8.6,8.5,18.4,10,29.6C438.1,179.6,398.5,213.8,371.8,229.2z M377.1,124.2v-4.1h-71.7
		c-2.1-4.9-1-6.5-5.9-13.4c-4.9-7.1-12.6-14.2-20.3-18.5c-11.7-6.5-36.1-8.9-49.6-9.3c-7.8-0.2-31.5,0.9-36.5-2.8
		c2.2-8.1,19.3-8.1,26-7.9c10.3,0.3,20.1,1.9,29.2,4.7c8.9,2.6,16.1,6.1,23.5,10.2c6.5,3.6,3.9,3.7,13.2,3.7c5.3,0,11.9,0.3,17-0.1
		V49.9l-4.1-0.1v-4.1h-30.3c-2.6,0-2.5-0.3-4.2,1.1c-5.3,4.2-3.2,3.3-11.1,1.7c-31-6.2-68.9-4.9-95.3,9.4
		c-8.1,4.3-16.2,11.6-19.5,21.2c-3.2,9.1-0.7,19.9,6.7,26c3.5,2.9,5,6.7,14.9,10.7c8.9,3.6,23.9,6.4,33.7,7c4.1,0.3,3.4-0.8,3.4,6.6
		c0,3.5,0,7,0,10.5h4.1l0.1,4c6.6,0.6,16.9-1.9,19.2,3.7c-0.4,0.2,0.4,0.1-0.8,0.2l-3.8-0.3c-1.7-0.2-3.4-0.4-5.2-0.6
		c-18.1-2.6-38.2-10.2-50.7-23.3c-1.1-1.2-1.8-2.2-3.1-2.8h-17.5v52.6h3.9l0.3,4c4.5,0.6,16.6,0.6,19.8-1.3c4-2.4,6.8-7.7,8.6-12.9
		c8.7,2,11.9,3.8,23.5,6c4.3,0.8,8.4,1.4,12.8,1.9c3.7,0.4,10.6,0.4,13.7,1.1c0.2,6.8,0,13.9,0,20.7c0,7.1,1.4,13.7-3.3,17.9
		c-5.3,4.7-16.1,7.1-23.7,8.1c-2.9,0.4-7.4,0.3-9.9,0.9v16l4.1,0.1v4.1c34.8,0.3,71.2,0,106.1,0v-15.5l-4-1.1l-0.2-3.6
		c-9.7-0.7-18.6-1.7-24.4-8.6c-1.3-1.6-1-3.4-1-5.8c0-4.5,0-8.9,0-13.4c6.2,0,29.3-0.7,33.5,0.6c4.9,1.5,6.9,3.8,9.2,7.8
		c5.6,9.8,1.8,9.8,7.1,9.9c1.5,5.6-1,4.1,18,4.1v-63.2h-4.1v-4l-16.7-0.1c-1.5,11-7.3,17.2-16.8,20.1c-8.2,2.5-26.6,2.5-33.4,0.4
		c8.8-3.6,11-2.8,21.6-8.7c3.9-2.1,10-6.4,12.9-9.6c1.2-1.3,2.1-3.2,3.9-4.1c13.8,0,27.7,0,41.5,0c3.5,0,6.6-0.2,9.8,0.9
		c3.4,1.1,3.8,2.1,5.2,5.3c2.8,6.6,2.1,10.7,2.3,17.9l4.2,0.1l-0.2,4.1h18.6v-48.9L377.1,124.2z M200,136.5l-0.1-1.4v-10.6h39.2
		c6.2,0,15.4-0.6,19.6,3.3c8.4,7.8-10.2,20.5-25.5,19.1l-9.4-0.9C221.7,134.2,211.4,136.5,200,136.5z M265,172c4.4,0.5,9,1,13.6,1
		c12.3,0.1,25.3-2.3,32.1-12.1c7.6-11-2.2-9.9,14.2-9.8v56H315c-1.6-0.5-5.1-16.6-18.7-21.4c-5.8-2.1-31.1-1-39.2-1
		c0,5.7,0,11.5,0,17.2c0,6.5,1,9.4,4.5,12.7c7.4,7.1,16.5,7.2,25,9v9h-98.9v-9.2c10.7-0.5,26-3.2,33.3-10.6c4.8-4.9,3.6-10,3.6-18
		c0-5.1-0.6-17.4,0.2-21.6c5.1,0,9.6-0.2,14.6-0.7C258.1,170.5,243.6,169.2,265,172z M267.9,156.2c-16.2,6.2-33.4,9-52.6,8.2
		c-22.2-0.9-31.2-4.3-50.7-9.9c-5.8,17.3-7.7,15.5-22.6,15.4l0.1-45.3c2.9,0,5.9,0,8.8,0c4.7,0,3.6-0.3,6.2,2.2
		c8.9,8.8,19.3,15,32,19.2c15.8,5.3,42.8,8.9,59.6,3.4c8.4-2.8,16.3-7.6,18-16.5c2.1-10.9-8.5-15-17.8-16.1
		c-21.6-2.6-44.3,0.4-66-2.2c-18.4-2.1-41.9-7.5-43.2-25.4c-0.7-10.8,6.5-18.5,11.4-22.6c23.9-20.1,75.1-20.5,106.1-13
		c3.6,0.9,3.1,0.6,5.5-1.3c2-1.7,2.6-2.6,6-2.6c7.7,0.1,18.8-0.3,25.6,0.1v29.3c-4.9,0.4-10.5,0.1-15.5,0.1c-6.2,0.1-4.2-0.6-11-4.2
		c-6.9-3.7-13.3-6.7-21.4-9.2c-13.3-4.1-39.2-8.2-52.7-2.5c-7.8,3.3-12.6,11.5-2.8,16.3c13.8,6.7,53.7-1,81.6,9.9
		C304.2,102,310.5,139.9,267.9,156.2z M373.6,165.8h-11.1c0.1-13.6-4.8-25.1-16-27.6c-5.1-1.2-35.3-0.6-42.9-0.6
		c1.1-3.9,2.9-4.3,3.3-13.4l66.7,0.1V165.8z"/>
	<path class="st2" d="M431.8,131.6c-1.5-11.2-5.2-21-10-29.6c-2.6-4.7-4.8-7.8-7.8-11.9c-1.4-1.9-3-4-4.5-5.6
		c-10.1-10.8-13.4-14.2-26.3-23.3C368,50.4,348.4,41,330,34.9C296.5,23.8,261.6,19,225.7,20.2c-48,1.6-90.7,13.1-125.8,33.4
		c-27,15.6-66.7,49.6-60.2,97.9c5.5,41.5,42.6,69.8,73.9,85.1c37.6,18.4,85,27.8,132.9,26.1c48.2-1.7,90.1-13.2,125.3-33.5
		C398.5,213.8,438.1,179.6,431.8,131.6z M362.6,220.6c-65.9,40.5-169.3,42-238.4,7.9c-29-14.3-62.6-40.4-68.3-78.6
		c-6.7-45.1,29.5-77,54-91.7c32-19.1,71-30.2,115.2-31.9c44.4-1.7,87.9,7,122.8,23.9C432.3,91.2,442.4,171.4,362.6,220.6z"/>
	<path class="st3" d="M347.9,50.2C313,33.3,269.5,24.6,225.1,26.3c-44.2,1.7-83.2,12.8-115.2,31.9c-24.5,14.7-60.7,46.6-54,91.7
		c5.7,38.2,39.3,64.3,68.3,78.6c69.1,34.1,172.5,32.6,238.4-7.9C442.4,171.4,432.3,91.2,347.9,50.2z M381.4,173.5h-18.6l0.2-4.1
		l-4.2-0.1c-0.2-7.2,0.5-11.3-2.3-17.9c-1.4-3.2-1.8-4.2-5.2-5.3c-3.2-1.1-6.3-0.9-9.8-0.9c-13.8,0-27.7,0-41.5,0
		c-1.8,0.9-2.7,2.8-3.9,4.1c-2.9,3.2-9,7.5-12.9,9.6c-10.6,5.9-12.8,5.1-21.6,8.7c6.8,2.1,25.2,2.1,33.4-0.4
		c9.5-2.9,15.3-9.1,16.8-20.1l16.7,0.1v4h4.1v63.2c-19,0-16.5,1.5-18-4.1c-5.3-0.1-1.5-0.1-7.1-9.9c-2.3-4-4.3-6.3-9.2-7.8
		c-4.2-1.3-27.3-0.6-33.5-0.6c0,4.5,0,8.9,0,13.4c0,2.4-0.3,4.2,1,5.8c5.8,6.9,14.7,7.9,24.4,8.6l0.2,3.6l4,1.1V240
		c-34.9,0-71.3,0.3-106.1,0v-4.1l-4.1-0.1v-16c2.5-0.6,7-0.5,9.9-0.9c7.6-1,18.4-3.4,23.7-8.1c4.7-4.2,3.3-10.8,3.3-17.9
		c0-6.8,0.2-13.9,0-20.7c-3.1-0.7-10-0.7-13.7-1.1c-4.4-0.5-8.5-1.1-12.8-1.9c-11.6-2.2-14.8-4-23.5-6c-1.8,5.2-4.6,10.5-8.6,12.9
		c-3.2,1.9-15.3,1.9-19.8,1.3l-0.3-4h-3.9v-52.6H156c1.3,0.6,2,1.6,3.1,2.8c12.5,13.1,32.6,20.7,50.7,23.3c1.8,0.2,3.5,0.4,5.2,0.6
		l3.8,0.3c1.2-0.1,0.4,0,0.8-0.2c-2.3-5.6-12.6-3.1-19.2-3.7l-0.1-4h-4.1c0-3.5,0-7,0-10.5c0-7.4,0.7-6.3-3.4-6.6
		c-9.8-0.6-24.8-3.4-33.7-7c-9.9-4-11.4-7.8-14.9-10.7c-7.4-6.1-9.9-16.9-6.7-26c3.3-9.6,11.4-16.9,19.5-21.2
		c26.4-14.3,64.3-15.6,95.3-9.4c7.9,1.6,5.8,2.5,11.1-1.7c1.7-1.4,1.6-1.1,4.2-1.1h30.3v4.1l4.1,0.1v36.8c-5.1,0.4-11.7,0.1-17,0.1
		c-9.3,0-6.7-0.1-13.2-3.7c-7.4-4.1-14.6-7.6-23.5-10.2c-9.1-2.8-18.9-4.4-29.2-4.7c-6.7-0.2-23.8-0.2-26,7.9
		c5,3.7,28.7,2.6,36.5,2.8c13.5,0.4,37.9,2.8,49.6,9.3c7.7,4.3,15.4,11.4,20.3,18.5c4.9,6.9,3.8,8.5,5.9,13.4h71.7v4.1l4.3,0.4
		V173.5z"/>
</g>
</svg>
