<?xml version="1.0" encoding="utf-8"?>
<!-- Generator: Adobe Illustrator 24.3.0, SVG Export Plug-In . SVG Version: 6.00 Build 0)  -->
<svg version="1.1" id="Layer_1" xmlns="http://www.w3.org/2000/svg" xmlns:xlink="http://www.w3.org/1999/xlink" x="0px" y="0px"
	 viewBox="0 0 497.9 358.5" style="enable-background:new 0 0 497.9 358.5;" xml:space="preserve">
<style type="text/css">
	.st0{fill:#FFFFFF;}
	.st1{fill:#F05325;}
</style>
<g>
	<path class="st0" d="M310.3,232v6.1c0,12.8-10.4,23.1-23.1,23.1l-43.2,0c-10.4,0-9.5-10.4-9.5-23.1v-29.3l33.8,0l18.9,0.1
		C300,208.9,310.3,219.3,310.3,232z M287.3,106.5h-2.4l-40.8,0c-10.4,0-9.5,10.3-9.5,23.1v29.3l40.1-0.1h12.6
		c12.7,0,23.1-10.3,23.1-23.1v-6.1C310.4,116.9,300.1,106.5,287.3,106.5z M484.4,256.5c0,22.4-12.4,47.1-33.2,66.2
		c-22.8,20.9-52.5,32.5-83.7,32.5l-282.7,0.2l-7.5,0l-3.8-6.5L27,268l-11.2-19.5h22.5h28.1l-0.1-128.1H37.7H15.4l11-19.4l46.4-81.8
		l3.7-6.4l7.4-0.1l47.3-0.9l0,0l0.1,0l0.1,0l230.7,0.4l0,0l0,0c12.1,0.1,23.7,1.8,35.2,5.2l0.4-0.6l10.4,4.1
		c18.5,7.3,34.3,18.8,45.6,33.2c11.7,15,18.2,32.6,18.6,50.9l0,0.3l0,0.3l-0.1,6.6l0,0.4l0,0.4c-2,27.6-14.2,49.5-35.7,64.3
		c7.1,3.9,13.7,8.5,19.5,13.7C474.7,207.5,484.5,230.3,484.4,256.5z M471.4,256.5c0.1-54.9-47.6-71.6-54.1-74
		c-2.3-0.8-7.8-0.7-7.8-3.8c0-3.4,3.5-3.6,5.5-4.5c25.3-11.3,42.2-31.5,44.4-62.5l0.1-6.6c-0.8-31.8-22.9-59.3-56-72.3
		c0,0.1-0.1,0.1-0.1,0.2c-12.7-4.9-26.1-7.8-41.2-7.9l-230.7-0.4c0,0,0,0,0,0l0,0l-47.3,0.9l-46.4,81.8h31.6c0,0,10-0.3,10,10
		l0.1,133c0,0,0.9,11.1-11.9,11.1c-12.9,0-29.2,0-29.2,0l46.5,80.9l282.7-0.2C428.7,342.2,471.4,293.3,471.4,256.5z"/>
	<path d="M459.5,105.1l-0.1,6.6c-9.8,7.3-25.4,20.1-35.3,29.9c-14.6,14.6-43.2,52.4-57.8,80.6c-14.6,28.2-35.4,97.3-35.4,97.3
		s-2.7-66.7-0.7-88.1c2-21.4,18-93.6,38.8-133.7c15.7-30.4,28.5-54.8,34.4-64.7c0,0,0,0,0,0c0-0.1,0.1-0.1,0.1-0.2
		C436.6,45.8,458.7,73.3,459.5,105.1z M131.5,24.7L131.5,24.7l-47.4,0.9l-46.4,81.8h31.6c0,0,10-0.3,10,10l0,102c0,0,0,0,0,0
		c35,55.1,94.1,99.1,94.1,99.1c-36.1-56.1-51-162-51-216.1C122.5,62.5,128.4,35.9,131.5,24.7z M265.6,261.2l-21.6,0
		c-10.4,0-9.5-10.4-9.5-23.1v-29.3l33.8,0h0c0.3-5.4,0.5-8.4,0.6-11.2c0.1-4.5,2.4-19.2,5.8-38.8l-40.1,0.1v-29.3
		c0-12.8-0.9-23.1,9.5-23.1l40.8,0c2.2-10.3,4.1-17.4,5.9-23.1c5.9-19,14.9-44.6,19.9-58.4l-98.5-0.2
		c-6.2,25.9-19.2,85.8-16.6,127.8c3.3,52.4,23.4,150.2,43,189.7l128.9-0.1c-0.7,0-40.5,0-93.8,0.1
		C272.4,330.9,266.6,280.1,265.6,261.2z"/>
	<path class="st1" d="M195.6,152.6c3.3,52.4,23.4,150.2,43,189.7c-74.6,0.1-153.8,0.1-153.8,0.1l-46.5-80.9c0,0,16.3,0,29.2,0
		c12.8,0,11.9-11.1,11.9-11.1s0-13.1,0-31c35,55.1,94.1,99.1,94.1,99.1c-36.1-56.1-51-162-51-216.1c0-39.9,5.9-66.5,9-77.7l80.7,0.1
		C206,50.7,193,110.6,195.6,152.6z M417.3,182.5c-2.3-0.8-7.8-0.7-7.8-3.8c0-3.4,3.5-3.6,5.5-4.5c25.3-11.3,42.2-31.5,44.4-62.5
		c-9.8,7.3-25.4,20.1-35.3,29.9c-14.6,14.6-43.2,52.4-57.8,80.6c-14.6,28.2-35.4,97.3-35.4,97.3s-2.7-66.7-0.7-88.1
		c2-21.4,18-93.6,38.8-133.7c15.8-30.6,28.7-55.1,34.5-64.9c-12.8-5-26.1-7.6-41.3-7.7L310.7,25c-5,13.8-14,39.4-19.9,58.4
		c-1.8,5.7-3.7,12.8-5.9,23.1h2.4c12.8,0,23.1,10.4,23.1,23.1v6.1c0,12.8-10.4,23.1-23.1,23.1h-12.6c-3.4,19.6-5.7,34.3-5.8,38.8
		c-0.1,2.8-0.3,5.8-0.6,11.2l18.9,0.1c12.8,0,23.1,10.4,23.1,23.1v6.1c0,12.8-10.4,23.1-23.1,23.1l-21.6,0c1,18.9,6.8,69.7,8.1,81.1
		c53.3-0.1,93.1-0.1,93.8-0.1c61.2,0,103.9-48.9,103.9-85.7C471.5,201.6,423.8,184.9,417.3,182.5z"/>
</g>
</svg>
