<?xml version="1.0" encoding="utf-8"?>
<!-- Generator: Adobe Illustrator 24.3.0, SVG Export Plug-In . SVG Version: 6.00 Build 0)  -->
<svg version="1.1" id="Layer_1" xmlns="http://www.w3.org/2000/svg" xmlns:xlink="http://www.w3.org/1999/xlink" x="0px" y="0px"
	 viewBox="0 0 518.6 346.2" style="enable-background:new 0 0 518.6 346.2;" xml:space="preserve">
<style type="text/css">
	.st0{fill:#FFFFFF;}
	.st1{fill:#DA2128;}
	.st2{fill:#005496;}
</style>
<g>
	<path class="st0" d="M500.3,55.5C482.2,46.9,462,48,462,48c-20.8-31.6-48.8-44.4-48.8-44.4l-2.4,3.2C398.9,1.4,378,0,378,0l-1,3.8
		l-40,3.5l1.9,6.7c-6.3,0.4-27.5,7.7-27.5,7.7C280,32,252.5,48.2,252.5,48.2C222.5,65.5,217,75,217,75c-52.5,21.7-86.4,52-86.4,52
		l-87.2,7.4L0,211.4l102.1-14.6c0,0-11.4,25.9-47.4,48.9c-0.9,0.6-3.4,2.1-6.7,4.3c-2.6,2-2.7,8.1-5.1,13.8
		c-2.5,4.6-3.6,5.6-5.8,8.4c-3.9,4.4-9,7.9-16.7,13l1.5,9.2l-6.7,15l26.1,36.9l17.7-47.7l12-9.4l3.2,2.4l-8.3,10.8l26.4,35.4
		l22.1-48.9l88.4-71.7c0,0,17.4-1.3,35.2,3.4l7.7-6l21-0.2l3.3,4.4l-10.2,5.7L244.9,267l38-16.3c1.1,1.6,13.9,0.3,13.9,0.3l-10,35.8
		l34.1-13.9l4.6,0.7c21.7-1.7,40.7-7.7,40.7-7.7c24.5-7.6,27.2-23.3,27.2-23.3c4.2-10.1,0.7-31.8,0.7-31.8l10.5,0.2
		c4.1,0.5,3.1,6.9,3.1,6.9l-4.1,36.2c12.2-7.7,26.3-20.7,26.3-20.7l0.7,6.2c8.4-7.3,28.6-32.9,28.6-32.9
		c20.8-0.8,23.8-15.1,23.8-15.1c4-10.4,6-16.1,6-16.1c3.6-8.6,13.2-18.4,13.2-18.4c3.4-4.6,5.2-8.1,5.2-8.1c1.2-2.6,2.5-7,2.5-7
		c8.5-28.1,8.6-56.5,8.6-56.5C519.5,63.2,500.3,55.5,500.3,55.5z M14.6,201.6l33.8-59.6l408.9-35.2c-21.9,18.2-6.8,29.7-6.8,29.7
		L14.6,201.6z M108.2,283.3l-17.6,39l-15.6-20.9l8.8-12.1l-0.6-4.8c18.5-10.4,18.6-25.6,18.6-25.6c35.7-42.1,87.9-41.5,87.9-41.5
		L108.2,283.3z M386.7,237.7c0,0-2.9,12.8-16,17.9c0,0-19.4,8.2-48.4,10.1l-1.4-1.2l-22,9.3l7.2-25.6c0,0,29.5-2.3,38.4-5
		c0,0,22.9-4.5,26.3-33.4l14.7-0.1C385.5,209.6,388.4,229,386.7,237.7z M509.8,97.6c0,5.3-5.2,32.9-5.2,32.9
		c-4.3,19-12.1,26.3-12.1,26.3c-10,9.9-12.4,19.9-12.4,19.9c-5.2,14.2-7,16-7,16c-4,6.5-20.2,6.2-20.2,6.2
		c-3.8,9.1-18.5,25.1-18.5,25.1l-1.3-4.6l-19.4,17.3l3-24.1c1.1-8.2-7.7-10.1-7.7-10.1l-42.5,1.8c-6.2,29-28.6,33.4-28.6,33.4
		c-32.2,6.5-53.6,5.2-53.6,5.2l-1.4-1l-24.6,10.7l8.7-24l13.1-5.2c1-0.3,0.6-1.6,0.6-1.6l-1.3-3.9c13.5-1.2,25.8-10.7,25.8-10.7
		c1.6-1.3-0.8-1.8-0.8-1.8l-62.6,1.4l-4.9,4.7c-54.1-9-91.1,6.8-91.1,6.8c-42,15.6-67.5,55.6-67.5,55.6l-26.1,20l-13.2,35.5
		l-14.6-20.9l6-13.6l-0.9-6.4c12.7-8.1,18.2-17.7,18.2-17.7c4.4-5.9,4.1-10.7,4.1-10.7c0.3-3.9,3.9-6,3.9-6
		c48.6-29.4,55.9-60.5,55.9-60.5l342.7-51.8c-5.6,26,15.5,16.5,15.5,16.5c-13.6-9.6-1.3-16.5-1.3-16.5
		c-11.8-20.1,22.2-43.3,22.2-43.3l-348.1,28.6c37.4-30.6,88.8-49.1,88.8-49.1l-4.6-2.5l8.5-4l1.2-3.7c67.2-45,114.6-47.2,114.6-47.2
		l-2.1-6.3c23-2.4,33.5-2.4,33.5-2.4l0.8-2.4c17.4-0.2,29.6,8.3,29.6,8.3l2.6-3.9c35.8,24.8,41,42.9,41,42.9
		c26-2.1,39.9,5.5,39.9,5.5C515.4,70.4,509.8,97.6,509.8,97.6z"/>
	<path class="st1" d="M48.4,142.1l-33.8,59.6l435.9-65c0,0-15.1-11.5,6.8-29.7L48.4,142.1L48.4,142.1z"/>
	<path class="st2" d="M490.8,98.6l-348.1,28.6c37.4-30.6,88.8-49.1,88.8-49.1l-4.6-2.5l8.5-4l1.2-3.7c67.2-45,114.6-47.2,114.6-47.2
		l-2.1-6.3c23-2.4,33.5-2.4,33.5-2.4l0.8-2.4c17.4-0.2,29.6,8.3,29.6,8.3l2.6-3.9c35.8,24.8,41,42.9,41,42.9
		c26-2.1,39.9,5.5,39.9,5.5c18.7,8,13.1,35.3,13.1,35.3c0,5.3-5.2,32.9-5.2,32.9c-4.3,19-12.1,26.3-12.1,26.3
		c-10,9.9-12.4,19.9-12.4,19.9c-5.2,14.2-7,16-7,16c-4,6.5-20.2,6.2-20.2,6.2c-3.8,9.1-18.5,25.1-18.5,25.1l-1.3-4.6l-19.4,17.3
		l3-24.1c1.1-8.2-7.7-10.1-7.7-10.1l-42.5,1.8c-6.2,29-28.6,33.4-28.6,33.4c-32.2,6.5-53.6,5.2-53.6,5.2l-1.4-1l-24.6,10.7l8.7-24
		l13.1-5.2c1-0.3,0.6-1.6,0.6-1.6l-1.3-3.9c13.5-1.2,25.8-10.7,25.8-10.7c1.6-1.3-0.8-1.8-0.8-1.8l-62.6,1.4l-4.9,4.7
		c-54.1-9-91.1,6.8-91.1,6.8c-42,15.6-67.5,55.6-67.5,55.6l-26.1,20l-13.2,35.5l-14.6-20.9l6-13.6l-0.9-6.4
		c12.7-8.1,18.2-17.7,18.2-17.7c4.4-5.9,4.1-10.7,4.1-10.7c0.3-3.9,3.9-6,3.9-6c48.6-29.4,55.9-60.5,55.9-60.5l342.7-51.8
		c-5.6,26,15.5,16.5,15.5,16.5c-13.6-9.6-1.3-16.5-1.3-16.5C456.8,121.9,490.8,98.6,490.8,98.6L490.8,98.6z M370.7,209.8
		c-3.4,28.9-26.3,33.4-26.3,33.4c-8.9,2.7-38.4,5-38.4,5l-7.2,25.6l22-9.3l1.4,1.2c29-1.8,48.4-10.1,48.4-10.1
		c13.1-5,16-17.9,16-17.9c1.8-8.7-1.2-28-1.2-28L370.7,209.8L370.7,209.8z M189.6,217.3c0,0-52.2-0.6-87.9,41.5
		c0,0-0.1,15.2-18.6,25.6l0.6,4.8l-8.8,12.1l15.6,20.9l17.6-39L189.6,217.3L189.6,217.3z"/>
</g>
</svg>
