<?xml version="1.0" encoding="utf-8"?>
<!-- Generator: Adobe Illustrator 24.3.0, SVG Export Plug-In . SVG Version: 6.00 Build 0)  -->
<svg version="1.1" id="Layer_1" xmlns="http://www.w3.org/2000/svg" xmlns:xlink="http://www.w3.org/1999/xlink" x="0px" y="0px"
	 viewBox="0 0 682 399.5" style="enable-background:new 0 0 682 399.5;" xml:space="preserve">
<style type="text/css">
	.st0{fill-rule:evenodd;clip-rule:evenodd;fill:#FFFFFF;}
	.st1{fill:#0A2343;}
	.st2{fill:#F15622;}
</style>
<g>
	<path class="st0" d="M666.4,275.6c-18.3-14.3-7.2-32.6-8-37.6c-37.1-20.8-71.3-51-108.5-68.4c2.6-2.5,5.5-4.7,6.9-6.5
		c-16.6-8.7-31.2-14.4-59.7-24.4c-8.9-22.6-50.4-37.5-74.3-35.8c6,2.9,16.2,7.6,19.5,17.2c-25.9-7.6-57.3-13.6-89.3-14.4
		c-81.9-2.2-181.3,21.8-285.5,92.9c31.2,16.4,60.6,23,90.5,30.4c61.5-40.8,116.5-53.8,186.3-56.5c-3.6-7.5-11.2-15.6-14.7-23.2
		c30,3.3,67,20.5,94.8,34.3c0.3,0.4,1.6,1.1,2,1.4c1.9,33.6,14.9,57.1,50.9,63.6c13.6-1.5,30.1-3.8,42.6-13.6
		c8.1,3.2,36.7,18.6,41.4,26c-13.2-4.9-22.7-12.3-38.5-14c-10.2,6.5-30.4,12.7-49.3,12.7c-46-6.1-56-30.1-70.6-66.9
		c-12.6-3.4-30.6-5.1-49.6-4.6c-45.3,1.2-97.6,19.1-132.5,55.7c22.9,9.6,44.4,17.4,63.4,31.6c6-7.1,39.6-38.8,90.4-37.9
		c-37.3,12.5-51.6,23.9-71,56.2c8.5,3.3,20.9,31.9,30.7,55.1c15.8-65.6,57.2-83.3,90.1-96.6c14.8,8.5,30.2,20.3,49.8,19.1
		c18-1.1,32.9-5.1,45.6-11.4c23.7,11.7,49.8,22.3,59.2,49.6c12.5,0.7,23.9,2.9,31.2,4c0,0,9.1-9.1,8.8-10.5
		c-25.8-2.4-40.8-12.8-40.1-26.8c0.5-9.8,9.8-15.9,21.9-14.7c14.2,1.5,36,12.7,57.2,33.7c1,0.1,2.2,0.3,3.4,0.3
		C663.7,289.7,667.4,282.9,666.4,275.6z M450.9,123.3c4.4-0.3,7-0.7,14.1,0.3c-1.4-3.5-4.5-5.9-8.3-9.5c14.3,4.5,20.1,9.7,29.7,22.2
		C473.4,129.5,466.9,128.2,450.9,123.3z M538.1,182.3c-1.2,1.2-4.2,3.7-8.1,5c-3-4.5-22-20.1-36.4-32.9
		c10.1-0.2,93.9,46.9,113.6,67.2C584,210.4,550.6,188.7,538.1,182.3z M628.5,237.7c5.4-1.9,11.4-1,17.4,0c-2.4,3.1-5.9,4.2-6.3,7
		c-0.5,3.5,6.9,14.2,10.3,17.6C642.1,256.8,629.4,250.7,628.5,237.7z"/>
	<path class="st1" d="M486.4,136.3c-13-6.8-19.5-8-35.4-13.1c4.3-0.2,7-0.7,14.1,0.3c-1.4-3.5-4.5-5.9-8.3-9.5
		C471,118.5,476.8,123.8,486.4,136.3z M645.8,237.8c-5.9-1-11.9-2-17.3,0c1,12.9,13.6,19.1,21.4,24.6c-3.4-3.4-10.8-14.1-10.4-17.6
		C639.9,242,643.4,240.9,645.8,237.8z M681.9,273.3l-17.3,45.1c-19.7-26.9-40.2-45.4-62.3-45.5c-23.1-0.1-12.9,24.9,39.7,25.9
		l-26.2,25l-50.2-3.3c1.9-4.4,0.8-8.9-0.4-13.5c-3.5-10.2-18.1-21.2-43.6-33c-34.3,17.8-66.7,14.3-97.7-7
		c-67.4,31.6-74.7,52.5-79.7,132.2l-7,0.3c-23-73.4-37.8-127-141.9-148.3C92.2,230.1,12.5,212.3,0,106.8
		c12.6,16.1,26,26.3,40.6,26.2c20.2-0.1,20.5-12.3,42.7-13.4C55.1,93.4,60.4,27.6,90.9,0c-3,69,17.9,88.5,57.5,85
		c-23.3-13.4-30.5-41.4-27-76c15.1,19.7,32.4,30.8,45.2,30.4c22.7-0.7,55.5-37.6,109.9-36.9c57.7,0.7,103.3,32.8,138.9,88.8
		c35.8-0.9,68.1,8,92.5,38.1l75.7,33.6l-9.2,5.8c27.2,16.3,54.1,35,81.2,54.6l20.1,9.2C665.2,253.6,668.9,266,681.9,273.3z
		 M168.3,78.6c19.1,0.5,64.3-20.7,98.5-21.6c13.3-0.3,36.2,9.9,50.8,36.4c31.9-2.9,62.7,3.7,86.6,4.4
		C379.1,50.6,323,14.3,278.6,15.1c-68.8,1.3-81.5,36.9-115.7,33.7c-13.8-1.3-26.1-8.1-36.6-16.8C134.9,56,141,77.8,168.3,78.6z
		 M144.6,136.6c46.8-17.8,91.9-35.3,142.2-40c-2.9-12.5-25.5-20.2-42.9-20.5c-28.5-0.5-77.9,22-110.6,19.8
		C100.6,93.7,85,82.6,79.1,31.2c-4.5,14.6-6.5,30-5,42.2C78.6,111.5,110.9,135.5,144.6,136.6z M63.3,170.5
		c30.3-0.2,47.6-11.6,61.8-21.6c-10.2-4.9-27.5-19.3-42.3-17.8c-26.1,2.6-28.2,21-66.5,5.6C26,162,39.8,170.6,63.3,170.5z
		 M666.2,275.3c-18.3-14.3-7.2-32.6-8-37.6c-37.1-20.7-71.3-51-108.5-68.4c2.6-2.4,5.5-4.7,6.9-6.5c-16.6-8.7-31.1-14.4-59.7-24.4
		c-8.8-22.5-50.3-37.3-74.2-35.6c6.1,2.9,16.2,7.7,19.5,17.2c-25.9-7.6-57.2-13.5-89.3-14.4c-81.9-2.2-181.2,21.8-285.5,92.9
		c31.2,16.4,60.6,23,90.5,30.4c61.5-40.8,116.5-53.8,186.3-56.5c-3.7-7.6-11.2-15.7-14.7-23.2c30,3.2,67,20.5,94.8,34.3
		c0.3,0.4,1.6,1.1,2,1.4c1.9,33.6,14.9,57,50.9,63.6c13.5-1.5,30-3.8,42.6-13.6c8.1,3.2,36.8,18.6,41.4,26
		c-13.3-4.9-22.8-12.2-38.5-14c-10.2,6.5-30.4,12.7-49.3,12.7c-46.1-6.1-56-30.1-70.6-66.9c-12.6-3.3-30.6-5.1-49.6-4.6
		c-45.3,1.2-97.6,19.1-132.5,55.7c23,9.6,44.4,17.4,63.4,31.6c6-7.1,39.6-38.8,90.4-37.9c-37.3,12.5-51.5,23.9-71,56.2
		c8.5,3.2,20.9,31.9,30.7,55.1c15.8-65.6,57.2-83.3,90.1-96.6c14.8,8.5,30.2,20.2,49.8,19.1c18-1,32.9-5,45.6-11.4
		c23.7,11.7,49.8,22.3,59.2,49.6c12.5,0.8,23.8,3,31.2,4c0,0,9.1-9.1,8.8-10.5c-25.8-2.4-40.8-12.8-40.1-26.8
		c0.5-9.8,9.8-15.9,21.9-14.7c14.3,1.4,36,12.7,57.2,33.7c1.1,0.2,2.2,0.3,3.4,0.3C663.6,289.6,667.3,282.8,666.2,275.3z
		 M529.3,170.5c-2.6,1.2-2.6,7.2-0.8,7.9c1.6,0.6,5-2.2,5.3-4.6c0-0.3,0-0.6-0.1-0.8c1.2,0.7,2.4,1.3,3.6,2c-0.6,4.7-6,7.9-10.4,6.3
		c-4.3-2-5.6-9.4-1.6-13c-15.6-8.3-28.1-14-31.6-13.9c14.4,12.8,33.4,28.4,36.4,32.9c3.9-1.3,6.9-3.8,8.1-5
		c12.4,6.4,45.8,28.1,69.1,39.3c-12.4-12.8-50.2-36.2-79.1-51.7C528.6,170.1,529,170.3,529.3,170.5z M525.3,168.3
		C525.3,168.3,525.3,168.3,525.3,168.3c1,0.5,1.9,1.1,2.9,1.6C527.3,169.3,526.3,168.8,525.3,168.3z"/>
	<path class="st2" d="M125.1,148.8c-14.2,10-31.5,21.4-61.8,21.6c-23.5,0.2-37.3-8.5-47-33.8c38.3,15.4,40.4-3,66.5-5.6
		C97.6,129.6,114.9,144,125.1,148.8z M243.9,76.1c-28.5-0.5-77.9,22-110.6,19.8C100.6,93.7,85,82.6,79.1,31.2
		c-4.5,14.7-6.5,30.1-5,42.2c4.5,38.1,36.8,62.1,70.6,63.2c46.8-17.9,91.9-35.3,142.2-40C283.9,84.1,261.3,76.4,243.9,76.1z
		 M278.6,15.1C209.9,16.4,197.1,52,163,48.8c-13.9-1.3-26.1-8.1-36.6-16.8c8.5,24,14.7,45.8,42,46.6c19,0.5,64.3-20.7,98.5-21.6
		c13.3-0.3,36.1,9.8,50.8,36.4c32-2.9,62.7,3.7,86.6,4.4C379.2,50.7,323.1,14.3,278.6,15.1z M533.8,172.9c0,0.3,0.1,0.6,0,0.9
		c-0.3,2.4-3.7,5.2-5.3,4.6c-1.8-0.7-1.8-6.7,0.8-7.9c-1.3-0.8-2.7-1.5-4-2.2c-4,3.6-2.7,11,1.6,13c4.5,1.6,9.8-1.6,10.5-6.4
		C536.2,174.2,535,173.6,533.8,172.9z"/>
</g>
</svg>
