<?xml version="1.0" encoding="utf-8"?>
<!-- Generator: Adobe Illustrator 25.0.0, SVG Export Plug-In . SVG Version: 6.00 Build 0)  -->
<svg version="1.1" id="Layer_1" xmlns="http://www.w3.org/2000/svg" xmlns:xlink="http://www.w3.org/1999/xlink" x="0px" y="0px"
	 viewBox="0 0 922.4 844.2" style="enable-background:new 0 0 922.4 844.2;" xml:space="preserve">
<style type="text/css">
	.st0{fill:#FFFFFF;}
	.st1{fill:#B1BABF;}
	.st2{fill:#D50A0A;}
	.st3{fill:#FF7900;}
</style>
<g>
	<path class="st0" d="M919.2,118.1c-7.8-53.1-28.1-81.8-34-90.7C880.8,20.9,867.1,0,867.1,0s1.2,24.5,1.3,32.7
		c0,0.4,1.9,37.8-5,71.4c-4.9,23.7-8.2,37.1-9.7,42.9c-13.8,7.6-36.1,17.1-67.9,22.4c-12.7,2.1-25.7,3.2-38.6,3.2
		c-51,0-100.8-16.8-147-34.9c-34.9-13.7-66.1-24-95.5-31.4c-38.7-9.8-74.9-14.8-107.6-14.8c-11.7,0-23.2,0.6-34.2,1.9
		c-76.9,8.8-133.9,39.1-168.3,63c-4,2.7-7.5,5.3-10.7,7.5c-20.6,14.4-26.8,18.8-47.5,24.7l-25.5,7.3l24.7,9.7
		c1.6,0.6,12.6,4.9,22.9,7.1c-1.3,7.4-2.3,16.2-0.9,21.5c-5.3,0.2-11.1,0.3-17.3,0.3c-3.7,0-6.1,0-6.1,0l-27.1-0.5l21.4,16.6
		c2.6,2,8.1,6.5,13,11.2c-9,2.6-22.2,5.4-36.9,5.4c-4.9,0-9.8-0.3-14.4-0.9l-9.3-1.3l-0.8,9.4c-0.2,1.8-0.1,6.9,4.2,14.6
		c3.5,6.2,8.9,12.7,16.2,19.2c-3.6,2.2-6.5,4.5-8.9,7.1L72.3,336l27.7-6c0,0,3.6-0.7,8.8-0.7c9.6,0,23.1,2.3,32.8,12.9
		c3.4,4.4,4.5,7.8,4.1,12.9c-0.7,8.8-2.8,11.7-13.7,19c-8.1,3.3-15.6,7.1-22.3,11.3c-33.3,20.4-60.2,51.8-80.1,93.3
		c-9,18.7-15.1,38.9-18.6,52.5c-4.4,17.2-6.1,32.6-7.1,41.8v0.4c-1,9.4-2.4,37.8-2.4,39L0,643.1l17.8-24.9
		c0.2-0.2,15.4-21.6,22.6-31.9c0.5-0.7,12.9-18.3,35.7-37.9c25-21.5,51.1-35.7,77.7-42.4c19.2-4.9,39.5-7.4,60.1-7.4h0.1
		c58.1,0,101.2,18.9,113,24.7c8,3.9,17.1,8.9,27.7,14.7c37.6,20.7,89,49.1,152.8,59.7c19.2,3.2,39.9,4.8,61.6,4.8
		c14.2,0,28.7-0.7,43.5-2.1c-6,8.8-11.8,17.2-17.4,25.3c-10.7-6.4-21.4-7.5-22.8-7.6c-1.5-0.1-3-0.2-4.5-0.2
		c-18.2,0-28.1,10.3-29.9,12.4c-4.9,5.4-8.2,12-9.5,19.2c-1.7,7.7,0.2,15.7,1.5,19.8c2.5,8,7.4,13.6,12,17.3
		c-19,28.6-26.9,58.1-29.1,67.7l-9.7,8.6l-4.1,3.6l1.3,5.3l3.7,15.1c-6.6,25.2,6.4,44.4,22.7,52.4c6.6,3.3,13.8,4.9,21.3,4.9
		c6.3,0,10.8-1.2,11.7-1.5c10.4-2.9,19.4-9.5,25.4-18.5c0.4-0.6,0.8-1.2,1.2-1.9c1.2-0.7,2.3-1.5,3.4-2.3c4.3,0.3,9.5,0.4,10.3,0.5
		h0.2h0.2c23.5-0.2,44.2-7.3,59.7-20.5l0.1-0.1l0.1-0.1c10.2-9.1,27.3-28.9,27.9-59v-0.1v-0.1V740c0.1-15-3.9-28-12.1-38.9l2.4-3.5
		c92.1-135.2,153-224.6,192.2-315.5c23.6-54.8,39.4-107.1,46.8-155.2C923.5,188,924,151.3,919.2,118.1z M862.4,378.8
		c-39.7,92.1-101.8,182.5-197.5,323.1c15.2,16,14.3,34.4,14.3,38.9c-0.4,24.3-13.3,42-24.9,52.4c-14.8,12.5-34.2,18.2-54,18.3
		c0,0-9.7-0.3-13.4-0.7c-2,1.8-4.5,3.5-7.2,5c-0.6,1.2-1.3,2.3-2,3.4c-5,7.5-12.3,12.6-20.4,14.8c0,0-12.9,3.9-26.6-2.9
		c-13.5-6.6-24-22.7-17.3-44.2l-4.3-17.5l12-10.6c0,0,7.6-40.2,33.8-75.1c-3.6-1.6-12.9-6.5-16.3-17.4c-1-3.3-2.6-9.7-1.3-15.3
		c1.1-6,3.8-11.1,7.4-15c0,0,9-10.9,26.9-9.2c0,0,14.8,1.1,25.7,11.4c10.8-15.2,22-31.7,33.8-49.2c-20.8,2.8-41.7,4.3-61.9,4.3
		c-21,0-41.3-1.5-60.1-4.6c-79.9-13.3-140.9-55.6-178-73.6c-25.6-12.5-68.7-25.6-117.1-25.6c-20.1,0-41.2,2.3-62.3,7.6
		C85.5,513.9,40.1,570.9,33,581.2C25.8,591.5,10.4,613,10.4,613s1.4-29.3,2.4-38.5c1-9.3,2.6-24.2,6.9-41
		c4.3-16.7,10.4-35.1,18-50.9c17.5-36.5,42.5-68.5,76.7-89.5c7.3-4.5,14.8-8.1,21.9-10.9c12.4-8.2,17.4-13.2,18.5-26.3
		c0.6-7.3-1.1-13-6.2-19.4c-19.4-21.7-50.3-15.3-50.3-15.3c4.9-5.3,12.9-8.9,19.1-11.2c-29.5-21.8-28.3-35.1-28.3-35.1
		c35.9,4.9,68.2-9.2,68.2-9.2c-6-9.2-23.2-22.5-23.2-22.5s36.5,0.6,50.5-3c14-3.6,34.1-9.7,29.2-18.8c-4.9-9.1-47.4,10.3-47.4,10.3
		c-1.8-6.7,3-26.8,3-26.8c-10.3,0-30.4-7.9-30.4-7.9c25.5-7.3,31-12.8,60.8-33.4c29.8-20.7,85.8-52.4,164.2-61.4
		c80.8-9.3,167.9,18.2,232.9,43.8c65.1,25.5,124.7,43.2,190.4,32.2c35.2-5.9,59.2-16.6,74.1-25.3c0,0,3.9-13,10.9-47
		c7.3-35.2,5.2-73.7,5.2-73.7C877.8,33,967.5,134.8,862.4,378.8z M451.1,290.5c0-0.1,0-0.2-0.1-0.4c-0.2-1.6-0.4-2.5-0.4-5.4
		c0.1-5.2,0.6-8.8,0.6-8.8c-0.6,8.5,4,20,9.2,22.5c4.1,2,18.7,7,24,13.1c5.5,6.3,5.4,11.9,4.3,16.8c-0.3,1.5-1.3,4.3-1.9,5.9
		c0.2,0.1,0.3,0.1,0.5,0.2c0.5,0.2,1.5,1.1,1.5,1.5c0,0-0.6,0.4-1,1.1c-0.4,0.7-0.8,1.5-1.4,2.9l-2,5.4c-0.6,1.9,1.2,2.4,1.2,2.4
		l4.8,1c0,0,2.1,0.4,2.9-1.5c0.7-2,1.3-3.7,2-5.7l0.9-2.6c0.2-0.7,1-2.1,1.8-2.1s1.9,0.4,1.7,1.9c-0.2,1.6-0.4,2.5-0.5,2.8l-2.1,8
		c-0.7,2,1.5,2.6,1.5,2.6l4.2,1c0,0,2.5,0.7,3.1,0.4c0.6-0.2,1-1.2,1.1-1.5c0.1-0.3,2.3-8.1,2.6-8.9c0.1-0.6,0.1-1.9-0.2-2.6
		c0.1,0,2.1,0.4,3.3,0.8c0.9,0.3,2.2,0.8,2.8,1.3c-1,0.5-1.2,1.2-1.4,1.7l-3.2,9.2c-0.2,0.8-0.2,2,1.4,2.6l4.8,1.7
		c0,0,0.4,0.2,1,0.2c0.7,0,1.5-0.2,1.8-1.4c0.3-1,1.1-3.3,1.8-5.3s0.9-3.1,1.3-4.1c0.1-0.4,0.5-1.1,0.8-1.4c0.8-0.1,1.3,0.1,1.8,0.3
		c0.6,0.3,1.3,1.1,1.6,1.3c0,0-2.3,7.5-3.1,10.4c-0.4,1.8,1.4,2.6,1.4,2.6l4.4,2.1c0,0,1.8,0.6,2.4-1.2l2.2-7.4c0,0,0.3-1.1,0.4-1.6
		c0.1-0.3,0.1-0.6,0-0.8c0,0,0.9,0.4,2,0.9c0.5-4,2.2-6.8,2.2-6.8s3.2-2.4,9.1-2.2v0c-5.9-0.2-9.1,2.2-9.1,2.2
		c0.3-0.6,0.8-1.5,1.4-2.5l0.3-0.4l0,0l-0.3,0.4c2.6-4.7,5.9-7.4,12.4-8.7c7.9-1.7,21.5,2.9,27.1,4c5,0.9,14.4-4.4,19.7-10.6
		c0,0,0-0.1,0-0.1c1.2-1.4,1.4-2.4,1.4-2.4s-2.5-7.3-1.6-14c0.9-6.8,6.1-18,6.1-18c-9.3-8.8-10.4-27.1-10.4-27.1
		c0.6,3.7,2,7.3,4.1,10.9c3,5.4,6.7,10.3,9.7,13.5c0,0,0,0,0,0c-3-3.2-6.6-8-9.6-13.4c1.7-2.5,4.8-5.8,8.3-10.8
		c2.5-3.5,7.1-12.2,7.1-24.7c0-27.9-25.8-41.5-27.4-42.4c-2.9-1.7-3.7-2-9.5-5c-1.7-0.8-3.7-1.8-6.4-3.1c-2.6-1.3-3.4-1.4-8.4-3.1
		c-2-0.7-9.8-3.4-19.6-5c-0.4-0.1-0.8-0.1-1.2-0.2c-2.4-0.3-4.1-0.2-11.1-0.7c-4-0.3-7,0.1-9.2,0.3c-2.7,0.2-3.5,0-10.1,1.9
		c-21.7,6.3-29.8,25.8-31.2,35.4l-0.3,3.7c0,0.1,0,0.2,0,0.3c0,6,0.2,10.4,0.1,13.3c0,0.3-0.1,0.8-0.1,1c4.1-1.7,8.1-4.1,11-7
		c-0.7,0.8-12.3,14-24.6,15.4c0,0-2.7,11.9-6,17.9s-9.7,10.2-9.7,10.2s0,0.6-0.1,1.3c0,0.3-0.5,3.8-0.5,8.7c0,2.9,0.2,3.8,0.4,5.4
		C451,290.2,451,290.3,451.1,290.5z M533.7,324.8l-1,2.9c-1.3,3.9-6.1,5.9-10.7,4.3c0,0,3-0.8,4-3.7c0,0,0,0,0-0.1
		c1.9-0.3,3.5-1.4,4.1-3.2l1.1-3c0.5-1.4,0.3-2.4-0.1-3.5c0.4,1.2,0.5,2.2,0.1,3.5l-1.1,3c-0.6,1.8-2.2,2.9-4.1,3.2
		c-0.9,0.1-1.9,0-2.8-0.3c-2.9-1-4.4-3.9-3.5-6.5c0.1-0.4-0.1-0.9-0.6-1.1s-0.9,0.1-1.1,0.5c-0.9,2.6-3.6,4-6.6,3.2
		c-1.1-0.3-1.9-0.6-2.5-1.3l0,0c-0.1,0.1-0.1,0.1-0.1,0.2c-1,2.9,1,5.4,1,5.4c-4.5-1.5-7.1-6-5.8-9.9l1-3c0.6-2.2,2.4-3.6,3.6-4.3
		c1.3-0.8,2.3-1.4,3.6-3l0.1-0.1c1.8-1.9,3.1-3.4,3.9-5.8c1-2.9,3.7-4.7,6.9-4.9c1.1-0.1,2.2-0.1,3.3,0.2c-2.7-0.7-5.7,0.5-6.5,3
		c0,0,0,0,0,0c0,0,0,0,0,0c0.8-2.5,3.8-3.7,6.5-3c0.3,0.1,0.8,0.2,1,0.3c0,0,0,0,0,0c0,0,0,0,0,0c4.2,1.7,6.6,6,5.3,9.8
		c-0.8,2.4-0.6,4.3-0.4,6.9v0.1c0.1,2.1,0.6,3.2,1.1,4.6C533.9,320.5,534.5,322.6,533.7,324.8z M493.9,242
		c9.3-0.4,23,12.4,31.3,19.3c7.5,6.6,10.8,7.2,11.4,7.5c0.7,0.3,3.7,1.8,13.7,1c11.6-0.5,32-2.6,38,4.8c0,0.2-14.5-1.5-24.3,0.1
		c-9.7,2-23.6,3.3-29.7,1.2c-6.1-2-16.4-11.4-22.9-18.9c-6.8-7.1-19.3-14.6-19.3-14.8C492.7,242.1,493.3,242,493.9,242z
		 M466.5,273.1c0.6-7.2,8.3-21.1,8.3-21.1l0.6,0.6l-0.6-0.6c0.4,0.2,7.2,3.1,13.1,8.8c0.6,0.6,1.2,1.1,1.7,1.7
		c6.5,7,12.6,13.5,18.6,15.5c2,0.6,4,0.8,5.9,0.7h0.1c0.8,0,0.9,0,1.5-0.1c3.1-0.4,5.5-1.2,5.5-1.2c2.1,4.4,18,9.7,22.4,7.5l0.1,0.1
		c0.3,0.4,1.6,2.2,3.6,4.1c0.3,0.3,0.9,0.8,1.2,1.1c1.4,1.2,3.1,2.3,5.1,3c6,2,14.8,0.6,24.2-1.1c0.8-0.1,1.6-0.2,2.4-0.3
		c8.4-1,15.8,0.9,15.8,0.9v0.1h-0.2c-0.2,0-0.5,0-0.8,0.1c-2.4,0.8-3.5,6.4-3.5,6.4c0,0,0,0,0,0c0,0,0,0,0,0c0,0,1.2-5.9,3.7-6.4
		c0.3-0.1,0.5-0.1,0.8-0.1c-0.2,1.3-2.5,15.9-6.1,21.7c-3.8,6.1-7.5,11.8-17,11.3c0,0,5.5-1.6,3.7-5.7c-0.2-0.4-0.2-0.7-0.3-1
		c0,0-0.1,0-0.1,0.1c0,0-1.5,0.4-2.2,0.5c-5.8,0.7-17.9-1.2-23.7-5.1l-0.1-0.1c-5.8-3.7-7-17-7-20.4c0,3.4,1.2,16.9,7,20.4
		c0,0-1.4,1.6,0.5,7c-0.5-0.2-7.8-2.9-10.4-8.8c-2.7-6.1-0.1-22.4-9.8-25.7c-9.8-3.2-17.6,11.4-23.4,14.6s-13.5,0.7-13.5,0.7
		c4.7-3.2,4.6-5.4,4.6-5.4c-0.1,0-0.2,0-0.3,0c-7-0.3-17.8-6.2-22-10.2c-0.6-0.5-1.5-1.7-1.5-1.7v0l-0.6,0.5
		c-3.8,2.2-0.8,6.5-0.6,6.9C465.3,287.1,465.8,280.3,466.5,273.1z M586.3,704.4c-0.5,0.6-13.1,17.2-24.3,42.1c0,0,0,0,0,0.1
		c0,0,0,0,0,0c-1.7-7.1-0.9-15.6-0.6-17.3c-2.1,5.7-4.3,15.3-3.5,21.9c0.2,1.5,0.6,3.1,0.9,4.4c-5.2,24-15.4,24.4-18,24
		c-0.4-0.1-0.7-0.1-0.7-0.1v0c0,0,0,0.1,0.1,0.4c-0.1-0.4-0.2-0.6-0.2-0.6c10-8.9,9.7-24.9,19.9-47.1c0.5-1,1.5-3.4,2-4.3
		c1.3-2.5,7.3-14,10.5-19.4c3.7-6.2,7.6-12.4,11.5-18.5c0.2-0.3,0.4-0.6,0.6-0.8C584.3,690.6,584,697.5,586.3,704.4z M370.4,415.4
		c4.6,0.4,10,1,14.6,1.8c-2.8,0.9-6.4,2.7-9,6.7c-2.3-0.3-7.7-0.6-13.8-0.6c-6.1-0.1-12.9,0.2-17.5,0.7c1-1.9,2.6-4,5.4-5.9
		c2.3-1.5,5.5-2.6,8.5-3.2c-3.5,0-8.7,1.3-12.2,3.4c-2,1.1-4.1,3-5.1,5.1c-0.1,0.1-0.5,0.9-0.6,1c-0.4,0.7-0.7,1.5-0.7,2.1
		c0-0.6,0.3-1.4,0.7-2.2c-10.4,0-12.9-7.4-13.3-8.5c0.9,0.4,2.1,0.7,2.8,0.8c0.8,0.1,2.4,0.2,3.2,0.2c4.8-0.1,7-0.6,10.7-1.1
		c4.2-0.6,8.4-0.9,12.7-0.9h2.2c1.5,0,2.9,0,4.4,0.1C365.8,414.9,368.1,415.2,370.4,415.4z M508.1,447.1c1.2,0.6,2.3,1.3,3.4,1.9
		c-0.1,0.4-0.1,0.7-0.1,1c0,1.7,0,3.5-0.1,5.2c0,0.5-0.1,1-0.1,1.5c-1.3-0.7-2.7-1.3-4-2c-0.5,3-1.2,6-2.2,9c-2-1.2-4-2.3-6.1-3.3
		c0.9-2.8,1.6-5.6,2.1-8.5c-2.2-1-4.4-2-6.7-2.9c-0.6,2.7-1.3,5.4-2.2,8.1c-2.1-1-4.2-1.9-6.4-2.8c0.8-2.6,1.6-5.3,2.3-7.9
		c-2.2-0.9-4.5-1.7-6.8-2.5c-0.8,2.6-1.6,5.1-2.5,7.7c-2.2-0.8-4.4-1.5-6.6-2.2c0.9-2.6,1.8-5.1,2.7-7.6c-2.3-0.7-4.7-1.5-7-2.1
		c-1,2.5-2,5-2.9,7.6c-2.2-0.6-4.5-1.1-6.7-1.6c0.9-2.7,2-5.2,3.1-7.8c-2.4-0.6-4.8-1.2-7.2-1.7c-1.3,2.6-2.4,5.3-3.4,8
		c-2.3-0.4-4.6-0.7-6.9-1c1-2.9,2.2-5.7,3.6-8.4c-1.5-0.3-3-0.5-4.4-0.8c0.3-0.5,0.6-0.9,1-1.4c1-1.5,2.1-2.9,3.1-4.2
		c0.1-0.2,0.2-0.3,0.4-0.5c1.3,0.2,2.5,0.3,3.8,0.5c1.2-1.7,2.4-3.3,3.6-4.8c2.1,0.3,4.3,0.6,6.3,0.9c-1.2,1.6-2.3,3.2-3.3,4.9
		c2.3,0.4,4.6,0.9,6.9,1.4c1-1.7,1.9-3.5,3-5.1c2,0.4,3.9,0.9,5.8,1.4c-0.9,1.7-1.7,3.5-2.6,5.3c2.2,0.6,4.4,1.2,6.5,1.9
		c0.7-1.8,1.4-3.7,2.1-5.5c1.8,0.6,3.7,1.2,5.5,1.8c-0.5,1.8-1.1,3.7-1.6,5.6c2.2,0.8,4.3,1.6,6.4,2.4c0.4-1.9,0.8-3.8,1.1-5.7
		c1.8,0.8,3.6,1.5,5.5,2.4c-0.2,1.9-0.4,3.9-0.7,5.8c2.2,1,4.3,2,6.4,3c0.2-1.9,0.3-3.9,0.3-5.9c1.9,1,3.7,2,5.6,3
		C508.2,443.2,508.2,445.1,508.1,447.1z M675.4,569.9l26-7.2c-2.1,3.2-7.9,11.6-15.4,22.5c-7.6,10.9-16.9,24.2-26,37.4
		c-18.4,26.3-36.2,51.8-38.5,54.9c-0.4-0.3-11.9-10.1-12.3-10.5c8.5-11.9,24.8-35.8,39.1-56.9S674.9,570.6,675.4,569.9z
		 M735.5,352.9C735.5,352.9,735.6,352.9,735.5,352.9c-0.6,1.7-15,32.2-71.8,57.6l-0.1,0.1c-2.5,1-4.9,2-7.6,3.1
		c-11.7,4.4-36.2,12.8-68.6,18.6c-13.1,2.4-26.4,4-39.7,5.1c-1.1,0.1-8.8,0.6-8.8,0.6c-2.4-3.1-5.2-6.3-8.1-9.2
		c17.6-0.8,35.8-2.8,53.5-6c73.2-13.1,118-43.4,139.5-60.4c2-1.6,3.8-3,5.4-4.3C732.5,355.4,734.1,354.4,735.5,352.9z M444.8,400.2
		c-4.1,0.7-8.1,1.5-11.9,2.6c-9.8-8.6-32.8-31.4-32.9-31.4c-18.5-18.7-32.3-36.6-42.8-53.2c-2.2-3.5-3.8-6.5-5.2-8.7l-1.2-2.2
		c-0.3-0.6-0.7-1.2-1-1.8c-6-11-10.5-21.3-13.9-30.7c-0.5-1.4-0.9-2.7-1.4-4c-4.3-13.2-6.4-24.5-7.3-33.4c-0.1-0.9-0.2-1.9-0.3-2.8
		c-0.5-6.6-0.4-11.7-0.3-14.8c0.1-2,0.3-3.2,0.3-3.5l-0.3,0.9l0.3-1c4,16.8,15.9,79.5,78.1,147C417.7,376.5,431.2,388.9,444.8,400.2
		z M613,511c0.6,0.4,1.5,1.2,2.5,1.4c0,0,0,0,0,0c-1.6,1.3-4.2,2-6.1,2.1c-0.8,0-2,0-2.9-0.2c-1.3-0.2-2.6-0.7-3.4-1.1
		c-0.6-0.3-1.3-0.7-2-1.1l-1.2-0.8c0.2-0.3,0.3-1.1,0.3-1.2c0.4-2.3-0.2-5-1.2-7.1c-1.4-3.2-5-7.2-7.6-9.4c1.9,2.2,3.7,4.6,4.7,7.1
		c1.1,3.2,1.2,5.7,0.8,7.9c-6.7-6.5-19.8-16.1-25-18.9c0.2-4.9-2-7.7-3.8-10.1c4.2,2,8.9,4.6,12.9,7c2,1.2,4,2.3,6,3.7
		c1.2,0.8,2.4,1.6,3.6,2.5l0.5,0.3c0,0,0,0,0,0l0.3,0.2c3.5,2.5,7.8,6,10.9,8.9c2.8,2.5,4.3,4.2,8.1,7.1
		C610.9,509.8,612.3,510.6,613,511z M550.7,378.9c-8.6,3.8-21.6,12-26.7,15.4c-1.9,1.3-4.6,2.4-7.9,3c-2.1-3.7-9.3-8.3-18.6-11.4
		c-9.7-3.3-18.6-3.9-22.2-1.9c-2.7-2.7-4.1-5.4-5-7.8c-1.8-4.5-7.8-19.5-11.9-30c-3.6-9.3-5.9-14.8-6.3-15.8
		c2.4-2.1,9.5-1.2,9.5-1.2c-0.1-0.4-0.1-1.2-0.1-1.9l0,0c0,0.7,0,1.4,0.1,1.8c0,0.1,2.9,3.1,3.5,5.4c0.7,2.3,0,15,5,23.7v-0.3
		c0,0,0.2-0.9,1.3-2.5c1.1-1.6,3.1-3.8,4.4-3c1.3,0.9,1.1,3.4,1.1,6.1c0,2.7-0.9,5.5-1.6,6.3c0,0,1,2.1,3.9,3.5c0,0-0.1-1,0.1-2.5
		c0.4-2.6,1.7-4.7,2.6-7c0.4-1.5,1-1.8,2.2-1c0,0,2.3,1.3,4.4,2.4c0.9,0.4,1.8,1.2,0.9,3.3l-2.6,6.3c0,0-0.5,1.9-1.4,2
		c0,0,1.8,1.2,2.5,1.5c1.2,0.5,2.6,1.2,3.3,1.3c0,0-0.7-1.2-0.5-3c0.5-2.5,1.2-6,1.8-8.9c0.2-0.7,0.8-1.8,2.2-1.4
		c1.5,0.6,3.1,1.3,4.7,1.8c1.4,0.6,1.3,1.9,1.3,2.3c-0.7,3.2-1.5,7-2.4,10.1c-0.2,0.5-0.5,1.1-0.7,1.4c0,0,1.5,1,2.4,1.3
		c1,0.2,2.8,0.6,2.8,0.6s-0.3-1.4,0.1-2.7c0,0,2-6.2,2.9-8.3c0.3-0.8,0.8-1.9,2.3-1.8c1.9,0.6,3.8,1.1,5.7,1.5
		c1.4,0.4,0.6,2.8,0.6,2.8s-2.4,5.8-3.1,7.8c-0.3,0.6-0.3,1.3-1.4,2.1c0,0,2.2,0.7,3.2,0.9c2.1,0.4,2.4,0.2,2.9,0.3
		c0,0-0.6-1.5,0.1-3.4l2-4.7c0.2-0.4,0.3-0.8,0.5-1.3c0.2-0.6,1.2-1.8,2.9-1.5l4,0.7c0,0,2.6,0.5,1.7,2.7c-1.2,2.7-2.5,5.4-3.9,8.1
		c1.5,0.1,3,0.2,4.5,0.2c0,0-0.2-0.1,0.4-1.8c0.6-1.6,2.4-5.2,2.6-5.7s0.9-2.7,1.7-2.8c0.9-0.1,4.2,2.7,3.3,7.9
		c9.3-4,16.3-14.6,18.3-16c1.7-1.3,5-1.8,5.9-2c1.8,1.2,5.5,3.8,6.3,6.9C566.3,368.7,559.3,375.1,550.7,378.9z"/>
	<path class="st1" d="M877.5,32.2c0,0,2.1,38.5-5.2,73.7c-7,34-10.9,47-10.9,47c-14.9,8.7-38.9,19.4-74.1,25.3
		c-65.7,11-125.3-6.7-190.4-32.2c-65-25.6-152.1-53.1-232.9-43.8c-78.4,9-134.4,40.7-164.2,61.4C170,184.2,164.5,189.7,139,197
		c0,0,20.1,7.9,30.4,7.9c0,0-4.8,20.1-3,26.8c0,0,42.5-19.4,47.4-10.3c4.9,9.1-15.2,15.2-29.2,18.8c-14,3.6-50.5,3-50.5,3
		s17.2,13.3,23.2,22.5c0,0-32.3,14.1-68.2,9.2c0,0-1.2,13.3,28.3,35.1c-6.2,2.3-14.2,5.9-19.1,11.2c0,0,30.9-6.4,50.3,15.3
		c5.1,6.4,6.8,12.1,6.2,19.4c-1.1,13.1-6.1,18.1-18.5,26.3c-7.1,2.8-14.6,6.4-21.9,10.9c-34.2,21-59.2,53-76.7,89.5
		c-7.6,15.8-13.7,34.2-18,50.9c-4.3,16.8-5.9,31.7-6.9,41c-1,9.2-2.4,38.5-2.4,38.5s15.4-21.5,22.6-31.8
		c7.1-10.3,52.5-67.3,118.7-84.1c21.1-5.3,42.2-7.6,62.3-7.6c48.4,0,91.5,13.1,117.1,25.6c37.1,18,98.1,60.3,178,73.6
		c18.8,3.1,39.1,4.6,60.1,4.6c20.2,0,41.1-1.5,61.9-4.3c-11.8,17.5-23,34-33.8,49.2c-10.9-10.3-25.7-11.4-25.7-11.4
		c-17.9-1.7-26.9,9.2-26.9,9.2c-3.6,3.9-6.3,9-7.4,15c-1.3,5.6,0.3,12,1.3,15.3c3.4,10.9,12.7,15.8,16.3,17.4
		c-26.2,34.9-33.8,75.1-33.8,75.1l-12,10.6l4.3,17.5c-6.7,21.5,3.8,37.6,17.3,44.2c13.7,6.8,26.6,2.9,26.6,2.9
		c8.1-2.2,15.4-7.3,20.4-14.8c0.7-1.1,1.4-2.2,2-3.4c2.7-1.5,5.2-3.2,7.2-5c3.7,0.4,13.4,0.7,13.4,0.7c19.8-0.1,39.2-5.8,54-18.3
		c11.6-10.4,24.5-28.1,24.9-52.4c0-4.5,0.9-22.9-14.3-38.9c95.7-140.6,157.8-231,197.5-323.1C967.5,134.8,877.8,33,877.5,32.2z
		 M706.6,620.4c-20.5,31-40,59.6-55.8,82.5c18.4,15.2,17.3,34.3,17.3,37.9c-0.4,20.3-11.2,35.4-21.1,44.3
		c-12.3,10.5-29.1,15.5-46.9,15.7c-0.5,0-13.2-0.4-17.6-1.4c-1.9,2.8-5.5,6.1-11.4,8.5c-0.6,1.9-1.5,3.7-2.7,5.5
		c-4.9,7.2-12.9,11.3-21.1,11.3c0,0-8.3-0.2-14-4.2c-7.3-4.8-11.4-12.9-11.4-21.1v-0.2c0.1-3.9,1-7.9,2.9-11.5
		c-0.8-2-3.8-14.1-3.8-14.1l7.8-6.9c0.6-0.4,2.5-3.3,4.7-10.8c2.3-7.3,5-18.1,10.8-30.7c7.4-16,17.6-32.6,25-44
		c-0.7-3.6-4.5-5.3-7.3-6c-3.1-0.8-7-2.6-10-6.2c-3.2-3.7-5.7-8.9-4.3-15.7c1.3-6.6,5.5-11.5,10.4-13.7c5.6-2.9,12.4-1.5,12.4-1.5
		c16.3,1.5,28.3,16.6,28.3,16.6c16.2-22.6,54-78.8,54.8-80c-49.5,9.5-100.6,10.7-143.1,3.7c-77.2-12.9-136.6-53.9-175-72.7
		C297.2,487,224.1,467.8,148.7,487c-75.4,19.1-125.2,88.6-125.2,88.6C46,417,144.3,390.3,153.7,387.6c14.3-13.4,33.1-54.3-11.4-81.9
		c-15.2-9.5-27.9-21.4-27.9-21.4c9.3,1.1,31.2-1.8,43.3-6.6c14.5-5.8,27.9-7.7,27.9-7.7c-11.5-10.9-29-16.4-29-16.4
		c17.5-1.1,44.9-7.1,61.9-14.8c16.9-7.7,26.3-21.4,23.5-27.4s-18.1-2.7-18.1-2.7c5.5-8.2,18.6-11.5,18.6-11.5
		c-37.8-2.2-65.3,18.4-65.3,18.4c4.2-9,18-25.2,18-25.2c-5.3,1.7-19.8,6.2-20.7,6.5c59.2-45.7,125.3-85.9,217.8-86.5
		c92.5-0.6,182.6,40.9,242.7,60.1s92,28.9,156.9,19.3c31.1-4.6,58.3-17.3,78.2-29.3c0,0,13.9-35.4,15-86.3c0,0,16.8,30,16.9,76.6
		c0.1,160.2-77.5,277.1-102.5,319.9C775.8,512.5,744.7,562.7,706.6,620.4z M536.6,268.8c0.7,0.3,3.7,1.8,13.7,1
		c11.6-0.5,32-2.6,38,4.8c0,0.2-14.5-1.5-24.3,0.1c-9.7,2-23.6,3.3-29.7,1.2c-6.1-2-16.4-11.4-22.9-18.9
		c-6.8-7.1-19.3-14.6-19.3-14.8c0.6-0.1,1.2-0.2,1.8-0.2c9.3-0.4,23,12.4,31.3,19.3C532.7,267.9,536,268.5,536.6,268.8z
		 M576.6,320.1c-0.2-0.4-0.2-0.7-0.3-1c2.5-1.4,4.8-2.5,6.9-4.7c2.7-2.9,4.9-6.5,6.5-10.1c0.7-1.7,1.3-3.3,1.8-5
		c0,0,1.2-5.9,3.7-6.4c0.3-0.1,0.5-0.1,0.8-0.1c-0.2,1.3-2.5,15.9-6.1,21.7c-3.8,6.1-7.5,11.8-17,11.3
		C572.9,325.8,578.4,324.2,576.6,320.1z M480.4,238.1c-7.7,3.2-16.4,4.7-16.4,4.7c0.4-4.5,0.4-14.2,2.3-22
		c1.8-7.3,14.2-39.3,57.1-39.5c4.4,0,9-0.1,14.1,0.6c2,0.3,4.8,1,4.8,1c-2.4-0.3-4.1-0.2-11.1-0.7c-4-0.3-7,0.1-9.2,0.3
		c-2.7,0.2-3.5,0-10.1,1.9c-21.7,6.3-29.8,25.8-31.2,35.4l-0.3,3.7c0,0.1,0,0.2,0,0.3c0,6,0.2,10.4,0.1,13.3
		C480.5,237.5,480.5,237.8,480.4,238.1z M472.9,264.6c-1.4,5.4-1.9,12.1,0.3,17.5c0.1,0.2,1.2,2.9,1.2,2.9l-0.6,0.5
		c-3.8,2.2-0.8,6.5-0.6,6.9c-7.9-5.3-7.4-12.1-6.7-19.3c0.6-7.2,8.3-21.1,8.3-21.1l0.6,0.6c1.4,2.1-1,7.3-1,7.3
		C473.8,261.4,473.3,263,472.9,264.6z M540.8,342.7l-0.3,0.4c2.6-4.7,5.9-7.4,12.4-8.7c7.9-1.7,21.5,2.9,27.1,4
		c5,0.9,14.5-4.5,19.8-10.7c0,0.1,0,0.1-0.1,0.3c-2.2,3.9-5.5,8.1-9.1,10.8c-4.2,3.1-6.3,5.6-17.9,2.8c-4.6-1.1-9.4-2-14-2.6
		C552.7,338.3,545.3,338,540.8,342.7z M507.5,317.7c-0.5,1.8,0.1,3.6,1.4,5c-0.1,0.1-0.1,0.1-0.1,0.2c-1,2.9,1,5.4,1,5.4
		c-4.5-1.5-7.1-6-5.8-9.9l1-3c0.6-2.2,2.4-3.6,3.6-4.3c1.3-0.8,2.3-1.4,3.6-3l0.1-0.1c1.8-1.9,3.1-3.4,3.9-5.8
		c1-2.9,3.7-4.7,6.9-4.9c1.1-0.1,2.2-0.1,3.3,0.2c-2.7-0.7-5.7,0.5-6.5,3c-1.1,3-2.6,4.7-4.3,6.7c-3.3,4-6,4.2-6.9,6.6
		C508.2,315.2,507.8,316.6,507.5,317.7z M399,399.6c1.9,7.9-2.8,16.7-4.4,18.9c-1.5,2.1-5.7,20.6-7.4,25.3c0,0-1.9,4.8-2.7,6.4
		c-1.7,3.5-9,12.6-28.1,6.5c-17.5-5.6-22.1-23.4-22.8-26.4c-6-3.8-5.8-11-5.8-11c-3,8,1.9,11.7,3,12.4c-0.2-0.1-1.2,1-1.3,1.1
		c-0.1,0-0.3,0.3-0.3,0.3s-1.7-0.4-3.3-2.6c-0.7-1-1.3-2.2-1.8-3.9c-0.1-0.6-0.2-1.2-0.3-1.8c0,0.1,0,0.1,0,0.2
		c-0.4,2.7-2.9,4.6-5.6,4.2c-2.7-0.4-4.6-2.9-4.2-5.6c0.4-2.7,2.9-4.5,5.6-4.1c2.1,0.3,3.7,1.9,4.1,3.9c0.2-4.8,3.7-7.8,3.7-7.8
		c0,0.1,2.1,8.7,13.3,8.7c-0.4,0.8-0.7,1.6-0.7,2.2c0,1.1,0.6,2.1,1.1,2.8H341c-0.3,0-4.7,0-4.7,0.3c2.4,14.6,13.8,23.3,22.8,25
		c8.9,1.7,13.7-0.8,16.9-6.7c2.1,0.9,4.5,1.1,7.2-1.1c-3.9,0.2-5.6-2.2-5.9-3.9c-0.8-4.5,1.9-11.2,3-16.3c1.1-5.1,5.1-8.5,8.3-10
		c2.2-1,6.5-4.4,7.8-8.4c1.4-4.3,0.5-7,0.3-8c-0.1-1,0.3-1.5,0.9-1.7C398.6,398.2,399,399.5,399,399.6z M587.4,199.3
		c-2.9-1.7-3.7-2-9.5-5l3.2,1.2c55.4,26.7,42.5,68.3,39.1,76.8c-2.9,7.2-8.6,14.3-11.1,18.4c-3-3.2-6.7-8.1-9.7-13.5
		c1.7-2.5,4.8-5.8,8.3-10.8c2.5-3.5,7.1-12.2,7.1-24.7C614.8,213.8,589,200.2,587.4,199.3z M522,332c0,0,3-0.8,4-3.7c0,0,0,0,0-0.1
		c1.9-0.3,3.5-1.4,4.1-3.2l1.1-3c1.1-3.1-1.2-4.3-1.4-9.6c-0.2-3.5-0.2-5.3,0.7-8.2c0.8-2.6-0.4-5.3-3.1-6.4c4.2,1.7,6.6,6,5.3,9.8
		c-0.8,2.4-0.6,4.3-0.4,6.9v0.1c0.1,2.1,0.6,3.2,1.1,4.6c0.5,1.3,1.1,3.4,0.3,5.6l-1,2.9C531.4,331.6,526.6,333.6,522,332z
		 M540.1,355.8c0.8-0.2,1.1-0.2,1.5-0.2c0,0-0.2-0.3-0.7-1.1l-4-2.1c0.5-4,2.2-6.8,2.2-6.8s3.2-2.4,9.1-2.2l-1.8,7.4
		c-0.2,2-1.2,7-1.2,7.1c-1.7,6-7.5,9.3-8,9c-0.6-0.4-1.4-1.9,1.2-10.2C538.4,356.3,539.5,355.9,540.1,355.8z M530.5,287
		c-9.8-3.2-17.6,11.4-23.4,14.6s-13.5,0.7-13.5,0.7c4.7-3.2,4.6-5.4,4.6-5.4c6.8,0.7,15.6-9.1,17.7-11.9c2.1-2.7,5.3-7.6,5.3-7.6
		c2.1,4.4,18,9.7,22.4,7.5c0,0-0.4,5.8-0.4,9.2c0,3.4,1.2,16.9,7,20.4c0,0-1.4,1.6,0.5,7c-0.5-0.2-7.8-2.9-10.4-8.8
		C537.6,306.6,540.2,290.3,530.5,287z M714.8,558.3c6.3-2.3,12.4-4.7,18.4-7.2c-12.1,19.1-78.3,118.8-93.9,141.4
		c-0.1-0.1-0.3-0.2-0.4-0.3c-2.3-2.1-5.2-4.6-8.5-7.3C635.7,677.3,696.9,586.5,714.8,558.3z M563.2,750c-0.5-1.1-0.9-2.3-1.2-3.5
		c11.4-25.3,24.3-42.1,24.3-42.1c1.3,3.3,3.5,6.7,6.9,9.8c3.1,2.8,5.6,5.1,7.7,6.8c-10.3,13.3-24.9,38.2-24.9,38.2
		C569.7,759.6,566.6,757.6,563.2,750z M568.9,499.2c0.6-1.4,1.3-3.3,2.1-5.6c0.5-1.4,0.9-3.9,0.9-3.9c5.2,2.8,18.3,12.4,25,18.9
		c-0.3,1.1-0.7,2.2-1.1,2.7c-0.7,0.9-1.6,1.3-2.4,1.6C587.4,508.8,578.3,503.6,568.9,499.2z M594.5,761c1.3-2.1,2.7-4.6,4.4-7.3
		c3.7-6.1,8.3-13.2,12.3-18.4c2.7,1.4,6.7,4,8.5,7.9c0.5,1,0.7,2,0.7,3.1c0.3,4.5-4.9,11.1-9.6,12.8c-3.4,1.4-7.9,2.1-12.2,2.1
		C597.3,761.2,595.9,761.1,594.5,761z M735.6,352.8l-0.4,1.3c-4.2,12.3-12.4,23.8-21.1,33.4c-6.3,7-13.2,13.4-20.5,19.3
		c-11.2,9.1-24,16.4-37,22.6c-13,6.1-26.5,11-40.3,14.8c-21.5,6-44.3,9.1-66.8,10.4c-1.7-3.4-3.8-6.8-6.1-10.2
		c72.4-5.2,119.9-33.6,119.9-33.6l0.4-0.3C721.4,384.7,735.3,353.7,735.6,352.8z M372.5,433.3c-10.7-2.9-27.7-3.9-27.7-3.9
		c-0.5-0.7-1-1.8-1-2.8c0-0.7,0.4-1.6,0.9-2.6c4.6-0.5,11.4-0.8,17.5-0.7c6.1,0,11.5,0.3,13.8,0.6c-0.7,1.1-1.1,2.2-1.6,3.6
		C373.6,429.8,372.9,431.9,372.5,433.3z M650.7,733.4c3.7,16.2-6.4,31.6-14.7,38.8c-8.3,7.3-22.5,11.8-37.2,11.5
		c-13.1-0.2-22.1-2.2-30.5-6.8l-0.1,0.1c-0.4,0.6-2.1,3.7-11.8,5.1c-6.5,0.9-10.2-0.3-10.6-0.4c11.4,11.5,21.7,4.3,21.7,4.3
		c0.5,2,1.2,3.4,1.2,3.4s-3.4,5.1-13.8,3.3c-1.3-0.2-2.3-0.5-3.4-0.9c0.2,0.1,0.4,0.2,0.6,0.3c4,2.7,5.1,8,2.5,12
		c-2.7,4-8,5.1-12,2.5c-3.9-2.6-5-8-2.4-12c2.2-3.3,6.1-4.6,9.7-3.5c-7.8-3.8-9.8-11.6-9.8-11.6s0.3,0,0.7,0.1c2.6,0.4,12.8,0,18-24
		c0.1,0.6,3.6,14.5,12.9,12.2c-0.1,0.2-1.5,3.3-1.5,3.3c4.1,2.5,13.5,7,29.4,7.2c22.4,0.3,34.6-14.4,38-25.4
		c2.6-8.5-1.5-18-9.9-26.3c2.4-2.9,4-6.9,2.3-12.4c0.7,2.5-4.1,7-9.1,6.6c-0.5,0-1-0.1-1.4-0.2c-7.6-2.2-16.3-11.4-23.6-16.9
		s-9.4-14-9.3-20c0.1-6.1-2-13.2-7.7-18.6c-5.7-5.4-10.9-5.9-12.5-6.3c-1.6-0.5-2.1-1.5-1.9-2.6c0.4-1.8,2.7-1.5,2.7-1.5
		c13.9,2.7,24.1,16.6,26.4,20.6c2.1,3.7,24.1,20.9,32.6,28.4C630.2,706.6,647.8,719.9,650.7,733.4z M349.8,305.5
		c22.2,40.2,17.7,38.8,75.8,99.3c-3.9,1.4-7.6,2.9-11,4.5c-0.5,0.3-5.9-5.1-6.6-5.7c-5.4-4.8-10.7-9.7-15.8-14.8
		c-11.9-11.9-22.9-24.8-32.5-38.6c-7.8-11.3-14.8-23.1-20.5-35.5c-5.5-12.1-10.1-24.7-12.9-37.8c-2.7-12.3-3.9-24.9-3.2-37.5
		c0.4-7.4,1.3-15.1,3.7-22.2l0.3-0.9C326.8,218.6,322.2,255.4,349.8,305.5z M451.4,292.3c-0.2-0.7-0.3-1.4-0.4-2.2
		c-0.2-1.6-0.4-2.5-0.4-5.4c0.1-5.2,0.6-8.8,0.6-8.8c-0.6,8.5,4,20,9.2,22.5c4.1,2,18.7,7,24,13.1c5.5,6.3,5.4,11.9,4.3,16.8
		c-0.3,1.5-1.3,4.3-1.9,5.9c-0.4-0.1-0.9-0.2-1.2-0.2c-0.8-0.1-2.8-0.5-3,1c0,0.1,0,0.1,0,0.2c0,0.3,0.1,1.2,0,1.6
		c-0.1,0.4-0.2,0.9-0.3,1.1c-2.9,8.2-4.4,8.9-5.2,8.8c-0.7-0.1-3.2-6.4-1-12.3c0.1-0.1,0.1-0.2,0.1-0.2c1.2-2.6,2.3-4.4,3.3-6.1
		c1.8-3,3-7,3-7c1.5,1,3.2,2.7,4.1,3.7c0.5,0.6,1.4,1.5,1.7,2.6c0,0.2,0.1,0.4,0.2,0.6c0.1-1.1,0.1-3.7-0.5-5.5
		c-2.1-6.1-7.8-9-13.1-12c-3.6-2-7.3-3.8-11-5.4C453,300.3,452.8,297.1,451.4,292.3z M621.5,526.4c-1.3,2.4-4.2,3.3-6.6,2
		c-2.3-1.3-3.1-3.8-2.1-6.4c-0.4,0.4-0.7,0.8-1.2,1.2c-2.8,2.2-5,2.5-6.4,2.4c-0.9,0-1.5-0.3-1.5-0.3l-0.3-2c0.3,0,0.9,0,1.7-0.1
		c2.2-0.3,6.2-1.6,8.1-8c0,0-0.5,0.6-1.3,1.4c-1.7,1.7-5.3,4.3-10.1,3.9c-2.4,2-16.8,13.5-34.1,7.4c-18.8-6.6-19-18.3-18.5-22.1
		c0.3-2.5,1.6-6.6,1.7-6.8c1.5-4.8,9.3-22,9.3-24.7c0.1-2.7,1.5-12.4,7.8-17.6c0,0,0.6-0.4,1.2-0.3c0.2,0,0.4,0.1,0.7,0.4
		c0.4,0.5,0.4,1.1-0.3,1.8c-0.7,0.7-3.1,2.3-4.6,6.6s-0.6,8.5,1.1,11.5c1.6,2.8,2.2,6.1,1.7,9.3c-0.2,1.1-0.5,2.3-1,3.3
		c-1.2,2.5-2.1,5.2-3.2,7.8c-1.2,2.9-2.5,5.5-4.2,7.1c-1.9,1.8-4.9,1.2-6.8-0.3c0,0-0.1-0.1-0.2-0.1c0.8,3.2,3,4.7,5,5.2
		c-1,6.7,1.3,11.5,9.4,15.5c8.2,4,22.5,4,33.2-6.2c-1.1-1.2-2.3-2.1-3.6-3.1c0-0.1,0-0.1,0-0.1c0.8-0.2,1.9-0.7,2.6-1.5
		c0.4-0.5,0.7-1.4,0.9-2.3l1.2,0.8c0.7,0.4,1.4,0.8,2,1.1c0.8,0.4,2.1,0.8,3.4,1.1c0.8,0.2,2.1,0.2,2.9,0.2c1.9-0.1,4.5-0.8,6.1-2.1
		c0,0,0.2,1.3,0.2,1.6c0.1,1.5-0.1,3.8-1.5,6.2c1.6-1.1,3.7-1.3,5.4-0.3C622.2,521.4,622.8,524.5,621.5,526.4z M558.7,377
		c-3.3,2.3-17.8,11.9-21.6,14.6c-3.8,2.7-14,11.8-22.9,13.4c-4.4,0.8-8.3,0.9-11.9,0.5l-10.8-2.6c-7.7-2.7-13.1-5.3-19.2-11.9
		c-5.4-5.7-8.1-16.7-9.7-22.5c-0.1-0.6-0.4-1.7-0.6-2.1c-1.4-4.5-7.2-20.9-8.4-24.7c-1-3.3-1.7-6.6-1.5-11.4
		c0.1-0.8,0.1-1.9,0.2-2.7l4.1-20.3c0,0,5,2.5,6.6,3.4l-1.5,16.6c0,0.7,0,1.5,0.1,1.9c0,0-7.1-0.9-9.5,1.2c0.4,1,2.7,6.5,6.3,15.8
		c4.1,10.5,10.1,25.5,11.9,30c0.9,2.4,2.3,5.1,5,7.8c3.6-2,12.5-1.4,22.2,1.9c9.3,3.1,16.5,7.7,18.6,11.4c3.3-0.6,6-1.7,7.9-3
		c5.1-3.4,18.1-11.6,26.7-15.4c8.6-3.8,15.6-10.2,15.6-10.2c-0.8-3.1-4.5-5.7-6.3-6.9l10-15.2c1.8,0.2,7.3,1.3,7.3,1.3
		s-5.2,13.2-8.9,19.2C564.9,372.6,562.4,374.5,558.7,377z"/>
	<path d="M885.1,74.2c-1.1,50.9-15,86.3-15,86.3c-19.9,12-47.1,24.7-78.2,29.3c-64.9,9.6-96.8-0.1-156.9-19.3
		s-150.2-60.7-242.7-60.1c-92.5,0.6-158.6,40.8-217.8,86.5c0.9-0.3,15.4-4.8,20.7-6.5c0,0-13.8,16.2-18,25.2
		c0,0,27.5-20.6,65.3-18.4c0,0-13.1,3.3-18.6,11.5c0,0,15.3-3.3,18.1,2.7s-6.6,19.7-23.5,27.4c-17,7.7-44.4,13.7-61.9,14.8
		c0,0,17.5,5.5,29,16.4c0,0-13.4,1.9-27.9,7.7c-12.1,4.8-34,7.7-43.3,6.6c0,0,12.7,11.9,27.9,21.4c44.5,27.6,25.7,68.5,11.4,81.9
		c-9.4,2.7-107.7,29.4-130.2,188c0,0,49.8-69.5,125.2-88.6c75.4-19.2,148.5,0,186.8,18.7c38.4,18.8,97.8,59.8,175,72.7
		c42.5,7,93.6,5.8,143.1-3.7c-0.8,1.2-38.6,57.4-54.8,80c0,0-12-15.1-28.3-16.6c0,0-6.8-1.4-12.4,1.5c-4.9,2.2-9.1,7.1-10.4,13.7
		c-1.4,6.8,1.1,12,4.3,15.7c3,3.6,6.9,5.4,10,6.2c2.8,0.7,6.6,2.4,7.3,6c-7.4,11.4-17.6,28-25,44c-5.8,12.6-8.5,23.4-10.8,30.7
		c-2.2,7.5-4.1,10.4-4.7,10.8l-7.8,6.9c0,0,3,12.1,3.8,14.1c-1.9,3.6-2.8,7.6-2.9,11.5v0.2c0,8.2,4.1,16.3,11.4,21.1
		c5.7,4,14,4.2,14,4.2c8.2,0,16.2-4.1,21.1-11.3c1.2-1.8,2.1-3.6,2.7-5.5c5.9-2.4,9.5-5.7,11.4-8.5c4.4,1,17.1,1.4,17.6,1.4
		c17.8-0.2,34.6-5.2,46.9-15.7c9.9-8.9,20.7-24,21.1-44.3c0-3.6,1.1-22.7-17.3-37.9c15.8-22.9,35.3-51.5,55.8-82.5
		c38.1-57.7,69.2-107.9,92.9-149.7c25-42.8,102.6-159.7,102.5-319.9C901.9,104.2,885.1,74.2,885.1,74.2z M648.3,610.1
		c14.3-21.1,26.6-39.5,27.1-40.2l26-7.2c-2.1,3.2-7.9,11.6-15.4,22.5c-7.6,10.9-16.9,24.2-26,37.4c-18.4,26.3-36.2,51.8-38.5,54.9
		c-0.4-0.3-11.9-10.1-12.3-10.5C617.7,655.1,634,631.2,648.3,610.1z M636,772.2c-8.3,7.3-22.5,11.8-37.2,11.5
		c-13.1-0.2-22.1-2.2-30.5-6.8l-0.1,0.1c-0.4,0.6-2.1,3.7-11.8,5.1c-6.5,0.9-10.2-0.3-10.6-0.4c11.4,11.5,21.7,4.3,21.7,4.3
		c0.5,2,1.2,3.4,1.2,3.4s-3.4,5.1-13.8,3.3c-1.3-0.2-2.3-0.5-3.4-0.9c0.2,0.1,0.4,0.2,0.6,0.3c4,2.7,5.1,8,2.5,12
		c-2.7,4-8,5.1-12,2.5c-3.9-2.6-5-8-2.4-12c2.2-3.3,6.1-4.6,9.7-3.5c-6.8-3.3-9.2-9.6-9.7-11.2c-0.1-0.4-0.2-0.6-0.2-0.6
		c10-8.9,9.7-24.9,19.9-47.1c0.5-1,1.5-3.4,2-4.3c1.3-2.5,7.3-14,10.5-19.4c3.7-6.2,7.6-12.4,11.5-18.5c0.2-0.3,0.4-0.6,0.6-0.8
		c-0.2,1.4-0.5,8.3,1.8,15.2c0,0,0,0,0,0c1.3,3.3,3.5,6.7,6.9,9.8c3.1,2.8,5.6,5.1,7.7,6.8c-10.3,13.3-24.9,38.2-24.9,38.2
		c-6.3,0.4-9.4-1.6-12.8-9.2c-0.5-1.1-0.9-2.3-1.2-3.4c0,0,0,0,0,0c-1.7-7.1-0.9-15.6-0.6-17.3c-2.1,5.7-4.3,15.3-3.5,21.9
		c0.2,1.5,0.6,3.1,0.9,4.4c-5.2,24-15.4,24.4-18,24c-0.4-0.1-0.7-0.1-0.7-0.1v0c0,0,0.3,0,0.7,0.1c2.6,0.4,12.8,0,18-24
		c0.1,0.6,3.6,14.5,12.9,12.2c-0.1,0.2-1.5,3.3-1.5,3.3c4.1,2.5,13.5,7,29.4,7.2c22.4,0.3,34.6-14.4,38-25.4
		c2.6-8.5-1.5-18-9.9-26.3c2.4-2.9,4-6.9,2.3-12.4c0.7,2.5-4.1,7-9.1,6.6c-0.5,0-1-0.1-1.4-0.2c-7.6-2.2-16.3-11.4-23.6-16.9
		s-9.4-14-9.3-20c0.1-6.1-2-13.2-7.7-18.6c-5.7-5.4-10.9-5.9-12.5-6.3c-1.6-0.5-2.1-1.5-1.9-2.6c0.4-1.8,2.7-1.5,2.7-1.5
		c13.9,2.7,24.1,16.6,26.4,20.6c2.1,3.7,24.1,20.9,32.6,28.4c4,2.9,21.6,16.2,24.5,29.7C654.4,749.6,644.3,765,636,772.2z
		 M611.2,735.3c2.7,1.4,6.7,4,8.5,7.9c0.5,1,0.7,2,0.7,3.1c0.3,4.5-4.9,11.1-9.6,12.8c-3.4,1.4-7.9,2.1-12.2,2.1
		c-1.3,0-2.7-0.1-4.1-0.2c1.3-2.1,2.7-4.6,4.4-7.3C602.6,747.6,607.2,740.5,611.2,735.3z M639.3,692.5c-0.1-0.1-0.3-0.2-0.4-0.3
		c-2.3-2.1-5.2-4.6-8.5-7.3c5.3-7.6,66.5-98.4,84.4-126.6c6.3-2.3,12.4-4.7,18.4-7.2C721.1,570.2,654.9,669.9,639.3,692.5z
		 M753,526.3c-42.1,19.6-139.3,52.2-236.1,34.1c-33.6-6.3-78-16.9-136.6-52.4c-38.5-23.3-80-45.5-176.8-45.1
		c-80.2,0.3-131.7,36.7-148.1,50.2c43.5-142,172.2-121.2,172.2-121.2c-23.5-11.3-51.7-7-51.7-7c40.3-63.4-24.6-93.1-24.6-93.1
		c5.5,0,30.1-7.1,42.7-11.5c12.6-4.4,35.7-7.4,35.7-7.4c-8.1-7.4-33-13.4-33-13.4c23.6,0,44.9-11.4,59.7-26.8
		c5.2-5.4,19.3-32.3,3.3-42.7c-14.7-9.6-44,1.1-44,1.1s87.6-94.4,268.4-54.1c85.7,19.1,182.4,69.4,271.7,69.9
		c30,0.2,96.2-9.5,135.7-49.3C889.4,233.2,875.4,339,753,526.3z M621.1,402.6c-39.6,10.7-77.4,13.7-102.7,14.4
		c-0.4-0.3-0.8-0.6-1.2-0.9c6.1-1.3,11.8-3.7,16.7-7.7c12.6-10.1,26.5-17.7,35.9-25.2c9.4-7.4,18-29.9,18-29.9
		c15.7-6,26.4-27.4,26.4-27.4s-2.5-4.7-2.7-10.5c-0.2-5.8,8.7-15.5,18-32.7s11.3-40.8-4-66.8c-15.3-25.8-57.6-39.1-57.9-39.2
		c-0.4-0.1-42.1-15-69.9-3.7c-27.9,11.4-40.5,31.4-43.5,50.8c-3,19.4-1.7,32.5-5.4,37c-3.7,4.4-8.5,6.7-8.5,6.7s-4.3,23.4,4.5,37.7
		c0,0-6.6,23.1-3.6,34.7c3,11.6,9.5,26.1,13.4,41.7c1.6,6.3,4.8,11.8,9,16.5c-0.4,0-0.9,0-1.4,0c-19.8-15.8-48.3-41.2-73.6-73.7
		c-44.3-57-58.8-147.8-58.8-147.8c-19.5,53.3-24.4,72-8.3,122.6c16,50.5,64.4,98.9,64.4,98.9c-1.2,2.8,0.5,8,0.5,8
		s-7.1-2.1-28.4-2.2c-21.3-0.1-17.2,2.2-23.8,1.9c-6.5-0.3-8.4-3.1-8.4-3.1c-3.3,1.7-6.4,5.4-6.4,5.4c-3.1,0.3-18.4,2.1-16.8,17.1
		c1.7,15,17.3,14,17.3,14c2.8,3.2,6.9,4.6,6.9,4.6s9.2,24.4,35.9,25.6c23.2,1,30.6-13.1,32.2-16.8c0.6,1.4,1.3,2.9,2,4.3
		c4.7,9.6,11.9,20.3,21.7,30c9.7,9.6,22.1,18.3,37,23.3c22.7,7.6,45.6,5.2,63.5-0.4c6.6-2.1,13.1-4.8,19.1-8.2
		c-1.1,5-2.1,19.6,15.7,31.9c21.9,15.2,44,1.2,44,1.2s4.1,1.4,8.3,0.5c0,0,11.9,10.2,22.3-0.8c10.3-11-0.8-21.6-3-23.7
		c0,0-0.2-4.9-1.8-8.2c0,0-3.1,1-8.5-2.6c-5.4-3.7-0.8-3-17.8-15.8s-24-15.4-24-15.4s4.5-3.1,5.2-6c0,0,67.8-9.3,111-40
		c43.3-30.6,50.7-48.6,67.2-102.8C757.2,320.1,690.9,383.8,621.1,402.6z M451.1,290.5c0-0.2-0.1-0.3-0.2-0.5
		c-0.2-1.6-0.4-2.5-0.4-5.4c0-4.9,0.5-8.4,0.5-8.7c0.1-0.7,0.1-1.3,0.1-1.3s6.4-4.2,9.7-10.2s6-17.9,6-17.9
		c12.3-1.4,23.9-14.6,24.6-15.4c-2.9,2.9-6.9,5.3-11,7c0,0,0,0,0,0c-7.7,3.2-16.4,4.7-16.4,4.7c0.4-4.5,0.4-14.3,2.3-22.1
		c1.8-7.3,14-39.2,56.9-39.4c4.4,0,9.3-0.1,14.4,0.6c1.9,0.3,4.4,0.9,4.7,1c0.4,0.1,0.8,0.1,1.2,0.2c9.8,1.6,17.6,4.3,19.6,5
		c5,1.7,5.8,1.8,8.4,3.1c2.7,1.3,4.7,2.3,6.4,3.1l3.2,1.2c11.3,5.4,19.7,11.5,26,17.8c24.4,24.2,15.8,52.4,13.1,59
		c-3,7.2-8.6,14.3-11.1,18.4c0,0-0.1-0.1-0.1-0.1c0,0,0,0,0,0c-3-3.2-6.7-8.1-9.7-13.5c-2.1-3.6-3.5-7.2-4.1-10.9
		c0,0,1.1,18.3,10.4,27.1c0,0-5.2,11.2-6.1,18c-0.9,6.7,1.6,14,1.6,14s-0.2,1-1.4,2.4c0,0.1,0,0.1,0,0.1c0,0,0.1-0.1,0.1-0.1
		c0,0.1,0,0.1-0.1,0.3c-2.2,3.9-5.5,8.1-9.1,10.8c-2.9,2.1-4.8,4-9.5,4c-2.1,0-4.8-0.3-8.5-1.2c-4.6-1.1-9.4-2-14-2.6
		c-1.9-0.2-3.9-0.4-5.8-0.4c-4.4,0-8.9,0.9-12,4.1l-0.3,0.4c-0.6,1-1.1,1.9-1.4,2.5c0,0,3.2-2.4,9.1-2.2v0l-1.8,7.4
		c-0.1,1.3-0.6,3.7-0.9,5.3c-0.1,0.3-0.1,0.6-0.2,0.9c0,0.1,0,0.2-0.1,0.3c-0.1,0.3-0.1,0.5-0.1,0.5c-1.7,6-7.5,9.3-8,9
		c-0.3-0.2-0.6-0.6-0.6-1.6c0-1.4,0.3-3.9,1.8-8.6c0-0.1,0.1-0.2,0.2-0.3c0.1,0,0.1-0.1,0.2-0.1c0.4-0.2,0.9-0.4,1.3-0.5
		c0.8-0.2,1.1-0.2,1.5-0.2c0,0-0.2-0.3-0.7-1.1l-4-2.1v0c-1.1-0.5-2-0.9-2-0.9c0.1,0.2,0.1,0.5,0,0.8c-0.1,0.5-0.4,1.6-0.4,1.6
		l-2.2,7.4c-0.6,1.8-2.4,1.2-2.4,1.2l-4.4-2.1c0,0-1.8-0.8-1.4-2.6c0.8-2.9,3.1-10.4,3.1-10.4c-0.3-0.2-1-1-1.6-1.3
		c-0.5-0.2-1-0.4-1.8-0.3c-0.3,0.3-0.7,1-0.8,1.4c-0.4,1-0.6,2.1-1.3,4.1s-1.5,4.3-1.8,5.3c-0.3,1.2-1.1,1.4-1.8,1.4
		c-0.6,0-1-0.2-1-0.2l-4.8-1.7c-1.6-0.6-1.6-1.8-1.4-2.6l3.2-9.2c0.2-0.5,0.4-1.2,1.4-1.7c-0.6-0.5-1.9-1-2.8-1.3
		c-1.2-0.4-3.2-0.8-3.3-0.8c0.3,0.7,0.3,2,0.2,2.6c-0.3,0.8-2.5,8.6-2.6,8.9c-0.1,0.3-0.5,1.3-1.1,1.5c-0.6,0.3-3.1-0.4-3.1-0.4
		l-4.2-1c0,0-2.2-0.6-1.5-2.6l2.1-8c0.1-0.3,0.3-1.2,0.5-2.8c0.2-1.5-0.9-1.9-1.7-1.9s-1.6,1.4-1.8,2.1l-0.9,2.6
		c-0.7,2-1.3,3.7-2,5.7c-0.8,1.9-2.9,1.5-2.9,1.5l-4.8-1c0,0-1.8-0.5-1.2-2.4l2-5.4c0.6-1.4,1-2.2,1.4-2.9c0.4-0.7,1-1.1,1-1.1
		c0-0.4-1-1.3-1.5-1.5c-0.2-0.1-0.3-0.1-0.5-0.2c-0.4-0.1-0.9-0.2-1.2-0.2c-0.8-0.1-2.8-0.5-3,1c0,0.1,0,0.1,0,0.2
		c0,0.3,0.1,1.2,0,1.6c-0.1,0.4-0.2,0.9-0.3,1.1c-2.9,8.2-4.4,8.9-5.2,8.8c-0.7-0.1-3.2-6.4-1-12.3c0.1-0.1,0.1-0.2,0.1-0.2
		c1.2-2.6,2.3-4.4,3.3-6.1c1.8-3,3-7,3-7c1.5,1,3.2,2.7,4.1,3.7c0.5,0.6,1.4,1.5,1.7,2.6c0,0.2,0.1,0.4,0.2,0.6
		c0.1-1.1,0.1-3.7-0.5-5.5c-2.1-6.1-7.8-9-13.1-12c-3.6-2-7.3-3.8-11-5.4c-0.3-0.2-0.7-0.3-1-0.4c-9.9-4.6-10.2-7.7-11.5-12.4
		C451.2,291.7,451.1,291.1,451.1,290.5z M462.6,368.5c-0.1-0.6-0.4-1.7-0.6-2.1c-1.4-4.5-7.2-20.9-8.4-24.7
		c-0.9-2.9-1.5-5.8-1.5-9.7c0-0.5,0-1,0-1.6c0-0.1,0-0.1,0-0.2c0,0,0,0,0,0v-0.1c0.1-0.8,0.1-1.9,0.2-2.7l4.1-20.3
		c0,0,5,2.5,6.6,3.4l0,0.1c0,0,0,0,0,0l-1.5,16.6c0,0.7,0,1.4,0.1,1.8c0,0.1,2.9,3.1,3.5,5.4c0.7,2.3,0,15,5,23.7v-0.3
		c0,0,0.2-0.9,1.3-2.5c1.1-1.6,3.1-3.8,4.4-3c1.3,0.9,1.1,3.4,1.1,6.1c0,2.7-0.9,5.5-1.6,6.3c0,0,1,2.1,3.9,3.5c0,0-0.1-1,0.1-2.5
		c0.4-2.6,1.7-4.7,2.6-7c0.4-1.5,1-1.8,2.2-1c0,0,2.3,1.3,4.4,2.4c0.9,0.4,1.8,1.2,0.9,3.3l-2.6,6.3c0,0-0.5,1.9-1.4,2
		c0,0,1.8,1.2,2.5,1.5c1.2,0.5,2.6,1.2,3.3,1.3c0,0-0.7-1.2-0.5-3c0.5-2.5,1.2-6,1.8-8.9c0.2-0.7,0.8-1.8,2.2-1.4
		c1.5,0.6,3.1,1.3,4.7,1.8c1.4,0.6,1.3,1.9,1.3,2.3c-0.7,3.2-1.5,7-2.4,10.1c-0.2,0.5-0.5,1.1-0.7,1.4c0,0,1.5,1,2.4,1.3
		c1,0.2,2.8,0.6,2.8,0.6s-0.3-1.4,0.1-2.7c0,0,2-6.2,2.9-8.3c0.3-0.8,0.8-1.9,2.3-1.8c1.9,0.6,3.8,1.1,5.7,1.5
		c1.4,0.4,0.6,2.8,0.6,2.8s-2.4,5.8-3.1,7.8c-0.3,0.6-0.3,1.3-1.4,2.1c0,0,2.2,0.7,3.2,0.9c2.1,0.4,2.4,0.2,2.9,0.3
		c0,0-0.6-1.5,0.1-3.4l2-4.7c0.2-0.4,0.3-0.8,0.5-1.3c0.2-0.6,1.2-1.8,2.9-1.5l4,0.7c0,0,2.6,0.5,1.7,2.7c-1.2,2.7-2.5,5.4-3.9,8.1
		c1.5,0.1,3,0.2,4.5,0.2c0,0-0.2-0.1,0.4-1.8c0.6-1.6,2.4-5.2,2.6-5.7s0.9-2.7,1.7-2.8c0.9-0.1,4.2,2.7,3.3,7.9
		c9.3-4,16.3-14.6,18.3-16c1.7-1.3,5-1.8,5.9-2l10-15.2c1.8,0.2,7.3,1.3,7.3,1.3s-5.2,13.2-8.9,19.2c-2,3.1-3.6,5-5.3,6.6
		c-0.4,0.3-0.8,0.7-1.2,1c-0.2,0.2-0.4,0.3-0.6,0.5c-0.8,0.6-1.7,1.2-2.6,1.8c-3.3,2.3-17.8,11.9-21.6,14.6
		c-3.8,2.7-14,11.8-22.9,13.4c-4.4,0.8-8.3,0.9-11.9,0.5l-10.8-2.6c-7.7-2.7-13.1-5.3-19.2-11.9
		C466.9,385.3,464.2,374.3,462.6,368.5z M359.7,350.2c-7.8-11.3-14.8-23.1-20.5-35.5c-5.5-12.1-10.1-24.7-12.9-37.8
		c-2.7-12.3-3.9-24.9-3.2-37.5c0.4-7.4,1.3-15.1,3.7-22.2l0.3-1c4,16.8,15.9,79.5,78.1,147c12.5,13.3,26,25.7,39.6,37
		c-4.1,0.7-8.1,1.5-11.9,2.6c-9.8-8.6-32.8-31.4-32.9-31.4c-18.5-18.7-32.3-36.6-42.8-53.2c-2.2-3.5-3.8-6.5-5.2-8.7l-1.2-2.2
		c-0.3-0.6-0.7-1.2-1-1.8c-2.3-4.1-4.3-8.1-6.2-12c1.9,3.9,3.9,7.9,6.2,12c22.2,40.2,17.7,38.8,75.8,99.3c-3.9,1.4-7.6,2.9-11,4.5
		c-0.5,0.3-5.9-5.1-6.6-5.7c-5.4-4.8-10.7-9.7-15.8-14.8C380.3,376.9,369.3,364,359.7,350.2z M394.6,418.5
		c-1.5,2.1-5.7,20.6-7.4,25.3c0,0-1.9,4.8-2.7,6.4c-1.3,2.6-5.7,8.5-16.1,8.5c-3.4,0.1-7.5-0.5-12.2-2
		c-17.5-5.6-22.1-23.4-22.8-26.4c-5-3.2-5.7-8.7-5.8-10.4c-2.6,7.6,2.1,11.2,3.2,11.8c-0.2-0.1-1.2,1-1.3,1.1
		c-0.1,0-0.3,0.3-0.3,0.3s-0.1,0-0.2-0.1c0,0,0,0.1,0,0.1s-1.7-0.4-3.3-2.6c-0.7-1-1.3-2.2-1.8-3.9c-0.1-0.4-0.1-0.8-0.2-1.2
		c-0.5,2.2-2.4,3.8-4.7,3.8c-0.3,0-0.7,0-1,0c-2.7-0.4-4.6-2.9-4.2-5.6c0.4-2.4,2.4-4.1,4.8-4.1c0.3,0,0.7,0,1,0
		c1.9,0.3,3.4,1.6,3.9,3.4c0.4-4.5,3.7-7.3,3.7-7.3s0,0.1,0.1,0.1c0.1-0.1,0.1-0.1,0.1-0.1c0,0,0,0.1,0,0.2c0.9,0.4,2.1,0.7,2.8,0.8
		c0.8,0.1,2.4,0.2,3.2,0.2c4.8-0.1,7-0.6,10.7-1.1c4.2-0.6,8.4-0.9,12.7-0.9h2.2c1.5,0,2.9,0,4.4,0.1c2.4,0,4.7,0.3,7,0.5
		c4.6,0.4,10,1,14.6,1.8c-2.8,0.9-6.4,2.7-9,6.7c0,0,0,0,0,0c-0.7,1.1-1.1,2.2-1.6,3.6c-0.8,2.3-1.5,4.4-1.9,5.8c0,0-0.1,0-0.1,0
		c0,0,0,0,0,0c-10.7-2.9-27.7-3.9-27.7-3.9c-0.5-0.7-1-1.8-1-2.8c0-0.7,0.4-1.6,0.9-2.6c0.1,0,0.1,0,0.1,0c0,0,0,0,0,0
		c1-1.9,2.6-4,5.4-5.9c2.3-1.5,5.5-2.6,8.5-3.2c-3.5,0-8.7,1.3-12.2,3.4c-2,1.1-4.1,3-5.1,5.1c-0.1,0.1-0.5,0.9-0.6,1
		c-0.4,0.7-0.7,1.5-0.7,2.1c0,1.1,0.6,2.1,1.1,2.8H341c-0.3,0-4.7,0-4.7,0.3c2.4,14.6,13.8,23.3,22.8,25c8.9,1.7,13.7-0.8,16.9-6.7
		c2.1,0.9,4.5,1.1,7.2-1.1c-3.9,0.2-5.6-2.2-5.9-3.9c-0.8-4.5,1.9-11.2,3-16.3c1.1-5.1,5.1-8.5,8.3-10c2.2-1,6.5-4.4,7.8-8.4
		c1.4-4.3,0.5-7,0.3-8c-0.1-1,0.3-1.5,0.9-1.7c0.1,0,0.2,0,0.3,0c0.7,0,1.1,1.1,1.1,1.1C400.9,407.5,396.2,416.3,394.6,418.5z
		 M546.8,478.4c-0.8,2.4-3.5,6-5.2,7.4c-13.4,11.1-47.9,15.9-79.7,5.2c-31.3-10.5-53.2-36.6-59-53.2c-0.6-1.8-2-5.7-0.9-7.7
		c7.3-13.4,49.7-29.6,86.6-17.2c30.9,10.7,50,37.1,56.2,55.5C546.3,473,547.7,475.8,546.8,478.4z M581,486.6c2,1.2,4,2.3,6,3.7
		c1.2,0.8,2.4,1.6,3.6,2.5l0.5,0.3c0,0,0,0,0,0l0.3,0.2c3.5,2.5,7.8,6,10.9,8.9c2.8,2.5,4.3,4.2,8.1,7.1c0.6,0.5,2,1.3,2.7,1.7
		c0.6,0.4,1.5,1.2,2.5,1.4c0,0,0,0,0,0c0,0,0.2,1.3,0.2,1.6c0.1,1.5-0.1,3.8-1.5,6.2c1.6-1.1,3.7-1.3,5.4-0.3
		c2.6,1.5,3.2,4.6,1.9,6.5c-1.3,2.4-4.2,3.3-6.6,2c-2.3-1.3-3.1-3.8-2.1-6.4c-0.4,0.4-0.7,0.8-1.2,1.2c-2.8,2.2-5,2.5-6.4,2.4
		c-0.9,0-1.5-0.3-1.5-0.3l-0.3-2c0.3,0,0.9,0,1.7-0.1c2.2-0.3,6.2-1.6,8.1-8c0,0-0.5,0.6-1.3,1.4c-1.7,1.7-5.3,4.3-10.1,3.9
		c-2.4,2-16.8,13.5-34.1,7.4c-18.8-6.6-19-18.3-18.5-22.1c0.3-2.5,1.6-6.6,1.7-6.8c1.5-4.8,9.3-22,9.3-24.7
		c0.1-2.7,1.5-12.4,7.8-17.6c0,0,0.6-0.4,1.2-0.3c0.2,0,0.4,0.1,0.7,0.4c0.4,0.5,0.4,1.1-0.3,1.8c-0.7,0.7-3.1,2.3-4.6,6.6
		s-0.6,8.5,1.1,11.5c1.6,2.8,2.2,6.1,1.7,9.3c-0.2,1.1-0.5,2.3-1,3.3c-1.2,2.5-2.1,5.2-3.2,7.8c-1.2,2.9-2.5,5.5-4.2,7.1
		c-1.9,1.8-4.9,1.2-6.8-0.3c0,0-0.1-0.1-0.2-0.1c0.8,3.2,3,4.7,5,5.2c-1,6.7,1.3,11.5,9.4,15.5c8.2,4,22.5,4,33.2-6.2
		c-1.1-1.2-2.3-2.1-3.6-3.1c0-0.1,0-0.1,0-0.1c0.8-0.2,1.9-0.7,2.6-1.5c0.4-0.5,0.7-1.4,0.9-2.3c0.2-0.3,0.3-1.1,0.3-1.2
		c0.4-2.3-0.2-5-1.2-7.1c-1.4-3.2-5-7.2-7.6-9.4c1.9,2.2,3.7,4.6,4.7,7.1c1.1,3.2,1.2,5.7,0.8,7.9c-0.3,1.1-0.7,2.2-1.1,2.7
		c-0.7,0.9-1.6,1.3-2.4,1.6c-6-4.1-15.1-9.3-24.5-13.7c0.6-1.4,1.3-3.3,2.1-5.6c0.5-1.4,0.9-3.9,0.9-3.9c0.2-4.9-2-7.7-3.8-10.1
		C572.3,481.6,577,484.2,581,486.6z M735.4,353.5l-0.2,0.6c-4.2,12.3-12.4,23.8-21.1,33.4c-6.3,7-13.2,13.4-20.5,19.3
		c-11.2,9.1-24,16.4-37,22.6c-13,6.1-26.5,11-40.3,14.8c-21.5,6-44.3,9.1-66.8,10.4c-1.7-3.4-3.8-6.8-6.1-10.2
		c72.4-5.2,119.9-33.6,119.9-33.6l0.3-0.2c-2.5,1-4.9,2-7.6,3.1c-11.7,4.4-36.2,12.8-68.6,18.6c-13.1,2.4-26.4,4-39.7,5.1
		c-1.1,0.1-8.8,0.6-8.8,0.6c-2.4-3.1-5.2-6.3-8.1-9.2c17.6-0.8,35.8-2.8,53.5-6c73.2-13.1,118-43.4,139.5-60.4c2-1.6,3.8-3,5.4-4.3
		c3.3-2.7,4.9-3.7,6.3-5.2c0,0,0.1,0,0.1,0c0,0,0,0,0-0.1l0,0.1c0,0,0.1-0.1,0.1-0.1C735.7,352.9,735.6,353.1,735.4,353.5z
		 M473.2,282.1c-2.2-5.4-1.7-12.1-0.3-17.5c0.4-1.6,0.9-3.1,1.5-4.7c0,0,2.4-5.2,1-7.3l-0.6-0.6c0.4,0.2,7.2,3.1,13.1,8.8
		c0.6,0.6,1.2,1.1,1.7,1.7c6.5,7,12.6,13.5,18.6,15.5c2,0.6,4,0.8,5.9,0.7h0.1c0.8,0,0.9,0,1.5-0.1c3.1-0.4,5.5-1.2,5.5-1.2
		s-3.2,4.9-5.3,7.6c-2.1,2.8-11,12.7-17.7,11.9c-0.1,0-0.2,0-0.3,0c-7-0.3-17.8-6.2-22-10.2c-0.6-0.5-1.5-1.7-1.5-1.7
		S473.3,282.3,473.2,282.1z M543.2,294.1c0-3.4,0.4-9.2,0.4-9.2l0.1,0.1c0.3,0.4,1.6,2.2,3.6,4.1c0.3,0.3,0.9,0.8,1.2,1.1
		c1.4,1.2,3.1,2.3,5.1,3c6,2,14.8,0.6,24.2-1.1c0.8-0.1,1.6-0.2,2.4-0.3c8.4-1,15.8,0.9,15.8,0.9v0.1h-0.2c-0.2,0-0.5,0-0.8,0.1
		c-2.4,0.8-3.5,6.4-3.5,6.4c-0.5,1.7-1.1,3.4-1.8,5.1c-1.6,3.6-3.9,7.2-6.6,10.1c-2.1,2.2-4.4,3.3-6.9,4.7c0,0-1.5,0.4-2.2,0.5
		c-5.8,0.7-17.9-1.2-23.7-5.1l-0.1-0.1C544.4,310.8,543.2,297.5,543.2,294.1z M541.2,473.4c-7.8-5.8-18-12.2-29.9-18.2
		c0.1-1.7,0.1-3.5,0.1-5.2C525.4,458.2,535.9,467.1,541.2,473.4z M526.4,297.5c0.3,0.1,0.8,0.2,1,0.3c2.7,1,3.9,4,3.1,6.5
		c-1,3.1-0.8,5.3-0.7,8c0.1,5.1,2.5,6.6,1.4,9.7l-1.1,3c-0.6,1.8-2.2,2.9-4.1,3.2c-0.9,0.1-1.9,0-2.8-0.3c-2.9-1-4.4-3.9-3.5-6.5
		c0.1-0.4-0.1-0.9-0.6-1.1s-0.9,0.1-1.1,0.5c-0.9,2.6-3.6,4-6.6,3.2c-1.1-0.3-1.9-0.6-2.5-1.3c-1.3-1.4-1.9-3.2-1.4-5l1-3.5
		c1.1-3.1,3.6-2.8,6.9-6.8c1.7-2,3.4-3.9,4.5-6.9C520.7,298,523.7,296.8,526.4,297.5z M447.1,428.3c-1.1,1.4-2.1,2.8-3.1,4.2
		c-13.6-2.4-25.9-3.4-35.9-3.5c4.1-0.9,9.7-1.6,16.4-1.8C431.1,427,438.8,427.3,447.1,428.3z"/>
	<path class="st2" d="M755.8,206.9c-89.3-0.5-186-50.8-271.7-69.9c-180.8-40.3-268.4,54.1-268.4,54.1s29.3-10.7,44-1.1
		c16,10.4,1.9,37.3-3.3,42.7c-14.8,15.4-36.1,26.8-59.7,26.8c0,0,24.9,6,33,13.4c0,0-23.1,3-35.7,7.4c-12.6,4.4-37.2,11.5-42.7,11.5
		c0,0,64.9,29.7,24.6,93.1c0,0,28.2-4.3,51.7,7c0,0-128.7-20.8-172.2,121.2c16.4-13.5,67.9-49.9,148.1-50.2
		c96.8-0.4,138.3,21.8,176.8,45.1c58.6,35.5,103,46.1,136.6,52.4c96.8,18.1,194-14.5,236.1-34.1C875.4,339,889.4,233.2,891.5,157.6
		C852,197.4,785.8,207.1,755.8,206.9z M689.6,422.7c-43.2,30.7-111,40-111,40c-0.7,2.9-5.2,6-5.2,6s7,2.6,24,15.4
		s12.4,12.1,17.8,15.8c5.4,3.6,8.5,2.6,8.5,2.6c1.6,3.3,1.8,8.2,1.8,8.2c2.2,2.1,13.3,12.7,3,23.7c-10.4,11-22.3,0.8-22.3,0.8
		c-4.2,0.9-8.3-0.5-8.3-0.5s-22.1,14-44-1.2c-17.8-12.3-16.8-26.9-15.7-31.9c-6,3.4-12.5,6.1-19.1,8.2c-17.9,5.6-40.8,8-63.5,0.4
		c-14.9-5-27.3-13.7-37-23.3c-9.8-9.7-17-20.4-21.7-30c-0.7-1.4-1.4-2.9-2-4.3c-1.6,3.7-9,17.8-32.2,16.8
		c-26.7-1.2-35.9-25.6-35.9-25.6s-4.1-1.4-6.9-4.6c0,0-15.6,1-17.3-14c-1.6-15,13.7-16.8,16.8-17.1c0,0,3.1-3.7,6.4-5.4
		c0,0,1.9,2.8,8.4,3.1c6.6,0.3,2.5-2,23.8-1.9c21.3,0.1,28.4,2.2,28.4,2.2s-1.7-5.2-0.5-8c0,0-48.4-48.4-64.4-98.9
		c-16.1-50.6-11.2-69.3,8.3-122.6c0,0,14.5,90.8,58.8,147.8c25.3,32.5,53.8,57.9,73.6,73.7c0.5,0,1,0,1.4,0
		c-4.2-4.7-7.4-10.2-9-16.5c-3.9-15.6-10.4-30.1-13.4-41.7c-3-11.6,3.6-34.7,3.6-34.7c-8.8-14.3-4.5-37.7-4.5-37.7s4.8-2.3,8.5-6.7
		c3.7-4.5,2.4-17.6,5.4-37c3-19.4,15.6-39.4,43.5-50.8c27.8-11.3,69.5,3.6,69.9,3.7c0.3,0.1,42.6,13.4,57.9,39.2
		c15.3,26,13.3,49.6,4,66.8s-18.2,26.9-18,32.7c0.2,5.8,2.7,10.5,2.7,10.5s-10.7,21.4-26.4,27.4c0,0-8.6,22.5-18,29.9
		c-9.4,7.5-23.3,15.1-35.9,25.2c-4.9,4-10.6,6.4-16.7,7.7c0.4,0.3,0.8,0.6,1.2,0.9c25.3-0.7,63.1-3.7,102.7-14.4
		c69.8-18.8,136.1-82.5,135.7-82.7C740.3,374.1,732.9,392.1,689.6,422.7z M541.4,485.9c-2.1,2.2-4.4,4.1-6.1,5.3
		c-8.1,5.8-20.7,9.8-32.8,11.8c-8.7,1.5-24,1.6-31.5,0.3c-22.7-4.1-43.1-18.1-57.7-39.5c0,0-9.4-15-11.2-28.6c0.3,1,0.6,1.9,0.8,2.6
		c5.8,16.6,27.7,42.7,59,53.2C493.5,501.6,527.8,496.9,541.4,485.9z"/>
	<path class="st3" d="M488.6,412.9c-36.9-12.4-79.3,3.8-86.6,17.2c-1.1,2,0.3,5.9,0.9,7.7c5.8,16.6,27.7,42.7,59,53.2
		c31.8,10.7,66.3,5.9,79.7-5.2c1.7-1.4,4.4-5,5.2-7.4c0.9-2.6-0.5-5.4-2-10C538.6,450,519.5,423.6,488.6,412.9z M408.1,429
		c4.1-0.9,9.7-1.6,16.4-1.8c6.6-0.2,14.3,0.1,22.6,1.1c-1.1,1.4-2.1,2.8-3.1,4.2C430.4,430.1,418.1,429.1,408.1,429z M511.3,455.2
		c0,0.5-0.1,1-0.1,1.5c-1.3-0.7-2.7-1.3-4-2c-0.5,3-1.2,6-2.2,9c-2-1.2-4-2.3-6.1-3.3c0.9-2.8,1.6-5.6,2.1-8.5c-2.2-1-4.4-2-6.7-2.9
		c-0.6,2.7-1.3,5.4-2.2,8.1c-2.1-1-4.2-1.9-6.4-2.8c0.8-2.6,1.6-5.3,2.3-7.9c-2.2-0.9-4.5-1.7-6.8-2.5c-0.8,2.6-1.6,5.1-2.5,7.7
		c-2.2-0.8-4.4-1.5-6.6-2.2c0.9-2.6,1.8-5.1,2.7-7.6c-2.3-0.7-4.7-1.5-7-2.1c-1,2.5-2,5-2.9,7.6c-2.2-0.6-4.5-1.1-6.7-1.6
		c0.9-2.7,2-5.2,3.1-7.8c-2.4-0.6-4.8-1.2-7.2-1.7c-1.3,2.6-2.4,5.3-3.4,8c-2.3-0.4-4.6-0.7-6.9-1c1-2.9,2.2-5.7,3.6-8.4
		c-1.5-0.3-3-0.5-4.4-0.8c0.3-0.5,0.6-0.9,1-1.4c1-1.5,2.1-2.9,3.1-4.2c0.1-0.2,0.2-0.3,0.4-0.5c1.3,0.2,2.5,0.3,3.8,0.5
		c1.2-1.7,2.4-3.3,3.6-4.8c2.1,0.3,4.3,0.6,6.3,0.9c-1.2,1.6-2.3,3.2-3.3,4.9c2.3,0.4,4.6,0.9,6.9,1.4c1-1.7,1.9-3.5,3-5.1
		c2,0.4,3.9,0.9,5.8,1.4c-0.9,1.7-1.7,3.5-2.6,5.3c2.2,0.6,4.4,1.2,6.5,1.9c0.7-1.8,1.4-3.7,2.1-5.5c1.8,0.6,3.7,1.2,5.5,1.8
		c-0.5,1.8-1.1,3.7-1.6,5.6c2.2,0.8,4.3,1.6,6.4,2.4c0.4-1.9,0.8-3.8,1.1-5.7c1.8,0.8,3.6,1.5,5.5,2.4c-0.2,1.9-0.4,3.9-0.7,5.8
		c2.2,1,4.3,2,6.4,3c0.2-1.9,0.3-3.9,0.3-5.9c1.9,1,3.7,2,5.6,3c0.1,2,0.1,3.9,0,5.9c1.2,0.6,2.3,1.3,3.4,1.9
		c-0.1,0.4-0.1,0.7-0.1,1c14,8.2,24.5,17.1,29.8,23.4C533.4,467.6,523.2,461.2,511.3,455.2z"/>
</g>
</svg>
