<?xml version="1.0" encoding="utf-8"?>
<!-- Generator: Adobe Illustrator 25.0.0, SVG Export Plug-In . SVG Version: 6.00 Build 0)  -->
<svg version="1.1" id="Layer_1" xmlns="http://www.w3.org/2000/svg" xmlns:xlink="http://www.w3.org/1999/xlink" x="0px" y="0px"
	 viewBox="0 0 821 309.9" style="enable-background:new 0 0 821 309.9;" xml:space="preserve">
<style type="text/css">
	.st0{fill:#0A78BF;}
	.st1{fill:#FFC316;}
</style>
<g>
	<path class="st0" d="M821,309.9c-0.7-10.7-2.5-20.1-4.4-29.4c-12.3-59-42.6-109.1-86.9-152.1C667.2,67.9,591.1,30.6,504.3,11.1
		c-21.1-4.8-42.5-8.2-64-10.8c-1.5-0.2-3-0.2-5.4-0.3c4.6,8,8.9,15.4,13.5,23.4c-8.1-0.7-15.4-1.4-22.7-2.1
		c-29.6-2.8-59.3-3.4-89-1.7c-29.6,1.7-58.7,6.1-87.2,13.7c-27.2,7.3-53.1,17.6-77.5,31.1c-1.2,0.6-2.2,1.4-3.7,2.2
		c7.4,6.3,14.6,12.5,22.1,18.9c-12.3,6.5-24.1,12.9-35.6,20C107.5,134.5,67,170,38,216c-17.6,28-29.7,58-37.2,89.6
		c-0.2,0.8-1.5,1.9-0.2,2.5c1.3,0.6,2.2-0.5,3.1-1.3c7.8-6.8,15.6-13.7,23.5-20.5c35.4-30.4,73-57.8,115.7-78.9
		c41.8-20.6,86.1-34.3,132.4-42.6c22.5-4,45.1-6.7,68.6-8.7c-7.5-8-14.5-15.5-22.5-24.1c49.4-1.1,97,2.3,144.2,11.3
		c47.3,9.1,92.6,23.7,137.1,43.9c-6.4-13.8-12.3-26.4-18.6-40C677,183.8,755.3,237.8,821,309.9z M782.2,242.3
		c-6.9-6.2-13.3-12.3-20.1-18.1c-46.2-39.1-98.9-68.7-155.9-91.7c-19-7.6-38.3-14.4-58.7-17.9c-0.9-0.1-2-1.2-2.7,0.2
		c-0.5,0.9,0.5,1.5,0.8,2.2c4.5,10.1,9.1,20.2,14.1,31C467.5,115.8,374,101.8,276,117.3c4.2,4.3,7.8,7.9,11.4,11.5
		c3.5,3.6,7,7.2,11,11.3C204.1,151.7,122.5,188.7,48,241.2c40.5-70.8,105-116.3,180.6-150.7c-8.1-6.7-15.7-13.1-23.4-19.4
		c1.5-1.7,3.5-2.1,5.2-2.9c46.3-20,95.3-28.8,146-29.6c38-0.6,75.6,3.4,112.7,10.7c7.4,1.5,14.9,3,23.3,4.6
		c-5.6-9.3-10.7-17.8-16-26.7c1.6,0.1,2.8,0,4,0.3c42.9,8,84.2,20.6,123.2,39.2c42.6,20.3,80.2,46.9,113.2,79.3
		c27.5,26.9,49.6,57.1,64.2,91.9C781.7,239.1,782.8,240.4,782.2,242.3z"/>
	<path class="st1" d="M210.4,68.2c46.3-20,95.3-28.8,146-29.6c38-0.6,75.6,3.4,112.7,10.7c7.4,1.5,14.9,3,23.3,4.6
		c-5.6-9.3-10.7-17.8-16-26.7c1.6,0.1,2.8,0,4,0.3c42.9,8,84.2,20.6,123.2,39.2c42.6,20.3,80.2,46.9,113.2,79.3
		c27.5,26.9,49.6,57.1,64.2,91.9c0.5,1.3,1.7,2.6,1.1,4.5c-6.9-6.2-13.3-12.3-20.1-18.1c-46.2-39.1-98.9-68.7-155.9-91.7
		c-19-7.6-38.3-14.4-58.7-17.9c-0.9-0.1-2-1.2-2.7,0.2c-0.5,0.9,0.5,1.5,0.8,2.2c4.5,10.1,9.1,20.2,14.1,31
		C467.5,115.8,374,101.8,276,117.3c4.2,4.3,7.8,7.9,11.4,11.5c3.5,3.6,7,7.2,11,11.3C204.1,151.7,122.5,188.7,48,241.2
		c40.5-70.8,105-116.3,180.6-150.7c-8.1-6.7-15.7-13.1-23.4-19.4C206.7,69.3,208.7,68.9,210.4,68.2z"/>
</g>
</svg>
