<?xml version="1.0" encoding="utf-8"?>
<!-- Generator: Adobe Illustrator 24.3.0, SVG Export Plug-In . SVG Version: 6.00 Build 0)  -->
<svg version="1.1" id="Layer_1" xmlns="http://www.w3.org/2000/svg" xmlns:xlink="http://www.w3.org/1999/xlink" x="0px" y="0px"
	 viewBox="0 0 481.7 514.3" style="enable-background:new 0 0 481.7 514.3;" xml:space="preserve">
<style type="text/css">
	.st0{fill:#FFFFFF;}
	.st1{fill:#1C305D;}
</style>
<g>
	<path class="st0" d="M90.4,386.3c0,3.2-2.6,5.9-5.9,5.9c-3.2,0-5.9-2.6-5.9-5.9c0-3.2,2.6-5.9,5.9-5.9
		C87.8,380.4,90.4,383,90.4,386.3z M240.6,454.6c-3.2,0-5.9,2.6-5.9,5.9c0,3.2,2.6,5.9,5.9,5.9c3.2,0,5.9-2.6,5.9-5.9
		C246.4,457.2,243.8,454.6,240.6,454.6z M49.7,244.9c-3.2,0-5.9,2.6-5.9,5.9c0,3.2,2.6,5.9,5.9,5.9c3.2,0,5.9-2.6,5.9-5.9
		C55.6,247.6,52.9,244.9,49.7,244.9z M118.4,97.3c3.2,0,5.9-2.6,5.9-5.9c0-3.2-2.6-5.9-5.9-5.9s-5.9,2.6-5.9,5.9
		C112.6,94.6,115.2,97.3,118.4,97.3z M363.3,85.5c-3.2,0-5.9,2.6-5.9,5.9c0,3.2,2.6,5.9,5.9,5.9c3.2,0,5.9-2.6,5.9-5.9
		C369.1,88.2,366.5,85.5,363.3,85.5z M397.1,380.4c-3.2,0-5.9,2.6-5.9,5.9c0,3.2,2.6,5.9,5.9,5.9c3.2,0,5.9-2.6,5.9-5.9
		C403,383,400.4,380.4,397.1,380.4z M479.6,305.5c-2.9,21.3-9.8,60.4-45.6,109c-24.9,33.9-53.8,58.3-88.9,76.7
		c-17.9,9.5-55.2,23-104.1,23.2h-0.3c-48.8-0.2-86.1-13.7-104.1-23.2c-35.1-18.4-64.1-42.8-89-76.7C11.8,365.9,4.9,326.8,2,305.5
		c-1.7-11.1-3.7-37.7,0.1-61.6c4.2-34.5,12.1-51.7,17.7-68.5c4.4-12,18.4-40.7,26.8-53.9c7.1-10.3,20-29.4,25.3-36.1
		c1.4-2.1-0.4-1.1-1.2-1.1c-1.9,0.5-2.9,0.6-4.4,0.5c-1.1,0-3.4-0.4-4.6-0.7c-7-1.5-16.9-9.2-15.7-22.7c-0.2-3,3-28.6,5.5-36.6
		c3.2-11.2,10-16.4,21.9-17.4c6,0,31.1-0.5,42.6,1.3c22.9,2.3,39.6,8.9,49.6,29.1c8,17.7,5.2,45.3-5.7,66.5
		c-3.7,7.2-11.2,20.7-17.7,29.4c-6,8.7-8.5,13.2-13.7,22.9c-5.2,10.2-22.7,48.3-28.6,73.2c-11.4,46.5-5,73.2,16.9,109.6
		c16.2,24.2,35.1,41.6,49.8,49.6c24.1,15.2,57.1,19.4,74.3,19.4c17.2,0,50.2-4.3,74.3-19.4c14.7-8,33.6-25.4,49.8-49.6
		c21.9-36.4,28.3-63.1,16.9-109.6c-6-24.9-23.4-63-28.6-73.2c-5.2-9.7-7.7-14.2-13.7-22.9c-6.5-8.7-14-22.2-17.7-29.4
		c-11-21.2-13.7-48.8-5.7-66.5c10-20.2,26.7-26.8,49.6-29.1c11.4-1.8,36.6-1.3,42.6-1.3c12,1,18.7,6.2,21.9,17.4
		c2.5,8,5.7,33.6,5.5,36.6C437,74.8,427,82.5,420,84c-1.2,0.4-3.5,0.7-4.6,0.7c-1.5,0.1-2.5,0-4.4-0.5c-0.8,0-2.7-1-1.2,1.1
		c5.3,6.7,18.2,25.8,25.3,36.1c8.3,13.2,22.4,42,26.8,53.9c5.6,16.8,13.4,34,17.7,68.5C483.3,267.8,481.3,294.4,479.6,305.5z
		 M465.8,230.7c-16.4-77-49.5-115.8-68.4-142.5c-9-12.9,0.2-20.4,7.5-17.7c6.1,2.3,10.2,2.4,10.2,2.4c10.7-1.4,9.2-8.4,7.2-26.6
		l-2.5-14.9c-2.2-13.2-8.2-12.9-23.9-12.7c-24.9,0.5-29.4,0.7-42.8,3.2c-17.9,4-41.3,21.9-22.9,71.2c11.5,26.4,23.4,35.4,36.4,62.8
		c13.9,30.4,47.8,98.6,24.9,156.9c-26.7,72.2-93.4,106.3-151.2,107.1c-57.8-1-118.5-28.9-149.9-107.1
		c-22.9-58.3,11-126.5,24.9-156.9c12.9-27.4,24.9-36.4,36.4-62.8c18.4-49.3-5-67.2-22.9-71.2c-13.4-2.5-17.9-2.7-42.8-3.2
		c-15.7-0.3-21.7-0.5-23.9,12.7l-2.5,14.9c-2,18.2-3.5,25.2,7.2,26.6c0,0,4.2-0.1,10.2-2.4c7.2-2.7,16.4,4.7,7.5,17.7
		c-18.9,26.7-52,65.5-68.4,142.5C1.6,314.8,30.5,363.1,43,385.9c27.9,46,56.8,69.9,88.7,88.9c43,27.2,107.4,28.9,110.9,28.1
		c15.7-0.2,73.3-4.2,107.5-28.1c31.9-18.9,60.8-42.8,88.7-88.9C451.2,363.1,480.1,314.8,465.8,230.7z M432,244.9
		c-3.2,0-5.9,2.6-5.9,5.9c0,3.2,2.6,5.9,5.9,5.9c3.2,0,5.9-2.6,5.9-5.9C437.9,247.6,435.2,244.9,432,244.9z"/>
	<path class="st1" d="M465.8,230.7c-16.4-77-49.5-115.8-68.4-142.5c-9-12.9,0.2-20.4,7.5-17.7c6.1,2.3,10.2,2.4,10.2,2.4
		c10.7-1.4,9.2-8.4,7.2-26.6l-2.5-14.9c-2.2-13.2-8.2-12.9-23.9-12.7c-24.9,0.5-29.4,0.7-42.8,3.2c-17.9,4-41.3,21.9-22.9,71.2
		c11.5,26.4,23.4,35.4,36.4,62.8c13.9,30.4,47.8,98.6,24.9,156.9c-26.7,72.2-93.4,106.3-151.2,107.1c-57.8-1-118.5-28.9-149.9-107.1
		c-22.9-58.3,11-126.5,24.9-156.9c12.9-27.4,24.9-36.4,36.4-62.8c18.4-49.3-5-67.2-22.9-71.2c-13.4-2.5-17.9-2.7-42.8-3.2
		c-15.7-0.3-21.7-0.5-23.9,12.7l-2.5,14.9c-2,18.2-3.5,25.2,7.2,26.6c0,0,4.2-0.1,10.2-2.4c7.2-2.7,16.4,4.7,7.5,17.7
		c-18.9,26.7-52,65.5-68.4,142.5C1.6,314.8,30.5,363.1,43,385.9c27.9,46,56.8,69.9,88.7,88.9c43,27.2,107.4,28.9,110.9,28.1
		c15.7-0.2,73.3-4.2,107.5-28.1c31.9-18.9,60.8-42.8,88.7-88.9C451.2,363.1,480.1,314.8,465.8,230.7z M363.3,97.3
		c-3.2,0-5.9-2.6-5.9-5.9c0-3.2,2.6-5.9,5.9-5.9c3.2,0,5.9,2.6,5.9,5.9C369.1,94.6,366.5,97.3,363.3,97.3z M118.4,85.5
		c3.2,0,5.9,2.6,5.9,5.9c0,3.2-2.6,5.9-5.9,5.9s-5.9-2.6-5.9-5.9C112.6,88.2,115.2,85.5,118.4,85.5z M49.7,256.7
		c-3.2,0-5.9-2.6-5.9-5.9c0-3.2,2.6-5.9,5.9-5.9c3.2,0,5.9,2.6,5.9,5.9C55.6,254,52.9,256.7,49.7,256.7z M84.6,392.1
		c-3.2,0-5.9-2.6-5.9-5.9c0-3.2,2.6-5.9,5.9-5.9c3.2,0,5.9,2.6,5.9,5.9C90.4,389.5,87.8,392.1,84.6,392.1z M240.6,466.4
		c-3.2,0-5.9-2.6-5.9-5.9c0-3.2,2.6-5.9,5.9-5.9c3.2,0,5.9,2.6,5.9,5.9C246.4,463.7,243.8,466.4,240.6,466.4z M397.1,392.1
		c-3.2,0-5.9-2.6-5.9-5.9c0-3.2,2.6-5.9,5.9-5.9c3.2,0,5.9,2.6,5.9,5.9C403,389.5,400.4,392.1,397.1,392.1z M432,256.7
		c-3.2,0-5.9-2.6-5.9-5.9c0-3.2,2.6-5.9,5.9-5.9c3.2,0,5.9,2.6,5.9,5.9C437.9,254,435.2,256.7,432,256.7z"/>
</g>
</svg>
