<?xml version="1.0" encoding="utf-8"?>
<!-- Generator: Adobe Illustrator 25.0.1, SVG Export Plug-In . SVG Version: 6.00 Build 0)  -->
<svg version="1.1" id="Star_build" xmlns="http://www.w3.org/2000/svg" xmlns:xlink="http://www.w3.org/1999/xlink" x="0px" y="0px"
	 viewBox="0 0 926 866.4" style="enable-background:new 0 0 926 866.4;" xml:space="preserve">
<style type="text/css">
	.st0{fill:#0C2340;}
	.st1{fill:#FFFFFF;}
</style>
<g>
	<path class="st0" d="M926,330.2l-353.8,1.3L458,0L346.4,331.7L0,331.6l281.2,212.7l-105,322.1l288.6-198.9l279.4,194.4l-106-321.6
		L926,330.2z M688.1,754l20,60.6l-52.4-36.4L464.3,645L266.2,781.6l-51.9,35.8l19.5-59.9l71.8-220.2L112.8,391.4l-50.7-38.3l63.5,0
		l237,0.1L439.2,126l20-59.3l20.4,59.2L557.7,353l242.5-0.9l65.8-0.3l-53.1,38.8L615.7,534.5L688.1,754z"/>
	<path class="st1" d="M459.4,132.8l83.2,241.5l257.7-1l-209.7,153l77.2,234.3L464.3,619.1L254.1,764l76.5-234.7L125.7,374.4
		l252.3,0.1L459.4,132.8 M459.1,66.7l-20,59.3l-76.4,227.2l-237-0.1l-63.5,0l50.7,38.3l192.8,145.8l-71.8,220.2l-19.5,59.9
		l51.9-35.8L464.3,645l191.5,133.2l52.4,36.4l-20-60.6l-72.4-219.6l197.1-143.9l53.1-38.8l-65.8,0.2L557.7,353l-78.2-227.1
		L459.1,66.7L459.1,66.7z"/>
	<polygon class="st0" points="800.3,373.4 542.6,374.4 459.4,132.8 378,374.5 125.7,374.4 330.6,529.4 254.1,764 464.3,619.1 
		667.9,760.7 590.6,526.4 	"/>
</g>
</svg>
