<?xml version="1.0" encoding="utf-8"?>
<!-- Generator: Adobe Illustrator 25.0.0, SVG Export Plug-In . SVG Version: 6.00 Build 0)  -->
<svg version="1.1" id="Layer_1" xmlns="http://www.w3.org/2000/svg" xmlns:xlink="http://www.w3.org/1999/xlink" x="0px" y="0px"
	 viewBox="0 0 821.3 484.5" style="enable-background:new 0 0 821.3 484.5;" xml:space="preserve">
<style type="text/css">
	.st0{fill:#FFFFFF;}
	.st1{fill:#024C52;}
	.st2{fill:#BCC3C9;}
</style>
<g>
	<path class="st0" d="M276,197.8c-0.1,0.1-0.2,0.3-0.3,0.4C275.8,198.1,275.9,197.9,276,197.8z M276,197.8c0.3-0.4,0.6-0.8,1-1.2
		C276.6,197,276.3,197.4,276,197.8z M274.5,199.7c0.4-0.5,0.8-1,1.2-1.5C275.3,198.7,274.9,199.2,274.5,199.7z M281.8,191.4
		c-1.1,1.1-2.2,2.2-3.2,3.3C279.6,193.6,280.7,192.5,281.8,191.4z M274.3,200c0.1-0.1,0.1-0.2,0.2-0.3
		C274.4,199.8,274.3,199.9,274.3,200z M281.9,191.3C281.9,191.4,281.9,191.4,281.9,191.3C281.9,191.4,281.9,191.4,281.9,191.3z
		 M277.3,196.2c-0.1,0.1-0.2,0.3-0.3,0.4C277,196.5,277.2,196.4,277.3,196.2z M266.3,253.6c-0.3,0.8-0.6,1.7-1.2,2.8
		C265.7,255.4,266,254.4,266.3,253.6z M807.2,38.3c-1.3,2.1-26.2,44.2-60.4,87.2c3.6,0,7.2,0,10.4,0c8.5,0,14.7,0,14.7,0l30.4-0.1
		l-18.4,24.2c-1.7,2.3-37.2,48.6-89,92.8c2.4,0.8,4.2,1.5,5.2,1.8l20.6,7.2l-14.2,16.7c-1.7,2-41.7,48.7-107.6,94.4
		c-59.1,41-95.5,49.6-115.6,49.6c-7.6,0-12-1.3-13.5-1.8l-2.9-0.9c-10.1,6-20.3,10.7-30.5,14.1c-13.5,4.5-26.9,6.8-39.9,6.8
		c-22.5,0-36.4-6.8-37.9-7.6l-13.7-7l7.5-13.5c4.1-7.7,11.7-26.8,8.2-37.1c-0.6-1.9-1.8-4.1-5.6-5.8c-3.4-1.5-7.9-2.3-13.1-2.3
		c-16.7,0-33.8,7.8-37.8,11.7c-6.3,14.6-27.2,47.2-46,65.7c-33.6,33-68.1,46.2-69.6,46.7l-8.9,3.3l-6.8-6.6
		c-1.5-1.5-9.4-9.7-14.6-26.5c-3.1-10-4.6-20.9-4.5-32.6c-8.8,6-26.6,16-50.6,18.2c-2.7,0.3-5.5,0.4-8.3,0.4
		c-19.7,0-49.1-6.3-77.1-36.6c-8.9-9.6-14.3-25.8-16.6-49.3c-1.5-15.8-1-29.3-1-29.9l0.2-4.4l2.5-3.6c1-1.5,22.9-32.3,61.9-60.7
		c-3.1-4.8-5.2-9.4-6.2-12.5l-4.6-14.5l14.5-4.4c44.5-13.5,70.1-33.3,99.6-56.2c26.8-20.8,57.1-44.3,106.3-66.9
		c42.5-19.5,94.6-42.2,158.7-62.6l72.4-23L464.5,47c64.1-16.4,135.1-32,139.2-32.9L668.2,0l-47.5,37c105.8-17.6,169.6-21,172.7-21.2
		l27.9-1.4L807.2,38.3z M161.2,369.8c-7.8,0.4-17.6,3.6-22.7,8.3c3.5,3.3,10.8,8.1,17.4,11.2l0.8,0.4c0.9-4.4,2-8.9,3.2-13.5
		C160.7,373.5,161.1,371.5,161.2,369.8z M794.2,30.8c0,0-88.6,4.6-230.4,31.6l43.1-33.6c0,0-138.8,30.4-205.2,51.3l35.8-30
		c-59.8,19-109.5,40.1-157,61.9c-101.9,46.8-119.2,96.9-207.8,123.8c1.2,3.8,6.4,13.7,14.1,20c-45.7,29.3-71.7,66.3-71.7,66.3
		s-2.1,51.4,13.6,68.4c23.5,25.4,48,31.8,66.1,31.8c2.4,0,4.7-0.1,6.9-0.3c29.5-2.7,48-19,48-19s-34.4-15.9-26.6-29.4
		c7.5-13,26.9-18.8,39.8-18.8c6,0,10.6,1.3,11.8,3.7c1.3,2.5,3.4,8.2-0.3,21.7c-16.8,62.1,8.8,86.9,8.8,86.9s32.6-12.2,64.4-43.4
		c18.3-18,38.3-50,43.1-61.8c3.4-8.3,28.6-19.9,51.3-19.9c6.8,0,13.5,1,19.2,3.6c31.8,14.2,4.4,63.8,4.4,63.8s11.5,5.9,31,5.9
		c19.6,0,47.3-6,79.6-30.1c0,0.2,0.3,2.3,0.1,4.5c-0.4,4-1.4,6.5-1.4,6.5s2.7,1,8.5,1c14.3,0,47.8-5.9,107-47
		c65-45.1,104.7-91.8,104.7-91.8s-24.9-8.7-31.1-10.3c62.5-47.8,107.9-107.5,107.9-107.5s-6.2,0-14.8,0c-12.9,0-31.2,0-42.3-0.2
		C758.7,90.9,794.2,30.8,794.2,30.8z M277.3,196.2c0.4-0.5,0.8-0.9,1.2-1.4C278.1,195.3,277.7,195.8,277.3,196.2z M278.6,194.7
		c0,0-0.1,0.1-0.1,0.1C278.6,194.8,278.6,194.8,278.6,194.7z M455.6,103.6l27.9-15.5c11.7-6,28.8-15.5,28.8-15.5
		s-65.5,8.1-156.6,39.4c-25.7,8.8-39.3,14.3-39.3,14.3c4.2-3.9,23.3-17.2,28.1-22.1c-67.7,24.2-93.5,42.4-136.1,78.5
		c-38.1,32.2-37.2,38.7-92,60.8c0,0,36.2,19.9,77.6-0.8c7.1-3.6,14.1-9,20.8-14.7c15.4-14.2,12.7-31,32.1-40.6
		c-3.3,5.7-8.4,12.9-9.6,20.7c10-11,28.4-26.2,49.4-34c12.2-4.5,49.8-14.8,49.8-14.8c-24.4,9.2-43,20.8-54.6,32
		c15.7-15.2,44.2-31.1,83.1-40.8c0.1,0,1.8-0.4,2.5-0.6c-69.5,20.1-84.4,55-85.2,58.7c-1.6,8.1,25.1-7.4,45.6-7.6
		c-22.1,5.1-42.4,21.1-53.6,41c-4.7,8.4-7,18.4-18.4,25.1c-3.3,2.3-7.3,4.8-12.7,6.5c-14.7,4.7-24,0.5-27-2.1
		c-1.8-1.5-2.8-3.9-2.8-3.9c6.5,2.7,15.9,2.1,24.9-2.3c6.6-3.2,11.8-8,14.9-12.9c2.6-3.9,2.8-6.8,2.9-7.6c0.2-2.2,0-4.7-1.1-7.5
		c-1.5-3.7-5.2-6.1-9.6-7.3c0.4-0.7,3.3-6.4,11.6-14.3c-10.7,6-18.1,13.8-21.8,17.3c4.6,1.1,8.4,3.7,10.3,7.7
		c3.8,9.7-2.4,18.5-12.1,22.6c-10.6,4.3-21.2,2.4-24.9-5.8c-0.3-0.7-0.9-2.4-1-3.1c-0.6,0.2-1.2,0.5-1.6,0.7
		c-2.3,0.9-9.5,3.1-9.5,3.1c2.8,1,6.6,1.7,9.1,1.5c-0.4,10.6,4.3,28.3,42.4,22.9c-11.8,9.2-37.2,5.7-51.7-4.2
		c1.9,1.8,4.2,3.8,6.8,5.9c43.2,34.1,99.8,13,113.7,6.9c3.4-1.7,6.9-3.2,10.3-4.4c0,0-14.6,10.2-25.8,27.3
		c19.1-19,69.8-46.2,131.6-31.6c0,0-31.4-19.9-85.6-8.7c0,0,77-34.7,166.3-6.2c-57-26.6-111.5-23.1-144.2-16.1h0.2
		c-19.3,5.1-30.9,9.7-30.9,9.7s5-2.9,14.2-7l1.5-0.6c23-13,53.6-26.4,83.3-34.9c21.1-6,62.5-12.2,79-11.3c0,0-41.2-11.9-80.7-6.5
		c0,0,63.4-16.8,122.4-11.5c19.8,1.8,64.7,9.3,64.7,9.3c-62.9-26.7-130-38.1-176.9-36.2c1.4-0.1,2.9-0.3,4.3-0.5
		c-0.4,0-0.8,0.1-1.2,0.1c-1,0-2,0.1-3,0.1c-26.9,3.5-48.3,7.7-48.3,7.7s3.8-1.4,11.1-3.6l-0.2,0.1c17.7-8,90.1-37,219.1-42.5
		c0,0-16-3.8-35.8-6c-20.3-2.3-60.9,0.1-60.9,0.1c30.4-9.9,86.2-16.6,154.2-15.5c0,0-101.4-23.8-230.3,1.2
		C455.2,103.6,455.4,103.6,455.6,103.6z M263.8,258.8c0.1-0.2,0.2-0.3,0.3-0.5C264,258.4,263.9,258.6,263.8,258.8z M262.7,260.5
		c0.2-0.3,0.4-0.6,0.6-0.9c-0.1,0.1-0.1,0.2-0.2,0.3C263,260.1,262.8,260.3,262.7,260.5z M263.8,258.8c-0.1,0.1-0.2,0.3-0.3,0.5
		C263.6,259.2,263.7,259,263.8,258.8z M265.9,251.4c-0.3,0.1-0.6,0.2-0.8,0.3C265.4,251.6,265.7,251.5,265.9,251.4z M264.3,257.9
		c-0.1,0.1-0.1,0.2-0.2,0.3C264.2,258.2,264.3,258,264.3,257.9z M273.3,201.4c0.4-0.5,0.7-0.9,1-1.4
		C273.9,200.4,273.6,200.9,273.3,201.4z M273.1,201.7c-0.4,0.5-0.7,1.1-1,1.6C272.4,202.8,272.8,202.2,273.1,201.7z M264.7,257.4
		c0-0.1,0.1-0.1,0.1-0.2C264.7,257.2,264.7,257.3,264.7,257.4z M265.2,256.5c-0.2,0.2-0.3,0.4-0.4,0.7
		C264.9,257,265,256.7,265.2,256.5z M265,251.8c-1.4,0.5-2.7,0.9-3.9,1.2C262.6,252.7,264,252.2,265,251.8z M264.3,257.9
		c0.2-0.2,0.3-0.4,0.3-0.6C264.5,257.5,264.4,257.7,264.3,257.9z M214.9,251.1c0.1,0.6,1.1,2.1,1.7,2.8c2.1,2.5,5.5,3.9,5.5,3.9
		c-2.4-3.8-3.8-5.9-2.5-9.5C217.5,249.9,216.9,250.2,214.9,251.1z"/>
	<path class="st1" d="M714.8,140.4c43.9-49.5,79.4-109.6,79.4-109.6s-88.6,4.6-230.4,31.6l43.1-33.6c0,0-138.8,30.4-205.2,51.3
		l35.8-30c-59.8,19-109.5,40.1-157,61.9c-101.9,46.8-119.2,96.9-207.8,123.8c1.2,3.8,6.4,13.7,14.1,20
		c-45.7,29.3-71.7,66.3-71.7,66.3s-2.1,51.4,13.6,68.4c26.6,28.8,54.5,33.2,73,31.5c29.5-2.7,48-19,48-19s-34.4-15.9-26.6-29.4
		c11-19,47.8-22.7,51.6-15.1c1.3,2.5,3.4,8.2-0.3,21.7c-16.8,62.1,8.8,86.9,8.8,86.9s32.6-12.2,64.4-43.4c18.3-18,38.3-50,43.1-61.8
		c4.4-10.8,45.9-27.3,70.5-16.3c31.8,14.2,4.4,63.8,4.4,63.8s46.3,23.9,110.6-24.2c0,0.2,0.3,2.3,0.1,4.5c-0.4,4-1.4,6.5-1.4,6.5
		s32.5,11.6,115.5-46c65-45.1,104.7-91.8,104.7-91.8s-24.9-8.7-31.1-10.3c62.5-47.8,107.9-107.5,107.9-107.5
		S733.3,140.7,714.8,140.4z M641.9,252.9c3.3,1.1,16.9,5.2,24.3,9.2c-34.3,43.8-131.5,126.4-180.3,124.8c0.4-8.2-2-15.4-5.2-20.6
		c-22,31.2-79.8,45.3-102.2,37.4c39.6-99.4-83.6-73.7-95.9-46.6c-31.9,70.4-95.8,98.1-95.8,98.1s-16.7-24-2.9-72.3
		c10.2-35.6-12.9-37.1-12.9-37.1c-9.1-1.5-44.3-1.2-58,21.8c-11,18.5,18.4,35.7,18.4,35.7S82.7,433.9,36,383.9
		c-11.5-12.3-11-58.6-11-58.6c29.5-38.4,65.2-60.9,79.9-69.1c-13.8-7.2-17.4-15.1-17.4-15.1c73-24,106.1-73.8,169.6-106.4
		c70-36,122.2-51.6,122.2-51.6l-21.5,21.5c0,0,16.5-5,23.7-7.5c65.4-23.4,174.2-44.8,174.2-44.8l-36.3,28c0,0,56.4-12.5,126.4-19.4
		C683.1,57.2,761,49.8,761,49.8s-24,50.6-68,99.7c23.1,1,48,2.4,48,2.4S708.4,202.4,641.9,252.9z M245.6,240.8
		c8.4,21.8-33.3,35.7-38.1,13.6c1.5-0.6,3.1-1.3,4.4-2.2c2.8,17.2,35.2,4.4,27.9-9.7c-0.9-1.8-2.8-3-4.6-3.9
		c-0.2-0.1-0.4-0.2-0.6-0.3c-0.6-0.2-2.4-1.1-2.6-1.1c0.8-1,2.3-3.2,3.2-4.2C239.8,234.1,243.8,236.8,245.6,240.8z"/>
	<path d="M170,287.4c0,0-20.2,3.5-24.7,4.3c-5.5,1-17.3,1.3-10.9-6.3c0,0,7.4-3,17.3-6.8C155.3,282.4,159.2,285.1,170,287.4z
		 M693,149.5c23.1,1,48,2.4,48,2.4s-32.6,50.5-99.1,101c3.3,1.1,16.9,5.2,24.3,9.2c-34.3,43.8-131.5,126.4-180.3,124.8
		c0.4-8.2-2-15.4-5.2-20.6c-22,31.2-79.8,45.3-102.2,37.4c39.6-99.4-83.6-73.7-95.9-46.6c-31.9,70.4-95.8,98.1-95.8,98.1
		s-16.7-24-2.9-72.3c10.2-35.6-12.9-37.1-12.9-37.1c-9.1-1.5-44.3-1.2-58,21.8c-11,18.5,18.4,35.7,18.4,35.7S82.7,433.9,36,383.9
		c-11.5-12.3-11-58.6-11-58.6c29.5-38.4,65.2-60.9,79.9-69.1c-13.8-7.2-17.4-15.1-17.4-15.1c73-24,106.1-73.8,169.6-106.4
		c70-36,122.2-51.6,122.2-51.6l-21.5,21.5c0,0,16.5-5,23.7-7.5c65.4-23.4,174.2-44.8,174.2-44.8l-36.3,28c0,0,56.4-12.5,126.4-19.4
		C683.1,57.2,761,49.8,761,49.8S737,100.4,693,149.5z M289.2,312.1c-78.2,21.2-118.5-43.5-118.5-43.5c-14.4,2.7-32-0.5-41.4-4.3
		c-12.1,6.5-54.6,19.2-85.3,60c-0.3,14.9-0.9,34,4,45.1c20.4,41.9,65.3,32.3,65.3,32.3s-62.5-36.6,12.6-71.2
		c24-11,87.2-14.3,122.9,1.8c3,1.5,6.6,4.7,6.2,5.4c-5.9,18.4-27.4,69.4-54.9,81.5c-11.9-22.4,31.1-65.9-7.1-72.1
		c0,0,7.9,15.9,1.5,35.3c-2.8,8.5-11.3,31.1-3.4,56.4c0,0,62.2-28.3,88.6-106.8C282.8,324.3,285.1,317.8,289.2,312.1z M462.4,342
		c0,0-13.7-16.3-40.9-24.4c-70.8-21-106.9,7.1-106.9,7.1s23.5-13.9,59.5-3.8c53.3,14.9,47.9,48.9,47.9,48.9S447.6,362.1,462.4,342z
		 M677.9,177.6c0,0-103.6-23.1-180.9-19.8c-15.6,0.7-32.5,2.4-47.8,4.3c-1,0-2,0.1-3,0.1c-26.9,3.5-48.3,7.7-48.3,7.7
		s3.8-1.4,11.1-3.6l-0.2,0.1c17.7-5.2,55.7-14.9,109-19.3c50.4-4.2,107.9-0.2,131.2,0.1c36.5-28.1,53.9-66.7,53.9-66.7
		s-57.8-1.8-124.1,2.9c-68,4.8-113.4,17.3-123.3,20.2l28-15.5c11.7-6,28.8-15.5,28.8-15.5s-65.5,8.1-156.6,39.4
		c-25.7,8.8-39.3,14.3-39.3,14.3c4.2-3.9,23.3-17.2,28.1-22.1c-67.7,24.2-93.5,42.4-136.1,78.5c-38.1,32.2-37.2,38.7-92,60.8
		c0,0,36.2,19.9,77.6-0.8c7.1-3.6,14.1-9,20.8-14.7c15.4-14.2,12.7-31,32.1-40.6c-3.3,5.7-8.4,12.9-9.6,20.7
		c10-11,28.4-26.2,49.4-34c12.2-4.5,49.8-14.8,49.8-14.8c-45.5,17.1-70.6,42.5-68.3,58.3c1,7,13.7,1.3,13.7,1.3
		s-17.7,11.9-25.8,25.9c0.2-2.2,0-4.7-1.1-7.5c-1.5-3.7-5.2-6.1-9.6-7.3c0.4-0.7,3.3-6.4,11.6-14.3c-10.7,6-18.1,13.8-21.8,17.3
		c-0.9,1-2.4,3.2-3.2,4.2c0.2,0,2,0.9,2.6,1.1c0.2,0.1,0.4,0.2,0.6,0.3c1.8,0.9,3.7,2.1,4.6,3.9c7.3,14.1-25.1,26.9-27.9,9.7
		c-1.3,0.9-2.9,1.6-4.4,2.2c-0.6,0.2-1.2,0.5-1.6,0.7c-2.3,0.9-9.5,3.1-9.5,3.1c2.8,1,6.6,1.7,9.1,1.5c-0.4,10.6,4.3,28.3,42.4,22.9
		c-11.8,9.2-37.2,5.7-51.7-4.2c1.9,1.8,4.2,3.8,6.8,5.9c43.2,34.1,99.8,13,113.7,6.9c3.4-1.7,6.9-3.2,10.3-4.4
		c0,0-14.6,10.2-25.8,27.3c-0.2,0.2-0.4,0.4-0.6,0.6c-1.5,2.4-3,4.9-4.4,7.6c16.3-12.1,33.3-21.6,70.5-26.5
		c88.2-11.6,144.9,20.9,149,48.8c0,0,0.3-0.1,0.9-0.3c3.7-1.6,17.7-5.7,40-23.2c23.4-18.3,38.5-33.5,45-44.1
		c-82.8-53.8-182.7-38.3-232.3-25.5h0.2c-19.3,5.1-30.9,9.7-30.9,9.7s5-2.9,14.2-7l12.2-4.9c44.1-17.6,138.6-44.2,247.7-7.8
		c0,0,8.8-5.3,32.9-26.5C671.3,192.5,677.9,177.6,677.9,177.6z M219.6,248.3c-2.1,1.6-2.7,1.9-4.7,2.8c0.1,0.6,1.1,2.1,1.7,2.8
		c2.1,2.5,5.5,3.9,5.5,3.9C219.7,253.9,218.3,251.9,219.6,248.3z M253.2,252.4c-3.1,4.9-8.3,9.7-14.9,12.9c-9,4.4-18.4,5-24.9,2.3
		c0,0,1,2.4,2.8,3.9c3,2.6,12.3,6.8,27,2.1c5.4-1.7,9.4-4.2,12.7-6.5c0,0,3.9-2.5,7.2-7.2c3.5-5,3.9-9,3.9-9
		C260.2,254.2,256.2,253.6,253.2,252.4z"/>
	<path class="st2" d="M257.7,253.4c-1.4,0-3-0.4-4.5-1c2.6-3.9,2.8-6.8,2.9-7.6c8.1-14,25.8-25.9,25.8-25.9s-12.7,5.7-13.7-1.3
		c-2.7-18.8,33.4-51.3,96.8-67.1c0.1,0,1.8-0.4,2.5-0.6c-69.5,20.1-84.4,55-85.2,58.7c-1.6,8.1,25.1-7.4,45.6-7.6
		c-22.1,5.1-42.4,21.1-53.6,41c-4.7,8.4-7,18.4-18.4,25.1c10.2-7.4,11.1-16.2,11.1-16.2S261.9,253.5,257.7,253.4z M497,157.8
		c-16.7,0.7-34.8,2.6-50.9,4.7c46.9-1.9,114,9.5,176.9,36.2c0,0-44.9-7.5-64.7-9.3c-59-5.3-122.4,11.5-122.4,11.5
		c39.5-5.4,80.7,6.5,80.7,6.5c-16.5-0.9-57.9,5.3-79,11.3c-30.4,8.7-61.7,22.5-84.9,35.8c36.5-16.5,139.3-53.3,260-13
		c0,0,8.8-5.3,32.9-26.5c25.7-22.5,32.3-37.4,32.3-37.4S574.3,154.5,497,157.8z M517.8,147.1c50.4-4.2,107.9-0.2,131.2,0.1
		c36.5-28.1,53.9-66.7,53.9-66.7s-57.8-1.8-124.1,2.9c-68.9,4.9-114.6,17.6-123.7,20.3c128.9-25,230.3-1.2,230.3-1.2
		c-68-1.1-123.8,5.6-154.2,15.5c0,0,40.6-2.4,60.9-0.1c19.8,2.2,35.8,6,35.8,6c-129,5.5-201.4,34.5-219.1,42.5
		C426.5,161.2,464.5,151.5,517.8,147.1z M369.3,251.5c32.7-7,87.2-10.5,144.2,16.1c-89.3-28.5-166.3,6.2-166.3,6.2
		c54.2-11.2,85.6,8.7,85.6,8.7c-62.5-14.8-113.6,13.2-132.2,32.2c-1.5,2.4-3,4.9-4.4,7.6c16.3-12.1,33.3-21.6,70.5-26.5
		c88.2-11.6,144.9,20.9,149,48.8c0,0,0.3-0.1,0.9-0.3c3.7-1.6,17.7-5.7,40-23.2c23.4-18.3,38.5-33.5,45-44.1
		C518.8,223.2,418.9,238.7,369.3,251.5z M289.2,312.1c-4.1,5.7-6.4,12.2-9.5,19.9c-26.4,78.5-88.6,106.8-88.6,106.8
		c-7.9-25.3,0.6-47.9,3.4-56.4c6.4-19.4-1.5-35.3-1.5-35.3c38.2,6.2-4.8,49.7,7.1,72.1c27.5-12.1,49-63.1,54.9-81.5
		c0.4-0.7-3.2-3.9-6.2-5.4c-35.7-16.1-98.9-12.8-122.9-1.8c-75.1,34.6-12.6,71.2-12.6,71.2s-44.9,9.6-65.3-32.3
		c-4.9-11.1-4.3-30.2-4-45.1c30.7-40.8,73.2-53.5,85.3-60c9.4,3.8,27,7,41.4,4.3C170.7,268.6,211,333.3,289.2,312.1z M170,287.4
		c-10.8-2.3-14.7-5-18.3-8.8c-9.9,3.8-17.3,6.8-17.3,6.8c-6.4,7.6,5.4,7.3,10.9,6.3C149.8,290.9,170,287.4,170,287.4z M421.5,317.6
		c-70.8-21-106.9,7.1-106.9,7.1s23.5-13.9,59.5-3.8c53.3,14.9,47.9,48.9,47.9,48.9s25.6-7.7,40.4-27.8
		C462.4,342,448.7,325.7,421.5,317.6z"/>
</g>
</svg>
