<?xml version="1.0" encoding="utf-8"?>
<!-- Generator: Adobe Illustrator 25.0.0, SVG Export Plug-In . SVG Version: 6.00 Build 0)  -->
<svg version="1.1" id="Layer_1" xmlns="http://www.w3.org/2000/svg" xmlns:xlink="http://www.w3.org/1999/xlink" x="0px" y="0px"
	 viewBox="0 0 600.4 418.1" style="enable-background:new 0 0 600.4 418.1;" xml:space="preserve">
<style type="text/css">
	.st0{fill-rule:evenodd;clip-rule:evenodd;fill:#FFFFFF;}
	.st1{fill-rule:evenodd;clip-rule:evenodd;fill:#EFAD1F;}
	.st2{fill-rule:evenodd;clip-rule:evenodd;fill:#08342D;}
</style>
<g>
	<path class="st0" d="M557.3,114.6c-17.7-22.2-35-37.3-64-55.7c-22.4-14.3-52.9-27.1-85.9-36.1c-34-9.3-68.5-14.2-99.8-14.2h-12.5
		H295l-0.2,0c-1.2,0-2.3,0.1-3.3,0.1c-1.2,0.1-2.3,0.1-3.3,0.1c-0.5,0-1,0-1.5,0l-0.4,0h-0.4c-39.4,0-83,11.6-100,16.6
		c-27.9,8.2-55.1,20.5-80.8,36.4c-13.9,8.6-40.4,27.2-62.4,55.3c-22.6,29-34.1,59.7-34.1,91.3v2.9c0,33.5,11.3,65.2,33.6,94.4
		c16.6,21.7,39.6,41.8,64.8,56.5c27.9,16.3,57,27.9,89.1,35.5c29.7,7,63.1,10.9,102.2,11.8c2.3,0.1,4.8,0.1,7.2,0.1
		c31.3,0,65.3-5,98.4-14.5c31.2-8.9,60.2-21.3,84-35.9c26.6-16.2,48.7-35,65.8-55.6c11.4-13.8,37.9-50.2,37.9-89.5v-9.3
		C591.6,170.2,573.2,134.6,557.3,114.6z M577.6,214.1c0,31.5-20.6,63.5-34.7,80.6c-16.2,19.6-37.6,37.5-62.3,52.6
		c-46.1,28.2-116.8,49.8-181.9,48.2c-73-1.7-130.3-13.7-184.6-45.4c-40-23.4-91.4-71.5-91.4-138.8v-2.9c0-63.7,53-112,89.8-134.8
		c22.4-13.9,48.5-26.4,77.4-34.9c27.5-8.1,64.8-16,96-16c3.4,0.2,5.9-0.1,9.3-0.2h12.5c62,0,134.8,20.6,178.1,48.2
		c26.4,16.8,42.9,30.5,60.5,52.6c14.1,17.8,31.3,50.8,31.3,81.5V214.1z M529.8,200l0.4,13.3c0,49.3-47.1,87.6-79.5,104.8
		c-41.8,22.2-94.2,35.2-149.1,35.2c-61.9,0-106.3-11.2-155.1-35.3c-32.4-15.9-79.4-56.3-79.4-105.7v-3.9
		c0-50.3,47.2-88.9,78.6-106.7c38.9-21.5,94.1-38.3,146.4-38.3h14.3c45,0,91.2,11.2,127.5,27.6c24.2,11,51.5,29.2,67.5,48.5
		c2.5,3,15.2,18.6,15.9,22.7h-102c-14.2-17.6-23.4-27-47.5-38.2c-22.5-10.5-48.6-15.1-75.9-15.1c-60.6,0-131.6,34.7-131.5,93.2
		c0,64.3,64.9,94.5,129.7,94.5h7.9c23.3,0,51.4-6.9,69.9-16.3c17.9-9,38.6-24.7,46.6-39.5c-5.7-0.3-21,0.1-27.8,0.1l-94.8,0.2
		c-9.7,0.1-24.8,0.3-33.9,0l-0.2-41.1H529.8z"/>
	<path class="st1" d="M546.3,123.3c-17.6-22.1-34.1-35.8-60.5-52.6c-43.3-27.6-116.1-48.2-178.1-48.2h-12.5
		c-3.4,0.1-5.9,0.4-9.3,0.2c-31.2,0-68.5,7.9-96,16c-28.9,8.5-55,21-77.4,34.9c-36.8,22.8-89.8,71.1-89.8,134.8v2.9
		c0,67.3,51.4,115.4,91.4,138.8c54.3,31.7,111.6,43.7,184.6,45.4c65.1,1.6,135.8-20,181.9-48.2c24.7-15.1,46.1-33,62.3-52.6
		c14.1-17.1,34.7-49.1,34.7-80.6v-9.3C577.6,174.1,560.4,141.1,546.3,123.3z M562.5,213.2c0,43.8-39.7,83.5-60.6,100.7
		c-25.3,20.8-67.1,44-107.4,53.7c-49.9,11.9-91.4,16.1-145.8,9.9c-39.9-4.6-93.4-19.7-122.7-38.4c-9-5.8-16.3-10.1-24.5-16
		c-22.5-16.2-42.4-39.3-54.2-66.8c-20.1-46.8-5.5-90.5,19.4-122.1c21.5-27.3,53.2-50.9,93.1-68c37.9-16.2,86.4-28.3,132.9-28.3h15
		c58.9,0,124.6,18.8,167.3,44.4c24.5,14.6,41.6,29,57.6,48.3c13.6,16.4,29.7,46.3,29.9,75.8V213.2z"/>
	<path class="st2" d="M532.6,130.6c-16-19.3-33.1-33.7-57.6-48.3c-42.7-25.6-108.4-44.4-167.3-44.4h-15c-46.5,0-95,12.1-132.9,28.3
		c-39.9,17.1-71.6,40.7-93.1,68c-24.9,31.6-39.5,75.3-19.4,122.1c11.8,27.5,31.7,50.6,54.2,66.8c8.2,5.9,15.5,10.2,24.5,16
		c29.3,18.7,82.8,33.8,122.7,38.4c54.4,6.2,95.9,2,145.8-9.9c40.3-9.7,82.1-32.9,107.4-53.7c20.9-17.2,60.6-56.9,60.6-100.7v-6.8
		C562.3,176.9,546.2,147,532.6,130.6z M450.7,318.1c-41.8,22.2-94.2,35.2-149.1,35.2c-61.9,0-106.3-11.2-155.1-35.3
		c-32.4-15.9-79.4-56.3-79.4-105.7v-3.9c0-50.3,47.2-88.9,78.6-106.7c38.9-21.5,94.1-38.3,146.4-38.3h14.3
		c45,0,91.2,11.2,127.5,27.6c24.2,11,51.5,29.2,67.5,48.5c2.5,3,15.2,18.6,15.9,22.7h-102c-14.2-17.6-23.4-27-47.5-38.2
		c-22.5-10.5-48.6-15.1-75.9-15.1c-60.6,0-131.6,34.7-131.5,93.2c0,64.3,64.9,94.5,129.7,94.5h7.9c23.3,0,51.4-6.9,69.9-16.3
		c17.9-9,38.6-24.7,46.6-39.5c-5.7-0.3-21,0.1-27.8,0.1l-94.8,0.2c-9.7,0.1-24.8,0.3-33.9,0l-0.2-41.1h272l0.4,13.3
		C530.2,262.6,483.1,300.9,450.7,318.1z"/>
</g>
</svg>
