<?xml version="1.0" encoding="utf-8"?>
<!-- Generator: Adobe Illustrator 25.0.0, SVG Export Plug-In . SVG Version: 6.00 Build 0)  -->
<svg version="1.1" id="Layer_1" xmlns="http://www.w3.org/2000/svg" xmlns:xlink="http://www.w3.org/1999/xlink" x="0px" y="0px"
	 viewBox="0 0 960.6 527.7" style="enable-background:new 0 0 960.6 527.7;" xml:space="preserve">
<style type="text/css">
	.st0{fill:#FFFFFF;}
	.st1{fill-rule:evenodd;clip-rule:evenodd;}
	.st2{fill:#2397D0;}
	.st3{fill:#D1D3D5;}
</style>
<g>
	<path class="st0" d="M958.7,192.3c-1.3-1.9-6.3-7.4-21.5-13.9c0.3,0.1,0.5,0.2,0.8,0.3c1.2,0.5,2.4,0.7,3.6,0.7
		c3.5,0,6.9-1.8,8.7-5c2.5-4.3,1.5-9.7-2.4-12.9c-0.4-0.4-5.2-4.1-15.7-8.6c0.5-0.6,1-1.3,1.4-2c2.4-4.5,1.1-10-3-13
		c-0.9-0.6-21.4-14.9-67.7-19.8c-0.3-3.3-0.9-6.9-2.1-10.4c8.7-9.2,23.2-28.6,22-53.3c0-3.1-1.2-6.3-3.3-8.7
		c-3.2-3.7-8.2-5.5-14.8-5.5c-1.2,0-2.5,0.1-3.8,0.2c-10.5-0.7-38.1-3.9-51.6-10.9c-0.4-0.2-0.8-0.4-1.2-0.5
		c-3.2-1.1-80.9-29-163.7-29c-4.5,0-8.9,0.1-13.2,0.2c-0.5,0-1.8,0-3.7,0c-15.9,0-72,0.8-126.6,11.3c-1.8,0.3-45.7,8.6-76.8,18.4
		c-1.8,0.5-23.2,6.1-46.1,6.1c-2,0-4,0-6-0.1c-0.7-0.1-2-0.2-3.7-0.2c-9.4,0-17.4,3.1-22.4,8.8c-3.4,3.8-7.1,10.5-5.9,21.5
		c0.3,2.2,2.9,20.1,23,47.1c-17.5,7.5-51.6,24-97.6,54.5c-39.2,26.1-79.1,57.1-118.5,92.2C97.6,303.5,49,353.9,2.4,409.4
		c-3,3.6-3.2,8.7-0.4,12.4c1.9,2.7,5,4.1,8.1,4.1c1.3,0,2.6-0.2,3.8-0.8c0.5-0.2,51.3-20.3,169-20.3c20.3,0,41.8,0.6,63.7,1.8
		l4.4,0.4c19.9,1.8,90.6,10.2,166.7,41l82,33.3c4.3,1.8,107,43.5,183,45.4l45.6,0.8c0.1,0,0.1,0,0.2,0c2.9,0,5.7-1.3,7.6-3.5
		c2-2.3,2.8-5.3,2.3-8.2c-0.3-1.9-7.2-43.5-18.1-78.5c18.5-8.6,32.5-25.2,40.8-48.7c6.7-18.9,7.6-36,7.7-38.2
		c1-14.9-0.4-26.1-1.6-32.5c15.2-15.6,56.9-62.6,81.4-131.4c0.1,0,0.2,0,0.2,0c13.3,0,49.4,2,98,21c1.2,0.5,2.4,0.7,3.7,0.7
		c3,0,6-1.4,8-3.9C961.2,200.8,961.3,195.9,958.7,192.3z M841.4,176.7c-26.3,78.8-76.1,129.2-85.2,138l-0.1,0.1
		c2.9,8.5,2.6,20.2,2.5,31.7c0.1,1.2,0.2,2.4,0.2,3.6c0,0,0.2,15.3-10.7,44.1c-9.2,24.3-29.7,33.9-38.5,36.7
		c-0.6,0.2-1.3,0.4-1.9,0.6l0.3,0.9c12.5,35.9,20.5,85.1,20.5,85.1l-0.1,0.1c-142.6,3.9-231.2-52.8-337.5-90.1
		c-65.8-22.4-122.8-28.9-139-30.4l-4.6-0.4c0,0,0,0,0,0c-168.4-9.1-237.2,19.2-237.2,19.2c203.2-241.7,369.2-298.5,369.2-298.5
		C352.4,85.8,350,64.9,350,64.9c-2.4-22.1,21.2-19,21.2-19c28.2,1.3,55.7-6.4,55.7-6.4c30.8-9.7,75.8-18.1,75.8-18.1
		c63-12.1,128.5-11.1,128.5-11.1C717.8,7,804.7,38.5,804.7,38.5c18.8,9.8,56.4,12.1,56.4,12.1c9.8-1.1,11.4,2,11.7,3.4l0.5,0.1
		c0.2,3.7-0.1,7.2-0.9,10.5c-3.6,24.5-24,41.3-24,41.3c6,6.1,4.7,21.5,4.7,21.5c50.7,3.7,71.8,18.8,71.8,18.8
		c-27.9-10.7-72.5-11.7-72.5-11.7c-1.3,11-2.2,12.6-2.5,12.8c68.3,3,91.8,22.1,91.8,22.1c-41.6-16.1-93.3-14.4-93.3-14.4
		c-2.7,10.4-3.6,13.5-3.6,13.5c91.9,10.4,105.8,29.7,105.8,29.6C884.9,172.6,841.4,176.7,841.4,176.7z"/>
	<path class="st1" d="M873.3,54.1l-0.5-0.1c-14.6-1.4-33.6,3-48.6,5.1c11.9,7.8,19.1,20.3,22.7,36.5c-11.9-22.8-43.5-39.3-76.8-29
		C746.9,26,686.4,22.7,630.3,15c16.3,15.3,50.8,18.8,49.1,47.9c-26.1-50.8-128.6-54.7-185.2-29C470,65.1,398.6,55.5,354.4,52.8
		c-1.2,9.9,8.2,20.6,16.4,31.5c13.1,17.5,23.2,31.1,49.1,22.7C285.4,179.5,166.3,267.4,91.1,399.2c48.9-4.8,105.2-7.1,156.2-2.5
		c0,0,0,0,0,0c0,0,0,0,0,0C282.9,337,330.2,289,393.5,256.9c-42.4,37.8-78.4,82-94.5,146.1c33,5.6,63.3,14.4,92.3,24.6
		c-0.1,0-0.3-0.1-0.4-0.1c106.3,37.3,194.8,94.1,337.5,90.1l0.1-0.1c-12.8-31.2-34.8-60-51.6-83.1c12.9,0.8,23.9-0.5,33.3-3.7
		c-0.2,0.1-0.4,0.1-0.6,0.2c8.8-2.8,29.3-12.4,38.5-36.7c1-2.5,1.8-5,2.6-7.3c2.1-6.9,3.5-14.2,4.3-21.7
		c-8.2,23-24.7,38.9-50.4,41.6c-76.4,7.9-95.7-87.7-73.1-153.7c-7.6,41.8-6.7,99.5,25.2,117.1c31.1,17.1,83,2.2,88.2-27.7
		c7.8-44.9-52.1-90.6-7.6-127.2c-25.2,47.4,18,83.9,21.3,131.2c0,0,0,0,0,0c0.1-11.5,0.4-23.2-2.5-31.7l0.1-0.1
		c13.8-17.2,29.5-41.8,44.1-68c19.4-34.9,57.4-101.4,6.3-122.2c16.8,15,6.6,56.9-16.4,61.7c25.5-21.7,11.1-69-18.9-74.3
		c13.3-18.2,50.1-17.8,76.8-12.6c9.7-9,21.2-20.7,24.4-35.4c0,0.2-0.1,0.5-0.1,0.7C873.2,61.3,873.5,57.8,873.3,54.1z M768.8,112
		c-14.8,10.4-30.4,20-37.8,37.8c-7.4-21.2-24.4-32.7-44.1-41.6C711.2,99.2,747.5,103.6,768.8,112z M610.7,60.7
		c0.3,0.1,0.4,0.1,0.4,0.1c22.9,2.7,44.1,12.6,55.6,24.7c-20.7-0.7-47.2-6.5-74.3-5c-2.4-3,1.9-6.6,2.5-10.7
		c0.1-0.2,0.1-0.4,0.1-0.6c-9.3-1.6-19-2.7-30.2-2.5C579.2,60.4,595.6,57.3,610.7,60.7z M558.4,335c-72.5-10.7-131.9-41-120.9-131
		c12.9,66.1,57.6,103,114.6,127.2C554,332,559.5,331.4,558.4,335z M601.3,163.7c-39,0.1-89.4,6.7-128.5,11.3
		c27.3-10.8,72.3-16.4,107.1-17.6C586.8,157.1,601.8,151,601.3,163.7z M606.3,144.8c-40-7.4-103.3-2.9-136.1,0
		c39.7-10.4,91.3-13.8,141.1-10.1C611,139.5,606.6,140.1,606.3,144.8z M621.5,124.6c-43-10.3-102.2-15-153.7-8.8
		c-1.9-0.7,0-1.4,1.3-1.3c48.8-10.9,115.7-9,163.7,1.3C629.8,119.5,625.3,121.8,621.5,124.6z M732.3,309.7
		c23.3,47.7-36.9,62.1-73.1,46.6c8.3-13.1,16.2-26.6,21.4-42.8c3.9,8.9,4.1,21.9,1.3,31.5C711.4,354.9,732.2,337.3,732.3,309.7z
		 M772.5,194c-6.5,23.8-14.3,46.2-29,61.7c0.9-12.3,7.9-32.7,3.8-50.4c-14.5-7.9-42.4-5.2-59.2-1.3c-9.3,14.3-18.8,33.9-30.2,47.9
		c-3.3,4-7.1,10.6-11.3,8.8c7.8-17,13.5-45.9,6.3-66.8C682.2,179.1,743.6,178,772.5,194z M767.5,93.1c-4.1-22.3,37.1-21,47.9-8.8
		C800.3,84.5,777.3,83.8,767.5,93.1z"/>
	<path class="st2" d="M601.3,163.7c-39,0.1-89.4,6.7-128.5,11.3c27.3-10.8,72.3-16.4,107.1-17.6C586.8,157.1,601.8,151,601.3,163.7z
		 M552.1,331.2c-57-24.2-101.7-61.1-114.6-127.2c-11,90,48.4,120.3,120.9,131C559.5,331.4,554,332,552.1,331.2z M686.9,108.2
		c19.7,8.9,36.7,20.4,44.1,41.6c7.4-17.8,23-27.4,37.8-37.8C747.5,103.6,711.2,99.2,686.9,108.2z M393.5,256.9
		C330.2,289,282.9,337,247.3,396.7l4.6,0.4c16.2,1.5,73.4,8,139.4,30.5c-29-10.2-59.3-19-92.3-24.6
		C315.1,338.9,351.1,294.7,393.5,256.9z M370.8,84.3c-8.2-10.9-17.6-21.6-16.4-31.5c44.2,2.7,115.6,12.3,139.8-18.9
		c56.6-25.7,159.1-21.8,185.2,29c1.7-29.1-32.8-32.6-49.1-47.9c56.1,7.7,116.6,11,139.8,51.6c33.3-10.3,64.9,6.2,76.8,29
		c-3.6-16.2-10.8-28.7-22.7-36.5c15-2.1,34-6.5,48.6-5.1c-0.3-1.4-1.9-4.5-11.7-3.4c0,0-37.6-2.3-56.4-12.1
		c0,0-86.9-31.5-173.5-28.2c0,0-65.5-1-128.5,11.1c0,0-45,8.4-75.8,18.1c0,0-27.5,7.7-55.7,6.4c0,0-23.6-3.1-21.2,19
		c0,0,2.4,20.9,29.3,52.5c0,0-166,56.8-369.2,298.5c0,0,68.8-28.3,237.2-19.2c-51-4.6-107.3-2.3-156.2,2.5
		C166.3,267.4,285.4,179.5,419.9,107C394,115.4,383.9,101.8,370.8,84.3z M595,69.8c0,0,3.2-8.7,16.1-9c0,0-0.1,0-0.4-0.1
		c-15.1-3.4-31.5-0.3-45.9,6c11.2-0.2,20.9,0.9,30.2,2.5C595,69.4,595,69.6,595,69.8C594.9,69.8,594.9,69.8,595,69.8z M844.8,168.5
		c0,0,0.9-3.1,3.6-13.5c0,0,51.7-1.7,93.3,14.4c0,0-23.5-19.1-91.8-22.1c-0.1,0.1-0.1,0-0.1,0c0.1,0,0.1,0,0.1,0
		c0.3-0.2,1.2-1.8,2.5-12.8c0,0,44.6,1,72.5,11.7c0,0-21.1-15.1-71.8-18.8c0,0,1.3-15.4-4.7-21.5c0,0,20.8-17.1,24.1-42
		c-3.2,14.7-14.7,26.4-24.4,35.4c-26.7-5.2-63.5-5.6-76.8,12.6c30,5.3,44.4,52.6,18.9,74.3c23-4.8,33.2-46.7,16.4-61.7
		c51.1,20.8,13.1,87.3-6.3,122.2c-14.6,26.2-30.3,50.8-44.1,68c9.1-8.8,58.9-59.2,85.2-138c0,0,43.5-4.1,109.2,21.4
		C950.6,198.2,936.7,178.9,844.8,168.5z M737.3,215.3c-44.5,36.6,15.4,82.3,7.6,127.2c-5.2,29.9-57.1,44.8-88.2,27.7
		c-31.9-17.6-32.8-75.3-25.2-117.1c-22.6,66-3.3,161.6,73.1,153.7c25.7-2.7,42.2-18.6,50.4-41.6c-1,10.3-3.2,20.1-6.9,29
		c10-21.7,10.7-44.1,10.7-44.1C757.5,301,711.5,263.9,737.3,215.3z M470.2,144.8c32.8-2.9,96.1-7.4,136.1,0c0.3-4.7,4.7-5.3,5-10.1
		C561.5,131,509.9,134.4,470.2,144.8z M632.8,115.8c-48-10.3-114.9-12.2-163.7-1.3c-1.3-0.1-3.2,0.6-1.3,1.3
		c51.5-6.2,110.7-1.5,153.7,8.8C625.3,121.8,629.8,119.5,632.8,115.8z M707.7,431.5c0.8-0.2,1.7-0.5,2.5-0.8
		c-9.4,3.2-20.4,4.5-33.3,3.7c16.8,23.1,38.8,51.9,51.6,83.1c0,0-8-49.2-20.5-85.1L707.7,431.5z"/>
	<path class="st3" d="M666.7,85.5c-20.7-0.7-47.2-6.5-74.3-5c-2.4-3,1.9-6.6,2.5-10.7c0.1,0,0.1,0,0.1,0s3.2-8.7,16.1-9
		C634,63.5,655.2,73.4,666.7,85.5z M815.4,84.3c-10.8-12.2-52-13.5-47.9,8.8C777.3,83.8,800.3,84.5,815.4,84.3z M681.9,345
		c2.8-9.6,2.6-22.6-1.3-31.5c-5.2,16.2-13.1,29.7-21.4,42.8c36.2,15.5,96.4,1.1,73.1-46.6C732.2,337.3,711.4,354.9,681.9,345z
		 M652.9,193.9c7.2,20.9,1.5,49.8-6.3,66.8c4.2,1.8,8-4.8,11.3-8.8c11.4-14,20.9-33.6,30.2-47.9c16.8-3.9,44.7-6.6,59.2,1.3
		c4.1,17.7-2.9,38.1-3.8,50.4c14.7-15.5,22.5-37.9,29-61.7C743.6,178,682.2,179.1,652.9,193.9z"/>
</g>
</svg>
