<?xml version="1.0" encoding="utf-8"?>
<!-- Generator: Adobe Illustrator 25.0.0, SVG Export Plug-In . SVG Version: 6.00 Build 0)  -->
<svg version="1.1" id="Layer_1" xmlns="http://www.w3.org/2000/svg" xmlns:xlink="http://www.w3.org/1999/xlink" x="0px" y="0px"
	 viewBox="0 0 1048.8 496.8" style="enable-background:new 0 0 1048.8 496.8;" xml:space="preserve">
<style type="text/css">
	.st0{fill:#FFFFFF;}
	.st1{fill:#EF293D;}
	.st2{fill:#0C2E59;}
	.st3{fill:#D3D3D3;}
</style>
<g>
	<path class="st0" d="M1045.9,69.9c-2.4-2.8-5.8-4.3-9.3-4.3c-0.8,0-1.7,0.1-2.5,0.3c-15.2,3.2-29.3,4.7-43.1,4.7
		c-38.2,0-69.4-12.1-105.6-26c-21.8-8.4-46.6-17.9-75.6-25.8c-33.3-9-67.3-14.5-104-16.8c-21.1-1.3-42.4-2-63.2-2
		c-43.8,0-86.8,2.8-131.4,8.7h-0.1c-37.1,5.2-76.8,12.8-121.4,23.1c-39.6,9.2-79.5,19.8-118.1,30c-82.6,21.8-168.1,44.4-261.1,57
		c-6,0.8-10.5,5.9-10.6,12c-0.1,6.1,4.3,11.3,10.3,12.3c35.4,5.8,72.1,8.8,108.9,8.8c41.1,0,84-3.6,131-11
		c41.2-6.5,79.8-14.9,117.2-23c52-11.3,101.1-22,146.1-24.7l9.4-0.4c4-0.1,7.9-0.2,11.7-0.2c1.8,0,3.5,0,5.3,0
		c-5.1,0.7-10.3,1.6-15.5,2.6c-0.1,0-0.1,0-0.2,0c-29.9,6-59.1,14-90,22.5c-60,16.5-122.1,33.5-192,35.4c-6.3,0.2-11.4,5-11.9,11.3
		s3.8,11.9,10,13.1c39.3,7.4,77.3,11,116.2,11c50.7,0,94.5-6.2,133.1-11.7c13.6-1.9,26.5-3.7,39.1-5.2l10.9-1.1
		c14.7-1.5,27.4-2.2,39-2.2c14.9,0,28.7,1.2,41.9,3.8c-14.7,0.7-29.5,2.3-44.6,4.7c-19.6,3.1-37.2,7.2-54.3,11.1
		c-21.4,5-41.7,9.6-63.3,11.8c-5.9,0.6-10.5,5.4-11,11.3c-0.5,6,3.3,11.4,9.1,12.9C673.1,280.8,763,396.3,822.5,472.8
		c5.3,6.9,10.3,13.3,15.2,19.4c2.4,3,5.9,4.6,9.6,4.6c1.6,0,3.2-0.3,4.8-1c12.5-5.2,22.7-12.3,30.5-21.1
		c6.9-7.8,11.8-16.9,14.1-26.4c2.8-11.2,1.9-22.5-2.1-31.3l8-17.1c0.7-1.5,1-3.1,1.1-4.8l0.2-7.2l21.9-10.2c4.8-2.3,7.7-7.4,7-12.7
		l-7.9-62.2l45-18.5c3.2-1.4,5.7-4,6.9-7.2l71.3-195C1049.6,77.9,1048.8,73.2,1045.9,69.9z M12.7,131
		c181.8-24.6,320.4-84.7,489.5-108.7l0,0c0,0,0.1,0,0.1,0l11,58.7C379,88.9,217.9,164.9,12.7,131z M243.1,165.6
		c107.1-2.9,187.3-38.8,275.6-56.4l9.1,50.3C453.5,168.3,367.2,189,243.1,165.6z M1037,78l-71.2,194.6l-0.1,0.3l-53.7,22l9.1,71.5
		l-28.7,13.4l-0.5,14.8l-10.7,23c0,0,0,0,0,0c10.4,12.7,8.4,48-31.5,65.9c-0.6,0.3-1.3,0.6-1.9,0.8h0
		C788.2,409.8,700.2,275.1,459.9,212c0.1,0,0.2,0,0.3,0c-0.1,0-0.2,0-0.3-0.1c68-6.8,121.3-37.2,230.4-25.4
		c-52.2-31.8-100.3-33.7-154.5-27.8l-8.6-51.2c0,0,0,0,0,0l0-0.1c34-6.3,68.8-9.6,107.5-7.1c-35.2-16-72.3-21-111.8-19.6L513.3,21
		c0,0,0,0,0,0l0-0.1c59.2-7.7,122.2-10.9,192.2-6.6C877.2,24.9,916.3,102.9,1037,78L1037,78C1037,78,1037,78,1037,78z M925.7,147
		l48,18l-45,11.3l4.4,57.4l-38.8-48.5l-0.1,0l0,0l-58.1,13.7L872,157l-29.6-39.3l49.6,17.1l28.9-30.4L925.7,147z"/>
	<path class="st1" d="M527.8,159.5c-74.3,8.8-160.6,29.5-284.7,6.1c107.1-2.9,187.3-38.8,275.6-56.4L527.8,159.5z M502.2,22.3
		C333.1,46.3,194.5,106.4,12.7,131C217.9,164.9,379,88.9,513.3,81L502.2,22.3z"/>
	<path class="st2" d="M1037,78c-120.7,25.1-159.8-53-331.5-63.6c-70.1-4.3-133.1-1.1-192.2,6.6l9.6,59.7
		c39.6-1.4,76.8,3.6,112.1,19.7c-38.8-2.5-73.7,0.8-107.8,7.1l8.6,51.2c54.3-5.9,102.4-4,154.7,27.9
		c-109.2-11.9-162.6,18.6-230.6,25.4c240.3,63.1,328.3,197.8,387.9,272.4c41.7-17.7,44-53.9,33.4-66.8l10.7-23l0.5-14.8l28.7-13.4
		l-9.1-71.5l53.7-22L1037,78z M865.6,352.3l-7,7.8l20.6,9.8l-0.7,11.5l-20.1-1.1l-26.6,18.1l26.2-4.7l23.1,1.3l-8.5,14.9l-18.6-1.1
		l16.3,20.2c5.7,7.1,0.2,27-17,34.2c-33.9-44.1-67.2-94.5-132.2-140c17.6-21.1,40.7-7.7,62.8,11.2l24.4,35.5l-7.7-44.6L741,276.4
		c10.8-34.6,87.6-32.6,103.4-10.5c-28.1-3.5-42.9,6.2-52.4,27.7l67.5,4c5.5-21.7,18.1-29.6,33.2-27.8l11,84.9L865.6,352.3z
		 M894.3,185.2l-58.2,13.7L872,157l-29.6-39.3l49.6,17.1l28.9-30.4l4.8,42.6l48,18l-45,11.3l4.4,57.4L894.3,185.2z"/>
	<path class="st3" d="M831.8,398.4l26.6-18.1l20.1,1.1l0.7-11.5l-20.6-9.8l7-7.8l38.1,2.4l-11-84.9c-15.1-1.8-27.7,6.1-33.2,27.8
		l-67.5-4c9.5-21.5,24.3-31.2,52.4-27.7c-15.8-22.1-92.6-24.1-103.4,10.5l59.6,48.9l7.7,44.6l-24.4-35.5
		c-22.1-18.9-45.2-32.3-62.8-11.2c65,45.5,98.3,95.9,132.2,140c17.2-7.2,22.7-27.1,17-34.2L854,408.8l18.6,1.1l8.5-14.9l-23.1-1.3
		L831.8,398.4z"/>
</g>
</svg>
