<?xml version="1.0" encoding="utf-8"?>
<!-- Generator: Adobe Illustrator 25.0.0, SVG Export Plug-In . SVG Version: 6.00 Build 0)  -->
<svg version="1.1" id="Layer_1" xmlns="http://www.w3.org/2000/svg" xmlns:xlink="http://www.w3.org/1999/xlink" x="0px" y="0px"
	 viewBox="0 0 1078.6 530.1" style="enable-background:new 0 0 1078.6 530.1;" xml:space="preserve">
<style type="text/css">
	.st0{fill:#FFFFFF;}
	.st1{fill:#BB9334;}
	.st2{fill:#241773;}
	.st3{fill:#C60C30;}
</style>
<g>
	<path class="st0" d="M1067,323.9L1067,323.9c-4.3-26.1-21.5-64.4-79.1-98.9c-3.9-2.3-8-4.6-12.2-6.8c10.8-3.6,21.9-7.4,21.9-7.4
		L933.7,186c-5.5-2.2-11.2-4.1-17-5.9c4.2-4.3,8.7-8.8,8.7-8.8l-49-6.9c-21.1-3-37.8-3.6-50.6-3.5c-0.1-2.1-0.3-3.9-0.5-5.7
		c0,0-8.2-61.3-8.2-61.3s-19,25.9-20.8,28.4c-4-6.7-8.6-13-13.8-19l-52.8-59.8c0,0,2.1,17.6,3.8,31.6c-17.1-11.9-36-22.6-56.8-31.6
		c-85-36.4-192.5-44-294.9-20.8C296,42.3,172.3,93,69.6,223.9l-59.3,75.6L99.5,264c0.7-0.3,69.6-27.1,125.2-35
		c20.7-2.9,36.6-3.1,23.7,25.3c-10.2,22.4-33.2,55.1-33.5,55.4l-44.7,65l74.5-25.9c35.8-12.5,68-18.6,84.3-19.2
		c5.8,0.1,6.8,3.9,5,8.1c-0.5,1.4-0.8,2.2-4.9,8.4l-46.7,66.7l76.7-27.5c55.6-20,128.8-33.1,155-23.1c2.1,0.8,9,4.5,2.2,14.5
		l-30.1,47.9c0,0,44.5-6.7,50.8-7.7c3.5,43.8,25.4,67.6,28.2,70.4l32.3,33.1l11.3-44.9c8.2-32.3,23.5-49.9,37.2-59.5
		c0,0,2.6,18.4,2.6,18.4l29.9-10.8c25.2-9.1,45.1-20.1,59.4-32.5c19-1.5,65.3-4.3,109.9,0.1c76.8,7.6,128.2-2.6,142.2-5.9
		c18.7-4.4,34.4,3.5,34.6,3.6l22.8,12.4l12.3-23.1c1.4-2.8,8.4-17.2,8.4-38.6C1068.3,334.5,1067.9,329.2,1067,323.9z M1050.7,373.7
		l-5.3,9.9l-9.8-5.4c-0.2-0.1-20.4-10.8-45.2-5c-13.4,3.2-63.2,13.1-138,5.6c-50.8-5-103.7-1-118.2,0.2
		c-9.7,9.4-27.3,21.8-58.7,33.1l-12.8,4.6c0,0-2.5-17.5-3-21c-18,6.3-50.1,25-63.7,78.9l-4.9,19.2l-13.8-14.2
		c-1.1-1.2-24.6-25.8-24.6-72.1c0-1.8,0.1-3.7,0.2-5.5c-5.8,0.9-11.7,1.8-11.7,1.8l-23.9,3.7l12.9-20.5c0.6-0.8,13.1-21.2-0.3-31.5
		c-29-22.3-123-0.7-175.4,18.1l-32.8,11.7l20-28.5c3.3-4.6,12-20.1,10.1-30.3c-0.6-3.1-2.1-5.3-4.9-7.1c-12.3-8-65.3,2.8-107.2,17.4
		l-31.9,11l19.1-27.8c0.2-0.4,23.4-34.1,34.8-57.7c8.3-17.1,10-31.8,4.7-39.2c-5.7-7.9-21.3-10.6-44-7.6
		c-57.7,7.7-128.7,35.9-129.4,36.1l-38.2,15.2l25.4-32.3C180.7,106.4,301.6,56.9,385.4,37.9C485.4,15.2,590.1,22.5,672.7,58
		c36.4,15.6,63,34.4,82.1,52.2L752.5,90l21.3,24.2c11.9,13.5,18.4,27.1,22.4,38.2c1.7-2.4,13.8-18.8,13.8-18.8l3.3,24.8
		c0.4,3.2,0.6,7.1,0.6,11.1c0,2.8-0.1,5.6-0.2,8.3c12.4-1.2,33.4-1.7,63.8,2.6l19.7,2.8c0,0-2.9,3-5.5,5.6
		c13.8,3.3,27.2,7.4,40,12.4l25.8,10.1l-18.8,6.3c15.6,6.1,31,13.3,45.2,21.8c53,31.7,68.7,65.9,72.5,89h0c0.8,4.8,1.1,9.3,1.2,13.6
		C1057.5,360.7,1051.1,373.1,1050.7,373.7z M413,264.9c0,0-27.3,1.4-57.4,4.6c17.5-55.7,39.5-102.5,59.9-120.6
		c21.9-20.9,50.1-25.1,58.5-25.2c0.6,0,1.1,0,1.4,0c-7,11.6-14,24.9-23.5,47.8c0,0,40.9-2.9,68.8,3.7c21.3,5,28,11.7,31.4,21.8
		c2.2,6.7,1.9,15-1.3,21.8c-1.4,3-3,5.7-5,8.4c3.7-1,7.5-2,11.3-2.9c1.1-1.8,2.2-3.7,3.1-5.6c10.5-22.7-6.1-45.4-35.6-49.3
		c28.4-6,58.7-24.8,64.9-38.7c7.6-17.1,12.7-47.2-61.4-54.8c-74.1-7.5-202.6,22.5-258,65.5c0,0,85.7-18.1,173.9-22.3
		c-13.1,4.5-29.5,12.2-38.7,23.4c-15.6,15.4-38.8,47-64.6,137.2c0,0,1.4-0.2,3.8-0.5l-0.5,0.1c0.2,0,0.3,0,0.5-0.1
		c11.1-1.4,44.3-5.4,64-6.4l33.1-1.9c3.6,0,7.3-0.1,11-0.3c0.4-0.3,0.8-0.6,1.2-0.9c0.9-0.6,1.8-1.2,2.6-1.8
		c0.8-0.6,1.6-1.1,2.4-1.6c0.9-0.6,1.8-1.2,2.8-1.8c0.8-0.5,1.6-1,2.4-1.5c0.3-0.2,0.7-0.4,1-0.6c-8,0.9-15.9,1.3-23.4,1.3
		L413,264.9z M498.7,160.6c-5.4,1.6-11.3,2.5-17.6,2.5h-13.3c8.2-19,14.8-30.5,19.4-37.4h0.1c4.7-7.1,7.3-9.2,7.3-9.2l14.9-0.1
		c14.3,1.6,21.1,12.6,12.3,28.1C517.6,151.5,509.4,157.4,498.7,160.6L498.7,160.6z M308.1,128.6c63-30.7,137-38.3,152.2-40.3
		c14.4-1.9,27.7-2.5,38.7-2.6c18.3,0,30.2,1.6,30.2,1.6c30,1.5,46.9,8.2,53.9,19.6c3.4,5.6,3.2,12.6-1.1,21.4
		c-5.7,12-30.8,27.5-58.4,33.5l-18.5,3.9c16-6.5,21.6-12.8,26.3-18.9c8.5-10.9,7.3-19.8,2.7-27.3c-4.4-7.2-15.8-10.8-28.1-10.8
		c0,0-19-0.5-36.4,0.1C428.3,110.2,363.1,115.1,308.1,128.6z M479.7,177.3h-30.4c0,0-16.4,30.1-31.4,77.6l34.5-1.3
		c9,0,39-2.5,51.4-30.1c6.4-14.3,7.4-25.8,2.1-34.3C502.6,183.7,495.4,177.3,479.7,177.3z M495.9,218.5c-6.6,14.4-18.8,21.1-30,23.9
		c0,0,0,0,0,0c-5,1.2-9.8,1.7-14,1.7h-19c0,0,7.6-23.7,19.8-49.6l0,0c1.5-3.2,3.1-6.4,4.7-9.6h21.9
		C497.1,185,506.9,194.9,495.9,218.5z M1024.6,345.8c-16.2-33.9-135.8-57-273.9-73.3c-36.9-4.3-52.5-1.9-50.9,6.7
		c1.5,8.1,22.8,24.1,44.1,32.5c-15.3-14.7-2-18.4-2-18.4c24.2-2,180.8,12.7,260.7,46.9c-21.7,5.1-49.2,8.4-86,8.6
		c-51.2,0.2-96.7-12.8-158.5-5.1l-20.7-16.6c-5.6,14.4-13.3,24.1-13.3,24.1v-0.1c6.8-12.2-0.2-26.7-3.1-33.8
		c-25.4-13.5-67.1-39.5-31.7-47.9c-22-3.3-89.2-9.9-173.3,14.1c0,0,77.8-52,227.4-27.5c-39.6-23.6-125.4-23.1-128.9-23.1
		c30.9-7.7,64.2-7.8,95.6-4.3l118.6,27.9l-33.7-24.4l42.6,3.7l-22.9-18.4c0,0,90.6,6.4,149.5,45.7
		C1033,303.4,1024.6,345.8,1024.6,345.8z M682.1,199.6c-3.5-8.2,1.5-17.4,11.1-20.5c6.1-2,12.6-1.1,17.3,2c-3.5-0.8-7.3-0.6-11,0.5
		c-9.6,3.1-14.6,12.3-11.1,20.4c1.3,3,3.5,5.5,6.3,7.2C689,208.1,684.2,204.6,682.1,199.6z"/>
	<path class="st1" d="M1056.3,328.3L1056.3,328.3c-3.8-23.1-19.4-57.3-72.4-89c-14.2-8.5-29.6-15.7-45.2-21.8l18.8-6.3l-25.8-10.1
		c-12.8-5-26.2-9.1-40-12.4c2.6-2.7,5.5-5.6,5.5-5.6l-19.7-2.8c-30.4-4.3-51.4-3.8-63.8-2.6c0.1-2.7,0.2-5.5,0.2-8.3
		c0-4-0.2-7.9-0.6-11.1l-3.3-24.8c0,0-12,16.4-13.8,18.8c-3.9-11.1-10.5-24.7-22.4-38.2L752.5,90l2.4,20.2
		c-19.2-17.8-45.7-36.6-82.1-52.2c-82.6-35.4-187.4-42.8-287.3-20.1c-83.8,19-204.8,68.5-305.3,196.7l-25.4,32.3l38.2-15.2
		c0.7-0.3,71.7-28.4,129.4-36.1c22.6-3,38.2-0.3,44,7.6c5.4,7.4,3.6,22-4.7,39.2c-11.4,23.5-34.5,57.3-34.8,57.7l-19.1,27.8l31.9-11
		c42-14.6,94.9-25.4,107.2-17.4c2.8,1.9,4.4,4.1,4.9,7.1c2,10.2-6.8,25.7-10.1,30.3l-20,28.5l32.8-11.7
		c52.4-18.8,146.4-40.4,175.4-18.1c13.4,10.3,0.9,30.7,0.3,31.5l-12.9,20.5l23.9-3.7c0,0,5.9-0.9,11.7-1.8c-0.1,1.9-0.2,3.8-0.2,5.5
		c0,46.3,23.4,71,24.6,72.1l13.8,14.2l4.9-19.2c13.6-53.9,45.8-72.6,63.7-78.9c0.5,3.6,3,21,3,21l12.8-4.6
		c31.4-11.3,49-23.8,58.7-33.1c14.4-1.2,67.4-5.3,118.2-0.2c74.8,7.4,124.6-2.4,138-5.6c24.8-5.9,45,4.9,45.2,5l9.8,5.4l5.3-9.9
		c0.3-0.6,6.7-13,6.7-31.8C1057.4,337.7,1057.1,333.1,1056.3,328.3z M1034.9,365c0,0-10.6-7.8-19.6-7.9
		c-12.2-0.1-50.4,12.8-124.3,8.7c-50.7-2.8-95.4-11.6-161.2-1.2c-8.4,9.8-23,21.8-54.1,33l-4-16.4c-18.5,3.1-70.9,19.1-85.9,79.6
		c0,0-20.7-29.6-8.9-75.8l-36.4,7.9c0,0,20.8-29.2,2.9-50.2c-38.5-45.1-166.8-6.7-166.8-6.7c53.7-83.7-116.3-23.4-116.3-23.4
		s25.3-32.7,39.7-70.1c14.3-37.1,4.8-59.2-34.6-58.2c-75.1,1.8-129.3,28.9-129.3,28.9C275.6,33.2,529.6,7.6,673.7,75
		c53,24.8,81,53.2,95.8,75.4l-3.1-27.2c16.7,15.1,21.6,37.4,22.9,52.8c9.7-7.4,13.7-19.3,13.7-19.3c1.8,13.8,0.4,24.1-1.4,30.9
		c13.7-1.4,36.7-1.9,69.6,3.8l-6.7,6c18,2.8,37.4,7.2,55.9,14.3c0,0-12.1-0.3-24.1,3.6c28.9,8.2,58.7,19.6,80.9,35.2
		C1065.6,313.1,1034.9,365,1034.9,365z M520.8,175.2c-28-6.5-68.8-3.7-68.8-3.7c9.4-22.8,16.4-36.2,23.5-47.8c-0.4,0-0.9,0-1.4,0
		c-8.4,0.1-36.6,4.3-58.5,25.2c-20.4,18-42.4,64.8-59.9,120.6c30.1-3.2,57.4-4.6,57.4-4.6l28.6-1.2c7.5,0,15.4-0.4,23.4-1.3
		c22-13.6,49.4-26.5,80.8-35.2c2-2.6,3.7-5.4,5.1-8.4c3.2-6.8,3.5-15.2,1.3-21.8C548.8,186.9,542.1,180.1,520.8,175.2z M503.8,223.4
		c-12.4,27.6-42.4,30.1-51.4,30.1l-34.5,1.3c14.9-47.5,31.4-77.6,31.4-77.6h30.4c15.7,0,22.9,6.4,26.2,11.8
		C511.1,197.6,510.2,209.1,503.8,223.4z M582.9,106.9c3.4,5.6,3.2,12.6-1.1,21.4c-5.7,12-30.8,27.5-58.4,33.5l-18.5,3.9
		c16-6.5,21.6-12.8,26.3-18.9c8.5-10.9,7.3-19.8,2.7-27.3c-4.4-7.2-15.8-10.8-28.1-10.8c0,0-19-0.5-36.4,0.1
		c-41.2,1.5-106.4,6.4-161.4,19.8c63-30.7,137-38.3,152.2-40.3c14.4-1.9,27.7-2.5,38.7-2.6c18.3,0,30.2,1.6,30.2,1.6
		C559.1,88.8,576,95.5,582.9,106.9z"/>
	<path d="M741.4,254.9c0.6,0.4,1.3,0.7,1.9,1.1c0,0,0,0,0,0C742.7,255.7,742.1,255.3,741.4,254.9z M675.7,280.1
		c0.4,11.4,27.1,27.6,45.4,37.3c0,0,0,0,0,0c0,0,0,0,0,0C702.7,307.6,676.1,291.5,675.7,280.1z M502.4,154.1
		c-1.2,2.5-2.4,4.6-3.7,6.4c10.6-3.2,18.8-9,22.9-16c8.8-15.5,2-26.6-12.3-28.1l-14.9,0.1c0,0-2.5,2.1-7.3,9.2
		C504.5,125.9,511.6,134.5,502.4,154.1z M479.4,184.9h-21.9c-1.6,3.2-3.2,6.4-4.7,9.6h7.4c17.7,0,27.5,9.9,16.4,33.6
		c-2.8,6.1-6.6,10.7-10.8,14.3c11.2-2.8,23.3-9.5,30-23.9C506.9,194.9,497.1,185,479.4,184.9z M689.3,269.5
		c-22-3.3-89.2-9.9-173.3,14.1l0,0C600.1,259.6,667.3,266.2,689.3,269.5C689.3,269.5,689.3,269.5,689.3,269.5z M702.1,185.5
		c-6.9,2.5-10.5,9.7-8,16.2c2.5,6.5,10.1,9.8,17,7.4c6.9-2.5,10.5-9.8,8-16.3C716.6,186.2,709,183,702.1,185.5z M1034.9,365
		c0,0-10.6-7.8-19.6-7.9c-12.2-0.1-50.4,12.8-124.3,8.7c-50.7-2.8-95.4-11.6-161.2-1.2c-8.4,9.8-23,21.8-54.1,33l-4-16.4
		c-18.5,3.1-70.9,19.1-85.9,79.6c0,0-20.7-29.6-8.9-75.8l-36.4,7.9c0,0,20.8-29.2,2.9-50.2c-38.5-45.1-166.8-6.7-166.8-6.7
		c53.7-83.7-116.3-23.4-116.3-23.4s25.3-32.7,39.7-70.1c14.3-37.1,4.8-59.2-34.6-58.2c-75.1,1.8-129.3,28.9-129.3,28.9
		C275.6,33.2,529.6,7.6,673.7,75c53,24.8,81,53.2,95.8,75.4l-3.1-27.2c16.7,15.1,21.6,37.4,22.9,52.8c9.7-7.4,13.7-19.3,13.7-19.3
		c1.8,13.8,0.4,24.1-1.4,30.9c13.7-1.4,36.7-1.9,69.6,3.8l-6.7,6c18,2.8,37.4,7.2,55.9,14.3c0,0-12.1-0.3-24.1,3.6
		c28.9,8.2,58.7,19.6,80.9,35.2C1065.6,313.1,1034.9,365,1034.9,365z M964.1,263.1c-58.9-39.3-149.5-45.7-149.5-45.7l22.9,18.4
		l-42.6-3.7l33.7,24.4l-118.6-27.9c-31.4-3.5-64.7-3.4-95.6,4.3c-0.1,0-0.1,0-0.1,0c30.8-7.7,64.1-7.8,95.4-4.4
		c-12.6-3.5-29.7-7.6-49.8-10.6c-30.8-3.7-60.1-2-87.2,3c30.4-31.6,85.9-27.5,85.9-27.5c-37-24.9-85.2-16.9-85.2-16.9
		c54.1-28,114.1-18.5,114.1-18.5c-18.9-24.9-63.5-30.4-63.5-30.4c88.5-3.6,119.4,42.9,119.4,42.9c-22-9.6-37.8-8.2-37.8-8.2
		s21.3,3.5,35.6,30.4c15.3,28.5,28.2,27.7,28.2,27.7s24.2-91.8-135.8-139.6c-46-13.7-92.5-19.8-137.8-19.6
		C380.1,62,272.8,104.7,204.7,169.9c0,0,95.3-30,124-0.5c33.3,34.3-17.1,114.9-17.1,114.9s23.1-3.7,30.8-4.8
		c45.8-6.7,110.2-9,110.2-9c-18.8,12.9-31.2,25-38.3,35c0,0,192.7-39,159.3,58l49.8-13.7c-3.5,6.1-9.1,13.1-16.6,21.6
		c-23.5,26.1-21.9,51-21.9,51s6.9-27.2,51.4-45.8c40.6-17,49.9-45.8,49.9-45.8s13.5,20,2.5,48c0,0,18.7-4.7,35.4-27.6v0.1
		c0,0,7.7-9.8,13.3-24.1l20.7,16.6c61.8-7.6,107.4,5.4,158.5,5.1c36.8-0.2,64.3-3.5,86-8.6c-79.9-34.2-236.5-48.9-260.7-46.9
		c0,0-13.3,3.7,2,18.4c-21.3-8.4-42.6-24.4-44.1-32.5c-1.5-8.6,14-11,50.9-6.7c138.2,16.3,257.7,39.4,273.9,73.3
		C1024.6,345.8,1033,303.4,964.1,263.1z M720.2,186.2c-4.6-10.9-18.4-16.4-30.7-12.4c-12.4,4-18.7,16.1-14.1,27
		c4.6,10.9,18.3,16.4,30.7,12.4C718.5,209.1,724.8,197,720.2,186.2z"/>
	<path class="st2" d="M481.1,163.1h-13.3c8.2-19,14.8-30.5,19.4-37.4h0.1c17.3,0.1,24.3,8.8,15.2,28.4c-1.2,2.5-2.4,4.6-3.7,6.4
		l-0.1,0C493.3,162.2,487.4,163.1,481.1,163.1z M452.8,194.5L452.8,194.5c-12.2,25.9-19.8,49.6-19.8,49.6h19c4.1,0,8.9-0.5,14-1.7
		c0,0,0,0,0,0c0,0,0,0,0,0c0,0,0,0-0.1,0c4.2-3.6,8-8.2,10.8-14.3c11-23.6,1.2-33.6-16.4-33.6H452.8z M633.7,80.8
		c-46-13.7-92.5-19.8-137.8-19.6C380.1,62,272.8,104.7,204.7,169.9c0,0,95.3-30,124-0.5c33.3,34.3-17.1,114.9-17.1,114.9
		s23.1-3.7,30.8-4.8c0.6-0.1,1.2-0.2,1.8-0.3c-0.1,0-0.1,0-0.2,0l0.5-0.1c-2.4,0.3-3.8,0.5-3.8,0.5c25.8-90.1,49-121.7,64.6-137.2
		c9.2-11.3,25.6-18.9,38.7-23.4c-88.2,4.2-173.9,22.3-173.9,22.3c55.4-43,183.9-73.1,258-65.5c74.1,7.5,69,37.6,61.4,54.8
		c-6.1,13.8-36.4,32.6-64.9,38.7c29.5,3.9,46.1,26.6,35.6,49.3c-0.9,1.9-1.9,3.8-3.1,5.6c-3.9,0.9-7.6,1.9-11.4,2.9
		c-37.6,10.5-62.6,23.7-80.8,35.2c-0.3,0.2-0.7,0.4-1,0.6c-0.8,0.5-1.6,1-2.4,1.5c-1,0.6-1.9,1.2-2.8,1.8c-0.8,0.5-1.6,1-2.4,1.6
		c-0.9,0.6-1.7,1.2-2.6,1.8c-0.4,0.3-0.8,0.6-1.2,0.9c-18.8,12.9-31.2,25-38.3,35c0,0,192.7-39,159.3,58l49.8-13.7
		c-3.5,6.1-9.1,13.1-16.6,21.6c-23.5,26.1-21.9,51-21.9,51s6.9-27.2,51.4-45.8c40.6-17,49.9-45.8,49.9-45.8s13.5,20,2.5,48
		c0,0,18.7-4.7,35.4-27.6c6.8-12.2-0.1-26.7-3.1-33.8c-25.4-13.5-67.1-39.5-31.7-47.9c-22-3.3-89.2-9.9-173.3,14.1
		c0,0,77.8-52,227.4-27.5c-40.4-24.1-129-23.1-129-23.1c30.8-7.7,64.1-7.8,95.4-4.4c-12.6-3.5-29.7-7.6-49.8-10.6
		c-30.8-3.7-60.1-2-87.2,3c30.4-31.6,85.9-27.5,85.9-27.5c-37-24.9-85.2-16.9-85.2-16.9c54.1-28,114.1-18.5,114.1-18.5
		c-18.9-24.9-63.5-30.4-63.5-30.4c88.5-3.6,119.4,42.9,119.4,42.9c-22-9.6-37.8-8.2-37.8-8.2s21.3,3.5,35.6,30.4
		c15.3,28.5,28.2,27.7,28.2,27.7S793.7,128.5,633.7,80.8z"/>
	<path class="st3" d="M720.2,186.2c-4.6-10.9-18.4-16.4-30.7-12.4c-12.4,4-18.7,16.1-14.1,27c4.6,10.9,18.3,16.4,30.7,12.4
		C718.5,209.1,724.8,197,720.2,186.2z M682.1,199.6c-3.5-8.2,1.5-17.4,11.1-20.5c6.1-2,12.6-1.1,17.3,2c-3.5-0.8-7.3-0.6-11,0.5
		c-9.6,3.1-14.6,12.3-11.1,20.4c1.3,3,3.5,5.5,6.3,7.2C689,208.1,684.2,204.6,682.1,199.6z M711.1,209c-6.9,2.4-14.5-0.8-17-7.4
		c-2.5-6.5,1.1-13.8,8-16.2s14.5,0.8,17,7.3C721.6,199.3,718,206.6,711.1,209z"/>
</g>
</svg>
