<?xml version="1.0" encoding="utf-8"?>
<!-- Generator: Adobe Illustrator 24.3.0, SVG Export Plug-In . SVG Version: 6.00 Build 0)  -->
<svg version="1.1" id="Layer_1" xmlns="http://www.w3.org/2000/svg" xmlns:xlink="http://www.w3.org/1999/xlink" x="0px" y="0px"
	 viewBox="0 0 700.6 855" style="enable-background:new 0 0 700.6 855;" xml:space="preserve">
<style type="text/css">
	.st0{fill:#FFFFFF;}
	.st1{fill:#D5B992;}
</style>
<g>
	<path d="M627.4,338.6c-62.9-36.6-124.8-28.1-171.8-7.2c-2.1-15.4-6.1-32.4-12.8-52.2c-10-29.5-20.9-57.7-30.5-82.6
		c-12.6-32.7-22.3-60.7-27.6-79.4L350.6,0L315,117.4c-5.4,18.7-14.8,46.8-27.4,79.5c-9.6,24.9-20.4,53.1-30.3,82.6
		c-6.7,19.9-10.7,36.8-12.7,52.3c-47-20.8-108.9-29.2-171.8,7.5C21.5,369.3-6,421.5,1.1,475.5c6.5,49.1,40.1,87.8,87.7,100.8
		l35.4,9.7l8.7-35.7c1.3-4.8,14-49.5,54.3-48.7c27.9,0.6,51.1,25.3,62.7,41.2c-3.8,11.3-5.8,24.8-3.8,39.4l-15.8-21l-28.5,21.2
		c-25.7,19.1-63,66.4-39.9,122.2c10.1,24.3,31.7,40.9,60.8,46.7c17.8,3.6,38.1,2.7,56.9-1.4c7.4,23.7,20.9,52.4,45.4,78.1l25.8,27
		l25.8-27.1c24.5-25.7,37.8-54.4,45.2-78.2c18.8,4.1,39,4.8,56.9,1.2c29.2-5.8,50.7-22.5,60.7-46.8c22.9-55.9-14.5-103-40.2-122.1
		l-28.6-21.2l-15.7,21.1c1.9-14.6-0.2-28.1-3.9-39.4c11.5-16,34.7-40.7,62.6-41.4c40.3-0.9,53.2,43.8,54.5,48.9l8.7,35.7l35.4-10.1
		c47.6-13.2,81.1-51.9,87.4-101C706.5,420.7,678.9,368.5,627.4,338.6z M675.5,471.6c-5.1,39.3-31.8,70.2-69.8,80.8l-11.3,3.1
		l-2.8-11.4c-0.7-2.8-17.8-68.5-78.5-67.1c-48.8,1.1-80.7,48.7-89.3,63.3c4.2,7.6,7.6,18.1,7.6,30.2c0,12.9-4.4,27.5-15.4,42.1
		c4.4,6,11.8,13.4,20.3,14.1c12.2,1,24.4-11.9,32.6-22.8l6.8-9.1l9.1,6.8c18.7,13.9,49.5,51.2,32.2,93.4c-6.9,16.8-21.8,28-43,32.3
		c-22,4.4-49.8,0.5-69.5-8.4c-3.7,22.3-14.5,59.9-45.4,92.4l-8.3,8.6l-8.3-8.6c-31-32.4-41.8-70.1-45.6-92.3
		c-19.7,9-47.5,12.9-69.5,8.6c-21.3-4.2-36.2-15.3-43.1-32.2c-17.4-42.1,13.3-79.6,32-93.5l9.1-6.8l6.8,9.1
		c8.2,10.9,20.5,23.7,32.6,22.7c8.5-0.7,15.9-8.1,20.3-14.1c-11.2-14.7-15.6-29.3-15.6-42.2c0-12,3.4-22.5,7.5-30.1
		c-8.6-14.6-40.6-62.1-89.4-63.1c-60.7-1.2-77.7,64.5-78.4,67.3l-2.8,11.4l-11.3-3.1c-38-10.4-64.9-41.3-70-80.6
		c-5.8-44.1,17.2-87.1,60-112.1c77-45,147.7-11.4,183.5,13.2c-0.7-6.1-1.5-12.1-1.5-18.3c0-19.4,3.8-40.1,13.1-68
		c9.7-29,20.5-56.9,29.9-81.6c13-33.7,24.2-62.8,28.5-83.2L349.9,70l11.2,52.4c4.4,20.4,15.6,49.5,28.7,83.2
		c9.5,24.6,20.3,52.5,30.1,81.4c9.4,27.8,13.2,48.9,13.2,68.5c0,6-0.7,11.9-1.4,17.8c35.8-24.7,106.4-58.6,183.6-13.7
		C658.1,384.5,681.2,427.4,675.5,471.6z M609.5,369.4c-103.8-60.4-194.3,31.6-194.3,31.6c8.4-34.4,10.8-60.2-6.2-110.4
		c-23-68.2-51.2-129.1-59.1-165.9c-7.8,36.8-35.9,97.8-58.8,166c-16.9,50.3-14.4,76-5.9,110.4c0,0-90.7-91.8-194.4-31.2
		c-81.7,47.8-67.1,151.4,7.3,171.8c0,0,18.8-77.4,89.7-76c61.6,1.2,100.1,68.2,102.4,75c0,0-25.9,33.8,8.8,71.2
		c0,0-30.4,59.8-76-1.1c0,0-46.9,34.9-28.3,80c17,41,92.1,28,111.4,8.6c0,0,0.7,57.9,44.5,103.7l0.2,0
		c43.7-45.9,44.2-103.8,44.2-103.8c19.3,19.3,94.5,32.2,111.3-8.9c18.5-45.1-28.4-79.9-28.4-79.9c-45.5,61-76,1.3-76,1.3
		c34.7-37.5,8.6-71.2,8.6-71.2c2.3-6.8,40.7-73.9,102.2-75.2c70.9-1.6,89.8,75.8,89.8,75.8C677,520.7,691.3,417,609.5,369.4z
		 M613.9,519.1c0,0-23-70.9-101.8-70.9c-58,0-115.8,62.3-118.2,93.1c0,0,26.6,37.4-10.2,68.8c0,0,40,83.7,95.1,23.2
		c0,0,42.6,53-12.9,66c-44,10.3-87.5-34.3-87.5-34.3s4.9,70.6-27.6,109.3l-0.2-0.3v0.3c-32.6-38.6-27.9-109.2-27.9-109.2
		s-43.4,44.7-87.5,34.5c-55.5-12.9-13.1-66-13.1-66c55.2,60.3,95.1-23.4,95.1-23.4c-36.9-31.3-10.4-68.8-10.4-68.8
		c-2.4-30.8-60.5-92.9-118.4-92.8c-78.8,0.2-101.6,71.1-101.6,71.1c-78.1-56.8-7.7-153,76.8-153.1c84.5-0.1,154,95.7,154,95.7
		c-3-15.7-39.3-86.3-6.8-170.8c32.5-84.5,39.1-118.5,39.1-118.5v0.9l0.1-0.9c0,0,6.7,34,39.4,118.4c32.7,84.4-3.4,155.1-6.4,170.8
		c0,0,69.3-96,153.8-96.1C621.3,366.1,691.9,462.1,613.9,519.1z"/>
	<path class="st0" d="M615.2,359.6c-77.2-44.9-147.8-11-183.6,13.7c0.7-5.9,1.4-11.8,1.4-17.8c0-19.6-3.8-40.7-13.2-68.5
		c-9.8-28.9-20.6-56.9-30.1-81.4c-13-33.7-24.3-62.8-28.7-83.2L349.9,70l-11.1,52.4c-4.3,20.4-15.5,49.5-28.5,83.2
		c-9.5,24.7-20.2,52.6-29.9,81.6c-9.3,27.8-13.1,48.6-13.1,68c0,6.2,0.7,12.2,1.5,18.3c-35.9-24.6-106.5-58.2-183.5-13.2
		c-42.8,25-65.8,68-60,112.1c5.2,39.3,32,70.2,70,80.6l11.3,3.1l2.8-11.4c0.7-2.8,17.6-68.5,78.4-67.3c48.8,1,80.8,48.5,89.4,63.1
		c-4.1,7.6-7.5,18.1-7.5,30.1c0,12.9,4.4,27.5,15.6,42.2c-4.4,6-11.8,13.4-20.3,14.1c-12.2,1-24.4-11.8-32.6-22.7l-6.8-9.1l-9.1,6.8
		c-18.7,13.9-49.4,51.4-32,93.5c6.9,16.8,21.9,27.9,43.1,32.2c22,4.4,49.8,0.4,69.5-8.6c3.8,22.2,14.6,59.9,45.6,92.3l8.3,8.6
		l8.3-8.6c30.9-32.5,41.7-70.2,45.4-92.4c19.8,9,47.5,12.8,69.5,8.4c21.3-4.3,36.1-15.5,43-32.3c17.3-42.2-13.5-79.6-32.2-93.4
		l-9.1-6.8l-6.8,9.1c-8.2,10.9-20.5,23.8-32.6,22.8c-8.5-0.7-15.9-8.1-20.3-14.1c11.1-14.6,15.4-29.2,15.4-42.1
		c0-12.1-3.4-22.6-7.6-30.2c8.6-14.6,40.4-62.2,89.3-63.3c60.7-1.4,77.8,64.3,78.5,67.1l2.8,11.4l11.3-3.1
		c38-10.5,64.8-41.5,69.8-80.8C681.2,427.4,658.1,384.5,615.2,359.6z M602.6,541.3c0,0-18.9-77.3-89.8-75.8
		c-61.5,1.4-100,68.5-102.2,75.2c0,0,26,33.8-8.6,71.2c0,0,30.5,59.7,76-1.3c0,0,46.9,34.8,28.4,79.9c-16.8,41.1-92,28.2-111.3,8.9
		c0,0-0.5,57.9-44.2,103.8l-0.2,0c-43.8-45.8-44.5-103.7-44.5-103.7c-19.3,19.3-94.4,32.4-111.4-8.6c-18.6-45,28.3-80,28.3-80
		c45.6,60.9,76,1.1,76,1.1c-34.7-37.3-8.8-71.2-8.8-71.2c-2.3-6.8-40.8-73.8-102.4-75c-70.9-1.4-89.7,76-89.7,76
		c-74.4-20.4-89-124-7.3-171.8c103.7-60.6,194.4,31.2,194.4,31.2c-8.5-34.4-11-60.1,5.9-110.4c22.9-68.2,50.9-129.2,58.8-166
		c7.9,36.8,36.1,97.7,59.1,165.9c17,50.3,14.6,76,6.2,110.4c0,0,90.5-92,194.3-31.6C691.3,417,677,520.7,602.6,541.3z"/>
	<path class="st1" d="M536.8,366.2c-84.5,0.1-153.8,96.1-153.8,96.1c3-15.7,39.1-86.4,6.4-170.8C356.7,207,350,173,350,173l-0.1,0.9
		V173c0,0-6.6,34-39.1,118.5c-32.5,84.5,3.8,155.1,6.8,170.8c0,0-69.5-95.8-154-95.7C79.1,366.8,8.8,463,86.8,519.7
		c0,0,22.9-71,101.6-71.1c57.9-0.1,115.9,62,118.4,92.8c0,0-26.5,37.5,10.4,68.8c0,0-39.8,83.8-95.1,23.4c0,0-42.5,53.1,13.1,66
		c44,10.1,87.5-34.5,87.5-34.5s-4.7,70.6,27.9,109.2v-0.3l0.2,0.3c32.6-38.7,27.6-109.3,27.6-109.3s43.5,44.6,87.5,34.3
		c55.5-13,12.9-66,12.9-66c-55.1,60.5-95.1-23.2-95.1-23.2c36.8-31.4,10.2-68.8,10.2-68.8c2.4-30.8,60.2-93.1,118.2-93.1
		c78.7,0,101.8,70.9,101.8,70.9C691.9,462.1,621.3,366.1,536.8,366.2"/>
</g>
</svg>
