<?xml version="1.0" encoding="utf-8"?>
<!-- Generator: Adobe Illustrator 25.0.0, SVG Export Plug-In . SVG Version: 6.00 Build 0)  -->
<svg version="1.1" id="Layer_1" xmlns="http://www.w3.org/2000/svg" xmlns:xlink="http://www.w3.org/1999/xlink" x="0px" y="0px"
	 viewBox="0 0 840 381.6" style="enable-background:new 0 0 840 381.6;" xml:space="preserve">
<style type="text/css">
	.st0{fill:#FFFFFF;}
	.st1{fill:#002244;}
	.st2{fill:#69BE28;}
	.st3{fill:#A5ACAF;}
</style>
<g>
	<path class="st0" d="M518.8,231c71.6,0,174.7,24.5,232.2,58.2c-46.3-17.5-106.6-37.8-211.9-44.1c-42.1-2.1-68.8,4.2-81.4,23.8H436
		C453.5,237.3,484.4,231,518.8,231z M524.3,188.3c53.4,0,66-23.9,70.9-35.1c-8.3,1.4-16.9,1.4-25.2,0
		c-13.3,19.6-31.6,25.9-82.8,22.4c-58.9-4.2-43.5-29.5-37.2-41.4c2.1-3.5,4.9-9.8,8.4-15.4c-45.5-2.8-78.5,32.3-78.6,32.3
		c33.7,33.7,56.1,37.2,87,37.2H524.3z M841.5,196c0,24.5-9.1,51.9-26.6,80.7c-38.6,59.6-73.7,80.7-75.1,81.4
		c-12.5,9.1-27.3,14.7-42.8,16.1c10.9-12.7,19.4-27.1,25.2-42.8c6.3-21.7-16.8-24.6-16.8-24.6c-36.4-6.2-73.2-9.3-110.1-9.1H89.4
		c-31.6,0-64.5,0-80.7-26C-8.8,245.8,1,219.8,29.1,168.6c2.1-4.2,89.1-167,89.1-167c5.4,6.5,11.2,12.6,17.5,18.2
		c9.1,7,18.2,10.5,42.1,10.5c42.8,0,319.9-0.7,322.7-0.7c56.1,0,112.9,5.6,149.4,46.3c19.6,2.1,80.7,9.8,131.9,34.4
		c29.4,14,49.1,35.1,56.8,61.1C840.7,179.4,841.7,187.7,841.5,196z M338.5,220.5c0,0-16.8-14-35.8-28.7
		c-18.2-14-27.3-16.1-61.7-16.1H41.7c-30.1,54.6-32.2,70.8-21,88.3c11.2,17.6,33.7,19,68.7,19h234.3
		C309,265.4,317.4,257,338.5,220.5z M775.5,123.7C717.3,95.6,643,90,643,90c-32.3-40-87-45.6-142.4-45.6c0,0-279.2,0.7-322.7,0.7
		c-50.5,0-55.4-20.3-55.4-20.3l-68.1,127h176.1c55.4,0,58.3-5.6,94.7-33c39.3-28.8,70.2-38.6,107.3-38.6c36.5,0,61,7.7,102.4,26
		c40.7,18.2,62.4,27.4,87,16.8c0,0-18.9,25.9-77.2,1.4c-58.2-23.8-73.7-29.5-109.4-29.5c-34.4,0-74.4,16.8-124.2,66.7l59.6,47.7
		c0,0-14,21.7-23.1,35.1c-9.1,13.3-8.4,22.4-3.5,29.5c4.9,6.3,11.2,9.1,33,9.1h218.2c37.9,0.1,75.6,3.4,113,9.8
		c56.1,11.2,19.6,58.2,19.6,58.2s37.9-24.5,74.4-82.8C843.6,203.7,833.1,151.1,775.5,123.7z M673.2,133.6
		c-25.9-6.4-3.5-21.1-3.5-21.1c-25.2,5.4-46,23-55.4,47c-0.7,1.4-1.4,2.1-2.1,3.5c-21.1,42.1-40,40-75.8,40h-61.1
		c-49.8,0-73,24.6-96.8,66.7h28c25.9-38.6,44.9-48.4,96.1-51.2c115.8,0,207.7,32.9,256.8,58.2C828.9,160.2,725.8,141.2,673.2,133.6z
		"/>
	<path class="st1" d="M775.5,123.7C717.3,95.6,643,90,643,90c-32.3-40-87-45.6-142.4-45.6c0,0-279.2,0.7-322.7,0.7
		c-50.5,0-55.4-20.3-55.4-20.3l-68.1,127h176.1c55.4,0,58.3-5.6,94.7-33c39.3-28.8,70.2-38.6,107.3-38.6c36.5,0,61,7.7,102.4,26
		c40.7,18.2,62.4,27.4,87,16.8c0,0-18.9,25.9-77.2,1.4c-58.2-23.8-73.7-29.5-109.4-29.5c-34.4,0-74.4,16.8-124.2,66.7l59.6,47.7
		c0,0-14,21.7-23.1,35.1c-9.1,13.3-8.4,22.4-3.5,29.5c4.9,6.3,11.2,9.1,33,9.1h218.2c37.9,0.1,75.6,3.4,113,9.8
		c56.1,11.2,19.6,58.2,19.6,58.2s37.9-24.5,74.4-82.8C843.6,203.7,833.1,151.1,775.5,123.7z M487.3,125.2c5.6,2.1,11.9,4.2,17.5,6.3
		c-0.8,1.2-1.2,2.7-1.4,4.2c-3.5,8.4,2.8,16.8,14.7,18.2c8.2,1.3,16.6-1.6,22.4-7.7c1.1,0.7,2.3,1.1,3.5,1.4
		c1.4,0.7,2.1,0.7,3.6,1.5c-5.6,9.1-12.6,13.3-37.9,11.2C469.1,156.8,475.4,144.1,487.3,125.2z M458.4,118.8
		c-3.5,5.6-6.3,11.9-8.4,15.4c-6.3,11.9-21.7,37.2,37.2,41.4c51.2,3.5,69.5-2.8,82.8-22.4c8.3,1.4,16.9,1.4,25.2,0
		c-4.9,11.2-17.5,35.1-70.9,35.1h-57.5c-30.9,0-53.3-3.5-87-37.2C379.9,151.1,412.9,116,458.4,118.8z M539.1,245.1
		c-42.1-2.1-68.8,4.2-81.4,23.8H436c17.5-31.6,48.4-37.9,82.8-37.9c71.6,0,174.7,24.5,232.2,58.2
		C704.7,271.7,644.4,251.4,539.1,245.1z M759.4,276.7c-49.1-25.3-141-58.2-256.8-58.2c-51.2,2.8-70.2,12.6-96.1,51.2h-28
		c23.8-42.1,47-66.7,96.8-66.7h61.1c35.8,0,54.7,2.1,75.8-40c0.7-1.4,1.4-2.1,2.1-3.5c9.4-24,30.2-41.6,55.4-47
		c0,0-22.4,14.7,3.5,21.1C725.8,141.2,828.9,160.2,759.4,276.7z"/>
	<path class="st2" d="M544,147.6c-1.2-0.3-2.4-0.7-3.5-1.4c-5.8,6.1-14.2,9-22.4,7.7c-11.9-1.4-18.2-9.8-14.7-18.2
		c0.2-1.5,0.6-3,1.4-4.2c-5.6-2.1-11.9-4.2-17.5-6.3c-11.9,18.9-18.2,31.6,22.4,35.1c25.3,2.1,32.3-2.1,37.9-11.2
		C546.1,148.3,545.4,148.3,544,147.6z"/>
	<path class="st3" d="M338.5,220.5c0,0-16.8-14-35.8-28.7c-18.2-14-27.3-16.1-61.7-16.1H41.7c-30.1,54.6-32.2,70.8-21,88.3
		c11.2,17.6,33.7,19,68.7,19h234.3C309,265.4,317.4,257,338.5,220.5z"/>
</g>
</svg>
