<?xml version="1.0" encoding="utf-8"?>
<!-- Generator: Adobe Illustrator 25.0.0, SVG Export Plug-In . SVG Version: 6.00 Build 0)  -->
<svg version="1.1" id="Layer_1" xmlns="http://www.w3.org/2000/svg" xmlns:xlink="http://www.w3.org/1999/xlink" x="0px" y="0px"
	 viewBox="0 0 914.2 913.4" style="enable-background:new 0 0 914.2 913.4;" xml:space="preserve">
<style type="text/css">
	.st0{fill:#FFFFFF;}
	.st1{fill:#B1B3B6;}
	.st2{fill:#034EA2;}
	.st3{fill:#FDB913;}
	.st4{fill:#E03A3E;}
</style>
<g>
	<path class="st0" d="M245.8,437v4.9h-7.1V437c0-3.5,1.4-5.1,3.5-5.1C244.4,431.9,245.8,433.7,245.8,437z M458.5,454.2
		c0,0.2,0,0.4,0,0.7c170.5-8.4,175.6-170.4,175.7-177.3C467.4,285.8,458.9,441.1,458.5,454.2z M634.3,277.5c0-0.1,0-0.2,0-0.2
		S634.3,277.4,634.3,277.5c0.2,0,0.4,0,0.6,0C634.6,277.6,634.5,277.6,634.3,277.5c0.1,6.9,5.3,169.3,176.4,177.4
		c-0.8-194-157.9-351.1-352.1-351.7C458.5,103.8,460.4,269,634.3,277.5z M458.5,454.9c0.7,17.2,11.5,167.8,175.7,175.9
		C633.5,613.6,622.7,463.1,458.5,454.9z M282.1,277.6c167.4,7.9,175.9,163.6,176.3,176.7c0,0.2,0,0.4,0,0.7c-0.2,0-0.4,0-0.5,0
		c0.2,0,0.4,0,0.5,0c-0.7,17.2-11.5,168.2-176.3,175.9c174.6,8.2,176.4,178.4,176.4,178.9c-0.4,0-0.8,0-1.2,0
		c-195.1,0-353.3-158-353.3-353.3c0-195.1,158.2-353.3,353.3-353.3c0.4,0,0.8,0,1.2,0C458.5,103.8,456.6,269.3,282.1,277.6z
		 M189.8,457.1c0-24.5-24.4-24.5-24.4-37.7c0-4.5,1.4-6.3,4.5-6.3s4.5,2,4.5,6.3v4.1h15.1v-5.9c0-13.4-6.3-18.3-19.4-18.3
		c-14.7,0-19.8,5.7-19.8,19.2c0,25.1,24.2,23.6,24.4,39.1c0,4.5-1.4,6.3-4.5,6.3s-4.5-2-4.5-6.3v-5.3h-15.7v7.1
		c0,13.9,5.7,18.1,19.8,18.1C184.9,477.5,189.8,472.8,189.8,457.1z M220.8,421.5h-7.5v-14.3l-13.9,14.5h-4.3v12.2h4.3v32.8
		c0,5.7,2.6,9.2,7.7,9.2h13.7v-13.4h-3.7c-3.1,0-3.7-0.8-3.7-6.7v-22.2h7.5V421.5z M257.8,438.4c0-12.4-4.1-18.3-16.3-18.3
		c-12.2,0-16.3,5.7-16.3,18.3v24.4c0,9.6,4.9,14.7,16.3,14.7c11.2,0,16.3-5.1,16.3-14.7v-4.9h-12.2v2.9c0,3.5-1.4,4.9-3.5,4.9
		c-2,0-3.5-1.2-3.5-4.9v-8.4h19.2V438.4z M389.9,435.3c0,20.6,20,15.3,20,26.3c0,3.1-0.8,4.3-2.9,4.3s-3.5-1.4-3.5-6.1v-2.4h-13.4
		v4.1c0,9.8,5.1,15.9,16.9,15.9c12.2,0,17.5-6.1,16.9-18.1c0-17.1-20.6-15.1-20.6-24.2c0-2.2,1-3.3,3.1-3.3c1.8,0,3.3,1.4,3.3,3.5
		v3.3v0.6h12.8v-5.1c0-9.2-5.5-13.7-15.7-13.7C395.2,420.5,389.9,426.6,389.9,435.3z M361.3,476.1h13.9v-27.3c0-6.5,3.7-10,8.4-10
		c0.8,0,1.8,0.2,2.6,0.4h0.2v-18.3c-5.5,0.8-7.9,2.6-11.6,11.6h-0.2v-10.8h-13.4h0V476.1z M321.4,462.8c0,9.6,4.9,14.7,16.3,14.7
		c11.2,0,16.3-5.1,16.3-14.7v-4.9h-12.2v2.9c0,3.5-1.4,4.9-3.5,4.9c-2,0-3.5-1.2-3.5-4.9v-8.4H354v-13.9c0-12.4-4.1-18.3-16.3-18.3
		s-16.3,5.7-16.3,18.3V462.8z M302.3,475.9h13.9v-75.2h-13.9V475.9z M280.7,420.2c-12.2,0-16.3,5.7-16.3,18.3v24.4
		c0,9.6,4.9,14.7,16.3,14.7c11.2,0,16.3-5.1,16.3-14.7v-4.9h-12.2v2.9c0,3.5-1.4,4.9-3.5,4.9c-2,0-3.5-1.2-3.5-4.9v-8.4H297v-13.9
		C297,426,292.9,420.2,280.7,420.2z M810.6,454.9C645.8,462.7,635,613.6,634.3,630.9c0.2,0,0.4,0,0.5,0c-0.2,0-0.4,0-0.5,0
		c0,1,0,1.5,0,1.5s0-0.5,0-1.5c-173.9,8.6-175.7,178.4-175.7,178.9c194.6-0.6,352.1-158.4,352.1-353.3
		C810.6,456,810.6,455.4,810.6,454.9z M342,437c0-3.3-1.4-5.1-3.5-5.1c-2.2,0-3.5,1.6-3.5,5.1v4.9h7.1V437z M277.8,437v4.9h7.1V437
		c0-3.3-1.4-5.1-3.5-5.1C279.2,431.9,277.8,433.5,277.8,437z M907.2,456.7c0,60.8-11.9,119.8-35.4,175.3
		c-22.7,53.6-55.1,101.7-96.5,143c-41.3,41.3-89.5,73.7-143.1,96.4c-55.5,23.5-114.4,35.4-175.2,35.4c-60.7,0-119.7-11.9-175.2-35.4
		c-53.6-22.7-101.7-55.1-143.1-96.4c-41.3-41.3-73.8-89.4-96.5-143C18.9,576.4,7,517.5,7,456.7C7,395.9,18.9,337,42.4,281.5
		c22.7-53.6,55.1-101.7,96.4-143.1c41.3-41.3,89.5-73.8,143.1-96.4C337.4,18.5,396.4,6.6,457.1,6.6c60.8,0,119.8,11.9,175.3,35.4
		c53.6,22.7,101.7,55.1,143,96.5c41.3,41.3,73.7,89.5,96.4,143.1C895.3,337,907.2,395.9,907.2,456.7z M882.1,456.7
		c0-234.7-190.1-425-425-425c-234.7,0-425,190.3-425,425c0,234.9,190.3,425,425,425S882.1,691.6,882.1,456.7z"/>
	<path class="st1" d="M457.1,31.7c-234.7,0-425,190.3-425,425c0,234.9,190.3,425,425,425s425-190.1,425-425
		C882.1,222,692,31.7,457.1,31.7z M457.3,809.8c-195.1,0-353.3-158-353.3-353.3c0-195.1,158.2-353.3,353.3-353.3
		c195.3,0,353.3,158.2,353.3,353.3C810.6,651.8,652.4,809.8,457.3,809.8z"/>
	<path d="M213.4,421.5h7.5v12.2h-7.5v22.2c0,5.9,0.6,6.7,3.7,6.7h3.7v13.4h-13.7c-5.1,0-7.7-3.5-7.7-9.2v-32.8h-4.3v-12.2h4.3
		l13.9-14.5V421.5z M257.8,438.4v13.9h-19.2v8.4c0,3.7,1.6,4.9,3.5,4.9c2.2,0,3.5-1.4,3.5-4.9v-2.9h12.2v4.9
		c0,9.6-5.1,14.7-16.3,14.7c-11.4,0-16.3-5.1-16.3-14.7v-24.4c0-12.6,4.1-18.3,16.3-18.3C253.6,420.2,257.8,426,257.8,438.4z
		 M245.8,437c0-3.3-1.4-5.1-3.5-5.1c-2.2,0-3.5,1.6-3.5,5.1v4.9h7.1V437z M165.5,419.4c0-4.5,1.4-6.3,4.5-6.3s4.5,2,4.5,6.3v4.1
		h15.1v-5.9c0-13.4-6.3-18.3-19.4-18.3c-14.7,0-19.8,5.7-19.8,19.2c0,25.1,24.2,23.6,24.4,39.1c0,4.5-1.4,6.3-4.5,6.3
		s-4.5-2-4.5-6.3v-5.3h-15.7v7.1c0,13.9,5.7,18.1,19.8,18.1c15.1,0,20-4.7,20-20.4C189.8,432.5,165.5,432.5,165.5,419.4z
		 M302.3,475.9h13.9v-75.2h-13.9V475.9z M354,438.4v13.9h-19.2v8.4c0,3.7,1.6,4.9,3.5,4.9c2.2,0,3.5-1.4,3.5-4.9v-2.9H354v4.9
		c0,9.6-5.1,14.7-16.3,14.7c-11.4,0-16.3-5.1-16.3-14.7v-24.4c0-12.6,4.1-18.3,16.3-18.3S354,426,354,438.4z M342,437
		c0-3.3-1.4-5.1-3.5-5.1c-2.2,0-3.5,1.6-3.5,5.1v4.9h7.1V437z M423.9,459.4c0-17.1-20.6-15.1-20.6-24.2c0-2.2,1-3.3,3.1-3.3
		c1.8,0,3.3,1.4,3.3,3.5v3.3v0.6h12.8v-5.1c0-9.2-5.5-13.7-15.7-13.7c-11.6,0-16.9,6.1-16.9,14.7c0,20.6,20,15.3,20,26.3
		c0,3.1-0.8,4.3-2.9,4.3s-3.5-1.4-3.5-6.1v-2.4h-13.4v4.1c0,9.8,5.1,15.9,16.9,15.9C419.2,477.5,424.5,471.4,423.9,459.4z
		 M374.8,432.5h-0.2v-10.8h-13.4h0v54.4h13.9v-27.3c0-6.5,3.7-10,8.4-10c0.8,0,1.8,0.2,2.6,0.4h0.2v-18.3
		C380.9,421.7,378.5,423.5,374.8,432.5z M297,438.4v13.9h-19.2v8.4c0,3.7,1.6,4.9,3.5,4.9c2.2,0,3.5-1.4,3.5-4.9v-2.9H297v4.9
		c0,9.6-5.1,14.7-16.3,14.7c-11.4,0-16.3-5.1-16.3-14.7v-24.4c0-12.6,4.1-18.3,16.3-18.3S297,426,297,438.4z M284.9,437
		c0-3.3-1.4-5.1-3.5-5.1c-2.2,0-3.5,1.6-3.5,5.1v4.9h7.1V437z"/>
	<path class="st2" d="M458.5,453.3c0,0-1.6,169.3-176.4,177.5c174.8,8.2,176.4,178.9,176.4,178.9s1.6-170.7,176.4-178.9
		C460.1,622.6,458.5,453.3,458.5,453.3z"/>
	<path class="st3" d="M458.5,103.2c0,0-1.6,166.2-176.4,174.4c174.8,8.2,176.4,177.5,176.4,177.5s1.6-169.3,176.4-177.5
		C460.1,269.3,458.5,103.2,458.5,103.2z"/>
	<path class="st4" d="M634.3,277.4c0,0-1.6,169.3-176.4,177.5c174.8,8.2,176.4,177.5,176.4,177.5s1.6-169.3,176.4-177.5
		C635.8,446.7,634.3,277.4,634.3,277.4z"/>
</g>
</svg>
