<?xml version="1.0" encoding="utf-8"?>
<!-- Generator: Adobe Illustrator 25.0.0, SVG Export Plug-In . SVG Version: 6.00 Build 0)  -->
<svg version="1.1" id="Layer_1" xmlns="http://www.w3.org/2000/svg" xmlns:xlink="http://www.w3.org/1999/xlink" x="0px" y="0px"
	 viewBox="0 0 938.6 862" style="enable-background:new 0 0 938.6 862;" xml:space="preserve">
<style type="text/css">
	.st0{fill:#FFFFFF;}
	.st1{fill-rule:evenodd;clip-rule:evenodd;fill:#00143F;}
	.st2{fill-rule:evenodd;clip-rule:evenodd;fill:#C9243F;}
</style>
<g>
	<path class="st0" d="M493.9,524.9l-70,10.4l17.8,75.7l-60.9-69.2l-69.9,10.4l32.3-53.3l-60.9-69.2l80.9,36.5l32.3-53.2l17.6,75.7
		L493.9,524.9z M938.5,352c-1.9,40.3-21.9,77.6-57.9,108.1c-34.9,29.6-84.2,52.2-146.2,67.5c-36,87.5-91.7,139.6-133,178
		c-30.2,28.2-54,50.4-57,73.3c-1.1,8.3-6.3,15.6-14,19l-124.9,56.6c-1.7,0.8-3.6,1.4-5.7,1.7l-28.8,5.2c-0.5,0.2-1.1,0.3-1.7,0.3
		c-0.9,0.2-2,0.2-3,0.2c-3.8,0-7.6-0.9-11-2.7l-158-71.6c-7.9-3.5-13.4-11-14.2-19.7c-0.8-8.7,3-17,10.1-22L227,722
		c17.9-93.3-25.6-169.6-140.2-246.3c-6.6-4.4-10.5-11.8-10.7-19.8c-0.2-8,3.6-15.6,10.1-20.1l55.1-39.3
		C88.7,355.8,50,313.3,26.4,269.7C0,221.2-6.8,172.6,6.9,129.3C31.9,49.6,120.8,0,238.8,0c42.6,0,87.6,6.5,133.8,18.9
		c10.9,3,18.3,13.2,17.8,24.5c-0.5,11.3-8.8,20.9-20,22.8c-84.8,14.8-137.1,40.3-139.7,68.1c-2,20.8,22.2,50.8,66.7,82.6
		c54.9,39.2,138.9,80.9,249.7,123.8l70.7,2.7c47.8-5.4,88.4-15.1,117.9-28c26.6-11.6,43.4-25.8,47.4-40
		c5.8-20.5-13.5-49.6-54.8-81.8c-9.1-7.2-12-20-6.5-30.4c4.2-8,12.6-12.9,21.4-12.9c2.5,0,5,0.3,7.4,1.1
		c56.8,18.1,104.6,46.3,138.2,81.5C923.3,269.4,940.7,310.6,938.5,352z M541.6,364.4C145.2,211.3,118.9,85.8,366.5,42.3
		c-309.5-84-490,140.2-183.8,354.2l-82.1,58.7c87.2,58.4,179.7,144.6,148.4,280.4l-41.4,29.6l159.1,72.1
		C514.4,675.2,591.8,517.7,541.6,364.4z M742.9,174.7C879,281.2,784.4,349.2,618.5,367.7c42,176.9-86.7,338.9-223,464.4l124.9-56.6
		c9.3-71.9,136-109.2,196.1-268.8C998.7,443.7,952.6,241.4,742.9,174.7z"/>
	<path class="st1" d="M541.6,364.4C145.2,211.3,118.9,85.8,366.5,42.3c-309.5-84-490,140.2-183.8,354.2l-82.1,58.7
		c87.2,58.4,179.7,144.6,148.4,280.4l-41.4,29.6l159.1,72.1C514.4,675.2,591.8,517.7,541.6,364.4z M441.7,611l-60.9-69.2l-69.9,10.4
		l32.3-53.3l-60.9-69.2l80.9,36.5l32.3-53.2l17.6,75.7l80.9,36.3l-70,10.4L441.7,611z"/>
	<path class="st2" d="M742.9,174.7C879,281.2,784.4,349.2,618.5,367.7c42,176.9-86.7,338.9-223,464.4l124.9-56.6
		c9.3-71.9,136-109.2,196.1-268.8C998.7,443.7,952.6,241.4,742.9,174.7z"/>
</g>
</svg>
