<?xml version="1.0" encoding="utf-8"?>
<!-- Generator: Adobe Illustrator 25.0.0, SVG Export Plug-In . SVG Version: 6.00 Build 0)  -->
<svg version="1.1" id="Layer_1" xmlns="http://www.w3.org/2000/svg" xmlns:xlink="http://www.w3.org/1999/xlink" x="0px" y="0px"
	 viewBox="0 0 815.9 576" style="enable-background:new 0 0 815.9 576;" xml:space="preserve">
<style type="text/css">
	.st0{fill:#FFFFFF;}
	.st1{fill:#658EC9;}
	.st2{fill:#1F3162;}
	.st3{fill:#C3C7CF;}
	.st4{fill:#BF2026;}
</style>
<g>
	<path class="st0" d="M738.1,176.6c-34.6-34.5-77.9-56.7-125.6-64.4c-64.6-58.4-140-37.6-143.3-36.6c-1.1,0.3-2.8,0.8-4.7,1.3
		c-23.2,7.8-35.1-1.1-42.9-7.3c-8.6-6.8-18-13.6-27-18.8c-30.8-17.3-74.6-18-111.6-3.1c-24.3,8.3-36.6-2.4-43.9-7.4
		C190.9,7.4,131.8-0.5,69,13.2c-42.3,9.2-59.1,18-59.1,18s29,4.2,59.3,16.8c24.8,10.4,44.5,23.6,59.6,47.6c0,0,9.4,13.9,3.2,18
		c-6.8,4.5-13.9-6.6-13.9-6.6c-0.2,8.1-0.2,16,0.3,22c3.6,63.8,16.5,102.2,47.3,131.5c13.9,13.3,37.6,26.2,74.2,40.6
		c16.7,6.6,25.6,15.2,27.2,34.6c0.8,9.4,4,28,14.9,48.7c13.3,25.6,41.1,59.7,98.6,79.2c9.1,14.4,19.9,27.7,31.9,39.8
		c43.7,43.6,101.7,67.4,163.4,67.4c61.7-0.2,119.5-24.1,163-67.8s67.4-101.7,67.4-163.4C805.8,278,781.9,220.2,738.1,176.6z
		 M728.4,492.5c-40.8,40.8-94.9,63.5-152.7,63.5c-57.6,0.2-112-22.2-152.8-63c-12.8-12.8-23.6-26.7-32.7-41.8
		c-108.8-33.8-108.8-121.8-108.8-121.8s11,15.9,26.6,18.5c13.6,2.3,22.3-9.9,1.8-28.3c-17.8-15.9-36.4-21.4-60.2-30.4
		c-37.2-14.4-60.9-27-73.8-39.3c-30.4-29-40.8-67.4-43.7-121.3c16.2,41.8,43.4,64,64,72c17,6.6,39.2,12.5,41.3,0.3
		c1.5-8.3-3.6-9.7-22.3-17c-30-11.8-44-30.3-62.2-73.5c-18.1-43.2-47.6-68.3-91.6-80.6C128.1,13.1,209.5,17,267,84.5
		c8.6,10.2,22.8,24,38.7,33.2c10,5.8,29.6,8.9,37.6,2.9c9.1-6.8-1.9-21.2-10.7-28.5c-15.7-12.8-41.8-19.1-63.5-20.6
		c36.3-23.2,86.5-25.4,118-7.6c17,9.6,35.9,26.4,47.6,35.8c11.2,9.1,25.1,18.9,41.3,18.8c5.2,0,16.4-0.3,18.9-7.1
		c3.9-10-6.3-19.3-21.7-21.5c0,0,72.5-21,132.4,36.3c46.1,6.5,88.6,27.5,122.1,60.9c40.8,40.8,63.3,95,63.8,152.7
		C791.6,397.3,769.2,451.7,728.4,492.5z M709.5,204.8c-35.9-35.8-83.5-55.5-134.2-55.5s-98.4,19.8-134.2,55.5
		c-35.8,35.9-55.5,83.5-55.5,134.2c0,50.7,19.8,98.4,55.5,134.2c35.9,35.8,83.5,55.5,134.2,55.5c104.6,0,189.6-85.2,189.8-189.8
		C765,288.3,745.3,240.6,709.5,204.8z M575.4,512.2c-95.7,0.2-173.4-77.4-173.6-173.1s77.4-173.4,173.1-173.6
		c95.7,0,173.4,77.4,173.6,173.1C748.7,434.4,671.1,512.1,575.4,512.2z M446.1,281.8h127.1L532.9,304l0-0.1h-51.3l-17,30.1
		l-22.8-64.4L446.1,281.8z M703.8,281.8L685.4,334l-16.8-30.1h-50.4L575.4,491V281.8H703.8z"/>
	<path class="st1" d="M716.3,198c-32.4-32.4-74-52.3-119-57.2c-38.7-38.5-77.2-36.8-77.2-36.8c16.8,10.7,8.3,34.3-29.5,39.5
		c-37.2,5.2-84.7-7.4-107.7-34.3c-23.8-27.7-41.8-29-41.8-29c20.6,13,22,28.3,34.6,52c12.5,23.5,38.2,32.1,60.7,33.5
		c23.6,1.6,24.1,12.3,5.2,23.5c-20.7,12.3-39.2,0.6-52.6-12.5c-21-20.9-42.1-24.8-71.2-24.4c-29,0.3-67.5,4.2-99.9-7.9
		c-32.4-12.3-53.9-55-53.9-55c16,56.7,51.6,83.5,84.8,90c43.7,8.6,74,18.9,92.4,34c18,14.6,27.7,29.3,34.5,49.4
		c5.2,15.5,6.2,36.1,1,37.4c-6,1.5-7.3-6.8-14.4-21.4c-7.8-16-17.2-28.5-36.1-38.7c-25.6-13.6-50.7-12.8-76.3-12.5
		c-20.2,0.3-32.1-2.1-32.1-2.1s0.8,2.8,33.8,10c36.8,8.3,72.2,29,95.8,79.5c20.1,42.9,9.6,73.2-35,59.4c0,0,20.9,46.3,88.9,62.8
		c8.7,15.4,19.8,29.8,32.5,42.6c37.7,37.7,87.8,58.4,141,58.4s103.5-20.7,141-58.4c37.7-37.7,58.4-87.8,58.4-141
		C774.7,285.7,754,235.7,716.3,198z M575.3,528.7c-50.7,0-98.3-19.8-134.2-55.5c-35.8-35.8-55.5-83.5-55.5-134.2
		c0-50.7,19.8-98.3,55.5-134.2c35.8-35.8,83.5-55.5,134.2-55.5s98.3,19.8,134.2,55.5C745.3,240.6,765,288.3,765,339
		C764.9,443.6,679.9,528.7,575.3,528.7z"/>
	<path class="st2" d="M727.8,187c-33.5-33.4-75.9-54.4-122.1-60.9c-59.9-57.3-132.4-36.3-132.4-36.3c15.4,2.3,25.6,11.5,21.7,21.5
		c-2.6,6.8-13.8,7.1-18.9,7.1c-16.2,0.2-30.1-9.7-41.3-18.8c-11.7-9.4-30.6-26.2-47.6-35.8c-31.6-17.8-81.8-15.5-118,7.6
		c21.7,1.5,47.8,7.8,63.5,20.6c8.7,7.3,19.8,21.7,10.7,28.5c-7.9,6-27.5,2.9-37.6-2.9c-15.9-9.2-30.1-23-38.7-33.2
		C209.5,17,128.1,13.1,61.1,29.8c44,12.3,73.5,37.4,91.6,80.6c18.1,43.2,32.2,61.7,62.2,73.5c18.8,7.3,23.8,8.7,22.3,17
		c-2.1,12.1-24.3,6.3-41.3-0.3c-20.6-8.1-47.8-30.3-64-72c2.9,53.9,13.3,92.3,43.7,121.3c13,12.3,36.6,24.9,73.8,39.3
		c23.8,9.1,42.4,14.6,60.2,30.4c20.6,18.5,11.8,30.6-1.8,28.3c-15.5-2.6-26.6-18.5-26.6-18.5s0,87.9,108.8,121.8
		c9.1,15.1,19.9,29,32.7,41.8c40.8,40.8,95.2,63.1,152.8,63c57.8,0,111.9-22.7,152.7-63.5c40.8-40.8,63.1-95.2,63.1-152.8
		C791.1,282,768.6,227.8,727.8,187z M304.1,67c19.4-11.2,57.8-11.7,85.5,12.6c24.8,21.7,36.9,33.4,54.9,40.2
		c-38.7-1.1-54.4-16.4-78.4-35.8C336.6,60.5,304.1,67,304.1,67z M114.5,34.8c43.1-7.9,79.2,5.5,106.5,53.9
		c26.7,47.4,75.6,48.6,75.6,48.6c-37.1,10.5-87.8,1-114.3-46.6C150.8,33.8,114.5,34.8,114.5,34.8z M219.2,260.8
		c-65.1-17.5-65.6-74.3-65.6-74.3s9.7,39.3,85.3,54.9c75.1,15.2,80.3,68,80.3,68C297.9,279.9,264.7,272.9,219.2,260.8z M716.1,479.9
		c-37.6,37.7-87.8,58.4-141,58.4s-103.3-20.7-141-58.4c-12.8-12.8-23.8-27.2-32.5-42.6c-68-16.5-88.9-62.8-88.9-62.8
		c44.5,13.8,55-16.5,35-59.4c-23.6-50.5-59.1-71.2-95.8-79.5c-33-7.3-33.8-10-33.8-10s11.8,2.4,32.1,2.1
		c25.6-0.3,50.7-1.1,76.3,12.5c18.9,10.2,28.3,22.7,36.1,38.7c7.1,14.6,8.4,22.8,14.4,21.4c5.2-1.3,4.2-21.9-1-37.4
		c-6.8-20.1-16.5-34.8-34.5-49.4c-18.5-15.1-48.7-25.4-92.4-34c-33.2-6.5-68.8-33.4-84.8-90c0,0,21.5,42.7,53.9,55
		c32.4,12.1,70.9,8.3,99.9,7.9c29.1-0.3,50.2,3.6,71.2,24.4c13.4,13.1,31.9,24.8,52.6,12.5c18.9-11.2,18.5-21.9-5.2-23.5
		c-22.5-1.5-48.2-10-60.7-33.5c-12.6-23.6-14.1-39-34.6-52c0,0,18,1.3,41.8,29c23,26.9,70.4,39.5,107.7,34.3
		c37.7-5.2,46.3-28.8,29.5-39.5c0,0,38.5-1.8,77.2,36.8c45,4.9,86.6,24.8,119,57.2c37.7,37.7,58.4,87.8,58.3,140.9
		C774.6,392.1,753.9,442.1,716.1,479.9z M574.9,165.6c-95.7,0.2-173.2,77.9-173.1,173.6s77.9,173.2,173.6,173.1
		c95.7-0.2,173.2-77.9,173.1-173.6C748.3,243,670.6,165.6,574.9,165.6z M565.2,204l9.6-30.6l10,30.4l32.1-0.3l-25.7,18.9l10.2,30.4
		l-26.1-18.6l-25.7,19.1l9.7-30.6l-26.1-18.6L565.2,204z M481.9,411.7l-3.1,31.9l-16.2-27.7l-31.2,7l21.4-24l-16.4-27.5l29.3,13
		l21.2-24.1l-3.1,31.9l29.5,12.8L481.9,411.7z M575.4,491l-42.6-187l40.3-22.2L532.9,304l0-0.1h-51.3l-17,30.1l-22.8-64.4h266.5
		l-4.4,12.3h0L685.4,334l-16.8-30.1h-50.4L575.4,491z M687.8,416.1l-15.7,28l-3.6-31.9l-31.4-6.5l29.3-13.3l-3.7-31.9l21.5,23.8
		l29.1-13.3l-15.9,27.8l21.7,23.6L687.8,416.1z"/>
	<polygon class="st3" points="441.7,269.5 446.1,281.8 573.2,281.8 532.9,304 575.4,491 575.4,281.8 703.8,281.8 708.2,269.5 	"/>
	<path class="st4" d="M319.3,309.4c-21.4-29.5-54.6-36.4-100.1-48.6c-65.1-17.5-65.6-74.3-65.6-74.3s9.7,39.3,85.3,54.9
		C314.1,256.6,319.3,309.4,319.3,309.4z M182.3,90.6c26.6,47.6,77.2,57.2,114.3,46.6c0,0-48.9-1.1-75.6-48.6
		c-27.4-48.4-63.5-61.8-106.5-53.9C114.5,34.8,150.8,33.8,182.3,90.6z M389.6,79.6c-27.7-24.3-66.1-23.8-85.5-12.6
		c0,0,32.5-6.5,62,17c24,19.4,39.7,34.6,78.4,35.8C426.5,113,414.3,101.3,389.6,79.6z M697.5,398.9l15.9-27.8l-29.1,13.3l-21.5-23.8
		l3.7,31.9l-29.3,13.3l31.4,6.5l3.6,31.9l15.7-28l31.4,6.5L697.5,398.9z M486.9,360.2l-21.2,24.1l-29.3-13l16.4,27.5l-21.4,24
		l31.2-7l16.2,27.7l3.1-31.9l31.4-6.8l-29.5-12.8L486.9,360.2z M584.8,203.8l-10-30.4l-9.6,30.6l-32.1,0.2l26.1,18.6l-9.7,30.6
		l25.7-19.1l26.1,18.6l-10.2-30.4l25.7-18.9L584.8,203.8z"/>
</g>
</svg>
