<?xml version="1.0" encoding="utf-8"?>
<!-- Generator: Adobe Illustrator 25.0.0, SVG Export Plug-In . SVG Version: 6.00 Build 0)  -->
<svg version="1.1" id="Layer_1" xmlns="http://www.w3.org/2000/svg" xmlns:xlink="http://www.w3.org/1999/xlink" x="0px" y="0px"
	 viewBox="0 0 672.5 896" style="enable-background:new 0 0 672.5 896;" xml:space="preserve">
<style type="text/css">
	.st0{fill:#FFFFFF;}
	.st1{fill:#4F2683;}
	.st2{fill:#EEC6A5;}
	.st3{fill:#EEBF1B;}
</style>
<g>
	<path class="st0" d="M659.3,503.2c-3.8-4.7-10.1-8.1-19.1-10c0.9-4,1.5-8.3,1.2-12.9c2-0.9,4.1-2,6.1-3.1l1.4-0.8
		c3.8-2,6.3-5.8,6.6-10.1c0.8-10.9-3.4-26.2-15.9-39.2c2-3.1,3.7-6.7,4-11c0.5-5.4-1.1-13.3-10.7-20.4c-11.9-8.6-13.9-14.6-17-23.6
		c-0.3-0.8-0.6-1.7-0.9-2.6c19.5-16.7,24.1-43,16.4-61.7c-1.8-4.4-5.8-7.4-10.6-7.7c-0.3,0-0.5,0-0.8,0c-4.4,0-8.6,2.5-10.7,6.3
		c-3.1,5.4-6.3,9.5-9.5,12.3c-13-30.2-30.3-57.3-51.6-80.6c-21.4-23.4-46.9-43.4-75.7-59c-63.9-34.8-126.2-40-157.8-40
		c-5.2,0-10.4,0.2-15.5,0.5c-6,0.3-10.7,4.9-11.5,10.7c-0.6,4.4-1.7,10.9-3.1,16.4c-28.3-12.1-38.6-39.2-50.2-70.2
		c-6.6-17.5-13.5-35.7-24.2-51.2l-0.2-0.2c-10.1-14.1-30.8-38.5-55.6-43c-0.2-0.2-0.3-0.2-0.5-0.2C153,2,152.1,2,151.2,2
		c-5.2,0-10,2.1-13,6c-3.1,3.7-4.3,8.4-3.4,12.9c0.6,3.2,2.6,6,5.2,7.8c40.4,27.4,44.6,76,48.7,122.9c3.5,40.3,25.6,65.3,49.2,84.7
		c-6.6,1.1-13.3,1.7-20.4,1.7c-23.7,0-47.3-6.6-64.6-18.2c-0.2,0-0.2,0-0.2,0c-37.1-24.4-41.8-65.1-46.7-108.3
		c-2.1-19-4.3-38.6-9.5-57c0-0.2-0.2-0.3-0.2-0.5C90,34,81,12.4,62,2.5C58.9,0.9,55.6,0,52.4,0C46.1,0,40.4,3.2,38,8.4
		c-2.6,4.7-2,10.7,1.2,15.3c11.6,16.5,17.6,32.2,18.5,47.9c0,14.6-0.9,29.7-1.8,44.4c-2.6,39.4-5.2,80,10.4,118c0,0,0.2,0.2,0.2,0.3
		c15.6,34.8,38.5,65.6,65.9,89c25.6,21.9,54.4,37.1,85.8,45.3c-0.8,18.5,1.1,35.1,3.5,50.4c-34.8,19.3-65.3,39.2-98,70.6
		C86.1,525.6,47.8,574.5,3.2,643.4c-0.3,0.3-0.6,0.8-0.8,1.2c-3.2,6.4-3.2,13.3,0,18.4c2.6,4.3,7.4,6.9,12.4,6.9
		c4.9,0,9.7-2.1,14.6-6.7c51-47.5,112.7-74.6,169.4-74.6c59.7,0,109.5,29.1,148.1,86.7c42.4,66.9,39.5,113.8,36.8,159.2l-0.2,2.5
		c0,0.3,0,0.5,0,0.8c0,3.7-0.8,8.3-1.5,13.2c-1.1,7-2.3,14.4-1.5,21.4c1.4,13.5,9,19.5,15.3,22.1c2.6,1.1,5.5,1.7,8.4,1.7
		c11,0,21.1-8.1,30-24.2c3.1-5.5,7.5-15.2,9.3-22.5c3.5-5.4,5.1-11.9,5.7-16.4c3.7-6.3,4.6-14.9,4.7-20.7c10.1-15,16.7-41.7,8.1-61
		c2.8-12.9,2.5-32.9-2.3-46.7c1.8-10.1,5.8-38.5-2.8-58.7c10.7-10.7,23.1-20.2,36.5-27.6c4.6,36.5,6.4,74.8-20.2,95.7
		c-5.2,3.8-7.7,10.1-5.8,15.9c1.7,5.8,7,9.7,13.6,9.7c1.7,0,3.4-0.3,5.2-0.8c0.2,0,0.5-0.2,0.6-0.2c25.4-8.6,45.8-31.7,61-68.9
		c11.6-28.8,17.5-59.3,20.5-75.7c0.3-1.7,0.6-3.4,0.9-4.7c14.1-6.1,39.7-13.9,58.8-19.8c11.5-3.5,21.3-6.6,27.1-8.7h0.2
		c8.3-3.1,13.9-9.2,16.1-17.2C676.4,525,660.7,504.8,659.3,503.2z M651,549.5c-16.9,6.3-72.8,21.3-92.4,31.6
		c-4.1,13.9-16.7,126.4-75.7,146.1c-4.4,1.2-4.9-1.5-2.5-3.2c36.6-28.8,28.3-82.3,22.8-124.1c-22.4,9.5-44.6,25.1-61.6,44.3
		c11.8,14.9,8.4,47.3,5.2,61.6c5.8,13.2,5.4,37.5,1.8,47c10.6,16.4,2.1,44.6-7.4,55.8c0.8,6.1-1.1,17.6-4.3,20.1
		c-0.3,5.2-1.8,12.3-5.4,15.8c0,5.5-15.8,45.5-31.6,38.8c-14.7-6.3-4.7-29-4.7-45.3c2.9-47,6.7-97.6-38.6-169.1
		c-94.4-141.2-244.8-99.3-336.1-14.4c-7.8,7.2-10.6,1.7-7.7-4.1c93.1-144,149.4-185.2,221.8-224.4c-4-22.4-6.3-42.7-4.1-66.5
		C163.3,345,107.7,296.6,77.6,229.5c-20.4-49.3-7.5-105.2-7.8-157.9C68.7,51,60.5,33.1,49.3,16.7c-2.3-3.2,2.5-6.1,7.4-3.4
		c15.6,8.1,23.4,29,28.3,44.3c16.4,58.8,1.7,133.1,61.3,172.2c29.4,19.8,71.8,25.6,107.2,15.5c1.2-2.8,3.5-7.4,5.1-8.7
		c-27.4-20.5-53.8-44.3-57.4-86.2c-4.4-49.8-9-101.4-54.1-131.9c-0.5-1.7,1.1-4.7,5.4-4.1c21.8,4.1,40.9,28.2,47.9,38.1
		c30,43.7,28.3,113.2,92.1,129.9c4.9-8.7,7.7-30.5,7.7-30.5c87.6-4.7,235.3,32.9,293.4,183.2c11.8-1.7,20.2-11.3,26.7-22.5
		c6.4,15.8,1.2,40.6-20.1,52.7c6.9,14.1,5.1,25.4,25.6,40.4c15.5,11.2-4.9,21.8-4.9,21.8c20.7,13.3,23,31.9,22.5,38.1
		c-5.4,2.8-11,5.5-15.9,8.3c4.4,10.1-0.8,20.5-2.5,29.9c11.5,0.5,21.4,2.6,24.8,7C656.5,519.2,668.6,542.7,651,549.5z M259.3,211.6
		c-14.2,2.3-22.7-8.3-31.6-20.2c-25.9-34.5-9.7-73.4-39.4-138.5c27.3,20.2,40.4,114.3,82.7,129.6C279.5,185.5,276,208,259.3,211.6z
		 M411.1,363.2c-30.3,45.7-65.1-18.4-142-15c-65.3,3.1-118.4-30.3-161.8-83.9C75.5,224.9,66.8,149.8,78.5,90.4
		c13.9,111.4,35.5,127.9,65,149.2c62.5,45.2,164.5-3.5,222.9,16.2C441.9,278,429.2,336.1,411.1,363.2z"/>
	<path d="M649.6,510.7c-3.4-4.4-13.3-6.6-24.8-7c1.7-9.3,6.9-19.8,2.5-29.9c4.9-2.8,10.6-5.5,15.9-8.3c0.5-6.3-1.8-24.8-22.5-38.1
		c0,0,20.4-10.6,4.9-21.8c-20.5-15-18.7-26.3-25.6-40.4c21.3-12.1,26.5-36.9,20.1-52.7c-6.4,11.2-14.9,20.8-26.7,22.5
		c-58.1-150.3-205.7-188-293.4-183.2c0,0-2.8,21.8-7.7,30.5c-63.7-16.7-62-86.2-92.1-129.9c-7-10-26.2-34-47.9-38.1
		c-4.3-0.6-5.8,2.5-5.4,4.1c45,30.5,49.6,82.1,54.1,131.9c3.7,42,30,65.7,57.4,86.2c-1.5,1.4-3.8,6-5.1,8.7
		c-35.4,10.1-77.8,4.3-107.2-15.5C86.7,190.7,101.4,116.4,85,57.6c-4.9-15.3-12.7-36.2-28.3-44.3c-4.9-2.8-9.7,0.2-7.4,3.4
		C60.5,33.1,68.7,51,69.8,71.5c0.3,52.7-12.6,108.6,7.8,157.9c30,67.1,85.6,115.5,153.2,129.8c-2.1,23.7,0.2,44.1,4.1,66.5
		c-72.5,39.2-128.7,80.4-221.8,224.4c-2.9,5.8-0.2,11.3,7.7,4.1c91.3-84.9,241.7-126.8,336.1,14.4c45.3,71.5,41.5,122.1,38.6,169.1
		c0,16.4-10,39.1,4.7,45.3c15.8,6.7,31.6-33.2,31.6-38.8c3.5-3.5,5.1-10.6,5.4-15.8c3.2-2.5,5.1-13.9,4.3-20.1
		c9.5-11.2,17.9-39.4,7.4-55.8c3.5-9.5,4-33.9-1.8-47c3.2-14.2,6.6-46.7-5.2-61.6c17-19.1,39.2-34.8,61.6-44.3
		c5.5,41.8,13.8,95.3-22.8,124.1c-2.5,1.7-2,4.4,2.5,3.2c59-19.8,71.5-132.2,75.7-146.1c19.6-10.3,75.5-25.3,92.4-31.6
		C668.6,542.7,656.5,519.2,649.6,510.7z M618.8,409.2c6.7,2.1,3.2,7.4,3.2,7.4c-12.1,2.9-35.8,14.4-39.8,6.4
		c-3.4-7,12.4-8.1,15.2-11.6c1.4-1.8,0.2-5.1-3.5-5.8c-8.7,0.2-13.5,0.3-17,1.4c-7.4,6.1-6.7,21.3-3.5,26.2
		c-15.9,7.4-31.7,23.4-40.7,33.1c-4.1-20.8,11.2-35.7,26.3-46.4c3.5-3.2,1.4-24.2-1.4-34.9c-2.8-1.2-7.7,0-8.1-2.5
		c0-2.3,19-2.8,27-3.1c-2-13.2,13.8-15.3,18.2-7.8C600.6,384.2,600.6,403,618.8,409.2z M614.7,330.9c-0.9,10-7.5,19-16.5,24.2
		c-25.3,11-59-5.2-82.1,10.7c0.3-8.6,4.7-20.7,17.9-21.6C567.2,342.8,590.8,353.6,614.7,330.9z M579.6,335
		c-45.3-2.3-95,4.6-136.2,17c-6.3,63.7-81.5,87.6-125.6,38.8c0,0-16.5,3.7-67.1,26.7c-6.1-8.4-11.5-28.6-1.8-33.2
		c13-7.2,23-13,36.6-16.2c11.3-2.6,29.6,3.2,38.5,5.7c50.1,30,101.1,30.8,114-58.4c0,0,64.8-15.9,125.9-11.8
		C563.8,303.5,573.5,316.8,579.6,335z M245.1,373.3v-11l19,2.8C258.2,366.7,251.7,370.1,245.1,373.3z M308.5,160.4
		c193.3,4.9,249.2,133,249.2,133c-37.1-3.1-84.7,3.8-122.2,11.8c-20.1-50.9-50.4-71.7-166.1-61.7
		C285.2,214.5,304.5,195.5,308.5,160.4z M227.8,191.3c-25.9-34.5-9.7-73.4-39.4-138.5c27.3,20.2,40.4,114.3,82.7,129.6
		c8.4,3.1,4.9,25.6-11.8,29.1C245.1,213.9,236.6,203.3,227.8,191.3z M107.3,264.3C75.5,224.9,66.8,149.8,78.5,90.4
		c13.9,111.4,35.5,127.9,65,149.2c62.5,45.2,164.5-3.5,222.9,16.2c75.5,22.2,62.8,80.3,44.7,107.4c-30.3,45.7-65.1-18.4-142-15
		C203.9,351.3,150.7,317.9,107.3,264.3z M87.7,593.1c-18.5,12.6-33.1,23.1-51.2,41.1c-1.7,1.2-2.5-0.9-0.8-2.9
		c110.3-164.5,241.6-217.2,273.6-225.3c6.1-1.2,5.5,2.1,3.1,3.8c-60.4,23.3-160.7,83-203.6,155.6C102.3,576.3,97.1,586.9,87.7,593.1
		z M170.8,568c-23.1,6.6-42.4,11.6-62.5,18.8c-1.8,0.8-4.7,0.3-3.7-2c47.3-85.2,134-136.3,217.5-172.6c2.5-1.2,4.1,1.7,2.1,2.5
		c-61.7,30.2-106.5,90.1-143.8,146.3C179.5,562.4,174.1,567.1,170.8,568z M193.1,566c-3.2-1.2-2.9-4.7-2.1-6.7
		c39.8-48.7,70.9-110.8,131.6-135.7c4.7-1.4,11.2-4.7,16.2-2.8c11.8,4.9,31.7,12.3,56.4,5.7c48.9-15.2,55.1-62.5,55.1-62.5
		c12.1-3.1,24.2-6.9,37.4-8.3c-14.2,82.1-128.5,116-133,201.9c-34,6.6-76.3-19.9-82.7-59.6c-8.4,16.9-19.8,36.8-39.5,54.1
		C221.2,561,204.6,569.7,193.1,566z M415.3,668.5c-7.4-6.1-14.1-13.2-23.1-15.9c-1.1-31.9,20.8-68,28.2-79.2
		c2.8-4.4,5.7-1.5,7.2,4.3C443.4,626.2,419.2,646.6,415.3,668.5z M436.2,650.1c7.8,4.9,3.7,44.9-4.9,65.4
		c-6.1-8.7-13.3-16.1-17.2-20.1C419.5,682.5,432.6,648.4,436.2,650.1z M422.9,491.1c-1.2,0.6-1.1,9.3-1.1,9.3
		c0.3,66.3-34.9,80.1-34.6,120.6c-7-5.7-16.2-13.6-25.3-17.2c-15.9-62.5,61.1-145.4,65.4-141.7C429.2,464.2,424.6,489.7,422.9,491.1
		z M228.8,565c18.4-11.5,32.2-31.3,39.4-46.1c2,5.2,5.2,10.9,7.2,15.9c-9.3,11.5-23,27.3-36.8,32.3C233.6,568,225.6,568.2,228.8,565
		z M319.5,608.8c-21.4-18.4-44.4-30-70.5-37.7c10.1-7.4,23.6-19.8,31.6-30.2c1.4,1.2,3.2,3.4,4.3,4.4c-0.9,26.3,12.4,46.9,35.5,59
		C324.1,606,321.7,610.9,319.5,608.8z M294.2,553.3c18.4,12.6,38,18.1,58.8,16.7v30C295.3,593.3,294.2,553.3,294.2,553.3z
		 M354.1,643.2c-6.1-3.7-30.8-26.7-21.8-34c9.7-10,52.2,18.4,52.2,18.4c-0.5,6.9-2.1,13.5-1.2,20.7
		C383.4,648.3,360.7,647.7,354.1,643.2z M372.2,674.9c-3.2-5.8-9.3-12.9-5.8-17.5c5.7-5.2,31.6,3.7,44.9,18.2
		c-1.5,6.4-3.4,11-4.7,17.6C393.3,691.2,379.1,688.7,372.2,674.9z M394.7,719.8c-2.8-4.9-6.9-16.1-2.5-19.8
		c5.4-3.1,28.2,8.1,35.8,21.9c1.2,3.2-5.1,15-7.5,15.5C418.3,738.5,398.4,728.7,394.7,719.8z M430.3,767.2c0,4.7-4,11-6,10.9
		c-2.5,0.8-21.1-10.1-22.5-20.8c-1.1-5.5-1.7-15.6,1.1-16.7C408.1,739,426.1,755.7,430.3,767.2z M402.2,876.9
		c-5.8-3.2-2.5-16.1,1.7-23.1c3.5,2.3,6.3,6.4,9.7,9.8C412.2,866.9,407.9,879.1,402.2,876.9z M416.8,856.8
		c-4.9-5.1-6.6-9.3-12.9-13.2c-2-2-0.3-7,1.4-6.6c4.9,2.3,12.3,10.3,14.2,17.2C420,855.9,418.6,858,416.8,856.8z M422,844.5
		c-4.6-6-10.7-12.1-16.4-17c-2.6-1.5,0.3-6.6,3.2-5.8c6.9,2.3,12.6,12.1,15.6,19.8C424.9,843.9,422.8,845.3,422,844.5z M426.7,831.2
		c-2.5-5.8-14.6-17.9-21.3-23.9c-3.7-2.8,2.6-8.9,5.1-6.9C420.9,808.4,433.3,825.7,426.7,831.2z M430.7,817
		c-4.9-11.5-13.3-22.1-23.7-29c-3.7-2.1-3.2-10.9,0-10.1c12.3,4.1,24.4,19,27.1,31.3C435.3,813.6,432.7,820.6,430.7,817z M444.8,763
		c4,2.9,0.9,24.5-6.3,34.2l-9-12.4C434.4,777.1,442.1,761.3,444.8,763z M442.1,716.5c4.1,2.1-0.2,32.8-7.7,44.7
		c-1.7-7.2-6-11.2-8.1-17.8C428,741,439.6,715.7,442.1,716.5z M441.3,633.6c6.6-27.4-4.1-51.6-14.2-74.1c3.7-17.8,4.3-32.6,6.6-50.4
		c1.4-3.8,6.1-4.6,7.7-2c4.9,39.7,21.1,53.5,56.4,51.8l2.5,26.7C477.6,594.8,458.6,614.1,441.3,633.6z M498.3,546.3
		c-32.8,9.8-51.5-10.3-48.6-55.3c-4-6.3-14.6,8-15.9,3.5c-0.3-47.3,20.4-49.6,28.3-61.1c7.7,1.1,16.2,3.8,20.4,9.5
		c12.7,19.8,9.5,43.7,17.2,65.9c1.8,4,5.5,0,5.5,0c-8.3-30.5,0.8-73.7-36.3-86.6c14.9-20.4,20.7-42.7,27-66.6
		c2.5-2.8,7.7-3.4,10.4-2.3c-1.1,9.3-4.9,17.6-3.5,28.3c0.8,6.4,13-7.7,20.1-11c10-5.1,26-3.8,40-1.8c2.9,0.5,2.5,3.2-0.5,3.7
		c-13.5,1.4-34.3,4.1-35.4,10c0,4.3,15.6,8.7,25,9c1.4,5.1,2.8,11.3,2,17.3c-17.5,8.3-39.5,30.2-27.1,66.3
		C513.3,495.4,504.4,521.1,498.3,546.3z M557.6,557.5C542.7,602.8,536,663,516.7,689.2c-0.3,0.5-1.4,0.5-0.9-0.6
		c22.7-45.2,18.5-85.9,31.9-129.4c0.6-1.7-1.2-3.8-2.6-1.4c-15.2,19.9-17.9,99.4-30.6,123.9c-0.5,0.9-1.8,1.1-1.4-0.8
		c15.3-57.4,3.2-112.7,27-156.9c0.9-1.5-1.8-4.1-4.1-1.4c-10.4,18.8-22.5,57-19.1,102.5c0.3,2.6-1.8,2.9-2.1,0.2
		c-6.6-53-11.8-105.9,25.6-151.7c15.6-19.3,39.2-37.1,55-41.2c37.1-7.8,42.3,27.1,42.3,27.1C593.7,472.1,570.3,519.2,557.6,557.5z
		 M569.8,561.4c-2.1-1.4-2-5.8,0.2-6.6c12.9-3.7,49.5-11.9,51.3-8C621.9,548.1,572.4,562.8,569.8,561.4z M649.8,538.5
		c-27.4-1.4-53.6,1.5-77.2,6.6c4.6-26.8,40.3-67.7,47.5-63.7c6.7,3.7-8,22.8,0.3,28.6c6.3,3.7,13.6,1.2,18.8,3.2
		C650.9,518.5,653.6,537.4,649.8,538.5z"/>
	<path class="st1" d="M563.8,303.5c-61.1-4.1-125.9,11.8-125.9,11.8c-12.9,89.2-63.9,88.4-114,58.4c-8.9-2.5-27.1-8.3-38.5-5.7
		c-13.6,3.2-23.6,9-36.6,16.2c-9.7,4.6-4.3,24.8,1.8,33.2c50.6-23,67.1-26.7,67.1-26.7c44.1,48.9,119.3,25,125.6-38.8
		c41.2-12.4,90.8-19.3,136.2-17C573.5,316.8,563.8,303.5,563.8,303.5z"/>
	<path class="st2" d="M526.8,475c-13.5,20.4-22.4,46.1-28.5,71.2c-32.8,9.8-51.5-10.3-48.6-55.3c-4-6.3-14.6,8-15.9,3.5
		c-0.3-47.3,20.4-49.6,28.3-61.1c7.7,1.1,16.2,3.8,20.4,9.5c12.7,19.8,9.5,43.7,17.2,65.9c1.8,4,5.5,0,5.5,0
		c-8.3-30.5,0.8-73.7-36.3-86.6c14.9-20.4,20.7-42.7,27-66.6c2.5-2.8,7.7-3.4,10.4-2.3c-1.1,9.3-4.9,17.6-3.5,28.3
		c0.8,6.4,13-7.7,20.1-11c10-5.1,26-3.8,40-1.8c2.9,0.5,2.5,3.2-0.5,3.7c-13.5,1.4-34.3,4.1-35.4,10c0,4.3,15.6,8.7,25,9
		c1.4,5.1,2.8,11.3,2,17.3C536.4,417,514.4,438.9,526.8,475z M441.3,507.1c-1.5-2.6-6.3-1.8-7.7,2c-2.3,17.8-2.9,32.6-6.6,50.4
		c10.1,22.5,20.8,46.7,14.2,74.1c17.3-19.5,36.3-38.8,58.8-48.1l-2.5-26.7C462.4,560.5,446.2,546.7,441.3,507.1z M639.2,513.2
		c-5.2-2-12.6,0.5-18.8-3.2c-8.3-5.8,6.4-25-0.3-28.6c-7.2-4-42.9,36.9-47.5,63.7c23.6-5.1,49.8-8,77.2-6.6
		C653.6,537.4,650.9,518.5,639.2,513.2z M570,554.8c-2.1,0.8-2.3,5.2-0.2,6.6c2.6,1.4,52.1-13.3,51.5-14.6
		C619.5,542.9,582.8,551.2,570,554.8z M576.9,406.9c3.5-1.1,8.3-1.2,17-1.4c3.7,0.8,4.9,4,3.5,5.8c-2.8,3.5-18.5,4.6-15.2,11.6
		c4,8,27.7-3.5,39.8-6.4c0,0,3.5-5.2-3.2-7.4c-18.2-6.1-18.2-25-24.2-37.7c-4.4-7.5-20.2-5.4-18.2,7.8c-8,0.3-27,0.8-27,3.1
		c0.5,2.5,5.4,1.2,8.1,2.5c2.8,10.7,4.9,31.7,1.4,34.9c-15.2,10.7-30.5,25.6-26.3,46.4c9-9.7,24.8-25.7,40.7-33.1
		C570.1,428.2,569.5,413,576.9,406.9z"/>
	<path class="st3" d="M294.2,553.3c18.4,12.6,38,18.1,58.8,16.7v30C295.3,593.3,294.2,553.3,294.2,553.3z M320.4,604.3
		c-23.1-12.1-36.5-32.6-35.5-59c-1.1-1.1-2.9-3.2-4.3-4.4c-8,10.4-21.4,22.8-31.6,30.2c26,7.7,49,19.3,70.5,37.7
		C321.7,610.9,324.1,606,320.4,604.3z M275.4,534.8c-2-5.1-5.2-10.7-7.2-15.9c-7.2,14.9-21,34.6-39.4,46.1c-3.2,3.2,4.7,3.1,9.8,2.1
		C252.4,562,266.1,546.3,275.4,534.8z M384.6,627.6c0,0-42.6-28.3-52.2-18.4c-9,7.4,15.6,30.3,21.8,34c6.6,4.4,29.3,5.1,29.3,5.1
		C382.5,641.1,384.2,634.5,384.6,627.6z M442.1,716.5c-2.5-0.8-14.1,24.5-15.8,27c2.1,6.6,6.4,10.6,8.1,17.8
		C441.9,749.2,446.2,718.6,442.1,716.5z M402.8,740.5c-2.8,1.1-2.1,11.2-1.1,16.7c1.4,10.7,20.1,21.6,22.5,20.8c2,0.2,6-6.1,6-10.9
		C426.1,755.7,408.1,739,402.8,740.5z M324.3,414.7c2-0.8,0.3-3.7-2.1-2.5c-83.5,36.3-170.2,87.5-217.5,172.6
		c-1.1,2.3,1.8,2.8,3.7,2c20.1-7.2,39.4-12.3,62.5-18.8c3.4-0.9,8.7-5.7,9.7-7C217.8,504.8,262.5,444.9,324.3,414.7z M435.5,305.2
		c37.5-8,85.2-14.9,122.2-11.8c0,0-55.9-128.1-249.2-133c-4,35.1-23.3,54.1-39.1,83C385.1,233.5,415.4,254.3,435.5,305.2z
		 M534,344.2c-13.2,0.9-17.6,13-17.9,21.6c23.1-15.9,56.8,0.3,82.1-10.7c9-5.2,15.6-14.2,16.5-24.2
		C590.8,353.6,567.2,342.8,534,344.2z M245.1,362.3v11c6.6-3.2,13.2-6.6,19-8.3L245.1,362.3z M312.5,409.8c2.5-1.7,3.1-5.1-3.1-3.8
		c-32,8.1-163.3,60.8-273.6,225.3c-1.7,2-0.9,4.1,0.8,2.9c18.1-17.9,32.6-28.5,51.2-41.1c9.3-6.3,14.6-16.9,21.1-27.7
		C151.8,492.8,252.1,433.1,312.5,409.8z M436.2,650.1c-3.7-1.7-16.7,32.3-22.1,45.3c3.8,4,11,11.3,17.2,20.1
		C439.9,695,444.1,655,436.2,650.1z M408.8,821.7c-2.9-0.8-5.8,4.3-3.2,5.8c5.7,4.9,11.8,11,16.4,17c0.8,0.8,2.9-0.6,2.5-3.1
		C421.4,833.8,415.7,824,408.8,821.7z M407,777.9c-3.2-0.8-3.7,8,0,10.1c10.4,6.9,18.8,17.5,23.7,29c2,3.7,4.6-3.4,3.4-7.8
		C431.3,796.9,419.2,782,407,777.9z M444.8,763c-2.8-1.7-10.4,14.1-15.3,21.8l9,12.4C445.7,787.5,448.8,765.9,444.8,763z
		 M410.5,800.4c-2.5-2-8.7,4.1-5.1,6.9c6.7,6,18.8,18.1,21.3,23.9C433.3,825.7,420.9,808.4,410.5,800.4z M395.2,426.5
		c-24.7,6.6-44.6-0.8-56.4-5.7c-5.1-2-11.5,1.4-16.2,2.8c-60.7,25-91.8,87-131.6,135.7c-0.8,2-1.1,5.5,2.1,6.7
		c11.5,3.7,28-5.1,39.4-13.9c19.8-17.3,31.1-37.2,39.5-54.1c6.4,39.7,48.7,66.2,82.7,59.6c4.4-85.9,118.7-119.8,133-201.9
		c-13.2,1.4-25.3,5.2-37.4,8.3C450.3,364,444.1,411.3,395.2,426.5z M595.1,432.5c-15.8,4.1-39.4,21.9-55,41.2
		c-37.4,45.8-32.2,98.7-25.6,151.7c0.3,2.8,2.5,2.5,2.1-0.2c-3.4-45.5,8.7-83.6,19.1-102.5c2.3-2.8,5.1-0.2,4.1,1.4
		c-23.7,44.1-11.6,99.4-27,156.9c-0.5,1.8,0.9,1.7,1.4,0.8c12.7-24.5,15.5-104,30.6-123.9c1.4-2.5,3.2-0.3,2.6,1.4
		c-13.3,43.5-9.2,84.3-31.9,129.4c-0.5,1.1,0.6,1.1,0.9,0.6c19.3-26.2,26-86.4,40.9-131.7c12.7-38.3,36.2-85.3,79.8-97.9
		C637.4,459.6,632.2,424.6,595.1,432.5z M411.3,675.7c-13.3-14.6-39.2-23.4-44.9-18.2c-3.5,4.6,2.6,11.6,5.8,17.5
		c6.9,13.8,21.1,16.2,34.3,18.4C407.9,686.7,409.7,682.1,411.3,675.7z M361.9,603.9c9,3.5,18.2,11.5,25.3,17.2
		c-0.3-40.4,34.9-54.2,34.6-120.6c0,0-0.2-8.7,1.1-9.3c1.7-1.4,6.3-27,4.4-29C423.1,458.5,346,541.4,361.9,603.9z M420.3,573.4
		c-7.4,11.2-29.3,47.3-28.2,79.2c9,2.8,15.8,9.8,23.1,15.9c4-21.9,28.2-42.3,12.3-90.8C426,571.9,423.1,568.9,420.3,573.4z
		 M420.6,737.4c2.5-0.5,8.7-12.3,7.5-15.5c-7.7-13.8-30.5-25-35.8-21.9c-4.4,3.7-0.3,14.9,2.5,19.8
		C398.4,728.7,418.3,738.5,420.6,737.4z M403.9,853.7c-4.1,7-7.5,19.9-1.7,23.1c5.7,2.3,10-10,11.3-13.3
		C410.2,860.2,407.4,856,403.9,853.7z M405.3,837c-1.7-0.5-3.4,4.6-1.4,6.6c6.3,3.8,8,8.1,12.9,13.2c1.8,1.2,3.2-0.9,2.8-2.6
		C417.6,847.3,410.2,839.3,405.3,837z"/>
</g>
</svg>
